<svg width="113" height="180" viewBox="0 0 113 180" fill="none" xmlns="http://www.w3.org/2000/svg">
<g clip-path="url(#clip0_6799_59616)">
<path d="M41.3623 0H45.1178C73.7764 2.02618 85.9948 36.1743 65.1958 55.7812C63.7728 57.1241 61.8974 58.4246 60.2105 59.6639C60.0534 59.7801 60.066 59.8712 60.2482 59.9372C77.0372 66.1665 87.0267 80.3921 87.0785 98.4817C87.1162 111.977 87.1257 125.464 87.1068 138.944C87.1068 138.958 87.1041 138.972 87.0989 138.985C87.0937 138.999 87.0861 139.011 87.0764 139.021C87.0668 139.031 87.0554 139.039 87.0428 139.044C87.0302 139.05 87.0168 139.052 87.0031 139.052L77.0466 139.132C76.8393 139.136 76.7356 139.239 76.7356 139.443V180H10.3571L10.3524 139.363C10.3524 139.184 10.2628 139.095 10.0838 139.095L0 139.114V98.6796C0.0753927 97.6524 0.125654 96.622 0.150785 95.5885C0.523037 79.2518 11.6764 65.2712 26.8492 59.9136C27.0188 59.8539 27.0283 59.7754 26.8775 59.678C14.1503 51.4414 8.0199 36.1037 13.2314 21.5199C16.9257 11.1723 25.7607 3.10052 36.6408 0.739791C37.4262 0.570157 39 0.32356 41.3623 0ZM68.4094 32.1126C68.4094 28.8435 67.7655 25.6064 66.5145 22.5862C65.2635 19.5659 63.4298 16.8216 61.1182 14.51C58.8066 12.1985 56.0624 10.3648 53.0421 9.11377C50.0219 7.86274 46.7848 7.21885 43.5157 7.21885C36.9135 7.21885 30.5817 9.84157 25.9132 14.51C21.2447 19.1785 18.622 25.5103 18.622 32.1126C18.622 38.7148 21.2447 45.0466 25.9132 49.7151C30.5817 54.3836 36.9135 57.0063 43.5157 57.0063C46.7848 57.0063 50.0219 56.3624 53.0421 55.1114C56.0624 53.8603 58.8066 52.0267 61.1182 49.7151C63.4298 47.4035 65.2635 44.6592 66.5145 41.639C67.7655 38.6187 68.4094 35.3817 68.4094 32.1126ZM17.5524 131.975V172.696C17.5524 172.728 17.5648 172.758 17.5869 172.78C17.609 172.802 17.6389 172.814 17.6702 172.814H69.1492C69.2267 172.814 69.301 172.783 69.3558 172.729C69.4106 172.674 69.4414 172.599 69.4414 172.522V132.079C69.4414 131.896 69.5325 131.805 69.7147 131.805L79.6194 131.824C79.6706 131.824 79.7198 131.804 79.756 131.769C79.7922 131.734 79.8126 131.686 79.8126 131.636C79.844 121.643 79.8408 111.652 79.8031 101.662C79.7874 97.255 79.6272 94.1215 79.3225 92.2618C75.8356 71.034 54.4429 61.134 34.8738 65.111C18.5843 68.4188 7.37435 80.9576 7.29424 97.8974C7.25969 105.154 7.20471 112.412 7.12932 119.672C7.09162 123.159 7.25183 127.588 7.1623 131.555C7.16168 131.592 7.16841 131.629 7.1821 131.663C7.19579 131.698 7.21617 131.729 7.24205 131.755C7.26792 131.781 7.29878 131.802 7.33282 131.817C7.36687 131.831 7.40341 131.838 7.44031 131.838L17.3545 131.777C17.3802 131.776 17.4058 131.781 17.4298 131.791C17.4538 131.8 17.4756 131.815 17.4941 131.833C17.5125 131.852 17.5272 131.874 17.5372 131.898C17.5472 131.922 17.5523 131.948 17.5524 131.975Z" fill="black"/>
<path d="M112.147 1.45597V180H108.613C108.355 179.563 108.256 179.103 108.316 178.619C108.333 178.484 108.399 178.359 108.501 178.268C108.603 178.177 108.735 178.126 108.872 178.125L110.502 178.11C110.689 178.109 110.867 178.034 110.999 177.902C111.13 177.769 111.204 177.59 111.204 177.404V176.942C111.204 176.474 110.97 176.237 110.502 176.23L107.058 176.183C106.687 176.177 106.5 175.988 106.497 175.618L106.487 174.958C106.484 174.572 106.674 174.375 107.058 174.369L110.705 174.313C110.772 174.311 110.837 174.297 110.899 174.27C110.96 174.242 111.015 174.203 111.06 174.155C111.106 174.106 111.141 174.048 111.165 173.986C111.188 173.923 111.198 173.856 111.195 173.789L111.152 173.003C111.147 172.892 111.103 172.788 111.028 172.708C110.952 172.629 110.851 172.579 110.742 172.569L108.862 172.395C108.482 172.36 108.289 172.151 108.283 171.768L108.278 171.184C108.275 171.035 108.331 170.891 108.433 170.783C108.535 170.674 108.676 170.61 108.825 170.604L110.643 170.529C110.787 170.523 110.922 170.46 111.02 170.355C111.118 170.251 111.17 170.111 111.167 169.968L111.148 169.261C111.135 168.903 110.951 168.721 110.596 168.715L107.058 168.649C106.684 168.642 106.497 168.452 106.497 168.078L106.487 167.414C106.487 167.028 106.679 166.831 107.062 166.825L110.7 166.769C111.036 166.762 111.196 166.591 111.181 166.255L111.138 165.482C111.126 165.203 110.98 165.05 110.7 165.025L108.867 164.86C108.487 164.826 108.294 164.617 108.287 164.233L108.278 163.649C108.277 163.501 108.332 163.357 108.433 163.249C108.534 163.141 108.673 163.077 108.82 163.07L110.728 162.975C111.02 162.96 111.163 162.806 111.157 162.514L111.143 161.722C111.137 161.367 110.956 161.186 110.601 161.18L107.058 161.109C106.684 161.1 106.497 160.91 106.497 160.539L106.487 159.875C106.487 159.488 106.679 159.292 107.062 159.286L110.7 159.229C111.036 159.223 111.196 159.052 111.181 158.716L111.138 157.938C111.123 157.662 110.976 157.511 110.7 157.486L108.9 157.33C108.498 157.293 108.294 157.073 108.287 156.671L108.278 156.11C108.272 155.742 108.452 155.549 108.82 155.53L110.728 155.436C110.846 155.43 110.956 155.378 111.036 155.292C111.116 155.206 111.16 155.092 111.157 154.974L111.143 154.131C111.137 153.814 110.976 153.652 110.662 153.646L107.058 153.565C106.684 153.556 106.497 153.366 106.497 152.995L106.487 152.34C106.487 151.954 106.679 151.758 107.062 151.751L110.841 151.681C111.074 151.674 111.185 151.555 111.176 151.322L111.124 150.281C111.115 150.083 111.011 149.975 110.813 149.956L108.867 149.782C108.487 149.747 108.294 149.54 108.287 149.16L108.278 148.571C108.277 148.422 108.333 148.279 108.435 148.171C108.537 148.063 108.676 147.998 108.825 147.991L110.728 147.897C111.02 147.881 111.163 147.727 111.157 147.435L111.143 146.643C111.137 146.288 110.956 146.108 110.601 146.102L107.058 146.031C106.684 146.021 106.497 145.831 106.497 145.461L106.487 144.796C106.487 144.41 106.679 144.214 107.062 144.207L110.7 144.151C111.036 144.144 111.196 143.973 111.181 143.637L111.138 142.86C111.123 142.583 110.976 142.432 110.7 142.407L108.9 142.252C108.498 142.214 108.294 141.994 108.287 141.592L108.278 141.031C108.272 140.664 108.452 140.471 108.82 140.452L110.728 140.358C110.846 140.351 110.956 140.3 111.036 140.214C111.116 140.127 111.16 140.013 111.157 139.896L111.143 139.052C111.137 138.735 110.976 138.573 110.662 138.567L107.053 138.487C106.682 138.477 106.497 138.287 106.497 137.917L106.487 137.257C106.487 136.871 106.679 136.674 107.062 136.668L110.7 136.611C111.036 136.605 111.196 136.434 111.181 136.098L111.143 135.382C111.124 135.064 110.958 134.892 110.643 134.863L108.957 134.713C108.514 134.675 108.289 134.433 108.283 133.987L108.278 133.619C108.272 133.17 108.492 132.935 108.938 132.913L110.827 132.804C110.987 132.795 111.083 132.71 111.115 132.55C111.184 132.151 111.176 131.75 111.091 131.348C111.047 131.141 110.918 131.034 110.705 131.028L107.058 130.948C106.684 130.938 106.497 130.748 106.497 130.377L106.487 129.713C106.484 129.327 106.677 129.13 107.067 129.124L110.634 129.082C110.708 129.08 110.781 129.064 110.849 129.034C110.917 129.004 110.977 128.961 111.028 128.907C111.079 128.853 111.118 128.789 111.143 128.72C111.169 128.65 111.18 128.576 111.176 128.502L111.143 127.847C111.124 127.53 110.958 127.357 110.643 127.329L108.867 127.164C108.487 127.126 108.294 126.917 108.287 126.537L108.278 125.953C108.277 125.804 108.332 125.661 108.433 125.553C108.534 125.445 108.673 125.381 108.82 125.373L110.728 125.279C110.846 125.273 110.956 125.221 111.036 125.135C111.116 125.049 111.16 124.935 111.157 124.817L111.143 123.974C111.137 123.657 110.976 123.495 110.662 123.488L107.053 123.408C106.682 123.399 106.497 123.209 106.497 122.838L106.487 122.178C106.487 121.792 106.679 121.596 107.062 121.589L110.7 121.533C111.036 121.527 111.196 121.355 111.181 121.019L111.143 120.303C111.124 119.986 110.958 119.813 110.643 119.785L108.957 119.634C108.514 119.596 108.289 119.354 108.283 118.908L108.278 118.541C108.272 118.092 108.492 117.856 108.938 117.834L110.827 117.726C110.987 117.716 111.083 117.631 111.115 117.471C111.184 117.072 111.176 116.672 111.091 116.27C111.047 116.062 110.92 115.957 110.709 115.954L107.114 115.864C106.703 115.855 106.495 115.646 106.492 115.238L106.487 114.639C106.487 114.253 106.679 114.056 107.062 114.05L110.7 113.994C110.766 113.993 110.83 113.978 110.89 113.951C110.95 113.924 111.004 113.886 111.049 113.837C111.094 113.789 111.129 113.732 111.151 113.67C111.174 113.608 111.184 113.542 111.181 113.475L111.143 112.764C111.124 112.447 110.958 112.274 110.643 112.246L108.9 112.09C108.498 112.055 108.294 111.836 108.287 111.43L108.278 110.874C108.275 110.507 108.456 110.314 108.82 110.295L110.728 110.2C110.846 110.194 110.956 110.143 111.036 110.057C111.116 109.97 111.16 109.856 111.157 109.739L111.143 108.895C111.137 108.578 110.976 108.416 110.662 108.41L107.058 108.33C106.684 108.32 106.497 108.13 106.497 107.76L106.487 107.1C106.487 106.714 106.679 106.517 107.062 106.511L110.7 106.454C111.036 106.448 111.196 106.277 111.181 105.941L111.143 105.225C111.124 104.907 110.958 104.735 110.643 104.706L108.957 104.555C108.514 104.518 108.289 104.276 108.283 103.83L108.278 103.462C108.272 103.013 108.492 102.777 108.938 102.755L110.827 102.647C110.987 102.638 111.083 102.553 111.115 102.393C111.184 101.994 111.176 101.593 111.091 101.191C111.047 100.984 110.918 100.877 110.705 100.871L107.058 100.791C106.684 100.781 106.497 100.591 106.497 100.22L106.487 99.556C106.484 99.1696 106.677 98.9733 107.067 98.967L110.634 98.9246C110.708 98.9234 110.781 98.9073 110.849 98.8773C110.917 98.8473 110.977 98.8039 111.028 98.7498C111.079 98.6957 111.118 98.632 111.143 98.5625C111.169 98.4929 111.18 98.4189 111.176 98.345L111.143 97.6853C111.124 97.3712 110.958 97.2 110.643 97.1717L108.867 97.0068C108.487 96.9691 108.294 96.7602 108.287 96.3801L108.278 95.7958C108.277 95.6473 108.332 95.504 108.433 95.3959C108.534 95.2879 108.673 95.2235 108.82 95.2162L110.728 95.1219C110.846 95.1158 110.956 95.0642 111.036 94.978C111.116 94.8918 111.16 94.7778 111.157 94.6602L111.143 93.8167C111.137 93.4994 110.976 93.3377 110.662 93.3314L107.058 93.2513C106.684 93.2418 106.497 93.0518 106.497 92.6811L106.487 92.0214C106.487 91.635 106.679 91.4387 107.062 91.4324L110.7 91.3759C111.036 91.3696 111.196 91.1984 111.181 90.8623L111.143 90.146C111.124 89.8287 110.958 89.656 110.643 89.6277L108.9 89.4722C108.498 89.4377 108.294 89.2178 108.287 88.8125L108.278 88.2565C108.275 87.889 108.457 87.6958 108.825 87.6769L110.728 87.5827C110.846 87.5766 110.956 87.5249 111.036 87.4387C111.116 87.3525 111.16 87.2385 111.157 87.1209L111.143 86.2774C111.137 85.9633 110.976 85.8031 110.662 85.7968L107.109 85.7073C106.701 85.6979 106.495 85.489 106.492 85.0806L106.487 84.4821C106.487 84.0958 106.679 83.8994 107.062 83.8931L110.7 83.8366C110.766 83.8354 110.83 83.8211 110.89 83.7944C110.95 83.7678 111.004 83.7294 111.049 83.6815C111.094 83.6336 111.129 83.5772 111.151 83.5156C111.174 83.454 111.184 83.3885 111.181 83.323L111.143 82.6115C111.124 82.2942 110.958 82.1214 110.643 82.0931L108.867 81.9282C108.487 81.8905 108.294 81.6816 108.287 81.3015L108.278 80.7832C108.275 80.3748 108.476 80.1596 108.881 80.1377L110.827 80.0293C110.987 80.0198 111.083 79.935 111.115 79.7748C111.184 79.3759 111.176 78.9753 111.091 78.5733C111.047 78.3659 110.92 78.2607 110.709 78.2575L107.109 78.168C106.701 78.1586 106.495 77.9497 106.492 77.5413L106.487 76.9429C106.487 76.5565 106.679 76.3602 107.062 76.3539L110.705 76.2973C111.047 76.2911 111.206 76.1167 111.181 75.7743L111.129 74.9403C111.113 74.7078 110.987 74.5806 110.752 74.5586L108.867 74.389C108.487 74.3544 108.294 74.1455 108.287 73.7623L108.278 73.178C108.277 73.0295 108.333 72.8862 108.435 72.7781C108.537 72.6701 108.676 72.6057 108.825 72.5984L110.728 72.5041C111.02 72.4884 111.163 72.3345 111.157 72.0424L111.143 71.2507C111.137 70.8958 110.956 70.7151 110.601 70.7089L107.058 70.6382C106.684 70.6288 106.497 70.4387 106.497 70.068L106.487 69.4036C106.487 69.0172 106.679 68.8209 107.062 68.8146L110.7 68.7581C111.036 68.7518 111.196 68.5806 111.181 68.2445L111.143 67.5282C111.124 67.2109 110.958 67.0382 110.643 67.0099L108.957 66.8591C108.514 66.8214 108.289 66.5795 108.283 66.1335L108.278 65.7659C108.269 65.3167 108.487 65.0811 108.933 65.0591L110.827 64.9507C110.987 64.9413 111.083 64.8565 111.115 64.6963C111.184 64.2973 111.176 63.8968 111.091 63.4947C111.047 63.2874 110.92 63.1822 110.709 63.179L107.114 63.0895C106.703 63.0801 106.495 62.8712 106.492 62.4628L106.487 61.8643C106.487 61.478 106.679 61.2816 107.062 61.2753L110.7 61.2188C110.766 61.2176 110.83 61.2033 110.89 61.1766C110.95 61.15 111.004 61.1116 111.049 61.0637C111.094 61.0158 111.129 60.9594 111.151 60.8978C111.174 60.8362 111.184 60.7707 111.181 60.7052L111.143 59.989C111.124 59.6717 110.958 59.4989 110.643 59.4706L108.9 59.3151C108.498 59.2806 108.294 59.0607 108.287 58.6555L108.278 58.0994C108.275 57.7319 108.456 57.5387 108.82 57.5198L110.728 57.4256C110.846 57.4195 110.956 57.3679 111.036 57.2817C111.116 57.1955 111.16 57.0814 111.157 56.9638L111.143 56.1204C111.137 55.8031 110.976 55.6413 110.662 55.635L107.053 55.5549C106.679 55.5455 106.492 55.3555 106.492 54.9848V54.2026C106.492 54.0817 106.54 53.9657 106.625 53.8793C106.711 53.793 106.827 53.7433 106.949 53.7408L110.841 53.6701C111.074 53.6638 111.185 53.546 111.176 53.3167L111.124 52.2706C111.115 52.0727 111.011 51.9644 110.813 51.9455L108.867 51.7712C108.487 51.7366 108.294 51.5293 108.287 51.1492L108.278 50.5602C108.277 50.4117 108.332 50.2684 108.433 50.1603C108.534 50.0523 108.673 49.9879 108.82 49.9806L110.728 49.8863C110.846 49.8802 110.956 49.8286 111.036 49.7424C111.116 49.6562 111.16 49.5422 111.157 49.4246L111.143 48.5811C111.137 48.2638 110.976 48.102 110.662 48.0958L107.053 48.0157C106.682 48.0062 106.497 47.8162 106.497 47.4455L106.487 46.7905C106.487 46.4041 106.679 46.2078 107.062 46.2015L110.841 46.1308C111.074 46.1246 111.185 46.0052 111.176 45.7727L111.124 44.7314C111.115 44.5335 111.011 44.4251 110.813 44.4062L108.867 44.2319C108.487 44.1973 108.294 43.99 108.287 43.6099L108.278 43.0869C108.275 42.6785 108.476 42.4633 108.881 42.4413L110.827 42.3329C110.987 42.3235 111.083 42.2387 111.115 42.0785C111.184 41.6795 111.176 41.279 111.091 40.8769C111.047 40.6696 110.92 40.5644 110.709 40.5612L107.109 40.4717C106.701 40.4623 106.495 40.2534 106.492 39.845L106.487 39.2466C106.487 38.8602 106.679 38.6638 107.062 38.6575L110.7 38.601C110.766 38.5998 110.83 38.5855 110.89 38.5588C110.95 38.5322 111.004 38.4938 111.049 38.4459C111.094 38.398 111.129 38.3416 111.151 38.28C111.174 38.2184 111.184 38.1529 111.181 38.0874L111.143 37.3712C111.124 37.0539 110.958 36.8811 110.643 36.8528L108.9 36.6973C108.498 36.6628 108.294 36.4429 108.287 36.0377L108.278 35.4816C108.272 35.1141 108.452 34.9209 108.82 34.902L110.728 34.8078C110.846 34.8017 110.956 34.7501 111.036 34.6639C111.116 34.5777 111.16 34.4636 111.157 34.346L111.143 33.5026C111.137 33.1884 110.976 33.0282 110.662 33.0219L107.109 32.9324C106.701 32.923 106.495 32.7141 106.492 32.3057L106.487 31.7073C106.487 31.3209 106.679 31.1246 107.062 31.1183L110.7 31.0617C110.766 31.0606 110.83 31.0461 110.89 31.0193C110.95 30.9924 111.004 30.9536 111.049 30.9053C111.094 30.857 111.129 30.8 111.151 30.7379C111.174 30.6757 111.184 30.6096 111.181 30.5434L111.143 29.8319C111.124 29.5146 110.958 29.3418 110.643 29.3136L108.9 29.1581C108.498 29.1235 108.294 28.9036 108.287 28.4984L108.278 27.9424C108.277 27.7939 108.333 27.6506 108.435 27.5425C108.537 27.4345 108.676 27.3701 108.825 27.3628L110.728 27.2685C111.02 27.2528 111.163 27.0989 111.157 26.8068L111.143 26.0151C111.137 25.6602 110.956 25.4795 110.601 25.4733L107.058 25.4026C106.684 25.3931 106.497 25.2031 106.497 24.8324L106.487 24.168C106.487 23.7816 106.679 23.5853 107.062 23.579L110.7 23.5225C110.766 23.5213 110.83 23.5069 110.89 23.48C110.95 23.4531 111.004 23.4144 111.049 23.366C111.094 23.3177 111.129 23.2608 111.151 23.1986C111.174 23.1364 111.184 23.0703 111.181 23.0041L111.143 22.2926C111.124 21.9785 110.958 21.8073 110.643 21.779L108.867 21.6141C108.487 21.5764 108.294 21.3675 108.287 20.9874L108.278 20.4691C108.275 20.0607 108.476 19.8455 108.881 19.8235L110.827 19.7151C110.987 19.7057 111.083 19.6209 111.115 19.4607C111.184 19.0617 111.176 18.6612 111.091 18.2591C111.047 18.0518 110.92 17.9466 110.709 17.9434L107.109 17.8539C106.701 17.8445 106.495 17.6356 106.492 17.2272L106.487 16.6287C106.487 16.2424 106.679 16.046 107.062 16.0397L110.7 15.9832C110.766 15.982 110.83 15.9677 110.89 15.941C110.95 15.9144 111.004 15.876 111.049 15.8281C111.094 15.7802 111.129 15.7238 111.151 15.6622C111.174 15.6006 111.184 15.5351 111.181 15.4696L111.143 14.6968C111.127 14.4172 110.981 14.2649 110.705 14.2397L108.867 14.0748C108.487 14.0403 108.294 13.8329 108.287 13.4528L108.283 12.9251C108.276 12.5198 108.476 12.3062 108.881 12.2842L110.823 12.1806C110.986 12.1712 111.082 12.0863 111.11 11.9261C111.188 11.5272 111.184 11.1267 111.096 10.7246C111.052 10.5109 110.92 10.4026 110.7 10.3994L107.058 10.3193C106.908 10.3169 106.765 10.2564 106.659 10.1507C106.553 10.0451 106.493 9.90267 106.492 9.75388V9.08477C106.489 8.69838 106.681 8.50205 107.067 8.49576L110.639 8.44864C111.019 8.4455 111.201 8.25388 111.185 7.87377L111.157 7.23765C111.145 6.92037 110.98 6.74603 110.662 6.71461L108.721 6.51671C108.529 6.49472 108.407 6.39105 108.353 6.20571C108.243 5.81618 108.242 5.42194 108.349 5.02299C108.386 4.8722 108.484 4.7921 108.641 4.78268L110.648 4.64603C111 4.62404 111.171 4.43713 111.162 4.08529L111.138 3.39734C111.129 3.0455 110.948 2.86645 110.596 2.86016L106.921 2.80362C106.732 2.80362 106.615 2.71252 106.568 2.53032C106.47 2.14393 106.454 1.75597 106.52 1.36645C106.534 1.29071 106.571 1.2213 106.626 1.16803C106.681 1.11477 106.751 1.08033 106.827 1.06959C109.026 0.733461 110.799 0.862257 112.147 1.45597Z" fill="#8F1402"/>
<path d="M79.1623 124.987C79.1623 125.074 79.1275 125.158 79.0657 125.22C79.0038 125.282 78.9199 125.317 78.8325 125.317H7.79371C7.70623 125.317 7.62233 125.282 7.56048 125.22C7.49862 125.158 7.46387 125.074 7.46387 124.987V116.251C7.46387 116.163 7.49862 116.079 7.56048 116.018C7.62233 115.956 7.70623 115.921 7.79371 115.921H78.8325C78.9199 115.921 79.0038 115.956 79.0657 116.018C79.1275 116.079 79.1623 116.163 79.1623 116.251V124.987ZM74.9026 119.681C75.2073 119.681 75.3597 119.833 75.3597 120.138L75.355 123.724C75.355 124.161 75.5749 124.387 76.0147 124.403L77.5319 124.454C77.9937 124.47 78.2246 124.249 78.2246 123.79L78.2199 117.438C78.2199 117.039 78.0204 116.84 77.6215 116.84H8.71256C8.53978 116.84 8.4534 116.926 8.4534 117.099L8.53821 124.021C8.53821 124.241 8.64659 124.37 8.86334 124.407C8.9513 124.423 9.03298 124.41 9.10837 124.37C9.20261 124.313 9.26387 124.194 9.29214 124.011C9.38952 123.377 9.43821 122.763 9.43821 122.169C9.43821 121.764 9.64083 121.557 10.0461 121.547L10.6115 121.538C11.045 121.528 11.2665 121.739 11.2759 122.169L11.3089 123.578C11.3151 123.825 11.4179 124.061 11.5951 124.232C11.7723 124.404 12.0097 124.499 12.256 124.497H12.4351C12.9722 124.494 13.2377 124.224 13.2314 123.686L13.189 120.397C13.1827 119.92 13.4183 119.683 13.8958 119.686H14.4848C14.8712 119.686 15.0644 119.881 15.0644 120.27L15.0691 123.691C15.0697 123.794 15.0907 123.897 15.1308 123.992C15.1709 124.087 15.2294 124.173 15.3029 124.246C15.3764 124.319 15.4635 124.376 15.5592 124.415C15.6549 124.454 15.7574 124.474 15.8607 124.473H16.4026C16.4872 124.473 16.5707 124.455 16.6484 124.422C16.726 124.388 16.7961 124.339 16.8546 124.278C16.913 124.217 16.9586 124.145 16.9886 124.066C17.0186 123.987 17.0325 123.903 17.0293 123.818L16.9681 122.292C16.9461 121.732 17.2147 121.458 17.7738 121.467L18.0236 121.472C18.5482 121.481 18.8167 121.75 18.8293 122.277L18.8623 123.672C18.868 123.882 18.9526 124.082 19.0994 124.232C19.2461 124.383 19.4442 124.472 19.6539 124.483L19.9885 124.497C20.091 124.501 20.1934 124.485 20.2894 124.448C20.3853 124.412 20.4728 124.356 20.5465 124.285C20.6201 124.213 20.6785 124.128 20.7178 124.033C20.7572 123.938 20.7768 123.836 20.7754 123.733L20.733 120.289C20.7267 119.903 20.9183 119.706 21.3078 119.7L22.0147 119.686C22.4042 119.68 22.5989 119.871 22.5989 120.261V123.658C22.5988 123.867 22.6798 124.068 22.8249 124.218C22.9699 124.368 23.1677 124.457 23.3764 124.464L23.8241 124.478C23.9221 124.481 24.0198 124.464 24.111 124.428C24.2023 124.392 24.2851 124.338 24.3545 124.269C24.4239 124.199 24.4782 124.116 24.5142 124.025C24.5503 123.934 24.5671 123.836 24.5639 123.738L24.5073 122.292C24.4885 121.732 24.7586 121.458 25.3178 121.467H25.5581C26.0859 121.476 26.356 121.745 26.3686 122.273L26.4063 123.696C26.4112 123.907 26.4989 124.108 26.6505 124.255C26.8021 124.402 27.0055 124.484 27.2167 124.483H27.6031C27.6982 124.482 27.7922 124.463 27.8798 124.426C27.9673 124.388 28.0467 124.334 28.1132 124.267C28.1798 124.199 28.2323 124.118 28.2677 124.03C28.303 123.942 28.3206 123.847 28.3194 123.752L28.2722 120.294C28.2691 119.907 28.4592 119.711 28.8424 119.705L29.5539 119.691C29.9434 119.681 30.1382 119.871 30.1382 120.261V123.677C30.1387 123.871 30.2116 124.058 30.3426 124.2C30.4735 124.342 30.6529 124.43 30.845 124.445L31.3492 124.483C31.4481 124.491 31.5475 124.478 31.641 124.445C31.7345 124.411 31.8199 124.359 31.8915 124.29C31.9632 124.222 32.0195 124.139 32.0568 124.047C32.0941 123.955 32.1115 123.856 32.1078 123.757L32.0466 122.292C32.0246 121.732 32.2932 121.458 32.8523 121.467L33.1539 121.472C33.3503 121.474 33.538 121.552 33.6778 121.69C33.8175 121.828 33.8983 122.015 33.9031 122.211L33.9455 123.672C33.9502 123.881 34.0345 124.081 34.1815 124.23C34.3284 124.38 34.5271 124.468 34.7372 124.478L35.067 124.492C35.601 124.514 35.8649 124.26 35.8586 123.729L35.8115 120.294C35.8052 119.907 35.9953 119.709 36.3817 119.7L37.0932 119.686C37.4827 119.68 37.6775 119.871 37.6775 120.261V123.677C37.677 123.87 37.75 124.057 37.8819 124.199C38.0138 124.342 38.1949 124.43 38.389 124.445L38.8885 124.483C38.9873 124.491 39.0868 124.478 39.1803 124.445C39.2737 124.411 39.3591 124.359 39.4308 124.29C39.5025 124.222 39.5588 124.139 39.5961 124.047C39.6334 123.955 39.6508 123.856 39.6471 123.757L39.5859 122.292C39.5639 121.732 39.8325 121.458 40.3916 121.467L40.6932 121.472C40.8895 121.474 41.0773 121.552 41.217 121.69C41.3568 121.828 41.4375 122.015 41.4424 122.211L41.4848 123.672C41.4894 123.881 41.5737 124.081 41.7207 124.23C41.8677 124.38 42.0663 124.468 42.2764 124.478L42.6063 124.492C43.1403 124.514 43.4042 124.26 43.3979 123.729L43.3508 120.294C43.3445 119.907 43.5345 119.709 43.9209 119.7L44.6325 119.686C45.022 119.68 45.2167 119.871 45.2167 120.261V123.677C45.2162 123.87 45.2892 124.057 45.4211 124.199C45.5531 124.342 45.7342 124.43 45.9283 124.445L46.4277 124.483C46.5266 124.491 46.626 124.478 46.7195 124.445C46.813 124.411 46.8984 124.359 46.9701 124.29C47.0417 124.222 47.0981 124.139 47.1354 124.047C47.1726 123.955 47.19 123.856 47.1864 123.757L47.1251 122.292C47.1031 121.732 47.3717 121.458 47.9309 121.467L48.2325 121.472C48.4288 121.474 48.6166 121.552 48.7563 121.69C48.896 121.828 48.9768 122.015 48.9817 122.211L49.0241 123.672C49.0287 123.881 49.113 124.081 49.26 124.23C49.407 124.38 49.6056 124.468 49.8157 124.478L50.1455 124.492C50.6796 124.514 50.9434 124.26 50.9372 123.729L50.89 120.294C50.8838 119.907 51.0738 119.709 51.4602 119.7L52.1717 119.686C52.5613 119.68 52.756 119.871 52.756 120.261V123.677C52.7555 123.87 52.8285 124.057 52.9604 124.199C53.0923 124.342 53.2734 124.43 53.4675 124.445L53.967 124.483C54.0659 124.491 54.1653 124.478 54.2588 124.445C54.3523 124.411 54.4377 124.359 54.5093 124.29C54.581 124.222 54.6373 124.139 54.6746 124.047C54.7119 123.955 54.7293 123.856 54.7256 123.757L54.6644 122.292C54.6424 121.732 54.911 121.458 55.4702 121.467L55.7152 121.472C56.2429 121.478 56.5131 121.745 56.5256 122.273L56.5586 123.672C56.5632 123.881 56.6476 124.081 56.7945 124.23C56.9415 124.38 57.1402 124.468 57.3503 124.478L57.6895 124.492C58.2204 124.514 58.4827 124.26 58.4764 123.729L58.4293 120.294C58.423 119.907 58.6131 119.709 58.9995 119.7L59.711 119.686C60.1005 119.68 60.2953 119.871 60.2953 120.261V123.677C60.2936 123.871 60.3663 124.058 60.4984 124.201C60.6305 124.343 60.8123 124.431 61.0068 124.445L61.5063 124.483C61.6054 124.49 61.7049 124.476 61.7984 124.443C61.8919 124.409 61.9772 124.356 62.0488 124.287C62.1204 124.218 62.1766 124.135 62.2139 124.043C62.2511 123.951 62.2685 123.852 62.2649 123.752L62.2037 122.282C62.1817 121.714 62.4534 121.44 63.0188 121.462L63.3864 121.481C63.5648 121.487 63.7342 121.562 63.8595 121.69C63.9849 121.818 64.0567 121.989 64.0602 122.169L64.1026 123.696C64.1152 124.227 64.3853 124.491 64.9131 124.487L65.3042 124.483C65.788 124.48 66.0251 124.238 66.0157 123.757L65.9733 120.294C65.967 119.914 66.1555 119.717 66.5387 119.705L67.2455 119.686C67.6382 119.673 67.8346 119.863 67.8346 120.256L67.8298 123.686C67.8295 123.882 67.9045 124.071 68.0394 124.213C68.1742 124.356 68.3589 124.442 68.5555 124.454L69.0503 124.487C69.1486 124.493 69.2471 124.479 69.3394 124.444C69.4318 124.41 69.5159 124.357 69.5865 124.288C69.657 124.219 69.7124 124.136 69.7491 124.045C69.7858 123.954 69.8029 123.855 69.7995 123.757L69.7476 122.178C69.7319 121.71 69.9581 121.475 70.4262 121.472L70.7843 121.467C71.3215 121.464 71.5948 121.729 71.6042 122.263L71.6372 123.672C71.6466 124.191 71.9105 124.459 72.4288 124.478L72.7586 124.492C73.2832 124.511 73.544 124.258 73.5408 123.733L73.522 120.27C73.522 119.881 73.7152 119.686 74.1016 119.686L74.9026 119.681Z" fill="#8F1402"/>
</g>
<defs>
<clipPath id="clip0_6799_59616">
<rect width="112.147" height="180" fill="white"/>
</clipPath>
</defs>
</svg>
