<svg width="328" height="535" viewBox="0 0 328 535" fill="none" xmlns="http://www.w3.org/2000/svg">
<path d="M70.0582 92.5021C70.5694 49.0507 104.683 9.07529 147.487 1.78226C184.497 -5.81749 224.814 11.4268 245.125 43.223C267.106 75.6668 265.607 121.64 241.649 152.653C234.322 162.808 224.473 170.783 214.181 177.803C237.764 186.46 259.473 201.216 273.684 222.175C288.202 243.032 294.779 268.625 294.847 293.844C294.881 333.683 294.813 373.522 294.847 413.396C284.589 413.396 274.297 413.43 264.039 413.464C264.107 453.95 264.073 494.471 264.073 534.957C198.334 535.026 132.594 534.991 66.8547 534.991C66.7865 494.437 66.7865 453.916 66.8888 413.396C56.5967 413.464 46.3388 413.396 36.0467 413.43C36.3194 369.671 35.5696 325.913 36.4216 282.155C38.4664 235.057 71.8985 192.219 116.679 177.906C87.6773 160.082 68.3201 126.854 70.0582 92.5021ZM146.294 23.8658C113.407 32.3517 89.0746 65.2725 91.4261 99.2499C92.5848 134.829 122.882 166.421 158.324 169.147C193.46 173.203 228.801 148.222 236.98 113.87C244.239 86.6745 234.288 55.8666 212.306 38.2815C194.244 23.2524 168.957 17.7997 146.294 23.8658ZM85.7007 221.527C66.2413 240.033 57.142 267.296 57.3465 293.742C57.2783 326.424 57.4147 359.107 57.2783 391.789C67.5704 391.789 77.8283 391.755 88.1204 391.653C88.2226 432.31 88.2226 472.967 88.1204 513.658C139.546 513.658 191.007 513.555 242.433 513.692C242.501 473.035 242.467 432.344 242.467 391.687C252.725 391.789 263.017 391.789 273.275 391.823C273.207 357.914 273.377 324.039 273.173 290.13C272.968 263.752 262.233 237.272 242.603 219.38C199.901 180.871 127.073 181.177 85.7007 221.527Z" fill="#010101"/>
<path d="M0 331V370H114.985V331H0ZM7.18654 335.875H17.9663V352.938H25.1529V335.875H32.3394V345.625H39.526V335.875H46.7125V352.938H53.899V335.875H61.0856V345.625H68.2721V335.875H75.4587V352.938H82.6452V335.875H89.8317V345.625H97.0183V335.875H107.798V365.125H7.18654V335.875Z" fill="black"/>
<path d="M107.015 331V370H222V331H107.015ZM114.202 335.875H124.982V352.938H132.168V335.875H139.355V345.625H146.541V335.875H153.728V352.938H160.914V335.875H168.101V345.625H175.287V335.875H182.474V352.938H189.661V335.875H196.847V345.625H204.034V335.875H214.813V365.125H114.202V335.875Z" fill="black"/>
<path d="M106 331V370H220.985V331H106ZM113.187 335.875H123.966V352.938H131.153V335.875H138.339V345.625H145.526V335.875H152.713V352.938H159.899V335.875H167.086V345.625H174.272V335.875H181.459V352.938H188.645V335.875H195.832V345.625H203.018V335.875H213.798V365.125H113.187V335.875Z" fill="black"/>
<path d="M213.015 331V370H328V331H213.015ZM220.202 335.875H230.982V352.938H238.168V335.875H245.355V345.625H252.541V335.875H259.728V352.938H266.914V335.875H274.101V345.625H281.287V335.875H288.474V352.938H295.661V335.875H302.847V345.625H310.034V335.875H320.813V365.125H220.202V335.875Z" fill="black"/>
</svg>
