<svg width="333" height="376" viewBox="0 0 333 376" fill="none" xmlns="http://www.w3.org/2000/svg">
<path d="M247.915 4.21812C236.1 2.84778 224.276 1.56934 212.457 0.219885C205.877 -0.477822 199.1 0.470558 193.084 3.26974C184.315 7.22203 177.292 14.8341 174.046 23.8876C171.121 31.8632 171.084 40.8749 174.062 48.8421C177.977 59.7423 187.427 68.4406 198.616 71.432C204.995 73.2828 211.701 72.5558 218.248 72.7062C223.115 72.8107 228.145 72.2634 232.837 73.8719C240.992 76.4162 247.506 83.5228 249.369 91.8493C250.388 95.8559 249.841 100.009 249.615 104.07C247.163 142.79 244.731 181.515 242.266 220.236C242.296 221.389 241.03 222.316 239.935 221.953C239.033 221.318 238.448 220.349 237.7 219.551C230.105 210.781 219.614 204.849 208.488 201.811C208.484 194.421 208.484 187.03 208.484 179.635C208.534 177.162 208.563 174.601 207.569 172.282C205.998 168.309 202.397 165.234 198.231 164.298C196.585 163.88 194.872 164.001 193.189 163.989C184.963 163.989 176.74 163.989 168.514 163.989C166.922 163.956 165.489 164.841 164.437 165.978C151.088 179.786 138.045 193.898 125.44 208.392C123.74 210.343 122.048 212.31 120.377 214.291C110.905 214.562 101.434 212.298 92.9696 208.087C89.761 206.532 86.8365 204.46 83.6905 202.793C68.9509 194.759 51.926 191.701 35.2604 192.085C24.6987 192.399 14.1287 193.848 3.98059 196.827C1.21065 197.579 -0.598361 200.7 0.182904 203.47C0.776164 206.161 3.64218 208.066 6.35781 207.56C22.8897 203.015 40.4995 201.719 57.3865 205.012C66.2144 206.791 74.7958 209.996 82.4204 214.825C96.6253 223.632 114.051 227.284 130.558 224.393C135.939 223.474 141.207 221.886 146.188 219.651C148.736 218.519 151.143 217.107 153.653 215.908C156.749 214.479 159.962 213.321 163.237 212.377C163.229 249.214 163.229 286.046 163.237 322.882C155.132 322.097 147.002 321.458 138.851 321.813C127.178 322.034 115.735 324.495 104.237 326.271C91.3402 328.197 78.3595 329.667 65.3287 330.306C50.2549 331.008 34.9972 330.829 20.1574 327.8C15.85 326.876 11.5843 325.694 7.48166 324.073C4.85795 323.008 1.5407 324.386 0.479517 327.018C-0.431262 329.036 0.0283066 331.572 1.60337 333.131C2.50997 334.067 3.77587 334.489 4.96657 334.931C14.559 338.437 24.7196 340.074 34.8635 340.939C47.932 341.996 61.0714 341.704 74.1357 340.78C69.2517 349.88 64.3594 358.975 59.4964 368.087C58.2514 370.443 59.1036 373.493 61.1968 375.068C62.0992 375.52 63.0392 375.992 64.0712 376C76.7469 375.967 89.4309 376 102.111 375.987C103.548 375.975 105.115 376.121 106.368 375.273C107.822 374.463 108.545 372.908 109.238 371.48C115.639 358.871 122.039 346.262 128.398 333.636C136.992 332.671 145.682 332.416 154.305 333.16C157.288 333.415 160.263 333.762 163.25 333.925C163.229 338.9 163.221 343.876 163.25 348.852C163.254 351.075 164.871 353.118 166.956 353.803C168.142 354.2 169.412 354.058 170.641 354.083C181.487 354.058 192.336 354.087 203.182 354.07C205.965 354.045 208.467 351.584 208.476 348.794C208.501 343.818 208.476 338.842 208.488 333.866C237.637 331.581 266.461 325.176 293.842 314.936C300.343 312.663 306.481 309.313 311.77 304.888C324.065 294.719 331.602 279.136 332.028 263.193C332.233 258.351 331.498 253.554 330.992 248.758C324.387 189.073 317.778 129.392 311.181 69.7107C309.823 55.3638 304.204 41.4222 295.042 30.2798C283.448 15.9705 266.181 6.48254 247.915 4.21812ZM240.002 14.408C244.025 14.8717 248.078 15.2018 252.03 16.1167C265.211 18.9953 277.365 26.3359 286.001 36.7012C293.855 46.0179 298.793 57.7202 300.093 69.8319C306.994 132.191 313.896 194.554 320.802 256.913C322.143 269.923 317.569 283.401 308.503 292.839C303.765 297.878 297.799 301.717 291.311 304.099C264.764 314.184 236.789 320.497 208.484 322.807C208.476 286.313 208.476 249.824 208.484 213.334C217.045 216.158 224.966 221.205 230.635 228.274C232.946 231.215 236.63 233.066 240.391 233.008C243.975 233.087 247.526 231.491 249.95 228.867C252.001 226.628 253.183 223.645 253.296 220.616C255.849 180.082 258.422 139.548 260.979 99.0144C261.476 89.5139 257.946 79.9131 251.403 73.0029C245.061 66.1553 235.949 61.9607 226.604 61.7059C220.053 61.6056 213.502 61.7142 206.947 61.6557C198.119 61.3006 189.75 55.8777 185.727 48.0275C182.874 42.567 182.096 36.0578 183.659 30.096C185.313 23.4531 189.805 17.5707 195.804 14.2618C200.295 11.7383 205.56 10.6061 210.686 11.1242C220.458 12.223 230.23 13.3092 240.002 14.408ZM197.467 177.128C197.55 179.535 197.471 181.941 197.484 184.352C194.785 184.339 192.082 184.31 189.383 184.352C186.6 184.406 184.169 186.871 184.139 189.654C183.943 192.566 186.467 195.315 189.387 195.348C192.094 195.369 194.797 195.377 197.5 195.34C197.5 199.384 197.471 203.424 197.509 207.468C194.827 207.489 192.144 207.439 189.458 207.477C186.701 207.523 184.198 209.925 184.148 212.707C183.901 215.665 186.454 218.477 189.429 218.498C192.119 218.569 194.814 218.569 197.5 218.464C197.484 222.504 197.5 226.549 197.488 230.593C194.643 230.681 191.789 230.472 188.952 230.685C186.132 230.923 183.86 233.714 184.165 236.521C184.265 239.233 186.705 241.643 189.433 241.639C192.119 241.685 194.81 241.639 197.496 241.647C197.496 245.688 197.509 249.732 197.5 253.772C194.818 253.776 192.136 253.747 189.458 253.776C186.663 253.784 184.19 256.258 184.144 259.048C183.943 261.848 186.245 264.551 189.048 264.755C191.864 264.851 194.68 264.776 197.496 264.78C197.492 268.82 197.496 272.865 197.492 276.909C194.814 276.921 192.132 276.875 189.454 276.913C186.575 276.942 184.043 279.545 184.135 282.432C184.06 285.298 186.558 287.897 189.424 287.934C192.111 287.984 194.797 287.938 197.484 287.938C197.509 291.979 197.484 296.023 197.496 300.067C194.806 300.084 192.115 300.033 189.42 300.075C186.634 300.1 184.123 302.586 184.148 305.394C183.964 308.247 186.387 310.946 189.249 311.055C191.998 311.134 194.751 311.063 197.505 311.084C197.488 315.12 197.479 319.156 197.513 323.192C194.822 323.221 192.136 323.166 189.445 323.208C186.83 323.221 184.444 325.423 184.181 328.021C183.747 330.916 186.02 333.941 188.973 334.163C191.814 334.301 194.664 334.096 197.509 334.271C197.479 337.2 197.492 340.133 197.5 343.066C189.742 343.066 181.98 343.066 174.221 343.066C174.217 287.036 174.192 231.011 174.234 174.985C181.253 175.023 188.271 174.968 195.29 175.01C196.435 174.968 197.446 176 197.467 177.128ZM163.237 183.216C163.225 189.148 163.25 195.081 163.225 201.013C157.008 202.467 150.963 204.707 145.348 207.752C142.887 209.081 140.33 210.23 137.706 211.191C145.983 201.657 154.573 192.399 163.237 183.216ZM114.991 335.683C110.061 345.485 105.111 355.269 100.114 365.037C91.2943 364.995 82.4748 365.025 73.6552 365.025C78.205 356.531 82.7296 348.021 87.3295 339.556C96.5918 338.587 105.817 337.275 114.991 335.683Z" fill="black"/>
</svg>
