<svg width="208" height="93" viewBox="0 0 208 93" fill="none" xmlns="http://www.w3.org/2000/svg">
<g clip-path="url(#clip0_3025_56599)">
<path d="M196.132 82.9389H170.249C166.891 82.9389 164.168 80.2127 164.168 76.8512V45.3026C164.168 41.941 166.891 39.2148 170.249 39.2148H196.132C199.489 39.2148 202.212 41.941 202.212 45.3026V76.8512C202.215 80.2127 199.492 82.9389 196.132 82.9389Z" stroke="black" stroke-width="2" stroke-miterlimit="10" stroke-linecap="round" stroke-linejoin="round"/>
<path d="M170.292 63.7651V48.9484C170.292 46.9572 171.904 45.3438 173.893 45.3438H192.49C194.479 45.3438 196.091 46.9572 196.091 48.9484V63.7651C196.091 65.7563 194.479 67.3698 192.49 67.3698H173.893C171.904 67.3698 170.292 65.7563 170.292 63.7651Z" stroke="#8F1402" stroke-width="2" stroke-miterlimit="10" stroke-linecap="round" stroke-linejoin="round"/>
<path d="M192.891 77.949H187.846C186.407 77.949 185.24 76.7807 185.24 75.34C185.24 73.8993 186.407 72.731 187.846 72.731H192.891C194.33 72.731 195.497 73.8993 195.497 75.34C195.497 76.7807 194.33 77.949 192.891 77.949Z" stroke="black" stroke-width="2" stroke-miterlimit="10" stroke-linecap="round" stroke-linejoin="round"/>
<path d="M178.537 77.949H173.492C172.053 77.949 170.886 76.7807 170.886 75.34C170.886 73.8993 172.053 72.731 173.492 72.731H178.537C179.976 72.731 181.143 73.8993 181.143 75.34C181.143 76.7807 179.976 77.949 178.537 77.949Z" stroke="black" stroke-width="2" stroke-miterlimit="10" stroke-linecap="round" stroke-linejoin="round"/>
<path d="M183.538 39.2118C183.538 28.6527 180.052 23.6601 174.44 22.0291C163.315 18.7964 158.811 25.5488 145.585 31.9792C131.805 38.6789 119.413 38.8282 105.419 35.3993C96.9342 33.3203 83.7617 26.8314 81.2084 18.7524C79.0267 11.8506 84.6273 4.18458 90.4035 4.43347C95.6854 4.65895 99.6658 9.39679 102.079 9.04834C107.065 8.328 107.217 1.69853 114.675 0.834703C119.199 0.310553 125.382 5.93565 124.642 12.5153C122.13 34.8225 79.5092 66.4501 48.1104 64.7663" stroke="#8F1402" stroke-width="2" stroke-miterlimit="10" stroke-linecap="round" stroke-linejoin="round"/>
<path d="M46.6013 59.4224H18.4868" stroke="black" stroke-width="2" stroke-miterlimit="10" stroke-linecap="round" stroke-linejoin="round"/>
<path d="M18.4868 84.1948H46.6013" stroke="black" stroke-width="2" stroke-miterlimit="10" stroke-linecap="round" stroke-linejoin="round"/>
<path d="M48.1071 74.2042C48.1071 69.4517 44.2583 65.5981 39.5116 65.5981H31.3899C26.6433 65.5981 22.7944 69.4517 22.7944 74.2042" stroke="black" stroke-width="2" stroke-miterlimit="10" stroke-linecap="round" stroke-linejoin="round"/>
<path d="M17.5449 81.4923C17.8023 83.1848 18.1298 84.195 18.4837 84.195C19.3173 84.195 19.9899 78.649 19.9899 71.8087C19.9899 64.9684 19.3143 59.4224 18.4837 59.4224C18.162 59.4224 17.9251 59.9172 17.6795 61.3316" stroke="black" stroke-width="2" stroke-miterlimit="10" stroke-linecap="round" stroke-linejoin="round"/>
<path d="M21.2856 84.195C22.0314 84.195 22.6485 79.7529 22.7714 73.9141" stroke="black" stroke-width="2" stroke-miterlimit="10" stroke-linecap="round" stroke-linejoin="round"/>
<path d="M46.6011 84.195C47.4346 84.195 48.1073 78.649 48.1073 71.8087C48.1073 64.9684 47.4317 59.4224 46.6011 59.4224" stroke="black" stroke-width="2" stroke-miterlimit="10" stroke-linecap="round" stroke-linejoin="round"/>
<path d="M118.418 60.9834H141.348C142.988 60.9834 144.316 62.3157 144.316 63.9555C144.316 65.5983 142.985 66.9277 141.348 66.9277" stroke="black" stroke-width="2" stroke-miterlimit="10" stroke-linecap="round" stroke-linejoin="round"/>
<path d="M124.168 78.8222H142.192C143.833 78.8222 145.161 77.4899 145.161 75.8501C145.161 74.2073 143.83 72.8779 142.192 72.8779" stroke="black" stroke-width="2" stroke-miterlimit="10" stroke-linecap="round" stroke-linejoin="round"/>
<path d="M136.741 78.8218C138.382 78.8218 139.411 79.9843 139.411 81.6241C139.411 83.2668 138.081 84.5962 136.443 84.5962H109.767C105.073 84.5962 103.646 81.3254 98.8467 81.3254C94.0444 81.3254 47.689 81.3254 47.689 81.3254" stroke="black" stroke-width="2" stroke-miterlimit="10" stroke-linecap="round" stroke-linejoin="round"/>
<path d="M124.168 66.9277H147.15C148.79 66.9277 150.118 68.2601 150.118 69.8999C150.118 71.5426 148.788 72.872 147.15 72.872H124.168" stroke="black" stroke-width="2" stroke-miterlimit="10" stroke-linecap="round" stroke-linejoin="round"/>
<path d="M112.721 68.8104C116.204 65.1502 117.342 62.8193 119.147 57.7799C124.42 57.0185 127.792 55.1679 127.792 53.2148C127.792 52.0493 126.935 51.1445 124.853 51.1445C124.853 51.1445 119.223 51.1445 116.526 51.1445C114.596 51.1445 112.914 51.6833 111.437 53.3875C109.919 55.1357 103.602 61.5748 103.602 61.5748H47.686" stroke="black" stroke-width="2" stroke-miterlimit="10" stroke-linecap="round" stroke-linejoin="round"/>
</g>
<defs>
<clipPath id="clip0_3025_56599">
<rect width="208" height="93" fill="white"/>
</clipPath>
</defs>
</svg>
