<svg width="262" height="148" viewBox="0 0 262 148" fill="none" xmlns="http://www.w3.org/2000/svg">
<path d="M110.46 0.319179C115.124 -0.781974 120.27 1.01729 123.084 4.92531C126.639 9.41628 125.25 15.4546 125.516 20.7301C125.855 26.4734 121.659 32.1231 115.944 33.1523C100.787 35.5849 86.2204 41.616 73.8342 50.6915C69.0122 54.434 61.4624 53.6567 57.5544 48.9426C54.4669 45.3441 49.8967 42.674 48.5868 37.852C47.0971 33.1163 48.9035 27.5673 52.9123 24.6309C69.7607 12.0432 89.6894 3.62264 110.46 0.319179ZM110.172 7.07004C91.0784 10.3519 72.7762 18.1391 57.2089 29.6689C54.2294 31.425 53.8479 36.175 56.482 38.4133C59.0154 40.9467 61.3473 43.7248 64.1901 45.9271C66.3924 47.1362 69.1201 46.3013 70.905 44.7108C82.665 36.1966 96.3035 30.3094 110.532 27.4522C113.022 26.862 116.059 26.9844 117.772 24.7533C119.464 22.335 118.78 19.1827 118.931 16.419C118.809 13.6338 119.507 10.136 117.089 8.10642C115.268 6.26397 112.468 6.55185 110.172 7.07004Z" fill="black"/>
<path d="M145.74 0.362356C147.316 -0.0334834 148.972 -0.0334818 150.576 0.189628C171.707 3.33475 191.974 11.8705 209.118 24.6021C213.306 27.7688 215.17 33.764 213.148 38.6724C212.155 41.7456 209.549 43.7967 207.397 46.0278C205.044 48.3021 202.978 51.0946 199.805 52.2821C195.889 53.7647 191.233 53.1098 187.915 50.5332C175.622 41.4865 161.099 35.5561 146.042 33.181C140.357 32.1303 136.218 26.4374 136.513 20.7373C136.78 16.0448 135.664 10.9852 137.895 6.62381C139.464 3.54346 142.379 1.19002 145.74 0.362356ZM147.194 6.78935C144.61 7.52345 142.94 10.2583 143.113 12.8925C143.221 16.2463 142.775 19.6505 143.423 22.9612C143.948 25.4514 146.517 26.7612 148.856 27.0059C164.28 29.5753 179.012 35.8727 191.657 45.0418C193.709 46.8843 197.278 47.093 199.157 44.9195C201.417 42.6236 203.756 40.3925 205.922 38.0103C207.98 35.8512 207.764 31.7704 205.21 30.0647C189.254 17.9304 170.189 10.0064 150.411 6.82534C149.346 6.71018 148.259 6.60942 147.194 6.78935Z" fill="black"/>
<path d="M32.0119 47.7264C36.0063 46.618 40.6196 47.6184 43.5776 50.598C45.967 53.0306 48.4428 55.3841 50.7819 57.8671C54.5532 61.9046 54.913 68.5691 51.6599 73.0241C41.181 87.591 34.682 105.03 33.3362 122.943C33.0915 126.772 30.9683 130.421 27.7224 132.486C23.1163 135.473 17.4018 133.991 12.2631 134.336C5.71377 134.653 -0.22382 128.758 0.00648628 122.209C1.38833 98.7249 9.38428 75.7086 22.6557 56.2981C24.9947 52.75 27.5713 48.7412 32.0119 47.7264ZM32.818 54.3909C31.9543 54.8371 31.3138 55.6 30.7164 56.3413C16.8189 75.2336 8.26873 98.0772 6.66378 121.496C6.124 124.721 8.98125 128.017 12.2775 127.736C15.6745 127.729 19.0859 127.887 22.4758 127.614C24.9372 127.139 26.7005 124.714 26.722 122.238C28.3198 103.583 34.7972 85.3239 45.7007 70.0661C47.3057 68.0581 47.9678 65.0714 46.3125 62.8762C44.139 60.3141 41.6056 58.0758 39.2881 55.6432C37.6976 53.8223 34.9771 53.5057 32.818 54.3909Z" fill="black"/>
<path d="M222.835 47.9279C227.643 46.2654 233.444 47.8919 236.409 52.095C251.264 72.1605 260.433 96.5226 261.944 121.482C262.527 127.089 258.468 132.638 253.034 133.955C248.882 134.717 244.621 134.207 240.432 134.322C234.308 134.372 228.946 128.924 228.73 122.871C227.427 106.973 222.26 91.3983 213.674 77.9469C212.04 75.1905 209.737 72.7866 208.7 69.7135C207.146 64.9634 208.909 59.5656 212.695 56.3917C216.034 53.5488 218.481 49.3385 222.835 47.9279ZM224.836 54.2038C221.619 56.0678 219.446 59.3065 216.689 61.7607C214.422 63.6679 214.149 67.2449 215.991 69.5407C227.003 84.9353 233.782 103.331 235.294 122.202C235.337 124.555 236.884 126.7 239.05 127.556C242.649 127.887 246.276 127.729 249.889 127.729C253.121 127.851 255.92 124.721 255.381 121.511C253.747 98.1491 245.29 75.3128 231.407 56.4564C230.054 54.2397 227.269 53.3689 224.836 54.2038Z" fill="black"/>
<path d="M123.34 142.502L88.2542 93.1123L94.1918 89.064L143.582 124.15V137.374L135.485 144.661L123.34 142.502Z" fill="#8F1402"/>
<path d="M92.4168 85.9357C95.6411 85.0649 98.7574 86.6914 101.161 88.6994C112.806 97.048 124.494 105.339 135.945 113.954C138.723 116.127 141.746 118.071 144.013 120.82C147.784 125.577 148.597 132.458 146.035 137.956C143.617 143.57 137.744 147.305 131.698 147.586C126.063 147.845 120.543 144.973 117.283 140.418C106.861 126.772 96.9078 112.774 86.9758 98.7609C83.7371 94.1044 86.8391 86.8714 92.4168 85.9357ZM92.3952 92.9745C92.2585 94.27 92.5823 95.5223 93.4532 96.5154C103.169 109.996 112.698 123.627 122.889 136.762C125.502 140.662 130.957 141.965 135.182 140.058C139.673 138.122 142.084 132.544 140.4 127.938C139.392 124.469 136.168 122.504 133.512 120.381C121.112 111.104 108.524 102.064 95.893 93.104C94.8422 92.082 93.5827 92.4491 92.3952 92.9745Z" fill="black"/>
<path d="M46.1686 127.952C47.3202 127.628 48.5365 127.765 49.724 127.729C64.1541 127.823 78.5987 127.643 93.0288 127.808C95.7277 128.06 96.6202 131.774 94.7633 133.494C93.6981 134.537 92.1004 134.286 90.7545 134.358C76.1229 134.271 61.484 134.444 46.8524 134.278C43.5633 134.091 43.0235 128.902 46.1686 127.952Z" fill="black"/>
<path d="M158.522 130.874C158.529 129.125 160.206 127.664 161.926 127.772C179.768 127.657 197.617 127.866 215.458 127.671C218.783 128.528 218.805 133.94 215.221 134.278C197.465 134.401 179.696 134.343 161.941 134.307C160.041 134.516 158.335 132.753 158.522 130.874Z" fill="black"/>
</svg>
