<svg width="101" height="112" viewBox="0 0 101 112" fill="none" xmlns="http://www.w3.org/2000/svg">
<path d="M62.123 0.565241C68.5085 0.187356 74.9999 1.50394 80.6803 4.45482C87.7325 8.05797 93.4971 14.044 96.9654 21.1516C99.6467 26.5912 100.951 32.6735 100.879 38.7293C100.879 52.9325 100.879 67.1333 100.879 81.3365C100.857 84.4077 101.033 87.5199 100.366 90.5429C98.956 97.6313 94.248 103.959 87.8914 107.387C82.7406 110.212 76.5861 111.081 70.8408 109.902C62.8258 108.325 55.8602 102.438 52.878 94.8465C52.05 92.8175 51.5758 90.6681 51.2557 88.5091C49.7803 80.0175 46.0279 71.9327 40.4655 65.3449C39.4859 64.1632 38.4172 63.0608 37.3726 61.9416C32.7201 56.9472 29.5237 50.6146 28.2817 43.9017C26.97 36.8615 27.7209 29.4314 30.525 22.8316C33.7189 15.2546 39.5774 8.85706 46.7861 4.91694C51.4916 2.34877 56.7724 0.866106 62.123 0.565241ZM61.1241 4.10822C57.5089 4.44278 53.9467 5.37185 50.6371 6.87136C43.2383 10.2122 37.1416 16.3594 33.8826 23.7992C31.235 29.79 30.4816 36.5751 31.6297 43.016C32.7586 49.4328 35.8707 55.467 40.4054 60.1412C45.3395 65.1933 49.2748 71.2274 51.831 77.8152C53.292 81.517 54.2764 85.3946 54.9142 89.3202C56.0864 96.2955 61.023 102.44 67.4976 105.237C74.6269 108.381 83.4241 107.165 89.4511 102.233C93.2564 99.1814 95.9594 94.7887 96.9558 90.011C97.6707 86.7665 97.353 83.4257 97.4252 80.133C97.4228 66.1657 97.4276 52.1984 97.4228 38.2286C97.4324 32.8973 96.2458 27.5564 93.9014 22.7618C90.8062 16.3763 85.6722 10.98 79.3781 7.68249C73.8157 4.72921 67.3845 3.51131 61.1241 4.10822Z" fill="black"/>
<path d="M62.0818 14.5466C66.5947 14.0844 71.2281 15.1315 75.1393 17.418C81.1855 20.9249 85.4674 27.2262 86.6443 34.1004C87.1546 36.8178 86.9837 39.5905 87.0126 42.3368C86.9982 46.029 87.0439 49.7212 86.9909 53.4134C86.9476 54.718 85.1858 55.4906 84.223 54.5784C83.4672 53.8996 82.5863 53.3196 81.5585 53.1848C79.7606 52.8599 77.8158 53.6782 76.853 55.2427C75.6953 56.966 75.9336 59.4548 77.3922 60.9326C79.0144 62.7138 82.0688 62.8461 83.8403 61.2118C84.3578 60.6871 85.1256 60.3141 85.8597 60.6318C86.926 60.9808 87.3688 62.4659 86.6058 63.3179C84.7092 65.4167 81.6307 66.3097 78.8917 65.6333C75.4161 64.8439 72.6842 61.5464 72.6505 57.9673C72.4869 54.4797 74.889 51.1004 78.2009 50.0365C79.9194 49.4517 81.8209 49.5191 83.525 50.1328C83.5154 46.0892 83.5298 42.0432 83.5178 37.9996C83.4985 31.667 80.3912 25.4162 75.303 21.6325C71.9477 19.1029 67.714 17.7213 63.5043 17.9548C56.3533 18.2532 49.5706 22.836 46.6751 29.39C44.4415 34.3771 44.5306 40.327 46.8484 45.2684C47.597 46.9461 48.6656 48.6165 50.4058 49.3891C52.536 50.4746 54.9814 49.7092 57.2343 50.181C60.539 50.7803 63.4056 53.2666 64.4863 56.4437C65.4009 58.9758 64.8449 61.7053 65.0784 64.3264C65.3383 66.6731 67.1026 68.7527 69.3627 69.4218C70.0992 69.6697 70.8887 69.6385 71.6469 69.7732C72.7901 70.0548 73.2739 71.6193 72.4941 72.5003C71.9044 73.2946 70.8213 73.1766 69.9596 73.0659C66.4359 72.6591 63.2852 70.1102 62.1275 66.7622C61.1936 64.247 61.7448 61.5272 61.5234 58.9181C61.3068 56.6339 59.6701 54.576 57.5086 53.8202C56.038 53.2714 54.4446 53.5121 52.9138 53.4544C49.7584 53.4231 46.6751 51.7238 44.9782 49.0617C42.0755 44.4645 40.9972 38.789 41.8709 33.4336C42.5208 29.2191 44.4295 25.214 47.2744 22.0393C51.0365 17.7983 56.4352 15.0617 62.0818 14.5466Z" fill="black"/>
<path d="M9.44542 64.633C11.1471 64.219 12.921 64.4838 14.6492 64.5873C24.3322 65.4514 33.5194 70.4409 39.6089 78.0034C44.9907 84.5743 47.9681 93.0683 47.8213 101.562C47.7274 103.505 46.6226 105.356 44.9739 106.381C43.0893 107.596 40.5283 107.635 38.6052 106.477C36.7134 105.392 35.5268 103.242 35.5773 101.066C35.5605 95.8459 33.8371 90.6421 30.6816 86.4782C26.6717 81.0915 20.3776 77.4643 13.684 76.7976C12.0834 76.5617 10.3986 76.8625 8.86295 76.244C6.76893 75.4521 5.20444 73.4351 4.983 71.2039C4.6003 68.306 6.62452 65.3647 9.44542 64.633ZM10.1723 68.0099C8.73057 68.4793 7.96517 70.2893 8.64873 71.6492C9.13012 72.7467 10.3625 73.2835 11.513 73.1992C19.0683 73.2522 26.5008 76.605 31.5963 82.1746C36.2801 87.1906 38.9951 93.9805 39.0409 100.845C38.9831 101.88 39.4332 102.966 40.3598 103.488C41.5224 104.222 43.2024 103.839 43.9413 102.682C44.4275 102.003 44.4227 101.136 44.389 100.34C44.2951 96.7052 43.6188 93.0852 42.3624 89.6722C39.8303 82.7451 34.8961 76.7446 28.6382 72.8502C23.4633 69.6057 17.3666 67.8775 11.2626 67.8535C10.8944 67.8583 10.5213 67.8775 10.1723 68.0099Z" fill="#8F1402"/>
<path d="M84.3026 77.8321C85.2412 77.187 86.7095 77.7912 86.8804 78.9296C86.9815 79.9622 86.8996 81.0068 86.9237 82.0442C86.8707 84.2056 87.1235 86.42 86.5073 88.526C85.6191 91.7489 83.1641 94.4879 80.0568 95.7179C77.0409 96.9286 73.4594 96.7625 70.6265 95.1378C67.8368 93.5517 65.7308 90.7307 65.1941 87.5464C64.9919 86.278 64.7199 85.024 64.5057 83.7603C64.3348 82.9372 64.8884 82.0634 65.6875 81.8276C66.5082 81.5532 67.4927 82.0201 67.7911 82.8337C68.3953 84.7447 68.3327 86.8267 69.1414 88.6776C70.0247 90.5671 71.7048 92.0931 73.7001 92.7285C75.8037 93.3447 78.1745 93.0414 80.0231 91.8476C82.0401 90.5863 83.3831 88.3046 83.4673 85.9217C83.5203 83.7411 83.4625 81.558 83.4914 79.3773C83.4674 78.7636 83.7754 78.1522 84.3026 77.8321Z" fill="black"/>
<path d="M4.62173 80.7219C5.84926 80.3897 7.13455 80.5173 8.38615 80.604C14.1555 81.0829 19.6986 83.7402 23.723 87.8969C27.9592 92.2149 30.4888 98.1528 30.6429 104.204C30.7247 105.525 30.4985 106.895 29.7981 108.04C28.6548 110.026 26.3225 111.242 24.0359 111.032C21.706 110.873 19.5639 109.244 18.7768 107.049C18.2064 105.59 18.5072 103.987 18.139 102.488C17.2364 97.8471 13.3805 93.9599 8.74237 93.0357C7.2212 92.6482 5.59172 92.9611 4.11147 92.3834C1.8249 91.5675 0.164123 89.2833 0.111171 86.8523C-0.0404651 84.0868 1.94283 81.4103 4.62173 80.7219ZM5.33177 84.1036C4.04648 84.5296 3.26904 86.0243 3.66137 87.3241C3.96946 88.5492 5.21383 89.3772 6.46061 89.3001C10.2419 89.3411 13.9919 90.8213 16.7598 93.4015C19.9249 96.2393 21.7999 100.432 21.8432 104.68C21.7542 105.992 22.6904 107.292 23.9998 107.525C25.4873 107.872 27.0903 106.693 27.1745 105.167C27.3189 99.6378 25.0492 94.126 21.1669 90.2076C17.6792 86.6405 12.8871 84.3876 7.90958 84.0122C7.05512 83.9688 6.16456 83.8364 5.33177 84.1036Z" fill="#8F1402"/>
</svg>
