<svg width="204" height="63" viewBox="0 0 204 63" fill="none" xmlns="http://www.w3.org/2000/svg">
<path d="M183.287 0.0999183C187.057 -0.337209 190.943 0.677111 194.074 2.8058C197.405 5.04069 199.849 8.39918 201.453 12.0393C203.734 17.2649 204.496 23.1384 203.685 28.7764C203.254 31.6362 202.383 34.456 200.902 36.9525C200.32 37.9438 199.59 38.8334 198.906 39.7538C196.805 42.5382 194.696 45.3149 192.604 48.1054C191.026 50.2203 189.393 52.2966 187.985 54.53C187.175 55.7613 186.474 57.0712 185.512 58.1948C183.957 60.0387 181.861 61.4209 179.546 62.1012C176.534 63.0032 173.16 62.7661 170.366 61.2931C168.399 60.2726 166.766 58.5965 165.873 56.5617C165.225 55.121 164.96 53.5326 164.967 51.9595C164.962 42.2057 164.967 32.452 164.965 22.6997C164.984 21.1113 164.916 19.5213 165.025 17.9375C165.359 13.3461 167.422 8.91635 170.706 5.6933C172.689 3.737 175.101 2.21629 177.725 1.28509C179.515 0.637094 181.402 0.309247 183.287 0.0999183ZM183.287 1.81149C181.828 1.99311 180.366 2.22707 178.961 2.67189C176.073 3.56462 173.434 5.23463 171.38 7.45105C168.397 10.6341 166.683 14.9638 166.675 19.3258C166.669 29.6353 166.675 39.9431 166.674 50.2526C166.683 51.5871 166.595 52.9446 166.941 54.2483C167.549 56.7372 169.307 58.9136 171.614 60.0295C173.157 60.8006 174.924 61.0576 176.63 60.8822C179.276 60.6898 181.878 59.5723 183.72 57.6422C184.844 56.5109 185.595 55.0887 186.457 53.7619C187.225 52.546 188.053 51.3685 188.902 50.208C192.098 45.9198 195.336 41.664 198.555 37.3943C200.508 34.7823 201.576 31.6054 202.039 28.4024C202.755 23.2615 202.067 17.9252 200.063 13.1383C198.592 9.67208 196.335 6.44442 193.203 4.29419C190.342 2.3071 186.754 1.3682 183.287 1.81149Z" fill="black"/>
<path d="M182.424 4.8027C185.105 4.29785 187.96 4.74883 190.338 6.09407C192.561 7.33619 194.357 9.31096 195.405 11.629C195.972 12.8526 196.275 14.1748 196.581 15.4831C197.26 18.6138 197.686 21.8091 197.706 25.0152C197.725 27.7211 197.292 30.4439 196.29 32.9651C195.174 35.8157 193.366 38.3553 191.234 40.5348C189.872 41.9847 188.27 43.2068 186.493 44.1026C183.938 45.3955 181.058 46.1944 178.18 45.9665C176.241 45.8157 174.309 45.0461 172.955 43.6224C171.552 42.1802 170.78 40.0977 171.086 38.0906C171.309 36.3682 172.393 34.8137 173.875 33.9302C174.971 33.2637 176.247 32.8989 177.241 32.0662C178.228 31.2427 178.497 29.6928 177.828 28.5923C176.724 26.8238 175.57 25.0876 174.466 23.3206C173.062 21.0426 172.437 18.2982 172.727 15.637C173.041 12.6233 174.477 9.73577 176.71 7.68405C178.296 6.21567 180.298 5.19673 182.424 4.8027ZM180.323 7.2777C178.074 8.35359 176.269 10.2837 175.283 12.5663C174.425 14.5288 174.183 16.7514 174.58 18.8554C175.413 19.2448 176.162 19.7851 176.97 20.2191C179.001 21.3674 181.271 22.0107 183.561 22.3801C186.281 22.8665 188.523 25.1984 188.936 27.9258C189.231 29.525 188.711 31.1027 188.462 32.6696C188.366 33.0513 188.377 33.5254 188.034 33.787C187.541 34.1795 186.656 33.8317 186.653 33.1744C186.823 31.3659 187.645 29.5589 187.147 27.7365C186.663 25.8017 184.945 24.2703 182.969 24.0055C180.281 23.5776 177.672 22.6603 175.331 21.2704C175.55 21.7475 175.799 22.2108 176.078 22.6557C177.141 24.3534 178.253 26.0234 179.308 27.7273C180.454 29.6051 179.909 32.2894 178.106 33.5577C176.59 34.7505 174.386 35.0384 173.324 36.7823C172.12 38.6924 172.864 41.2859 174.483 42.7127C175.564 43.7147 177.03 44.255 178.499 44.2765C182.111 44.315 185.748 43.0806 188.522 40.7503C190.056 39.4081 191.436 37.8828 192.602 36.2097C194.468 33.5484 195.633 30.3993 195.907 27.1578C196.175 23.8901 195.795 20.607 195.224 17.3932C194.774 15.1583 194.366 12.8249 193.059 10.9025C191.591 8.65219 189.211 7.00527 186.567 6.49272C184.474 6.0756 182.245 6.34188 180.323 7.2777Z" fill="#8F1402"/>
<path d="M20.7126 0.0999183C16.9431 -0.337209 13.0567 0.677111 9.92597 2.8058C6.59519 5.04069 4.15097 8.39918 2.54714 12.0393C0.266075 17.2649 -0.495819 23.1384 0.315327 28.7764C0.7463 31.6362 1.61748 34.456 3.09817 36.9525C3.67998 37.9438 4.40955 38.8334 5.09449 39.7538C7.19547 42.5382 9.30415 45.3149 11.3959 48.1054C12.9736 50.2203 14.6066 52.2966 16.015 54.53C16.8246 55.7613 17.5264 57.0712 18.4884 58.1948C20.043 60.0387 22.1394 61.4209 24.4543 62.1012C27.4665 63.0032 30.8404 62.7661 33.634 61.2931C35.601 60.2726 37.2341 58.5965 38.1268 56.5617C38.7748 55.121 39.0396 53.5326 39.0334 51.9595C39.038 42.2057 39.0334 32.452 39.035 22.6997C39.0165 21.1113 39.0842 19.5213 38.9749 17.9375C38.6409 13.3461 36.5784 8.91635 33.2938 5.6933C31.3114 3.737 28.8995 2.21629 26.2752 1.28509C24.4851 0.637094 22.5981 0.309247 20.7126 0.0999183ZM20.7126 1.81149C22.1717 1.99311 23.6339 2.22707 25.0392 2.67189C27.9267 3.56462 30.5664 5.23463 32.6197 7.45105C35.6026 10.6341 37.3172 14.9638 37.3249 19.3258C37.3311 29.6353 37.3249 39.9431 37.3265 50.2526C37.3172 51.5871 37.405 52.9446 37.0587 54.2483C36.4507 56.7372 34.6929 58.9136 32.3857 60.0295C30.8434 60.8006 29.0765 61.0576 27.3695 60.8822C24.7237 60.6898 22.1224 59.5723 20.28 57.6422C19.1564 56.5109 18.4053 55.0887 17.5434 53.7619C16.7753 52.546 15.9473 51.3685 15.0976 50.208C11.9023 45.9198 8.66385 41.664 5.44542 37.3943C3.4922 34.7823 2.42401 31.6054 1.96071 28.4024C1.245 23.2615 1.93301 17.9252 3.93702 13.1383C5.40848 9.67208 7.66492 6.44442 10.7972 4.29419C13.6585 2.3071 17.2463 1.3682 20.7126 1.81149Z" fill="black"/>
<path d="M21.5763 4.8027C18.895 4.29785 16.0399 4.74883 13.6618 6.09407C11.4393 7.33619 9.64303 9.31096 8.59485 11.629C8.02843 12.8526 7.72522 14.1748 7.41892 15.4831C6.74014 18.6138 6.31378 21.8091 6.29377 25.0152C6.2753 27.7211 6.70782 30.4439 7.70982 32.9651C8.82573 35.8157 10.6343 38.3553 12.766 40.5348C14.1282 41.9847 15.7305 43.2068 17.5067 44.1026C20.0617 45.3955 22.9416 46.1944 25.8198 45.9665C27.7592 45.8157 29.6909 45.0461 31.0453 43.6224C32.4475 42.1802 33.2202 40.0977 32.9139 38.0906C32.6907 36.3682 31.6071 34.8137 30.1249 33.9302C29.029 33.2637 27.753 32.8989 26.7587 32.0662C25.7721 31.2427 25.5028 29.6928 26.1723 28.5923C27.2759 26.8238 28.4303 25.0876 29.5339 23.3206C30.9376 21.0426 31.5625 18.2982 31.2731 15.637C30.9591 12.6233 29.5231 9.73577 27.2897 7.68405C25.7044 6.21567 23.7019 5.19673 21.5763 4.8027ZM23.6773 7.2777C25.926 8.35359 27.7315 10.2837 28.7166 12.5663C29.5754 14.5288 29.8171 16.7514 29.42 18.8554C28.5873 19.2448 27.8377 19.7851 27.0296 20.2191C24.9994 21.3674 22.7292 22.0107 20.4389 22.3801C17.7191 22.8665 15.4765 25.1984 15.064 27.9258C14.7685 29.525 15.2888 31.1027 15.5381 32.6696C15.6335 33.0513 15.6228 33.5254 15.966 33.787C16.4585 34.1795 17.3436 33.8317 17.3466 33.1744C17.1773 31.3659 16.3554 29.5589 16.8526 27.7365C17.3374 25.8017 19.0551 24.2703 21.0314 24.0055C23.7188 23.5776 26.3278 22.6603 28.6689 21.2704C28.4503 21.7475 28.2009 22.2108 27.9223 22.6557C26.8588 24.3534 25.7475 26.0234 24.6916 27.7273C23.5465 29.6051 24.0913 32.2894 25.8937 33.5577C27.4098 34.7505 29.6139 35.0384 30.6759 36.7823C31.8796 38.6924 31.1362 41.2859 29.5169 42.7127C28.4364 43.7147 26.9696 44.255 25.5012 44.2765C21.8888 44.315 18.2517 43.0806 15.4781 40.7503C13.9435 39.4081 12.5644 37.8828 11.3977 36.2097C9.53221 33.5484 8.36705 30.3993 8.09308 27.1578C7.82526 23.8901 8.20544 20.607 8.77647 17.3932C9.22591 15.1583 9.6338 12.8249 10.9406 10.9025C12.4089 8.65219 14.7885 7.00527 17.4328 6.49272C19.5261 6.0756 21.7548 6.34188 23.6773 7.2777Z" fill="#8F1402"/>
</svg>
