<svg width="28" height="28" viewBox="0 0 28 28" fill="none" xmlns="http://www.w3.org/2000/svg">
<path d="M9.36539 5.42229C9.67816 4.5939 10.4865 3.93967 11.3896 4.00442C14.9115 4.00889 18.4335 3.99326 21.9555 4.01112C23.2308 4.03569 24.0501 5.3955 23.9973 6.59008C23.9973 11.8127 24.0039 17.0354 23.9951 22.258C24.0391 23.4973 23.0744 24.8437 21.7638 24.7588C18.3035 24.7566 14.8411 24.7589 11.3786 24.7566C10.2354 24.8303 9.33015 23.7764 9.19139 22.6935C9.10769 21.7891 9.16936 20.8826 9.16055 19.9761C9.68036 19.9761 10.2002 19.9783 10.72 19.9805C10.7662 20.9183 10.6936 21.8628 10.8499 22.7939C13.231 22.9324 15.6186 22.8163 18.004 22.8542C19.4335 22.8297 20.8652 22.9145 22.2903 22.7962C22.3806 22.3228 22.44 21.8427 22.4356 21.3604C22.429 16.7362 22.4312 12.1119 22.4334 7.48992C22.4378 6.99199 22.3894 6.4963 22.3211 6.00507C21.9158 5.94478 21.5105 5.88673 21.1008 5.89343C18.5282 5.89789 15.9534 5.89789 13.3807 5.89566C12.5261 5.89789 11.6649 5.84653 10.8235 6.01177C10.7112 6.92724 10.7618 7.84941 10.7464 8.76935C10.2156 8.77158 9.68697 8.77605 9.15835 8.77828C9.20901 7.66185 8.99535 6.49853 9.36539 5.42229Z" fill="white"/>
<path d="M12.4053 6.71973C14.8964 9.27858 17.403 11.8173 19.8897 14.3784C17.4008 16.9351 14.903 19.485 12.4097 22.0394C12.3921 20.7532 12.4075 19.4694 12.3987 18.1855C10.619 18.1922 8.83708 18.1698 7.05738 18.1765C7.05518 15.6422 7.05738 13.1079 7.05518 10.5736C8.83488 10.5781 10.6168 10.5513 12.3965 10.5714C12.4031 9.28751 12.3987 8.00362 12.4053 6.71973Z" fill="white"/>
<path d="M4.82839 10.5723C5.29754 10.5745 5.76449 10.5745 6.23144 10.5767C6.23144 13.111 6.23585 15.6476 6.23144 18.1818C5.76229 18.1796 5.29534 18.1774 4.82839 18.1796C4.81957 15.6431 4.81957 13.1066 4.82839 10.5723Z" fill="white"/>
<path d="M3 10.58C3.32158 10.5733 3.64316 10.5733 3.96694 10.5756C3.96694 13.1121 3.96914 15.6464 3.96694 18.1807C3.64536 18.1807 3.32378 18.1762 3.0022 18.1673C2.9978 15.6374 3.0022 13.1098 3 10.58Z" fill="white"/>
</svg>
