<svg width="229" height="54" viewBox="0 0 229 54" fill="none" xmlns="http://www.w3.org/2000/svg">
<path d="M47.8187 0.463374C60.9467 -1.2881 74.2794 2.07472 85.9523 8.03511C94.2408 12.2656 101.969 17.6386 108.775 23.9924C110.591 25.6307 110.408 28.7618 108.511 30.2707C101.651 36.5706 93.9228 41.9436 85.6074 46.131C74.1177 51.9135 61.0598 55.2225 48.1744 53.5788C31.6189 51.4447 16.4377 43.0646 3.88102 32.3455C2.29122 30.8528 -0.0314941 29.5001 0.000840732 27.0318C-0.0530507 24.3966 2.49601 23.0061 4.16126 21.4002C16.5832 10.886 31.5219 2.65137 47.8187 0.463374ZM47.5492 5.38904C31.5489 7.80877 17.0575 16.3182 5.14747 26.9995C17.2623 37.8479 32.0501 46.492 48.3684 48.7178C57.1473 49.8872 66.1202 48.5669 74.4411 45.6406C85.7637 41.6418 96.0084 34.9808 104.922 27.0049C98.924 21.605 92.3222 16.8464 85.1762 13.0794C73.7459 6.97885 60.5263 3.43278 47.5492 5.38904Z" fill="black"/>
<path d="M52.681 6.85534C61.406 5.69128 70.4166 10.9888 73.7202 19.1318C76.1022 24.7042 75.7842 31.349 72.8525 36.6627C69.8454 42.2566 64.0844 46.2715 57.7791 47.0907C50.4606 48.1739 42.7434 44.8057 38.5129 38.7429C34.4387 33.1436 33.6142 25.3994 36.3788 19.051C39.1326 12.4708 45.5781 7.6206 52.681 6.85534ZM52.654 11.7487C45.896 12.6972 40.259 18.6252 39.677 25.4317C39.0464 31.0203 41.7949 36.792 46.5104 39.8531C50.8756 42.8117 56.7875 43.2482 61.5461 40.9848C68.0939 38.0585 71.8825 30.2173 70.007 23.2707C68.2879 15.7259 60.285 10.3852 52.654 11.7487Z" fill="#8F1402"/>
<path d="M52.589 17.5708C55.6177 16.7732 58.9967 17.5439 61.3625 19.5971C63.8038 21.6558 65.1079 24.9701 64.6984 28.1443C64.3319 31.5934 61.9445 34.7137 58.7326 36.0071C55.5799 37.3382 51.7375 36.8208 49.0591 34.6921C46.4076 32.6658 44.9418 29.2168 45.3567 25.9078C45.734 21.9791 48.7681 18.5085 52.589 17.5708ZM56.8194 21.1223C54.6853 22.0923 54.583 25.4551 56.6632 26.5491C58.6356 27.8371 61.5295 26.1018 61.3302 23.7576C61.3355 21.575 58.7056 20.0444 56.8194 21.1223Z" fill="#8F1402"/>
<path d="M165.842 0.463374C178.97 -1.2881 192.303 2.07472 203.976 8.03511C212.264 12.2656 219.992 17.6386 226.799 23.9924C228.615 25.6307 228.432 28.7618 226.535 30.2707C219.674 36.5706 211.946 41.9436 203.631 46.131C192.141 51.9135 179.083 55.2225 166.198 53.5788C149.642 51.4447 134.461 43.0646 121.904 32.3455C120.315 30.8528 117.992 29.5001 118.024 27.0318C117.97 24.3966 120.519 23.0061 122.185 21.4002C134.607 10.886 149.545 2.65137 165.842 0.463374ZM165.573 5.38904C149.572 7.80877 135.081 16.3182 123.171 26.9995C135.286 37.8479 150.074 46.492 166.392 48.7178C175.171 49.8872 184.144 48.5669 192.465 45.6406C203.787 41.6418 214.032 34.9808 222.946 27.0049C216.947 21.605 210.346 16.8464 203.2 13.0794C191.769 6.97885 178.55 3.43278 165.573 5.38904Z" fill="black"/>
<path d="M170.704 6.85534C179.429 5.69128 188.44 10.9888 191.744 19.1318C194.126 24.7042 193.808 31.349 190.876 36.6627C187.869 42.2566 182.108 46.2715 175.803 47.0907C168.484 48.1739 160.767 44.8057 156.536 38.7429C152.462 33.1436 151.638 25.3994 154.402 19.051C157.156 12.4708 163.602 7.6206 170.704 6.85534ZM170.677 11.7487C163.919 12.6972 158.282 18.6252 157.7 25.4317C157.07 31.0203 159.818 36.792 164.534 39.8531C168.899 42.8117 174.811 43.2482 179.57 40.9848C186.117 38.0585 189.906 30.2173 188.03 23.2707C186.311 15.7259 178.308 10.3852 170.677 11.7487Z" fill="#8F1402"/>
<path d="M170.612 17.5708C173.641 16.7732 177.02 17.5439 179.386 19.5971C181.827 21.6558 183.131 24.9701 182.722 28.1443C182.355 31.5934 179.968 34.7137 176.756 36.0071C173.603 37.3382 169.761 36.8208 167.083 34.6921C164.431 32.6658 162.965 29.2168 163.38 25.9078C163.757 21.9791 166.791 18.5085 170.612 17.5708ZM174.843 21.1223C172.709 22.0923 172.606 25.4551 174.687 26.5491C176.659 27.8371 179.553 26.1018 179.354 23.7576C179.359 21.575 176.729 20.0444 174.843 21.1223Z" fill="#8F1402"/>
</svg>
