<svg width="114" height="50" viewBox="0 0 114 50" fill="none" xmlns="http://www.w3.org/2000/svg">
<path d="M0.872309 16.1313C0.880545 16.0848 0.897933 15.9925 0.907084 15.946C1.72885 15.9308 2.55154 15.9441 3.37422 15.9403C3.37148 16.2454 3.56914 16.5981 3.36324 16.8691C3.00909 17.1552 2.52409 16.9936 2.11595 17.0963C1.889 17.2531 1.97136 17.5916 1.96953 17.8321C1.95672 18.0156 2.11503 18.1544 2.28524 18.1258C2.65495 18.1686 3.08962 18.0032 3.38887 18.3036C3.38612 18.5023 3.38612 18.7019 3.38795 18.9016C3.32847 18.9577 3.26899 19.0138 3.2095 19.0699C2.81418 19.0965 2.40787 19.087 2.02535 19.2029C1.83684 19.7676 2.09673 20.4483 1.85971 21.0064C1.56596 21.1898 1.19168 21.1471 0.861328 21.1328C0.865904 19.4663 0.886951 17.7988 0.872309 16.1313Z" fill="#8F1402"/>
<path d="M5.39186 16.5892C5.54743 16.3278 5.6664 15.8752 6.04525 15.9446C6.42045 15.957 6.57876 16.3553 6.71969 16.6529C7.20287 17.7908 7.6229 18.9564 8.0585 20.1143C8.16099 20.4242 8.30558 20.7236 8.34035 21.0535C8.01549 21.1571 7.66317 21.1666 7.34746 21.0221C7.06469 20.8358 7.10861 20.3519 6.75995 20.2436C6.43326 20.1856 6.09833 20.2331 5.76889 20.2169C5.52913 20.2245 5.261 20.1713 5.05602 20.3339C4.82266 20.4974 4.89038 20.8891 4.63049 21.025C4.27909 21.1733 3.88559 21.1762 3.54883 20.9841C4.11986 19.5001 4.73024 18.0314 5.39186 16.5892ZM5.97479 17.8412C5.76157 18.2586 5.56756 18.7016 5.50351 19.1731C5.83844 19.2282 6.17611 19.2159 6.5083 19.1541C6.51928 18.6911 6.28959 18.2662 6.09101 17.8659C6.06172 17.8602 6.00407 17.8469 5.97479 17.8412Z" fill="#8F1402"/>
<path d="M8.87312 15.9004C9.54298 15.9527 10.2202 15.9574 10.8836 16.0829C11.5407 16.2331 12.0467 16.8691 12.1657 17.5422C12.2545 18.2286 11.7411 18.7552 11.3457 19.2296C11.8271 19.8238 12.3606 20.3714 12.8209 20.9855C12.7834 21.0045 12.7074 21.0425 12.6699 21.0615C12.5628 21.2945 12.2956 21.2812 12.0861 21.2774C11.5718 21.2793 11.2762 20.7735 10.9477 20.4417C10.5954 20.0909 10.3291 19.6413 9.93007 19.3504C9.91634 19.8304 9.96118 20.3162 9.88248 20.7925C9.83215 21.2869 9.15039 21.4342 8.84109 21.092C8.84017 19.915 8.82461 18.7372 8.83926 17.5603C8.85115 17.007 8.80997 16.4518 8.87312 15.9004ZM10.0719 17.0887C9.89438 17.199 9.95661 17.468 9.93281 17.6506C9.95844 17.9253 9.8715 18.2799 10.0911 18.4871C10.5533 18.5974 11.0685 18.1516 10.9779 17.6449C10.9321 17.2028 10.4526 16.9975 10.0719 17.0887Z" fill="#8F1402"/>
<path d="M16.0982 25.8375C16.854 25.6959 17.6273 25.7462 18.3914 25.7158C18.6275 25.7291 18.9039 25.6749 19.1034 25.8404C19.1592 26.0476 19.14 26.2691 19.1116 26.4792C18.8462 26.7254 18.4427 26.6845 18.116 26.7901C18.105 28.1467 18.1013 29.5033 18.1022 30.8599C17.803 30.857 17.4946 30.9045 17.2018 30.8256C17.0133 30.7791 17.0316 30.5395 17.0334 30.3845C17.0846 29.1648 17.0316 27.9451 17.016 26.7254C16.6225 26.6389 16.0432 26.8861 15.8108 26.4336C15.8071 26.2159 15.8392 25.8774 16.0982 25.8375Z" fill="#8F1402"/>
<path d="M14.3787 26.1907C14.3961 25.7619 15.109 25.6298 15.2444 26.0452C15.4146 26.5538 15.3753 27.1043 15.3917 27.6347C15.3762 28.7337 15.3771 29.8346 15.3341 30.9336C15.0339 31.0068 14.6578 31.0866 14.4364 30.7929C13.7262 29.924 13.2138 28.8982 12.5247 28.0141C12.4405 28.8069 12.4652 29.6064 12.4195 30.4012C12.3792 30.6274 12.3874 31.0096 12.0946 31.0343C11.8567 31.0676 11.4156 31.0638 11.422 30.7178C11.292 29.1121 11.368 27.4988 11.3479 25.8903C11.6435 25.8779 11.9647 25.7876 12.23 25.9768C12.5796 26.2164 12.7489 26.6365 12.9932 26.974C13.3794 27.6148 13.7821 28.2498 14.2717 28.8126C14.3192 27.939 14.3458 27.0644 14.3787 26.1907Z" fill="#8F1402"/>
<path d="M9.47249 25.976C9.79918 25.8848 10.1378 25.8544 10.4754 25.8496C10.545 27.1387 10.4983 28.4326 10.5239 29.7245C10.4983 30.1618 10.599 30.62 10.4416 31.0393C10.1231 31.0421 9.63171 31.1372 9.47523 30.7684C9.37182 29.6646 9.44778 28.5504 9.43405 27.4429C9.43954 26.9533 9.42215 26.4628 9.47249 25.976Z" fill="#8F1402"/>
<path d="M5.80505 25.9683C6.33123 25.8523 6.88488 25.9512 7.37904 26.1574C8.04341 26.4483 8.45338 27.1309 8.67666 27.8145C8.95028 28.6482 8.82125 29.6426 8.23009 30.2966C7.51081 31.1703 6.24155 31.4707 5.22212 31.0429C4.54219 30.6265 3.96201 29.9534 3.77899 29.1416C3.50995 27.7498 4.49186 26.282 5.80505 25.9683ZM5.95878 27.0815C5.51313 27.283 5.13427 27.6509 4.89909 28.092C4.71606 28.5712 4.90458 29.095 5.14342 29.5142C5.37128 29.9886 5.93408 30.174 6.41359 30.0951C7.1045 29.9924 7.60598 29.3517 7.77253 28.6815C7.79724 28.0863 7.39002 27.5758 6.93887 27.2602C6.65976 27.0463 6.29097 26.994 5.95878 27.0815Z" fill="#8F1402"/>
<path d="M0 26.0195C0.641493 26.0385 1.2839 26.0443 1.92265 26.1013C2.54035 26.1479 3.09399 26.6185 3.32002 27.2041C3.46187 27.9228 3.46278 28.7879 2.92653 29.3431C2.4708 29.806 1.78264 29.748 1.19605 29.8269C1.09264 30.1635 1.11003 30.5181 1.11003 30.867C1.13108 31.0286 0.991981 31.1246 0.90413 31.233C0.598483 31.2672 0.297411 31.3357 0 31.4136V26.0195ZM1.36809 27.0653C1.10911 27.1347 1.09722 27.4978 1.0963 27.7269C1.11735 28.072 1.01669 28.5036 1.28665 28.7679C1.77623 28.8715 2.38295 28.4894 2.32438 27.9209C2.34543 27.3932 1.83663 27.0339 1.36809 27.0653Z" fill="#8F1402"/>
<path d="M69.9479 21.6304C70.3094 21.6143 70.6709 21.6219 71.0333 21.6152C71.0333 22.9576 71.0323 24.3009 71.0342 25.6432C71.4753 25.6774 71.9182 25.6803 72.3602 25.6879C72.5121 25.6907 72.7216 25.7107 72.7647 25.898C72.8067 26.1974 72.7884 26.5007 72.8086 26.803C72.0042 26.8344 71.1989 26.8144 70.3954 26.8258C70.2426 26.8306 70.0944 26.8059 69.947 26.7754C69.926 25.0604 69.9461 23.3454 69.9479 21.6304Z" fill="#060606"/>
<path d="M73.3161 21.6285C74.2093 21.6276 75.1024 21.6095 75.9956 21.6295C75.9416 21.9346 76.0011 22.3092 75.7897 22.5564C75.4108 22.7617 74.9505 22.6505 74.5561 22.8054C74.3356 22.8758 74.4408 23.1553 74.4216 23.3302C74.8187 23.5603 75.2983 23.4538 75.7165 23.605C76.0477 23.7333 75.9837 24.1544 75.9343 24.4425C75.765 24.6374 75.474 24.5414 75.2516 24.5822C74.9716 24.6241 74.643 24.568 74.4143 24.7733C74.4216 25.0233 74.4207 25.2753 74.417 25.5262C74.8306 25.819 75.3907 25.6128 75.8144 25.8656C75.9873 26.1223 75.9462 26.4807 75.991 26.7821C75.0997 26.823 74.2084 26.8543 73.3161 26.823C73.3097 25.0918 73.317 23.3597 73.3161 21.6285Z" fill="#060606"/>
<path d="M76.7635 21.7399C77.0957 21.5108 77.5926 21.5992 77.9238 21.7922C78.3915 22.5946 78.9103 23.3637 79.421 24.1375C79.5189 24.2906 79.6113 24.4503 79.7477 24.5739C79.8465 23.6299 79.8154 22.6801 79.8154 21.7333C80.1732 21.5536 80.5749 21.6373 80.9574 21.6135C80.9218 23.0756 80.9483 24.5396 80.854 25.9989C80.8119 26.268 80.8632 26.6644 80.5493 26.7642C80.1448 26.8878 79.8364 26.5237 79.6058 26.2366C79.0101 25.4542 78.493 24.6128 77.9339 23.8029C77.9083 24.5682 77.8946 25.3344 77.8442 26.0987C77.825 26.3307 77.8021 26.6026 77.5944 26.7423C77.3565 26.845 77.0911 26.8013 76.8422 26.8032C76.7461 26.2537 76.7736 25.6909 76.7626 25.1357C76.7443 24.0035 76.7699 22.8722 76.7635 21.7399Z" fill="#060606"/>
<path d="M82.6755 21.6528C82.9994 21.5939 83.3316 21.6224 83.6611 21.6205C83.9704 21.6243 84.3868 21.7973 84.3776 22.1795C84.3227 22.4305 84.0802 22.5721 83.867 22.6586C83.4918 22.6862 83.0974 22.594 82.7396 22.7442C82.6133 22.9828 82.8274 23.2186 83.0022 23.3545C83.4863 23.7338 84.0839 23.9886 84.4407 24.5229C84.8205 25.0609 84.7565 25.8918 84.2623 26.332C83.7993 26.756 83.1459 27.0868 82.5218 26.8796C82.1466 26.7522 81.7302 26.6124 81.4767 26.2787C81.3504 25.8975 81.6991 25.5724 82.0221 25.5078C82.3149 25.6256 82.595 25.8177 82.9262 25.8063C83.1797 25.8215 83.5558 25.734 83.5924 25.4193C83.6025 25.003 83.2053 24.7719 82.9024 24.5913C82.3406 24.2614 81.6826 23.8308 81.6185 23.094C81.5005 22.4076 82.0349 21.7593 82.6755 21.6528Z" fill="#060606"/>
<path d="M88.9843 0H90.9061C94.2096 0.120734 97.4866 0.963974 100.452 2.48314C104.22 4.39873 107.464 7.37051 109.858 10.9403C111.754 13.7618 113.034 17.0131 113.664 20.388C113.772 21.0297 113.811 21.6809 113.88 22.3273C113.931 22.8008 113.889 23.2837 114 23.7505V26.1005C113.968 26.2384 113.946 26.3781 113.932 26.5188C113.887 27.5103 113.795 28.5009 113.644 29.482C113.224 31.6467 112.55 33.76 111.62 35.746C110.206 38.7976 108.17 41.5279 105.713 43.7496C103.298 45.9761 100.426 47.6606 97.3475 48.6664C95.0945 49.4099 92.7445 49.7939 90.3908 49.9755C89.3348 50.0639 88.2815 49.8966 87.2392 49.735C84.4234 49.3281 81.6524 48.5058 79.1075 47.1787C76.4336 45.7717 74.0387 43.8133 72.0502 41.487C70.9548 40.2474 70.0973 38.7662 68.7915 37.7385C67.0216 36.2897 65.6014 34.4036 64.6122 32.3045C64.1793 31.4718 63.8782 30.5677 63.3868 29.7682C62.8478 29.6284 62.2896 29.6066 61.7396 29.5438C51.5618 28.4857 41.3729 27.5493 31.1923 26.5274C23.7424 25.7896 16.2915 25.0747 8.84345 24.3209C7.83591 24.2096 6.8238 24.1298 5.82175 23.9748C5.56826 23.9396 5.32301 23.8617 5.08691 23.7619C5.0979 23.6383 5.04939 23.4605 5.19215 23.3987C5.41635 23.2903 5.66892 23.277 5.91051 23.24C7.34541 23.085 8.78854 23.0432 10.228 22.95C25.6348 22.0935 41.0334 21.101 56.4338 20.1199C58.8104 19.9383 61.1942 19.8385 63.5634 19.5656C63.9139 18.8374 64.1775 18.0674 64.538 17.3439C65.1722 16.0121 65.9986 14.7819 66.9759 13.6953C68.0274 12.4414 69.2811 11.3966 70.4094 10.2216C71.3776 9.23191 72.2213 8.12058 73.206 7.14805C74.5246 5.80381 75.9714 4.58696 77.5555 3.59351C79.0965 2.62288 80.7593 1.87281 82.4706 1.29005C84.1168 0.735815 85.8107 0.303262 87.5375 0.141649C88.018 0.0751025 88.5057 0.0846092 88.9843 0ZM80.6788 2.63049C80.1398 2.81872 79.7454 3.26458 79.4269 3.73421C78.4953 5.12884 77.5829 6.54153 76.7749 8.01791C75.9129 9.57985 75.243 11.2445 74.6399 12.9281C74.5896 13.0526 74.575 13.1876 74.5649 13.3217C74.9749 12.7189 75.2503 12.0297 75.6804 11.4403C75.9394 11.0886 76.2304 10.7149 76.6504 10.5723C77.1226 10.4402 77.5372 10.8091 77.8319 11.1465C78.4148 11.8814 78.8101 12.7503 79.2027 13.604C80.0162 15.3913 80.4985 17.3097 81.0649 19.1901C81.2425 19.2329 81.4218 19.2757 81.6049 19.2985C83.5943 19.6065 85.5737 19.9906 87.5549 20.3518C95.7433 21.9024 103.943 23.3873 112.134 24.9217C112.279 23.8721 112.186 22.8084 112.069 21.7617C111.876 20.2149 111.547 18.6853 111.062 17.2089C109.805 13.3312 107.481 9.87741 104.576 7.13569C103.067 5.81902 101.53 4.4976 99.7598 3.57355C98.4283 2.95752 97.1014 2.31392 95.6939 1.90228C90.7935 0.425898 85.4291 0.710147 80.6788 2.63049ZM74.5109 6.69934C73.1639 7.94471 71.8992 9.30036 70.8614 10.8357C70.6464 11.138 70.435 11.4555 70.144 11.6827C69.4668 12.0098 68.9388 12.5744 68.4044 13.1011C67.4527 14.0908 66.5064 15.1184 65.8457 16.3476C65.3589 17.2251 64.9022 18.1235 64.5234 19.058C64.474 19.1778 64.4419 19.3014 64.4273 19.4316C64.9645 19.5076 65.5062 19.4725 66.0452 19.4478C68.1491 19.3318 70.2538 19.2205 72.3476 18.9933C72.4794 18.6654 72.5187 18.3098 72.6029 17.9676C72.8472 16.8154 73.1172 15.6679 73.4604 14.5423C74.4954 11.1266 75.9037 7.80876 77.852 4.84364C78.0744 4.47003 78.3443 4.12303 78.5127 3.71615C77.0677 4.53372 75.7573 5.58896 74.5109 6.69934ZM76.7593 11.3167C76.4491 11.4061 76.2634 11.7084 76.0913 11.9689C75.6786 12.6505 75.3702 13.3911 75.0774 14.1345C74.4862 15.7078 73.8932 17.2859 73.4512 18.9125C73.5995 18.9753 73.756 19.0247 73.9198 19.0152C74.7122 19.0162 75.502 19.1055 76.2945 19.1074C77.5143 19.1036 78.7369 19.1416 79.9531 19.019C80.0629 19.0104 80.1681 18.9791 80.2679 18.9268C79.6786 16.8097 79.0178 14.6973 78.0268 12.7418C77.82 12.3482 77.6104 11.9518 77.3331 11.6057C77.1949 11.4327 76.9863 11.2768 76.7593 11.3167ZM70.263 19.7843C68.2177 19.9497 66.1614 19.9839 64.1244 20.252C63.7922 21.1647 63.7163 22.1429 63.6696 23.1078C63.6641 25.1033 63.5323 27.1396 64.0567 29.0837C64.6844 29.3261 65.3863 29.232 66.0434 29.3556C68.064 29.4991 70.0781 29.7995 72.0978 29.9098C72.1371 29.1179 71.8736 28.3469 71.8909 27.5569C71.8791 27.3944 72.0969 27.42 72.1875 27.3573C72.386 27.4533 72.6194 27.5569 72.6624 27.8117C72.8326 28.4838 72.8948 29.1797 73.0138 29.8632C75.3922 29.926 77.7733 29.9507 80.1526 29.964C80.331 29.3679 80.4976 28.7567 80.514 28.1292C80.5305 27.9163 80.5177 27.691 80.6083 27.4932C80.8343 27.3297 81.3642 27.2641 81.3944 27.6558C81.3596 28.4391 81.0384 29.1788 81.0265 29.9659C90.0669 28.6464 99.0963 27.2394 108.122 25.8163C108.959 25.648 109.841 25.6214 110.635 25.2839C110.401 25.1736 110.145 25.1508 109.896 25.1071C107.567 24.7182 105.247 24.2743 102.924 23.8493C95.7827 22.5203 88.6384 21.2008 81.4932 19.8965C81.4511 19.9098 81.3669 19.9373 81.3248 19.9507C81.2965 20.3442 81.3907 20.7293 81.4054 21.119C81.4026 21.3586 81.1235 21.3139 80.9734 21.369C80.5589 21.177 80.5525 20.6465 80.5104 20.2463C80.493 19.9687 80.1819 19.8651 79.9558 19.8651C78.6143 19.8214 77.2727 19.8204 75.9321 19.7976C75.0225 19.7947 74.1128 19.7491 73.2051 19.789C73.098 20.1893 73.0156 20.5952 72.9241 21.0002C72.9012 21.2207 72.7164 21.3624 72.5462 21.466C72.3229 21.5858 72.2122 21.2939 72.182 21.119C72.1756 20.6389 72.2268 20.1598 72.2067 19.6797C71.5551 19.6445 70.9127 19.7814 70.263 19.7843ZM53.6455 20.8376C48.3552 21.1989 43.0585 21.4403 37.7729 21.8254C33.2586 22.1239 28.7444 22.3644 24.2338 22.6933C19.3782 22.9823 14.5272 23.3692 9.66705 23.5889L9.7247 23.7077C11.9301 24.0385 14.1548 24.2277 16.3693 24.4901C20.0243 24.8646 23.6783 25.2516 27.3388 25.5681C30.1482 25.8144 32.953 26.1233 35.7578 26.4142C44.24 27.2299 52.7175 28.0893 61.1997 28.8917C61.8668 28.9325 62.5321 29.0495 63.202 28.9858C63.4124 28.8793 63.2166 28.596 63.2111 28.422C62.7893 26.3648 62.7618 24.2258 63.0455 22.1457C63.1242 21.5269 63.31 20.9241 63.3228 20.2957C62.7041 20.2758 62.0865 20.3423 61.4688 20.3528C58.8598 20.5011 56.2535 20.6817 53.6455 20.8376ZM111.567 25.9693C103.066 27.1976 94.5921 28.616 86.0944 29.867C84.6284 30.0952 83.156 30.2853 81.6964 30.5553C81.4383 30.6114 81.1757 30.6494 80.9295 30.7483C80.6989 30.8443 80.6358 31.1172 80.5543 31.3339C79.868 33.4482 79.1158 35.5549 78.0634 37.5066C77.7989 37.9677 77.5335 38.4496 77.13 38.7957C76.6367 39.1693 75.9284 38.9611 75.5313 38.5324C74.9126 37.7842 74.6436 36.804 74.0982 36.0083C74.1641 36.4399 74.3306 36.8449 74.4606 37.2575C74.9611 38.8014 75.5651 40.3082 76.2496 41.7732C76.9085 43.1716 77.6241 44.5501 78.5081 45.8116C78.8421 46.3193 79.3967 46.5854 79.9256 46.8155C82.7195 48.02 85.7229 48.7311 88.7491 48.8224C89.7832 48.8071 90.8219 48.8014 91.8504 48.6731C96.7646 48.0732 101.507 45.842 105.08 42.2685C107.393 39.9565 109.23 37.1396 110.478 34.0699C111.27 32.0479 111.883 29.9355 112.158 27.767C112.188 27.2308 112.294 26.6871 112.192 26.1537C112.144 25.8343 111.777 25.9712 111.567 25.9693ZM64.2992 29.8556C64.5829 30.8462 65.0743 31.756 65.5437 32.662C66.1248 33.7857 66.878 34.8019 67.7126 35.7336C68.3001 36.3886 68.9004 37.0645 69.6636 37.4999C69.918 37.6777 70.1138 37.9296 70.3087 38.1721C70.9438 38.9906 71.5295 39.85 72.1902 40.6476C73.356 42.1002 74.7058 43.3855 76.1517 44.533C76.5324 44.8277 76.9003 45.148 77.3267 45.3724C77.248 45.1842 77.1684 45.0007 77.0668 44.8267C75.2494 41.795 74.0378 38.4164 73.1071 34.9911C72.7383 33.6526 72.4812 32.2855 72.2295 30.9194C72.2094 30.5639 71.7994 30.5867 71.5514 30.5287C69.7194 30.3243 67.8828 30.1694 66.0516 29.9574C65.465 29.9507 64.8867 29.8081 64.2992 29.8556ZM73.2526 30.5905C73.4119 31.7018 73.7953 32.759 74.1266 33.8247C74.3947 34.5956 74.6326 35.3857 75.017 36.1053C75.2448 36.5331 75.3007 37.0417 75.5825 37.4419C75.8085 37.7747 76.0556 38.1968 76.4812 38.2519C76.9753 38.0969 77.2517 37.5931 77.5116 37.1672C78.4486 35.5083 79.0727 33.684 79.6136 31.853C79.7106 31.505 79.8543 31.1666 79.8799 30.8015C78.7799 30.7008 77.6754 30.7179 76.5745 30.6637C75.4672 30.6314 74.3599 30.5867 73.2526 30.5905Z" fill="#060606"/>
</svg>
