<svg width="335" height="219" viewBox="0 0 335 219" fill="none" xmlns="http://www.w3.org/2000/svg">
<g clip-path="url(#clip0_6799_59095)">
<path d="M187.935 0H196.035C230.32 1.64 260.555 18.92 280.78 46.345C281.51 47.335 282.645 49.16 283.775 50.37C283.954 50.5618 284.189 50.6914 284.445 50.74C297.215 53.15 310.04 55.9 322.01 61.065C327.515 63.44 333.41 67.13 335 73.15V76.135C334.887 77.2017 334.827 78.2817 334.82 79.375C334.737 88.7383 334.74 98.1017 334.83 107.465C334.853 109.958 334.74 111.72 334.49 112.75C332.295 121.775 316.095 126.965 308.12 129.36C307.96 129.41 307.882 129.518 307.885 129.685C308.118 137.228 307.74 144.738 306.75 152.215C306.43 154.665 306.77 155.955 307.195 158.37C307.97 162.76 308.34 168.06 308.31 173.405C308.309 173.486 308.33 173.565 308.373 173.634C308.415 173.703 308.477 173.759 308.55 173.795C319.03 178.965 321.17 189.155 319.69 199.96C318.767 206.71 316.655 213.057 313.355 219H305.92C310.865 211.36 313.765 202.635 313.735 193.5C313.72 188.735 312.31 184.165 308.345 181.16C308.062 180.947 307.903 181.015 307.87 181.365C307.18 188.885 305.648 196.34 303.275 203.73C301.645 208.807 300.035 213.897 298.445 219H291.845L292.705 216.02C292.713 215.993 292.714 215.965 292.709 215.937C292.703 215.91 292.691 215.884 292.674 215.862C292.656 215.839 292.634 215.821 292.608 215.809C292.582 215.796 292.554 215.79 292.525 215.79C290.425 215.857 288.333 215.927 286.25 216C283.84 216.09 282.33 216.027 281.72 215.81C279.085 214.865 279.23 210.13 281.995 209.84C284.675 209.557 288.135 209.445 292.375 209.505C292.942 209.512 293.68 209.447 294.59 209.31C294.763 209.283 294.878 209.188 294.935 209.025C296.658 204.092 298.157 199.09 299.43 194.02C299.437 193.987 299.438 193.953 299.431 193.921C299.424 193.888 299.41 193.857 299.39 193.831C299.369 193.805 299.344 193.783 299.314 193.768C299.285 193.753 299.253 193.745 299.22 193.745C293.827 193.628 288.42 193.52 283 193.42C277.965 193.325 278.285 186.95 282.76 187.04C288.607 187.16 294.525 187.283 300.515 187.41C300.602 187.412 300.686 187.381 300.751 187.323C300.815 187.266 300.856 187.186 300.865 187.1L302.04 175.415C302.044 175.372 302.038 175.328 302.024 175.287C302.01 175.246 301.988 175.209 301.958 175.177C301.929 175.146 301.894 175.121 301.854 175.104C301.815 175.087 301.773 175.079 301.73 175.08C297.747 175.11 293.753 175.043 289.75 174.88C286.07 174.735 286.18 168.805 289.75 168.705C293.657 168.598 297.508 168.648 301.305 168.855C301.625 168.872 301.778 168.72 301.765 168.4C301.282 156.11 297.987 144.655 291.88 134.035C291.783 133.87 291.638 133.739 291.464 133.661C291.29 133.583 291.096 133.562 290.91 133.6C281.623 135.477 272.282 137.02 262.885 138.23C262.728 138.25 262.692 138.327 262.775 138.46C278.385 163.16 277.245 192.565 266.56 219H259.81C260.693 216.573 261.565 214.148 262.425 211.725C271.18 187.1 270.845 160.9 255.45 139.035C255.427 139.002 255.397 138.975 255.362 138.955C255.328 138.935 255.289 138.922 255.249 138.918C255.209 138.914 255.168 138.918 255.13 138.93C255.091 138.943 255.055 138.963 255.025 138.99C251.94 141.74 248.79 145.09 245.95 147.44C230.18 160.49 211.065 167.155 190.515 165.15C171.805 163.32 154.675 155.2 139.295 144.77C136.43 142.83 134.41 143.185 131.175 143.06C112.858 142.37 94.5933 140.952 76.38 138.805C76.21 138.782 76.0717 138.838 75.965 138.975C69.075 147.875 66.205 159.505 64.26 169.96C63.65 173.235 63.03 176.785 61.975 178.975C56.98 189.34 44.54 182.31 38.57 177.53C38.4478 177.433 38.2929 177.385 38.135 177.395C13.63 179.095 20.76 206.095 29.055 219H21.635C13.46 203.94 8.995 178.235 31.435 172.085C31.615 172.035 31.6433 171.94 31.52 171.8C30.5933 170.743 30.0117 169.81 29.775 169C25.91 155.84 24.435 142.63 24.54 128.925C24.54 128.748 24.4567 128.635 24.29 128.585C16.225 126.115 1.835 121.18 0 111.47V76.25C0.425 72.945 0.98 70.225 3.31 67.685C5.675 65.1 9.52 62.86 13.055 61.29C25.935 55.575 40.825 52.38 54.38 50.26C54.87 50.1833 55.3767 49.895 55.9 49.395C60.5367 44.9417 65.615 41.0633 71.135 37.76C85.65 29.08 102.005 24.515 118.79 23.06C120.285 22.935 121.42 22.775 122.735 21.905C142.16 9.055 164.61 1.235 187.935 0ZM122.715 29.105C93.665 31.13 66.155 41.755 49.925 67.225C45.485 74.1917 41.74 81.4967 38.69 89.14C38.6752 89.1776 38.6684 89.2179 38.6701 89.2583C38.6718 89.2987 38.6819 89.3383 38.6998 89.3745C38.7177 89.4108 38.743 89.4429 38.774 89.4688C38.805 89.4947 38.8411 89.5139 38.88 89.525C41.07 90.1617 43.2233 90.6817 45.34 91.085C77.7 97.255 110.525 99.57 143.405 100.625C143.955 100.642 144.595 100.803 145.325 101.11C146.208 101.483 147.142 101.67 148.125 101.67C161.492 101.717 174.858 101.722 188.225 101.685C188.942 101.682 189.668 101.403 190.405 100.85C190.538 100.75 190.69 100.697 190.86 100.69C225.865 99.615 260.995 97.085 295.16 90.045C295.188 90.0393 295.214 90.0278 295.237 90.0113C295.261 89.9948 295.28 89.9736 295.295 89.9492C295.309 89.9247 295.319 89.8975 295.322 89.8692C295.326 89.8409 295.323 89.8123 295.315 89.785C279.995 38.085 233.325 -0.795 177.24 7.4C158.513 10.1367 141.035 17.0933 124.805 28.27C124.23 28.665 123.28 29.065 122.715 29.105ZM48.585 57.82C48.6317 57.7533 48.615 57.7267 48.535 57.74C36.745 59.895 24.74 62.775 13.845 67.92C11.4117 69.07 9.31167 70.655 7.545 72.675C3.78 76.98 14.57 81.905 17.235 83.02C21.9883 85.0067 26.9467 86.6433 32.11 87.93C32.3267 87.9867 32.475 87.9083 32.555 87.695C36.445 76.95 42 67.225 48.585 57.82ZM327.32 72.03C324.07 68.715 319.06 66.545 314.86 65.055C306.43 62.055 297.745 59.745 288.805 58.125C288.78 58.1207 288.754 58.1236 288.73 58.1335C288.707 58.1433 288.686 58.1597 288.672 58.1806C288.657 58.2016 288.649 58.2263 288.647 58.2519C288.646 58.2774 288.652 58.3028 288.665 58.325C294.115 67.7783 298.405 77.7333 301.535 88.19C301.548 88.2308 301.575 88.2653 301.613 88.2866C301.65 88.3079 301.693 88.3145 301.735 88.305C308.642 86.765 315.307 84.4483 321.73 81.355C323.93 80.295 326.095 78.6817 328.225 76.515C328.335 76.4018 328.404 76.2556 328.42 76.1C328.575 74.515 328.51 73.245 327.32 72.03ZM133.825 106.795C133.825 106.757 133.81 106.721 133.784 106.694C133.758 106.667 133.723 106.651 133.685 106.65L118.225 105.9C118.199 105.899 118.172 105.903 118.147 105.912C118.123 105.922 118.1 105.936 118.081 105.955C118.062 105.974 118.046 105.996 118.036 106.021C118.025 106.046 118.02 106.073 118.02 106.1C118 112.607 117.963 119.115 117.91 125.625C117.9 126.84 118.14 128.175 117.44 129.2C115.87 131.495 111.83 130.91 111.745 127.6C111.55 120.385 111.645 113.16 111.645 106.035C111.645 105.685 111.47 105.497 111.12 105.47L99.015 104.605C98.9853 104.603 98.9555 104.607 98.9276 104.617C98.8996 104.627 98.8742 104.643 98.8529 104.664C98.8316 104.685 98.815 104.71 98.8042 104.738C98.7933 104.766 98.7885 104.795 98.79 104.825C98.88 107.772 98.895 110.748 98.835 113.755C98.8117 115.025 98.6533 115.917 98.36 116.43C97.27 118.32 93.8 118.23 92.85 116.24C92.61 115.737 92.485 114.805 92.475 113.445C92.4583 110.408 92.4717 107.357 92.515 104.29C92.5183 104.127 92.44 104.037 92.28 104.02L76.825 102.41C76.605 102.387 76.495 102.487 76.495 102.71C76.4983 109.68 76.5167 116.693 76.55 123.75C76.56 126.21 75.3733 127.412 72.99 127.355C71.7767 127.325 70.9217 126.723 70.425 125.55C70.3583 125.397 70.3617 125.245 70.435 125.095C70.855 124.218 71.065 123.425 71.065 122.715C71.0617 116.325 71.06 109.84 71.06 103.26C71.0599 102.83 70.9054 102.414 70.6246 102.088C70.3438 101.763 69.9554 101.548 69.53 101.485L54.725 99.28C54.3517 99.2233 54.1717 99.3833 54.185 99.76C54.265 102.2 54.8 108.68 53.53 110.3C52.31 111.85 49.31 111.795 48.34 110C48.08 109.517 47.93 108.662 47.89 107.435C47.8 104.488 47.8083 101.505 47.915 98.485C47.925 98.1883 47.785 98.0117 47.495 97.955C41.4517 96.8083 35.4133 95.4317 29.38 93.825C21.24 91.66 13.635 89.06 6.625 84.525C6.46833 84.425 6.39 84.4683 6.39 84.655C6.35333 92.6817 6.36167 100.712 6.415 108.745C6.425 110.185 6.64333 111.317 7.07 112.14C8.72 115.315 13.505 117.575 16.765 118.955C22.725 121.475 28.85 123.503 35.14 125.04C61.38 131.45 88.78 134.365 115.7 135.945C163.295 138.74 210.7 137.925 258.62 132.335C273.32 130.618 287.447 128.098 301 124.775C307.083 123.282 313.193 121.162 319.33 118.415C322.84 116.845 328.535 113.83 328.48 109.25C328.387 101.187 328.382 93.1617 328.465 85.175C328.468 84.8717 328.343 84.8033 328.09 84.97C325.337 86.7733 322.417 88.2433 319.33 89.38C319.15 89.4467 319.047 89.5733 319.02 89.76C318.49 93.58 318.8 97.88 318.83 101.75C318.865 105.78 313.12 106.45 312.665 102.28C312.31 99.02 312.545 95.575 312.58 92.31C312.58 92.2782 312.573 92.2467 312.559 92.218C312.546 92.1894 312.526 92.1644 312.501 92.145C312.476 92.1255 312.447 92.1123 312.417 92.1062C312.386 92.1001 312.355 92.1014 312.325 92.11L296.71 96.255C296.58 96.2883 296.515 96.3717 296.515 96.505C296.482 102.445 296.48 108.387 296.51 114.33C296.535 119.045 290.34 118.66 290.2 115.115C290.06 111.565 290.062 105.837 290.205 97.93C290.208 97.7167 290.107 97.6283 289.9 97.665L274.78 100.23C274.333 100.303 274.122 100.567 274.145 101.02C274.26 103.235 274.755 108.92 273.51 110.4C272.29 111.845 269.565 111.755 268.49 110.21C267.405 108.66 267.8 103.82 267.9 101.9C267.923 101.467 267.72 101.275 267.29 101.325L252.1 103.115C252.042 103.122 251.989 103.151 251.951 103.194C251.914 103.237 251.893 103.293 251.895 103.35C251.942 109.92 251.938 116.513 251.885 123.13C251.875 124.44 251.75 125.333 251.51 125.81C250.55 127.75 247.325 127.845 246.12 126.12C245.763 125.603 245.573 124.737 245.55 123.52C245.463 118.097 245.432 112.673 245.455 107.25C245.462 106.143 245.483 105.073 245.52 104.04C245.521 104.008 245.516 103.977 245.505 103.947C245.493 103.918 245.475 103.891 245.453 103.869C245.43 103.847 245.403 103.829 245.373 103.818C245.343 103.807 245.312 103.803 245.28 103.805L229.855 105.11C229.715 105.123 229.642 105.198 229.635 105.335C229.455 108.4 229.765 111.47 229.505 114.515C229.408 115.682 229.097 116.508 228.57 116.995C226.9 118.55 223.6 117.785 223.32 115.365C223.057 113.045 223.072 109.877 223.365 105.86C223.368 105.825 223.363 105.79 223.352 105.758C223.34 105.725 223.322 105.695 223.297 105.67C223.273 105.645 223.244 105.625 223.212 105.612C223.179 105.599 223.145 105.593 223.11 105.595L210.765 106.215C210.595 106.225 210.51 106.315 210.51 106.485C210.493 113.322 210.483 120.16 210.48 127C210.475 131.93 204.11 131.395 204.12 127.62C204.137 120.707 204.135 113.773 204.115 106.82C204.115 106.647 204.028 106.563 203.855 106.57L188.385 107.05C188.299 107.053 188.218 107.089 188.158 107.15C188.098 107.212 188.065 107.294 188.065 107.38C188.078 109.587 188.102 111.792 188.135 113.995C188.172 116.415 187.132 117.677 185.015 117.78C181.85 117.935 181.705 115.195 181.755 112.625C181.788 110.882 181.777 109.13 181.72 107.37C181.713 107.22 181.633 107.145 181.48 107.145L166.025 107.25C165.865 107.25 165.787 107.33 165.79 107.49C165.833 114.01 165.828 120.532 165.775 127.055C165.765 128.205 165.51 129.515 164.505 130C161.47 131.46 159.545 129.915 159.51 126.865C159.443 120.672 159.443 114.297 159.51 107.74C159.513 107.407 159.348 107.237 159.015 107.23L140.47 106.89C140.333 106.887 140.263 106.953 140.26 107.09C140.195 109.47 140.425 112.275 140.21 114.985C139.995 117.73 136.92 118.655 135.01 117.085C133.265 115.645 133.875 109.07 133.825 106.795ZM56.565 175.205C59.425 162.4 61.49 149.45 68.7 138.145C68.8333 137.938 68.7783 137.818 68.535 137.785C55.9717 136.088 43.535 133.722 31.225 130.685C31.055 130.645 30.9683 130.712 30.965 130.885C30.7583 142.738 32.2617 154.363 35.475 165.76C35.695 166.54 36.19 167.415 36.725 167.9C40.93 171.73 46.4 176.035 52.125 177.75C54.545 178.473 56.025 177.625 56.565 175.205ZM301.565 131.365C301.565 131.341 301.559 131.316 301.549 131.295C301.538 131.273 301.522 131.253 301.503 131.238C301.484 131.223 301.461 131.213 301.437 131.208C301.413 131.203 301.389 131.204 301.365 131.21L298.3 131.94C298.276 131.946 298.254 131.957 298.235 131.972C298.216 131.988 298.201 132.007 298.191 132.029C298.181 132.051 298.176 132.076 298.177 132.1C298.177 132.124 298.184 132.148 298.195 132.17L301.26 138.235C301.276 138.269 301.302 138.296 301.336 138.312C301.369 138.328 301.407 138.332 301.443 138.323C301.479 138.314 301.511 138.293 301.533 138.263C301.556 138.234 301.567 138.197 301.565 138.16V131.365ZM192.52 158.925C211.575 160.425 230.01 153.545 243.92 140.6C244.053 140.473 244.028 140.418 243.845 140.435C212.665 143.225 181.423 144.295 150.12 143.645C149.777 143.638 149.75 143.728 150.04 143.915C162.72 152.05 177.385 157.735 192.52 158.925Z" fill="#333333"/>
</g>
<defs>
<clipPath id="clip0_6799_59095">
<rect width="335" height="219" fill="white"/>
</clipPath>
</defs>
</svg>
