<svg width="95" height="88" viewBox="0 0 95 88" fill="none" xmlns="http://www.w3.org/2000/svg">
<path fill-rule="evenodd" clip-rule="evenodd" d="M73.021 2.06947C73.0948 3.28073 72.1728 4.32253 70.9615 4.39639C67.2136 4.62492 61.5828 5.84529 56.963 8.68248C52.4191 11.4731 49.0016 15.705 49.0016 22.1251C49.0016 23.2641 48.1312 24.2143 46.9966 24.3139C45.8619 24.4136 44.8392 23.6296 44.6407 22.508C43.7795 17.642 40.2018 12.0753 34.8931 8.50345C29.664 4.98512 22.8933 3.48846 15.5429 6.43953C8.99128 9.06988 5.79336 14.7439 5.19992 22.3437C4.60004 30.026 6.72428 39.403 10.6562 48.5851C14.5778 57.7431 20.2093 66.4999 26.3978 72.9305C32.6615 79.4393 39.1428 83.2091 44.7535 83.2091C49.2852 83.2091 54.1284 81.1785 58.9752 77.8501C63.7959 74.5396 68.4201 70.0829 72.4675 65.5577C76.5064 61.0421 79.9193 56.5167 82.3249 53.115C83.5262 51.4161 84.473 50.0023 85.1175 49.0164C85.4397 48.5235 85.6861 48.1379 85.8508 47.8774C85.8993 47.8006 85.9408 47.7347 85.9749 47.6802C85.9987 47.6422 86.019 47.6097 86.0357 47.5829C86.0561 47.5502 86.0711 47.5259 86.0808 47.5102L86.0934 47.4898L86.0935 47.4896C86.0936 47.4895 86.0936 47.4894 86.0937 47.4893C86.7284 46.4552 88.0812 46.1313 89.1154 46.7659C90.1498 47.4005 90.4738 48.7535 89.8392 49.7878L87.9664 48.6387C89.8392 49.7878 89.8389 49.7883 89.8385 49.789L89.8332 49.7975L89.8191 49.8205C89.8115 49.8328 89.8018 49.8485 89.79 49.8674L89.7663 49.9055C89.7204 49.9793 89.6531 50.0868 89.5652 50.2259C89.3893 50.504 89.1309 50.9083 88.7959 51.4208C88.126 52.4456 87.1491 53.9042 85.9129 55.6523C83.4433 59.1446 79.9256 63.8111 75.743 68.4874C71.5691 73.154 66.681 77.8893 61.4629 81.4727C56.2709 85.0382 50.549 87.6036 44.7535 87.6036C37.3271 87.6036 29.7613 82.7632 23.2314 75.9778C16.6263 69.1143 10.7179 59.8929 6.61647 50.315C2.52544 40.7613 0.143828 30.6446 0.818727 22.0016C1.50007 13.2761 5.35757 5.79327 13.9056 2.3614C22.7894 -1.20532 31.0823 0.64275 37.3463 4.85738C41.0468 7.34716 44.0887 10.6938 46.1693 14.302C47.9683 10.1614 51.1331 7.10577 54.6632 4.93778C60.0532 1.62751 66.4341 0.269758 70.694 0.0100042C71.9053 -0.0638535 72.9471 0.858198 73.021 2.06947Z" fill="black"/>
<path fill-rule="evenodd" clip-rule="evenodd" d="M72.146 15.9727C72.146 14.7591 73.1297 13.7754 74.3433 13.7754H86.6479C90.9707 13.7754 95.1611 17.4213 94.9963 22.2007C94.8813 25.5337 94.9483 31.7003 94.9972 34.3897C95.0193 35.6031 94.0536 36.6045 92.8402 36.6266C91.6269 36.6486 90.6255 35.6829 90.6034 34.4696C90.5546 31.788 90.4849 25.5131 90.6043 22.0493C90.6739 20.0318 88.7705 18.1699 86.6479 18.1699H74.3433C73.1297 18.1699 72.146 17.1862 72.146 15.9727Z" fill="#8F1402"/>
<path fill-rule="evenodd" clip-rule="evenodd" d="M81.4105 27.9909C82.2968 28.8198 82.3434 30.2102 81.5145 31.0965L66.7196 46.9168C66.6128 47.031 66.494 47.1335 66.3655 47.2226C63.9997 48.8604 57.9549 51.057 51.9346 47.2768C48.0173 44.8171 43.486 46.1065 41.5311 47.1916L29.9965 58.0053C29.1112 58.8353 27.7206 58.7904 26.8907 57.9051C26.0607 57.0198 26.1056 55.6293 26.9909 54.7993L38.7096 43.813C38.8234 43.7063 38.9482 43.6121 39.0819 43.5318C41.6384 41.9979 48.2423 39.7694 54.2715 43.5551C58.1738 46.0054 62.1076 44.7169 63.6867 43.7262L78.3048 28.0949C79.1337 27.2086 80.5242 27.162 81.4105 27.9909Z" fill="#8F1402"/>
</svg>
