<svg width="134" height="316" viewBox="0 0 134 316" fill="none" xmlns="http://www.w3.org/2000/svg">
<path d="M35.5252 10.8758C44.4718 3.94245 55.7252 -0.44421 67.1519 0.0357901C80.4719 -0.40421 93.5918 5.40911 103.032 14.6624C114.739 26.2358 120.605 43.7291 117.365 59.9691C115.365 72.0225 108.419 82.8224 99.2185 90.7024C107.405 91.8491 114.179 98.7158 115.779 106.756C119.072 123.236 121.885 139.822 125.499 156.236C128.605 172.889 132.232 189.556 133.232 206.502C134.352 218.036 127.165 229.156 116.899 234.062C116.859 261.262 116.819 288.449 116.912 315.649C114.992 315.809 113.072 315.929 111.152 315.996C79.7118 315.982 48.2585 315.969 16.8185 315.996C16.7918 288.782 16.7518 261.569 16.8452 234.356C6.12518 228.796 -1.20816 217.182 0.165174 204.916C3.85851 172.276 11.7118 140.289 17.5785 107.996C18.8718 99.3824 26.0185 91.5558 34.8718 90.6091C25.4985 82.4358 18.5652 71.2225 16.7252 58.8225C13.7385 41.0091 21.2852 21.9425 35.5252 10.8758ZM62.6985 11.7291C42.9785 13.5825 26.8852 32.1425 27.8185 51.9291C27.7785 72.9958 47.3652 91.5958 68.4585 90.2224C90.0585 90.1558 108.632 69.4625 106.445 47.9825C105.445 26.3958 84.0718 8.79579 62.6985 11.7291ZM28.9252 110.556C23.5518 142.116 18.0185 173.649 12.4718 205.182C12.0318 207.409 11.9918 209.702 11.9652 211.982C13.7252 217.969 18.2852 222.529 24.2318 224.356C47.8452 225.089 71.5118 224.476 95.1385 224.676C101.312 224.422 108.032 225.796 113.592 222.396C119.192 219.356 122.592 212.729 121.205 206.409C115.912 174.302 109.885 142.316 104.632 110.209C104.179 105.542 99.9385 101.649 95.1918 102.022C75.9918 101.996 56.7918 101.916 37.5918 102.062C32.9385 101.969 29.3252 106.142 28.9252 110.556ZM28.6185 236.396C28.4852 259.036 28.5785 281.689 28.5652 304.342C54.0852 304.289 79.6052 304.249 105.112 304.356C105.299 281.742 105.072 259.142 105.232 236.542C79.6852 236.329 54.1518 236.622 28.6185 236.396Z" fill="black"/>
</svg>
