<svg width="92" height="82" viewBox="0 0 92 82" fill="none" xmlns="http://www.w3.org/2000/svg">
<path d="M82.4819 0.381548C83.2473 -0.23339 84.3134 -0.0483443 85.0522 0.533873C85.4904 0.847548 85.741 1.42074 86.2165 1.67348C86.8768 2.05711 87.6805 1.86756 88.324 2.30083C88.8703 2.70365 89.0403 3.49122 89.1278 4.18401C89.2034 4.65001 89.1101 5.19274 89.4038 5.57863C89.9216 6.2669 90.7774 6.52529 91.196 7.32866C91.5644 8.00904 91.4377 8.87221 91.1842 9.57403C90.742 10.7701 90.0042 11.8397 89.0531 12.5528C88.5608 12.9274 87.9438 13.1012 87.368 12.9003C86.9564 11.1864 86.3167 9.43638 85.1082 8.26179C84.5246 7.67054 83.6954 7.38621 82.9418 7.68296C82.5812 6.16761 81.9818 4.62293 80.8519 3.66498C80.5188 3.36485 80.1288 3.17303 79.7466 2.97557C79.5118 2.86387 79.6198 2.49265 79.7633 2.3392C80.5287 1.44669 81.6743 1.20748 82.4819 0.381548Z" fill="black"/>
<path d="M78.9498 3.67372C79.4617 3.47288 80.01 3.70757 80.4315 4.05058C81.1399 4.64521 81.6488 5.52869 81.8954 6.49228C82.0487 7.14107 82.091 7.88012 81.8031 8.49055C81.5692 8.79068 81.2696 9.01183 81.0092 9.28038C79.6062 10.6603 78.2984 12.1791 76.7657 13.3762C75.958 13.999 75.0737 14.5147 74.1207 14.7652C72.3747 15.309 70.7575 16.2738 69.1737 17.2565C65.4685 19.6215 61.9658 22.378 58.5201 25.2067C55.4861 27.6653 52.6181 30.3767 49.7226 33.043C47.1316 35.4068 44.5368 37.7842 41.7238 39.7926C40.9712 40.2981 40.4622 41.1387 39.9503 41.924C39.2763 42.9869 38.675 44.1164 37.8988 45.0879C37.5903 45.4376 37.2326 45.8167 36.7758 45.8416C36.3592 45.8393 36.0684 45.4252 35.8856 45.0416C35.6577 44.535 35.416 44.0272 35.0652 43.6165C34.1514 42.4837 32.9017 41.8541 31.7609 41.0879C31.4131 40.842 31.0398 40.57 30.86 40.13C30.7057 39.7317 30.9003 39.3063 31.1243 39.0039C31.646 38.3055 32.3377 37.8203 33.0058 37.3317C37.946 33.8869 43.2958 31.2771 48.1309 27.6259C49.8689 26.3362 51.4626 24.8129 53.182 23.4894C56.4342 20.9112 59.8475 18.6195 63.2431 16.3031C64.8653 15.2244 66.4334 14.0351 68.1057 13.0591C70.0511 11.8936 72.0525 10.8375 73.8996 9.46994C75.4795 8.29986 76.9907 6.86011 77.8769 4.91826C78.1088 4.39359 78.4389 3.86215 78.9498 3.67372Z" fill="#8F1402"/>
<path d="M82.8439 8.47342C83.2143 8.1699 83.6889 8.03788 84.1389 8.13492C84.6655 8.26129 85.0959 8.68216 85.427 9.15154C86.0646 10.0824 86.4115 11.2186 86.6758 12.3492C86.8369 13.0612 87.112 13.7799 87.0236 14.5291C86.9234 15.1091 86.3417 15.2738 85.8996 15.2784C84.7196 15.2727 83.5405 15.0019 82.3585 15.152C81.1088 15.2761 79.9484 15.9181 78.9246 16.7215C75.6941 19.2298 72.5755 21.9377 69.6368 24.8838C65.3107 29.0575 60.7596 32.9096 56.2321 36.7865C54.948 37.8776 53.6687 38.9778 52.3816 40.0666C49.3191 42.5681 45.5746 43.6423 42.4748 46.0715C41.5394 46.8208 40.6767 47.7245 40.0597 48.8348C39.8485 49.2106 39.5419 49.5626 39.1411 49.6314C38.188 49.7781 37.1622 48.8032 37.3077 47.6535C37.3922 47.1863 37.4393 46.6763 37.1406 46.2904C37.5287 46.2679 37.8254 45.9508 38.0839 45.6507C38.5378 45.0865 38.9239 44.4501 39.2167 43.7596C39.6913 43.8544 40.1334 43.5881 40.5628 43.3963C42.0641 42.6335 43.4838 41.6767 44.8987 40.7255C46.5218 39.6017 48.144 38.4711 49.6679 37.1747C51.3617 35.7575 53.0173 34.2749 54.5815 32.6715C56.1299 31.1009 57.5507 29.3746 59.0815 27.7825C60.3804 26.3992 61.8041 25.1862 63.156 23.8751C64.8833 22.2255 66.5732 20.5251 68.2131 18.7626C68.5796 18.3215 69.0581 18.045 69.512 17.7438C70.4729 17.1288 71.4525 16.5466 72.4743 16.0761C72.9489 15.8391 73.4902 15.926 73.9609 15.6699C75.5182 14.9376 76.876 13.7664 78.2634 12.6945C79.8924 11.4341 81.208 9.72247 82.8439 8.47342Z" fill="#8F1402"/>
<path d="M23.371 39.6071C23.8721 39.5688 24.3722 39.4345 24.8752 39.474C25.1828 39.4954 25.2741 39.8903 25.2319 40.1837C25.1317 41.0367 25.3242 41.9292 25.0531 42.754C24.9676 43.0147 24.7593 43.3069 24.4861 43.2076C23.3061 42.9154 22.1055 43.2279 20.9363 43.4468C20.6022 43.5292 20.222 43.5032 19.9439 43.7661C19.3927 44.2637 19.0056 44.9746 18.4033 45.4022C18.1498 45.5873 17.8148 45.6414 17.5465 45.4654C16.8028 45.0434 16.1975 44.2874 15.9244 43.3859C15.5638 42.2339 16.2584 40.8212 17.3048 40.5809C18.3778 40.2988 19.5037 40.6666 20.5668 40.3033C21.4776 39.9637 22.4228 39.7549 23.371 39.6071Z" fill="black"/>
<path d="M25.935 40.26C26.0735 39.9192 26.441 40.0355 26.6689 40.1742C27.2535 40.515 27.8519 40.9077 28.5269 40.9178C29.138 40.9675 29.5615 40.2814 30.1716 40.2995C30.6649 40.5646 31.0058 41.0735 31.4185 41.4628C32.0846 42.1725 33.0858 42.2492 33.7166 43.0199C33.9868 43.2941 34.0536 43.7104 34.1754 44.0794C34.3258 44.3321 34.5203 44.6469 34.819 44.6379C35.1953 44.6232 35.4498 44.9843 35.6757 45.2777C36.0933 45.8655 36.451 46.5121 36.7359 47.1969C36.9353 47.6517 36.7241 48.1617 36.8135 48.6367C37.0031 49.3803 37.628 49.8948 37.7056 50.688C37.741 51.4711 37.1692 52.0533 36.6563 52.4595C36.2102 52.8239 35.6915 52.3263 35.211 52.4741C34.651 53.1071 34.5134 54.0628 34.0389 54.7658C33.7549 55.0546 33.3305 54.9361 32.9885 54.8944C32.2998 54.715 31.5658 54.434 31.0962 53.7954C30.8623 53.502 31.0736 53.1421 31.1964 52.8566C31.3742 52.482 31.4371 52.0465 31.386 51.6245C31.0805 51.8592 30.9557 52.3421 30.5823 52.464C30.1294 52.5813 29.7511 52.1232 29.6008 51.6809C29.4544 51.2612 29.7344 50.8922 29.8494 50.5176C29.9044 50.4003 29.8012 50.2513 29.701 50.2288C29.3011 50.1791 28.8884 50.2694 28.4984 50.1329C28.2439 50.0516 28.0386 49.7537 28.0788 49.4457C28.1732 48.9955 28.4551 48.578 28.3795 48.0962C28.3422 47.9134 28.2301 47.6596 28.0356 47.6957C27.6956 47.7645 27.3115 47.9631 26.9902 47.7171C26.6404 47.417 26.6129 46.8472 26.6709 46.3936C26.8821 45.8588 27.45 45.6094 27.6092 45.0317C27.6475 44.8884 27.6455 44.63 27.4579 44.6571C27.0953 44.815 26.6168 45.1693 26.2779 44.7744C25.9291 44.2396 25.99 43.5231 25.8839 42.898C25.7669 42.036 25.537 41.0713 25.935 40.26Z" fill="black"/>
<path d="M14.6124 41.5782C14.9818 41.3909 15.3807 41.1754 15.7943 41.2973C15.251 42.1232 15.1911 43.2685 15.4701 44.2275C15.5988 44.7263 16.2021 44.9361 16.1746 45.4868C15.9014 45.8941 15.417 46.1547 14.97 46.043C14.4522 45.9505 13.9207 45.9167 13.4029 46.0238C12.7436 46.1818 12.1472 46.5733 11.6245 47.0506C11.2639 47.3474 10.9053 47.7208 10.4474 47.7806C10.1419 47.8201 9.92275 47.5144 9.84218 47.2108C9.59458 46.3804 9.64174 45.4631 9.29688 44.6653C9.6496 44.1666 10.1998 43.9601 10.696 43.7164C11.2069 43.4671 11.7502 43.3147 12.2523 43.0417C13.0423 42.5621 13.8018 42.0126 14.6124 41.5782Z" fill="black"/>
<path d="M24.304 44.0378C24.6115 43.706 25.0517 43.5627 25.4633 43.6959C25.4103 43.9926 25.316 44.2826 25.2993 44.5873C25.428 44.8874 25.7925 44.9122 25.9359 45.2022C26.1167 45.5678 26.1344 45.9965 26.1246 46.4073C26.1128 46.941 26.3958 47.4476 26.27 47.9847C26.1609 48.5093 25.7473 48.8467 25.3474 49.0701C24.5427 49.509 23.6496 49.7369 22.9098 50.3271C21.6462 51.3143 20.3621 52.3411 19.4198 53.7436C18.8401 54.7208 18.2182 55.6742 17.4705 56.4911C17.1728 56.7913 16.8554 57.1456 16.4388 57.1794C16.0605 57.088 16.1136 56.5487 15.9269 56.2508C15.3954 55.2951 14.35 55.0581 13.6199 54.3778C13.3556 54.1431 13.6131 53.7955 13.8322 53.6771C14.7508 53.0903 15.8188 52.9256 16.765 52.4054C18.735 51.2534 20.3689 49.5068 21.9498 47.7612C22.8321 46.6047 23.2929 45.0758 24.304 44.0378Z" fill="black"/>
<path d="M26.0792 49.3447C26.3612 49.0141 26.6589 48.67 27.0411 48.5018C27.3703 48.3348 27.6925 48.7365 27.6621 49.1044C27.664 49.4982 27.7299 49.9044 27.9627 50.2101C28.3439 50.7156 28.7615 51.2087 29.0199 51.8157C29.127 52.0437 28.9492 52.2208 28.8057 52.3472C27.776 53.1889 26.7817 54.0871 25.7992 54.9999C24.5131 56.1925 23.4136 57.6356 22.5117 59.2232C22.2758 59.6294 22.0499 60.048 21.7649 60.4136C21.6284 60.5828 21.4643 60.7611 21.2491 60.7634C21.03 60.6404 20.9209 60.3775 20.8001 60.1496C20.579 59.7005 20.3137 59.2367 19.8952 59.0066C19.3351 58.7459 18.6798 58.7719 18.1797 58.3442C18.2671 58.1434 18.3575 57.9358 18.5157 57.7947C19.4069 56.9282 20.5967 56.5852 21.4436 55.6475C23.2073 53.7677 24.46 51.3734 26.0792 49.3447Z" fill="black"/>
<path d="M27.1545 54.7633C27.7332 53.8956 28.4564 53.143 29.319 52.668C29.8162 52.8259 30.3782 52.9884 30.7083 53.4792C30.9667 53.8967 30.727 54.4079 30.502 54.7667C29.8741 55.6975 29.0341 56.3982 28.3473 57.267C27.9052 57.8808 27.6006 58.6041 27.2813 59.307C26.6799 60.6452 26.1769 62.0455 25.4911 63.3318C25.3123 63.606 25.1403 64.0347 24.7876 64.002C24.4751 64.0212 24.425 63.5868 24.256 63.3735C23.7766 62.7518 23.0299 62.5521 22.4708 62.0523C22.2664 61.8954 22.1829 61.5626 22.3382 61.3268C22.6418 60.7727 23.1664 60.4658 23.5752 60.0292C25.046 58.542 25.9617 56.5167 27.1545 54.7633Z" fill="black"/>
<path d="M31.1846 54.7625C31.4067 54.7061 31.5983 54.9419 31.8017 55.0254C32.3234 55.3549 32.9365 55.3583 33.4828 55.6031C33.7176 55.7058 33.8178 56.0375 33.7029 56.2925C33.5014 56.8229 33.135 57.2358 32.8648 57.7187C31.954 59.3187 30.9518 60.8814 30.3574 62.6823C30.1746 63.2182 30.0675 63.7835 29.8818 64.3183C29.7865 64.5891 29.5949 64.8915 29.308 64.8667C28.8197 64.8622 28.408 64.5056 27.9403 64.3939C27.5611 64.2597 27.1435 64.2811 26.7829 64.0848C26.498 63.8975 26.6021 63.4619 26.7348 63.1979C27.1749 62.3031 27.8716 61.6352 28.4512 60.8679C29.4878 59.3447 30.0007 57.4762 30.6236 55.7081C30.7651 55.3684 30.8781 54.9521 31.1846 54.7625Z" fill="black"/>
<path d="M13.2194 54.8784C13.5043 54.6934 13.7794 54.9833 14.0339 55.1108C14.4849 55.4313 14.9948 55.6649 15.38 56.0936C15.6629 56.3983 15.7602 57.0087 15.4163 57.3032C15.0371 57.6169 14.5104 57.6112 14.086 57.4296C13.7401 57.2885 13.5996 56.8722 13.3559 56.5923C13.1427 56.3136 12.8725 56.0812 12.7242 55.745C12.62 55.3455 12.9207 55.0082 13.2194 54.8784Z" fill="black"/>
<path d="M10.6319 57.4594C11.0859 56.805 11.4848 56.0219 12.1647 55.6484C12.5174 56.1709 12.8603 56.7034 13.1659 57.2653C13.4931 57.8532 14.1602 57.9277 14.621 58.3181C14.8794 58.59 14.6515 59.012 14.4874 59.267C13.7996 60.287 12.8544 61.0148 12.0114 61.8509C11.137 62.7558 10.911 64.2361 9.99919 65.097C9.52266 65.202 9.05891 64.9041 8.6266 64.7078C8.08031 64.3918 7.48097 64.0962 7.08697 63.54C6.91896 63.0435 7.3159 62.6328 7.59298 62.3191C7.88282 62.0066 8.18741 61.703 8.40062 61.3138C9.13162 60.0185 9.84591 58.7107 10.6319 57.4594Z" fill="black"/>
<path d="M15.981 60.8899C16.1166 60.8166 16.3141 60.7962 16.4173 60.9486C16.6933 61.3209 16.8623 61.7858 17.1591 62.1401C17.5884 62.6196 18.2104 62.7911 18.6309 63.2831C18.792 63.4557 18.8235 63.7626 18.6682 63.9544C18.3931 64.3076 17.9991 64.4881 17.6464 64.7172C17.1669 65.0015 16.7513 65.4032 16.3386 65.797C15.8248 66.2923 15.3266 66.8294 14.9631 67.4838C14.5583 68.2172 14.1977 68.9958 13.674 69.631C13.5099 69.8104 13.284 70.0587 13.0423 69.9041C12.4852 69.6062 11.9978 69.1639 11.5223 68.7227C11.2953 68.4937 11.0438 68.2714 10.9062 67.9543C10.9171 67.5335 11.1656 67.1893 11.3651 66.8599C12.2474 65.5544 13.3144 64.4351 14.2508 63.1838C14.8089 62.4075 15.2048 61.4202 15.981 60.8899Z" fill="black"/>
<path d="M6.46384 63.9578C6.67508 63.8337 6.88829 64.012 7.05139 64.1541C7.36481 64.4475 7.68512 64.7397 8.05651 64.9327C8.44265 65.1584 8.87889 65.4969 8.93981 66.0306C8.95455 66.5496 8.44167 66.7188 8.16754 67.0178C7.09069 68.0999 6.28502 69.4798 5.50194 70.8417C5.32509 71.1069 5.15806 71.4668 4.83972 71.5165C4.53317 71.4589 4.35631 71.1295 4.16472 70.8835C3.89158 70.4367 3.3561 70.4841 2.99453 70.1873C2.88252 70.097 2.81178 69.8917 2.89726 69.754C3.20872 69.0906 3.79725 68.6663 4.10184 67.9961C4.64026 66.843 5.28578 65.762 5.90674 64.6653C6.06395 64.4058 6.21231 64.1101 6.46384 63.9578Z" fill="black"/>
<path d="M26.1802 64.569C26.472 64.5589 26.7559 64.6672 27.0477 64.6909C27.5891 64.771 28.1816 64.7496 28.6591 65.0971C28.9568 65.3194 28.9145 65.791 28.7819 66.1137C28.6158 66.5019 28.4272 66.8945 28.1491 67.1924C27.9389 67.3267 27.6815 67.2443 27.4555 67.2195C26.8188 67.0784 26.2371 66.6395 25.8589 66.0381C25.5621 65.5631 25.7685 64.8601 26.1802 64.569Z" fill="black"/>
<path d="M13.6761 71.7816C14.0013 71.1306 14.4032 70.5201 14.974 70.1309C15.5763 70.528 16.2484 70.8451 16.7219 71.4476C17.0747 71.8933 16.9509 72.5917 16.6178 73.0036C15.9831 73.8306 15.0713 74.2944 14.4297 75.1147C13.8284 75.997 13.3961 77.0577 12.611 77.7606C12.3998 77.9603 12.0697 78.072 11.8348 77.8576C11.2021 77.3668 10.6745 76.7259 10.0859 76.1731C10.419 75.381 11.2601 75.232 11.7995 74.6927C12.613 73.9017 13.0718 72.7666 13.6761 71.7816Z" fill="black"/>
<path d="M21.2888 70.4931C21.4804 70.325 21.7614 70.3622 21.9049 70.5879C22.2645 71.0945 22.4276 71.7602 22.8658 72.1991C23.0633 72.3887 23.0407 72.6978 23.0613 72.9641C22.4914 73.7156 21.5482 73.8171 20.9076 74.4569C20.5912 74.7875 20.2424 75.2501 19.7649 75.1429C19.2491 74.9985 18.7333 74.4614 18.8129 73.8025C18.8846 73.2259 19.257 72.7791 19.6401 72.4327C20.2768 71.8866 20.6168 70.9929 21.2888 70.4931Z" fill="black"/>
<path d="M1.17415 72.7572C1.75285 72.0949 2.11541 71.2441 2.56737 70.4746C2.91027 70.5829 3.25711 70.698 3.56464 70.9101C3.9714 71.173 4.21311 71.6548 4.57173 71.9866C4.79182 72.1536 4.67096 72.4887 4.54618 72.685C4.17872 73.274 3.6285 73.6576 3.18735 74.1665C2.86213 74.5535 2.46715 74.892 2.00143 75.0094C1.52491 75.1572 0.980588 74.9789 0.641615 74.5682C0.405808 74.2974 0.357665 73.8325 0.543362 73.5121C0.704497 73.2108 0.965849 73.01 1.17415 72.7572Z" fill="black"/>
<path d="M17.935 74.4136C18.2749 74.1925 18.5795 74.593 18.7701 74.8729C19.0157 75.2667 19.3616 75.6785 19.3174 76.1998C19.2132 76.553 18.8949 76.7222 18.6424 76.9129C18.0784 77.2773 17.4781 77.6102 16.8335 77.7242C16.6184 77.7558 16.2823 77.7467 16.2322 77.4353C16.1389 76.8452 16.5506 76.3871 16.8414 75.9651C17.2295 75.4698 17.4457 74.7973 17.935 74.4136Z" fill="black"/>
<path d="M5.17373 74.7803C5.49699 74.6415 5.81041 74.9134 6.0757 75.0928C6.53748 75.4776 7.0818 75.8759 7.25178 76.5382C7.34119 76.9986 6.96194 77.2739 6.69764 77.5232C5.75146 78.4078 4.97428 79.6445 3.75595 80.0541C3.12418 80.2921 2.40792 79.7517 2.31359 79.007C2.27135 78.7599 2.38728 78.5331 2.49536 78.3334C2.98073 77.4837 3.6292 76.7774 4.12439 75.9357C4.4054 75.4798 4.73946 75.0454 5.17373 74.7803Z" fill="black"/>
<path d="M8.90968 44.984L8.96273 44.9648C9.0659 45.3158 8.98042 45.6892 9.00989 46.0503C9.12092 46.5705 9.46677 46.9891 9.53653 47.5228C9.57878 47.7417 9.43729 47.9583 9.2516 48.0034C8.69352 48.1569 8.10499 47.9549 7.55182 48.1479C6.80707 48.369 6.1193 48.9332 5.32148 48.8531C5.00511 48.8124 4.59933 48.6296 4.55708 48.2144C4.5276 47.8285 4.77618 47.5126 5.011 47.2745C5.69484 46.6167 6.57126 46.338 7.37398 45.9329C7.90455 45.6576 8.35553 45.2041 8.90968 44.984Z" fill="black"/>
<path d="M17.6379 58.8435C17.8177 58.7419 17.9876 58.901 18.1498 58.9743C18.8022 59.3569 19.5911 59.3794 20.1826 59.9075C20.613 60.2889 20.7201 60.9873 20.5864 61.565C20.3634 62.1404 19.8731 62.515 19.3917 62.7723C19.1313 62.9393 18.8316 62.8073 18.5919 62.6572C17.9778 62.2679 17.4364 61.7342 16.9864 61.1182C16.7654 60.7955 16.4598 60.334 16.7123 59.9289C16.954 59.5081 17.2232 59.0545 17.6379 58.8435Z" fill="black"/>
<path d="M21.7636 62.3278C21.8943 62.2149 22.0653 62.321 22.2028 62.3616C22.7098 62.5918 23.148 62.9743 23.5872 63.3376C23.8466 63.5734 24.1463 63.8273 24.2229 64.22C24.2799 64.5946 24.0402 64.9105 23.8338 65.1644C23.6609 65.3449 23.4919 65.6078 23.2315 65.592C22.8267 65.5773 22.3895 65.5153 22.0712 65.2016C21.7656 64.9105 21.406 64.704 21.1083 64.4039C20.842 64.1105 20.6534 63.6039 20.8636 63.2101C21.1073 62.8502 21.4414 62.5861 21.7636 62.3278Z" fill="black"/>
<path d="M20.1782 64.2079C20.3413 64.0499 20.5251 64.2214 20.6479 64.3523C20.9269 64.6705 21.1893 65.0112 21.5017 65.2899C21.8623 65.642 22.2897 65.9647 22.4773 66.4848C22.5894 66.9091 22.2435 67.2363 21.9556 67.4146C20.9643 68.0318 19.9591 68.6907 19.2104 69.6814C18.7261 70.2693 18.4342 71.0286 17.9351 71.6018C17.7809 71.8004 17.5028 71.841 17.3151 71.683C16.8308 71.3039 16.5566 70.6653 16.0703 70.2873C15.8738 70.1451 15.6331 70.1113 15.4375 69.968C15.3855 69.7017 15.6046 69.4817 15.7441 69.2978C16.4996 68.5057 17.5696 68.2179 18.2613 67.3311C18.9668 66.3483 19.3401 65.0631 20.1782 64.2079Z" fill="black"/>
<path d="M24.9204 66.0711C25.0393 65.9324 25.2103 65.9775 25.2968 66.1355C25.8008 66.7888 26.4581 67.2581 27.1508 67.6045C27.4455 67.714 27.3276 68.1269 27.1773 68.3255C26.6585 69.0826 25.7969 69.3376 25.1808 69.9639C24.5667 70.5371 24.3535 71.5729 23.598 71.9599C23.2148 72.1235 23.0261 71.6056 22.7893 71.3698C22.4553 70.9297 21.9002 70.4558 22.0829 69.7924C22.3914 69.0793 23.1057 68.7938 23.5312 68.1958C23.992 67.4894 24.2798 66.6003 24.9204 66.0711Z" fill="black"/>
<path d="M9.89474 68.4445C10.1895 68.1906 10.558 68.4208 10.7918 68.6657C11.3165 69.1915 11.8696 69.6868 12.3491 70.269C12.5505 70.5026 12.3275 70.8016 12.1889 70.9923C11.6132 71.6907 10.8606 72.1522 10.2632 72.8236C9.68547 73.4588 9.11069 74.1426 8.81298 75.0125C8.62041 75.4661 8.47008 76.01 8.0751 76.2864C7.78526 76.3744 7.65851 76.0066 7.50818 75.8023C7.08963 75.1885 6.36256 74.9775 5.95874 74.3457C5.81922 74.1516 5.88505 73.8785 6.05011 73.7409C6.70349 73.1395 7.26943 72.4253 7.79705 71.6828C8.36986 70.867 8.93187 70.0343 9.39366 69.1294C9.53023 68.8755 9.67662 68.6138 9.89474 68.4445Z" fill="black"/>
<path d="M9.45299 76.7538C9.62985 76.5676 9.90594 76.5259 10.1103 76.6816C10.4837 76.958 10.7322 77.3947 11.0142 77.7794C11.2628 78.154 11.5762 78.47 11.7885 78.8773C11.31 79.3862 10.7047 79.6965 10.182 80.1388C9.43039 80.6431 8.59918 81.2479 7.68739 81.0493C7.42898 81.0256 7.1244 80.7988 7.22167 80.4558C7.43783 79.5114 8.27396 79.0195 8.64634 78.1777C8.89492 77.6914 9.07275 77.1318 9.45299 76.7538Z" fill="black"/>
</svg>
