<svg width="92" height="82" viewBox="0 0 92 82" fill="none" xmlns="http://www.w3.org/2000/svg">
<path d="M9.36963 0.381548C8.60424 -0.23339 7.53819 -0.0483443 6.79933 0.533873C6.36112 0.847548 6.11058 1.42074 5.63504 1.67348C4.97478 2.05711 4.17107 1.86756 3.52751 2.30083C2.98123 2.70365 2.81125 3.49122 2.72381 4.18401C2.64815 4.65001 2.74149 5.19274 2.44772 5.57863C1.92992 6.2669 1.07414 6.52529 0.655586 7.32866C0.287138 8.00904 0.413884 8.87221 0.667376 9.57403C1.10951 10.7701 1.84739 11.8397 2.79848 12.5528C3.29073 12.9274 3.90776 13.1012 4.48352 12.9003C4.8952 11.1864 5.53482 9.43638 6.74333 8.26179C7.32695 7.67054 8.15621 7.38621 8.90981 7.68296C9.27039 6.16761 9.86973 4.62293 10.9996 3.66498C11.3327 3.36485 11.7228 3.17303 12.105 2.97557C12.3398 2.86387 12.2317 2.49265 12.0883 2.3392C11.3229 1.44669 10.1773 1.20748 9.36963 0.381548Z" fill="black"/>
<path d="M12.9017 3.67372C12.3898 3.47288 11.8416 3.70757 11.4201 4.05058C10.7117 4.64521 10.2027 5.52869 9.95612 6.49228C9.80285 7.14107 9.76059 7.88012 10.0485 8.49055C10.2823 8.79068 10.582 9.01183 10.8424 9.28038C12.2454 10.6603 13.5532 12.1791 15.0859 13.3762C15.8935 13.999 16.7778 14.5147 17.7309 14.7652C19.4768 15.309 21.0941 16.2738 22.6779 17.2565C26.383 19.6215 29.8857 22.378 33.3315 25.2067C36.3655 27.6653 39.2335 30.3767 42.129 33.043C44.7199 35.4068 47.3148 37.7842 50.1278 39.7926C50.8804 40.2981 51.3893 41.1387 51.9012 41.924C52.5753 42.9869 53.1766 44.1164 53.9528 45.0879C54.2613 45.4376 54.6189 45.8167 55.0758 45.8416C55.4924 45.8393 55.7832 45.4252 55.966 45.0416C56.1939 44.535 56.4356 44.0272 56.7864 43.6165C57.7001 42.4837 58.9499 41.8541 60.0906 41.0879C60.4384 40.842 60.8118 40.57 60.9916 40.13C61.1458 39.7317 60.9513 39.3063 60.7273 39.0039C60.2056 38.3055 59.5139 37.8203 58.8458 37.3317C53.9056 33.8869 48.5557 31.2771 43.7207 27.6259C41.9826 26.3362 40.389 24.8129 38.6695 23.4894C35.4174 20.9112 32.0041 18.6195 28.6084 16.3031C26.9863 15.2244 25.4182 14.0351 23.7459 13.0591C21.8005 11.8936 19.7991 10.8375 17.9519 9.46994C16.372 8.29986 14.8609 6.86011 13.9747 4.91826C13.7428 4.39359 13.4127 3.86215 12.9017 3.67372Z" fill="#8F1402"/>
<path d="M9.00765 8.47342C8.63724 8.1699 8.16268 8.03788 7.71268 8.13492C7.18604 8.26129 6.7557 8.68216 6.42458 9.15154C5.78692 10.0824 5.44009 11.2186 5.17579 12.3492C5.01465 13.0612 4.73955 13.7799 4.82798 14.5291C4.92819 15.1091 5.50985 15.2738 5.95199 15.2784C7.13201 15.2727 8.31104 15.0019 9.49302 15.152C10.7428 15.2761 11.9032 15.9181 12.927 16.7215C16.1575 19.2298 19.2761 21.9377 22.2148 24.8838C26.5409 29.0575 31.0919 32.9096 35.6194 36.7865C36.9036 37.8776 38.1828 38.9778 39.47 40.0666C42.5325 42.5681 46.2769 43.6423 49.3768 46.0715C50.3122 46.8208 51.1748 47.7245 51.7918 48.8348C52.0031 49.2106 52.3096 49.5626 52.7105 49.6314C53.6636 49.7781 54.6893 48.8032 54.5439 47.6535C54.4594 47.1863 54.4122 46.6763 54.7109 46.2904C54.3228 46.2679 54.0261 45.9508 53.7677 45.6507C53.3138 45.0865 52.9276 44.4501 52.6349 43.7596C52.1603 43.8544 51.7182 43.5881 51.2888 43.3963C49.7875 42.6335 48.3677 41.6767 46.9529 40.7255C45.3298 39.6017 43.7076 38.4711 42.1837 37.1747C40.4898 35.7575 38.8343 34.2749 37.2701 32.6715C35.7216 31.1009 34.3009 29.3746 32.7701 27.7825C31.4712 26.3992 30.0475 25.1862 28.6956 23.8751C26.9683 22.2255 25.2783 20.5251 23.6385 18.7626C23.272 18.3215 22.7935 18.045 22.3396 17.7438C21.3787 17.1288 20.3991 16.5466 19.3773 16.0761C18.9027 15.8391 18.3613 15.926 17.8907 15.6699C16.3334 14.9376 14.9755 13.7664 13.5882 12.6945C11.9592 11.4341 10.6436 9.72247 9.00765 8.47342Z" fill="#8F1402"/>
<path d="M68.4806 39.6071C67.9795 39.5688 67.4794 39.4345 66.9763 39.474C66.6688 39.4954 66.5774 39.8903 66.6197 40.1837C66.7199 41.0367 66.5273 41.9292 66.7985 42.754C66.884 43.0147 67.0923 43.3069 67.3654 43.2076C68.5454 42.9154 69.7461 43.2279 70.9153 43.4468C71.2494 43.5292 71.6296 43.5032 71.9077 43.7661C72.4589 44.2637 72.846 44.9746 73.4483 45.4022C73.7018 45.5873 74.0368 45.6414 74.305 45.4654C75.0488 45.0434 75.654 44.2874 75.9272 43.3859C76.2878 42.2339 75.5931 40.8212 74.5467 40.5809C73.4738 40.2988 72.3478 40.6666 71.2847 40.3033C70.3739 39.9637 69.4287 39.7549 68.4806 39.6071Z" fill="black"/>
<path d="M65.9166 40.26C65.7781 39.9192 65.4106 40.0355 65.1827 40.1742C64.598 40.515 63.9997 40.9077 63.3247 40.9178C62.7136 40.9675 62.2901 40.2814 61.6799 40.2995C61.1867 40.5646 60.8458 41.0735 60.4331 41.4628C59.767 42.1725 58.7658 42.2492 58.135 43.0199C57.8648 43.2941 57.798 43.7104 57.6761 44.0794C57.5258 44.3321 57.3313 44.6469 57.0326 44.6379C56.6563 44.6232 56.4018 44.9843 56.1758 45.2777C55.7582 45.8655 55.4006 46.5121 55.1157 47.1969C54.9162 47.6517 55.1275 48.1617 55.038 48.6367C54.8484 49.3803 54.2235 49.8948 54.1459 50.688C54.1105 51.4711 54.6824 52.0533 55.1953 52.4595C55.6413 52.8239 56.1601 52.3263 56.6406 52.4741C57.2006 53.1071 57.3381 54.0628 57.8127 54.7658C58.0967 55.0546 58.5211 54.9361 58.863 54.8944C59.5518 54.715 60.2857 54.434 60.7554 53.7954C60.9892 53.502 60.778 53.1421 60.6552 52.8566C60.4773 52.482 60.4144 52.0465 60.4655 51.6245C60.7711 51.8592 60.8959 52.3421 61.2692 52.464C61.7222 52.5813 62.1005 52.1232 62.2508 51.6809C62.3972 51.2612 62.1172 50.8922 62.0022 50.5176C61.9472 50.4003 62.0504 50.2513 62.1506 50.2288C62.5505 50.1791 62.9631 50.2694 63.3532 50.1329C63.6077 50.0516 63.813 49.7537 63.7727 49.4457C63.6784 48.9955 63.3964 48.578 63.4721 48.0962C63.5094 47.9134 63.6214 47.6596 63.816 47.6957C64.1559 47.7645 64.5401 47.9631 64.8614 47.7171C65.2111 47.417 65.2387 46.8472 65.1807 46.3936C64.9694 45.8588 64.4015 45.6094 64.2424 45.0317C64.2041 44.8884 64.206 44.63 64.3937 44.6571C64.7562 44.815 65.2347 45.1693 65.5737 44.7744C65.9225 44.2396 65.8616 43.5231 65.9677 42.898C66.0846 42.036 66.3145 41.0713 65.9166 40.26Z" fill="black"/>
<path d="M77.2392 41.5782C76.8698 41.3909 76.4709 41.1754 76.0572 41.2973C76.6006 42.1232 76.6605 43.2685 76.3815 44.2275C76.2528 44.7263 75.6495 44.9361 75.677 45.4868C75.9501 45.8941 76.4345 46.1547 76.8816 46.043C77.3994 45.9505 77.9309 45.9167 78.4487 46.0238C79.108 46.1818 79.7044 46.5733 80.2271 47.0506C80.5877 47.3474 80.9463 47.7208 81.4041 47.7806C81.7097 47.8201 81.9288 47.5144 82.0094 47.2108C82.257 46.3804 82.2098 45.4631 82.5547 44.6653C82.202 44.1666 81.6517 43.9601 81.1556 43.7164C80.6447 43.4671 80.1013 43.3147 79.5992 43.0417C78.8093 42.5621 78.0498 42.0126 77.2392 41.5782Z" fill="black"/>
<path d="M67.5476 44.0378C67.2401 43.706 66.7999 43.5627 66.3882 43.6959C66.4413 43.9926 66.5356 44.2826 66.5523 44.5873C66.4236 44.8874 66.0591 44.9122 65.9156 45.2022C65.7348 45.5678 65.7172 45.9965 65.727 46.4073C65.7388 46.941 65.4558 47.4476 65.5816 47.9847C65.6906 48.5093 66.1043 48.8467 66.5042 49.0701C67.3089 49.509 68.202 49.7369 68.9418 50.3271C70.2053 51.3143 71.4895 52.3411 72.4318 53.7436C73.0114 54.7208 73.6334 55.6742 74.3811 56.4911C74.6788 56.7913 74.9962 57.1456 75.4127 57.1794C75.791 57.088 75.738 56.5487 75.9246 56.2508C76.4562 55.2951 77.5016 55.0581 78.2316 54.3778C78.4959 54.1431 78.2385 53.7955 78.0194 53.6771C77.1007 53.0903 76.0327 52.9256 75.0865 52.4054C73.1166 51.2534 71.4826 49.5068 69.9017 47.7612C69.0194 46.6047 68.5586 45.0758 67.5476 44.0378Z" fill="black"/>
<path d="M65.7723 49.3447C65.4904 49.0141 65.1927 48.67 64.8105 48.5018C64.4813 48.3348 64.159 48.7365 64.1895 49.1044C64.1875 49.4982 64.1217 49.9044 63.8888 50.2101C63.5076 50.7156 63.09 51.2087 62.8316 51.8157C62.7245 52.0437 62.9024 52.2208 63.0458 52.3472C64.0755 53.1889 65.0698 54.0871 66.0524 54.9999C67.3385 56.1925 68.4379 57.6356 69.3399 59.2232C69.5757 59.6294 69.8017 60.048 70.0866 60.4136C70.2232 60.5828 70.3873 60.7611 70.6025 60.7634C70.8216 60.6404 70.9306 60.3775 71.0515 60.1496C71.2725 59.7005 71.5378 59.2367 71.9564 59.0066C72.5164 58.7459 73.1718 58.7719 73.6719 58.3442C73.5844 58.1434 73.494 57.9358 73.3359 57.7947C72.4447 56.9282 71.2549 56.5852 70.4079 55.6475C68.6443 53.7677 67.3916 51.3734 65.7723 49.3447Z" fill="black"/>
<path d="M64.6971 54.7633C64.1183 53.8956 63.3952 53.143 62.5325 52.668C62.0354 52.8259 61.4734 52.9884 61.1433 53.4792C60.8848 53.8967 61.1246 54.4079 61.3496 54.7667C61.9774 55.6975 62.8175 56.3982 63.5043 57.267C63.9464 57.8808 64.251 58.6041 64.5703 59.307C65.1716 60.6452 65.6747 62.0455 66.3605 63.3318C66.5393 63.606 66.7112 64.0347 67.064 64.002C67.3764 64.0212 67.4265 63.5868 67.5955 63.3735C68.075 62.7518 68.8217 62.5521 69.3808 62.0523C69.5851 61.8954 69.6687 61.5626 69.5134 61.3268C69.2098 60.7727 68.6851 60.4658 68.2764 60.0292C66.8056 58.542 65.8898 56.5167 64.6971 54.7633Z" fill="black"/>
<path d="M60.6669 54.7625C60.4449 54.7061 60.2533 54.9419 60.0499 55.0254C59.5282 55.3549 58.9151 55.3583 58.3688 55.6031C58.134 55.7058 58.0337 56.0375 58.1487 56.2925C58.3501 56.8229 58.7166 57.2358 58.9868 57.7187C59.8976 59.3187 60.8998 60.8814 61.4942 62.6823C61.677 63.2182 61.7841 63.7835 61.9698 64.3183C62.0651 64.5891 62.2566 64.8915 62.5435 64.8667C63.0319 64.8622 63.4435 64.5056 63.9112 64.3939C64.2905 64.2597 64.7081 64.2811 65.0686 64.0848C65.3536 63.8975 65.2494 63.4619 65.1168 63.1979C64.6766 62.3031 63.98 61.6352 63.4003 60.8679C62.3637 59.3447 61.8509 57.4762 61.2279 55.7081C61.0865 55.3684 60.9735 54.9521 60.6669 54.7625Z" fill="black"/>
<path d="M78.6322 54.8784C78.3473 54.6934 78.0721 54.9833 77.8177 55.1108C77.3667 55.4313 76.8568 55.6649 76.4716 56.0936C76.1886 56.3983 76.0914 57.0087 76.4353 57.3032C76.8145 57.6169 77.3411 57.6112 77.7656 57.4296C78.1114 57.2885 78.2519 56.8722 78.4956 56.5923C78.7088 56.3136 78.979 56.0812 79.1274 55.745C79.2315 55.3455 78.9309 55.0082 78.6322 54.8784Z" fill="black"/>
<path d="M81.2196 57.4594C80.7657 56.805 80.3668 56.0219 79.6869 55.6484C79.3342 56.1709 78.9913 56.7034 78.6857 57.2653C78.3585 57.8532 77.6914 57.9277 77.2306 58.3181C76.9722 58.59 77.2001 59.012 77.3642 59.267C78.052 60.287 78.9971 61.0148 79.8402 61.8509C80.7146 62.7558 80.9406 64.2361 81.8524 65.097C82.3289 65.202 82.7927 64.9041 83.225 64.7078C83.7713 64.3918 84.3706 64.0962 84.7646 63.54C84.9326 63.0435 84.5357 62.6328 84.2586 62.3191C83.9687 62.0066 83.6642 61.703 83.4509 61.3138C82.7199 60.0185 82.0056 58.7107 81.2196 57.4594Z" fill="black"/>
<path d="M75.8706 60.8899C75.735 60.8166 75.5375 60.7962 75.4343 60.9486C75.1582 61.3209 74.9892 61.7858 74.6925 62.1401C74.2631 62.6196 73.6412 62.7911 73.2207 63.2831C73.0595 63.4557 73.0281 63.7626 73.1833 63.9544C73.4584 64.3076 73.8524 64.4881 74.2052 64.7172C74.6846 65.0015 75.1003 65.4032 75.5129 65.797C76.0268 66.2923 76.5249 66.8294 76.8885 67.4838C77.2933 68.2172 77.6538 68.9958 78.1775 69.631C78.3416 69.8104 78.5676 70.0587 78.8093 69.9041C79.3664 69.6062 79.8537 69.1639 80.3293 68.7227C80.5562 68.4937 80.8078 68.2714 80.9453 67.9543C80.9345 67.5335 80.6859 67.1893 80.4865 66.8599C79.6042 65.5544 78.5371 64.4351 77.6008 63.1838C77.0427 62.4075 76.6468 61.4202 75.8706 60.8899Z" fill="black"/>
<path d="M85.3877 63.9578C85.1765 63.8337 84.9633 64.012 84.8002 64.1541C84.4867 64.4475 84.1664 64.7397 83.795 64.9327C83.4089 65.1584 82.9727 65.4969 82.9118 66.0306C82.897 66.5496 83.4099 66.7188 83.684 67.0178C84.7609 68.0999 85.5665 69.4798 86.3496 70.8417C86.5265 71.1069 86.6935 71.4668 87.0118 71.5165C87.3184 71.4589 87.4952 71.1295 87.6868 70.8835C87.96 70.4367 88.4955 70.4841 88.857 70.1873C88.969 70.097 89.0398 69.8917 88.9543 69.754C88.6428 69.0906 88.0543 68.6663 87.7497 67.9961C87.2113 66.843 86.5658 65.762 85.9448 64.6653C85.7876 64.4058 85.6393 64.1101 85.3877 63.9578Z" fill="black"/>
<path d="M65.6714 64.569C65.3796 64.5589 65.0956 64.6672 64.8038 64.6909C64.2625 64.771 63.67 64.7496 63.1925 65.0971C62.8948 65.3194 62.937 65.791 63.0697 66.1137C63.2357 66.5019 63.4244 66.8945 63.7024 67.1924C63.9127 67.3267 64.1701 67.2443 64.3961 67.2195C65.0328 67.0784 65.6144 66.6395 65.9927 66.0381C66.2894 65.5631 66.0831 64.8601 65.6714 64.569Z" fill="black"/>
<path d="M78.1755 71.7816C77.8503 71.1306 77.4484 70.5201 76.8775 70.1309C76.2753 70.528 75.6032 70.8451 75.1296 71.4476C74.7769 71.8933 74.9007 72.5917 75.2338 73.0036C75.8685 73.8306 76.7803 74.2944 77.4219 75.1147C78.0232 75.997 78.4555 77.0577 79.2405 77.7606C79.4518 77.9603 79.7819 78.072 80.0167 77.8576C80.6495 77.3668 81.1771 76.7259 81.7656 76.1731C81.4325 75.381 80.5915 75.232 80.0521 74.6927C79.2386 73.9017 78.7797 72.7666 78.1755 71.7816Z" fill="black"/>
<path d="M70.5627 70.4931C70.3711 70.325 70.0901 70.3622 69.9467 70.5879C69.5871 71.0945 69.424 71.7602 68.9858 72.1991C68.7883 72.3887 68.8109 72.6978 68.7903 72.9641C69.3601 73.7156 70.3033 73.8171 70.944 74.4569C71.2603 74.7875 71.6091 75.2501 72.0866 75.1429C72.6025 74.9985 73.1183 74.4614 73.0387 73.8025C72.967 73.2259 72.5946 72.7791 72.2114 72.4327C71.5747 71.8866 71.2348 70.9929 70.5627 70.4931Z" fill="black"/>
<path d="M90.6774 72.7572C90.0987 72.0949 89.7362 71.2441 89.2842 70.4746C88.9413 70.5829 88.5945 70.698 88.2869 70.9101C87.8802 71.173 87.6385 71.6548 87.2798 71.9866C87.0597 72.1536 87.1806 72.4887 87.3054 72.685C87.6728 73.274 88.2231 73.6576 88.6642 74.1665C88.9894 74.5535 89.3844 74.892 89.8501 75.0094C90.3267 75.1572 90.871 74.9789 91.2099 74.5682C91.4458 74.2974 91.4939 73.8325 91.3082 73.5121C91.1471 73.2108 90.8857 73.01 90.6774 72.7572Z" fill="black"/>
<path d="M73.9166 74.4136C73.5767 74.1925 73.2721 74.593 73.0815 74.8729C72.8358 75.2667 72.49 75.6785 72.5342 76.1998C72.6383 76.553 72.9567 76.7222 73.2092 76.9129C73.7732 77.2773 74.3735 77.6102 75.018 77.7242C75.2332 77.7558 75.5692 77.7467 75.6193 77.4353C75.7127 76.8452 75.301 76.3871 75.0102 75.9651C74.6221 75.4698 74.4059 74.7973 73.9166 74.4136Z" fill="black"/>
<path d="M86.6778 74.7803C86.3546 74.6415 86.0411 74.9134 85.7759 75.0928C85.3141 75.4776 84.7698 75.8759 84.5998 76.5382C84.5104 76.9986 84.8896 77.2739 85.1539 77.5232C86.1001 78.4078 86.8773 79.6445 88.0956 80.0541C88.7274 80.2921 89.4436 79.7517 89.538 79.007C89.5802 78.7599 89.4643 78.5331 89.3562 78.3334C88.8708 77.4837 88.2224 76.7774 87.7272 75.9357C87.4462 75.4798 87.1121 75.0454 86.6778 74.7803Z" fill="black"/>
<path d="M82.9419 44.984L82.8888 44.9648C82.7857 45.3158 82.8711 45.6892 82.8417 46.0503C82.7306 46.5705 82.3848 46.9891 82.315 47.5228C82.2728 47.7417 82.4143 47.9583 82.6 48.0034C83.158 48.1569 83.7466 47.9549 84.2997 48.1479C85.0445 48.369 85.7323 48.9332 86.5301 48.8531C86.8465 48.8124 87.2522 48.6296 87.2945 48.2144C87.324 47.8285 87.0754 47.5126 86.8406 47.2745C86.1567 46.6167 85.2803 46.338 84.4776 45.9329C83.947 45.6576 83.496 45.2041 82.9419 44.984Z" fill="black"/>
<path d="M74.2137 58.8435C74.0339 58.7419 73.8639 58.901 73.7018 58.9743C73.0494 59.3569 72.2604 59.3794 71.6689 59.9075C71.2386 60.2889 71.1315 60.9873 71.2651 61.565C71.4882 62.1404 71.9784 62.515 72.4599 62.7723C72.7203 62.9393 73.0199 62.8073 73.2597 62.6572C73.8737 62.2679 74.4151 61.7342 74.8651 61.1182C75.0862 60.7955 75.3917 60.334 75.1392 59.9289C74.8975 59.5081 74.6283 59.0545 74.2137 58.8435Z" fill="black"/>
<path d="M70.0879 62.3278C69.9572 62.2149 69.7863 62.321 69.6487 62.3616C69.1417 62.5918 68.7035 62.9743 68.2644 63.3376C68.005 63.5734 67.7053 63.8273 67.6287 64.22C67.5717 64.5946 67.8114 64.9105 68.0177 65.1644C68.1907 65.3449 68.3597 65.6078 68.62 65.592C69.0248 65.5773 69.4621 65.5153 69.7804 65.2016C70.086 64.9105 70.4456 64.704 70.7433 64.4039C71.0095 64.1105 71.1982 63.6039 70.9879 63.2101C70.7443 62.8502 70.4102 62.5861 70.0879 62.3278Z" fill="black"/>
<path d="M71.6733 64.2079C71.5102 64.0499 71.3265 64.2214 71.2037 64.3523C70.9246 64.6705 70.6623 65.0112 70.3499 65.2899C69.9893 65.642 69.5619 65.9647 69.3742 66.4848C69.2622 66.9091 69.6081 67.2363 69.8959 67.4146C70.8873 68.0318 71.8924 68.6907 72.6411 69.6814C73.1255 70.2693 73.4173 71.0286 73.9164 71.6018C74.0707 71.8004 74.3488 71.841 74.5364 71.683C75.0208 71.3039 75.2949 70.6653 75.7813 70.2873C75.9778 70.1451 76.2185 70.1113 76.414 69.968C76.4661 69.7017 76.247 69.4817 76.1075 69.2978C75.3519 68.5057 74.2819 68.2179 73.5902 67.3311C72.8848 66.3483 72.5114 65.0631 71.6733 64.2079Z" fill="black"/>
<path d="M66.9311 66.0711C66.8122 65.9324 66.6413 65.9775 66.5548 66.1355C66.0508 66.7888 65.3935 67.2581 64.7008 67.6045C64.406 67.714 64.5239 68.1269 64.6742 68.3255C65.193 69.0826 66.0547 69.3376 66.6707 69.9639C67.2848 70.5371 67.498 71.5729 68.2536 71.9599C68.6368 72.1235 68.8254 71.6056 69.0622 71.3698C69.3963 70.9297 69.9514 70.4558 69.7687 69.7924C69.4601 69.0793 68.7458 68.7938 68.3204 68.1958C67.8596 67.4894 67.5717 66.6003 66.9311 66.0711Z" fill="black"/>
<path d="M81.9568 68.4445C81.6621 68.1906 81.2936 68.4208 81.0598 68.6657C80.5351 69.1915 79.9819 69.6868 79.5025 70.269C79.301 70.5026 79.5241 70.8016 79.6626 70.9923C80.2384 71.6907 80.991 72.1522 81.5884 72.8236C82.1661 73.4588 82.7409 74.1426 83.0386 75.0125C83.2312 75.4661 83.3815 76.01 83.7765 76.2864C84.0663 76.3744 84.1931 76.0066 84.3434 75.8023C84.7619 75.1885 85.489 74.9775 85.8928 74.3457C86.0323 74.1516 85.9665 73.8785 85.8015 73.7409C85.1481 73.1395 84.5821 72.4253 84.0545 71.6828C83.4817 70.867 82.9197 70.0343 82.4579 69.1294C82.3213 68.8755 82.1749 68.6138 81.9568 68.4445Z" fill="black"/>
<path d="M82.3986 76.7538C82.2217 76.5676 81.9456 76.5259 81.7413 76.6816C81.3679 76.958 81.1193 77.3947 80.8373 77.7794C80.5888 78.154 80.2753 78.47 80.0631 78.8773C80.5416 79.3862 81.1468 79.6965 81.6695 80.1388C82.4212 80.6431 83.2524 81.2479 84.1642 81.0493C84.4226 81.0256 84.7272 80.7988 84.6299 80.4558C84.4137 79.5114 83.5776 79.0195 83.2052 78.1777C82.9566 77.6914 82.7788 77.1318 82.3986 76.7538Z" fill="black"/>
</svg>
