<svg width="80" height="80" viewBox="0 0 80 80" fill="none" xmlns="http://www.w3.org/2000/svg">
<g clip-path="url(#clip0_3025_56660)">
<path d="M18.3991 26.7775L23.7248 27.6933C23.3203 26.3755 23.0523 24.9932 22.9406 23.5662L27.8916 24.2784V27.3036H40.8808V25.1644H43.1739V27.3036H56.1606V24.3554L60.2951 23.7151C60.2504 24.7177 60.1239 25.7799 59.9278 26.852L64.0425 26.0777C63.1639 15.0019 58.9227 0 41.3076 0C38.8061 0 35.8901 0.30773 34.6244 0.878521C33.3538 1.44683 33.1255 2.74476 32.3065 3.02023C31.4528 3.3081 30.2417 3.19146 29.4898 3.55627C17.7563 9.2071 18.1658 22.983 18.1658 22.983L18.3991 26.7775ZM39.4389 25.8593H29.3334V20.7147H39.4389V25.8593ZM54.7162 25.8593H44.6157V20.7147H54.7162V25.8593ZM23.0076 20.2655C28.2291 19.9107 34.1256 15.7985 34.5847 10.0707C41.1935 15.5429 50.5594 15.8109 58.3619 16.5083C59.3372 16.9649 60.0469 18.9279 60.2479 21.5287L56.1606 22.1616V19.2729H43.1714V22.2782H40.8783V19.2729H27.8891V22.0896L22.8711 21.3674C22.9183 21.0026 22.9654 20.6378 23.0076 20.2655Z" fill="black"/>
<path d="M28.7998 26.4V20H39.9998V26.4H28.7998Z" fill="#8F1402"/>
<path d="M44 26.4V20H55.2V26.4H44Z" fill="#8F1402"/>
<path d="M72.5051 52.9798C72.5051 50.2772 71.4182 47.9196 69.8001 46.572V27.2793L40.3622 31.9697L10.9144 27.2793V46.0633C8.90171 47.257 7.49707 49.8975 7.49707 52.9798C7.49707 56.0595 8.90171 58.7001 10.9144 59.8938V75.3101L40.3622 80.003L69.8001 75.315V59.3875C71.4206 58.035 72.5051 55.6798 72.5051 52.9798ZM39.0246 77.0845L13.5872 73.0319V60.5415C16.6521 60.343 19.099 57.0473 19.099 52.9798C19.099 48.9098 16.6545 45.6141 13.5872 45.4131V30.4087L39.0246 34.4638V77.0845ZM67.1298 73.0319L41.6949 77.0845V34.4638L67.1298 30.4087V35.7841V45.4329C66.9834 45.418 66.8518 45.3808 66.7029 45.3808C63.4991 45.3808 60.9007 48.7857 60.9007 52.9798C60.9007 57.1763 63.4991 60.5812 66.7029 60.5812C66.8518 60.5812 66.9834 60.539 67.1298 60.5266V73.0319Z" fill="black"/>
</g>
<defs>
<clipPath id="clip0_3025_56660">
<rect width="80" height="80" fill="white"/>
</clipPath>
</defs>
</svg>
