<svg width="127" height="130" viewBox="0 0 127 130" fill="none" xmlns="http://www.w3.org/2000/svg">
<path d="M54.2643 0.897203C57.9421 -0.499331 62.2156 -0.262239 65.6939 1.58535C69.3978 3.48787 72.1214 7.15124 72.9108 11.2368C73.9285 16.207 72.0145 21.6746 68.0186 24.8262C67.0644 25.6242 65.9455 26.1736 64.9046 26.8386C68.3453 28.7614 70.6468 32.5202 70.7683 36.4669C70.803 48.6193 70.7654 60.7718 70.7538 72.9242C70.5977 74.0432 71.6588 74.6619 72.3238 75.3587C74.7641 77.5417 77.0454 79.8895 79.4424 82.1159C81.7757 84.2121 83.9096 86.5195 86.2921 88.5637C87.5527 89.6653 88.4172 91.1919 88.7613 92.8255C90.713 101.757 92.6791 110.683 94.6192 119.614C95.4982 123.451 92.9653 127.655 89.1834 128.707C86.0145 129.722 82.2412 128.462 80.3965 125.674C79.8154 124.813 79.3932 123.841 79.1735 122.826C77.6555 115.959 76.0942 109.101 74.5791 102.234C74.3247 101.06 73.6943 99.973 72.7662 99.2039C68.1892 95.396 63.6237 91.5736 59.0524 87.7541C56.4762 85.5161 53.6109 83.5818 51.4192 80.9304C49.5109 78.6405 47.7992 75.963 47.5505 72.9213C47.4956 64.6086 47.5881 56.2959 47.5043 47.9832C47.2238 48.4054 46.9838 48.8564 46.8508 49.3451C45.8041 53.0981 44.8095 56.8626 43.7513 60.6127C42.7335 64.0679 38.7434 66.2885 35.2795 65.2158C31.7752 64.3397 29.4447 60.3728 30.4452 56.8915C31.8475 51.7738 33.2643 46.659 34.681 41.5441C35.1003 39.9597 36.0515 38.4966 37.4249 37.583C41.8487 34.6771 46.2639 31.7597 50.6819 28.8481C51.6245 28.1484 52.5382 27.414 53.475 26.7085C49.6757 25.017 46.7352 21.5445 45.7029 17.5168C44.7835 14.0963 45.2779 10.3549 46.952 7.24377C48.5423 4.36107 51.1676 2.0393 54.2643 0.897203ZM56.9562 2.79684C52.7955 3.62666 49.2536 6.95463 48.2011 11.0691C47.3857 14.0848 47.9062 17.4156 49.589 20.0439C51.2978 22.6461 54.0301 24.6325 57.1297 25.1587C61.7067 26.1158 66.6885 23.7824 69.0074 19.749C70.9475 16.5656 71.1413 12.4193 69.4932 9.07401C67.3565 4.47383 61.938 1.68655 56.9562 2.79684ZM56.6786 28.2785C55.0855 28.6862 53.7612 29.7011 52.5237 30.7333C48.0132 33.7432 43.4737 36.7155 38.9429 39.6965C38.0755 40.2806 37.451 41.1856 37.1763 42.1918C35.7942 47.1707 34.4237 52.1526 33.0358 57.1286C32.6224 58.4558 32.7785 59.994 33.6575 61.1043C34.6752 62.5066 36.6038 63.293 38.2866 62.7234C39.7814 62.2984 40.9784 61.0378 41.3803 59.5429C42.3894 55.8998 43.3754 52.2538 44.3787 48.6106C44.8297 47.0435 45.781 45.5978 47.1718 44.716C50.5286 42.4665 53.8335 40.136 57.2251 37.9444C58.5464 37.3372 59.6654 39.3496 58.477 40.1621C55.8314 42.0559 53.0731 43.7936 50.4188 45.6759C49.9909 45.9217 50.1499 46.4768 50.1094 46.8758C50.1325 55.0729 50.1239 63.267 50.066 71.4612C49.9764 73.3377 50.5778 75.1737 51.5695 76.7495C53.2494 79.4211 55.5423 81.659 58.0636 83.5356C63.4357 87.994 68.7703 92.5017 74.1483 96.9544C75.5535 98.056 76.6146 99.6 77.0136 101.355C78.5865 108.372 80.1479 115.393 81.7237 122.41C82.2991 125.05 85.1384 126.958 87.8013 126.389C90.6262 125.935 92.7774 122.899 92.0864 120.083C90.1318 111.128 88.1859 102.168 86.1966 93.2188C85.8728 91.5938 84.5919 90.472 83.3804 89.4658C78.7485 85.0333 74.1078 80.6124 69.4527 76.2059C68.4783 75.298 68.0851 73.9362 68.1545 72.6351C68.1949 61.5467 68.2007 50.4582 68.1949 39.3698C68.1718 37.8634 68.3048 36.3339 67.9607 34.8535C67.2408 31.7395 64.7137 29.143 61.6547 28.2641C60.0326 27.7552 58.3036 27.8679 56.6786 28.2785Z" fill="#1E1E1E"/>
<path d="M72.6102 47.2892C73.1046 46.8411 73.8216 47.0666 74.3883 47.2198C77.5226 48.1393 80.6626 49.0327 83.7998 49.9406C86.0232 50.6085 87.8246 52.4561 88.4433 54.694C89.1604 57.0361 88.4375 59.7106 86.7461 61.4599C84.9708 63.2409 82.2066 63.932 79.801 63.1918C77.5024 62.5065 75.1864 61.882 72.8993 61.162C71.8815 60.8151 71.8642 59.193 72.8646 58.8171C73.2318 58.5829 73.6626 58.7333 74.0472 58.8316C76.3198 59.4648 78.5722 60.179 80.8535 60.7977C82.9844 61.3673 85.3669 59.9332 85.9509 57.8196C86.7374 55.5615 85.1385 52.9968 82.9034 52.3694C79.6275 51.395 76.3285 50.5015 73.0554 49.5214C72.0724 49.3103 71.7803 47.8617 72.6102 47.2892Z" fill="#1E1E1E"/>
<path d="M45.9259 77.515C46.7181 77.1333 47.7735 77.5352 47.947 78.4316C47.9238 79.2874 47.4294 80.0421 47.1316 80.8285C41.8606 93.2903 36.6041 105.758 31.336 118.223C31.0527 118.914 30.6999 119.593 30.5756 120.339C30.0494 122.901 31.7929 125.708 34.3431 126.33C36.9684 126.998 39.8106 125.295 40.8458 122.869C45.5703 111.408 50.3121 99.9492 55.0511 88.4936C55.3026 87.6059 56.5141 87.2213 57.156 87.9326C57.6707 88.3201 57.6273 89.0487 57.3902 89.5836C52.9086 100.441 48.4183 111.298 43.9309 122.155C43.3381 123.598 42.8206 125.145 41.6871 126.272C40.12 128.024 37.7896 129.045 35.4447 129.057C33.6029 129.062 31.8189 128.288 30.4426 127.085C28.7511 125.518 27.8288 123.19 27.8982 120.897C27.9907 119.029 28.9131 117.373 29.6041 115.678C34.8722 103.202 40.1432 90.7257 45.4083 78.2494C45.5269 77.9632 45.6975 77.7203 45.9259 77.515Z" fill="#1E1E1E"/>
<path d="M14.2103 112.36C14.3173 112.3 14.5312 112.175 14.6382 112.115C17.9113 112.022 21.193 112.118 24.4689 112.068C25.0732 112.091 25.8568 111.97 26.2153 112.597C26.5796 113.248 26.2702 113.977 25.903 114.546C23.2603 118.932 20.6089 123.31 17.9864 127.705C17.6105 128.277 17.2144 129.153 16.3904 129.049C11.7555 129.049 7.11776 129.049 2.47999 129.058C1.86124 129.084 1.06033 128.997 0.829019 128.315C0.438683 127.63 0.918651 126.942 1.38705 126.459C5.70677 121.801 9.86167 116.992 14.2103 112.36ZM15.6097 114.627C13.2677 117.206 10.9575 119.809 8.60392 122.376C7.45605 123.781 6.08264 124.993 5.01862 126.467C8.22515 126.517 11.4375 126.465 14.644 126.493C15.1298 126.485 15.789 126.589 15.9769 125.999C18.2264 122.2 20.5655 118.45 22.7717 114.627C20.3863 114.619 17.998 114.616 15.6097 114.627Z" fill="#8F1402"/>
<path d="M57.7775 112.21C58.3124 112.013 58.8936 112.086 59.4516 112.068C62.5338 112.1 65.6189 112.039 68.7011 112.097C69.4298 112.042 69.7999 112.794 69.8577 113.413C70.5487 118.132 71.2889 122.845 71.9713 127.563C72.1563 128.309 71.4942 129.096 70.7309 129.038C65.911 129.058 61.0881 129.055 56.2682 129.041C55.502 129.093 54.8399 128.309 55.0307 127.56C55.6842 122.911 56.4417 118.273 57.1009 113.624C57.1819 113.101 57.2773 112.499 57.7775 112.21ZM59.5586 114.624C58.9948 118.583 58.3153 122.529 57.8209 126.499C61.6086 126.479 65.3963 126.482 69.184 126.499C68.6838 122.529 68.0014 118.586 67.4405 114.624C64.8122 114.616 62.1869 114.616 59.5586 114.624Z" fill="#8F1402"/>
<path d="M101.151 112.215C101.686 112.033 102.264 112.082 102.822 112.07C105.907 112.096 108.995 112.047 112.083 112.088C112.754 112.039 113.095 112.706 113.523 113.103C117.178 117.156 120.841 121.198 124.49 125.252C125.097 125.917 125.794 126.527 126.242 127.322C126.52 128.091 125.945 129.066 125.086 129.037C120.26 129.06 115.432 129.046 110.606 129.043C109.949 129.15 109.548 128.542 109.241 128.068C106.494 123.494 103.739 118.926 100.989 114.354C100.521 113.727 100.431 112.695 101.151 112.215ZM104.222 114.629C106.361 118.333 108.631 121.962 110.805 125.645C111.048 125.992 111.248 126.55 111.783 126.472C115.18 126.484 118.58 126.495 121.978 126.464C118.557 122.427 114.905 118.585 111.386 114.629C108.998 114.618 106.61 114.618 104.222 114.629Z" fill="#8F1402"/>
</svg>
