<svg width="63" height="100" viewBox="0 0 63 100" fill="none" xmlns="http://www.w3.org/2000/svg">
<path d="M21.32 0.187875C21.9975 -0.343215 23.0663 0.33649 22.9133 1.16919C22.7647 1.92102 21.9363 2.22481 21.4643 2.75153C17.2068 6.81448 14.6737 12.4445 13.7514 18.2056C13.3559 20.6643 13.2203 23.1646 13.334 25.6496C13.3471 26.0954 13.3843 26.5741 13.1307 26.9697C10.0884 32.3112 7.04615 37.6527 3.99949 42.992C3.04003 44.4847 2.10243 46.1151 2.0609 47.9401C2.02593 49.0001 2.50676 50.0513 3.33508 50.7136C4.68576 51.8326 6.46261 52.1648 8.13456 52.4904C8.89514 52.5997 9.22079 53.6531 8.66128 54.1755C7.62752 55.3141 6.67461 56.8069 6.98496 58.4155C7.28657 59.9235 8.54982 60.9572 9.76062 61.7725C10.3289 62.0806 10.4862 62.9417 9.98135 63.3788C9.10058 64.1941 8.2198 65.1076 7.88541 66.2944C7.59473 67.2211 7.86137 68.2439 8.43835 69.0045C8.96289 69.7738 9.83274 70.2328 10.307 71.0458C11.6599 73.1767 11.9331 75.8453 11.4326 78.2865C11.0654 80.0568 11.3604 82.0544 12.5865 83.4423C13.7536 84.758 15.5633 85.2672 17.268 85.3437C20.4021 85.4814 23.4488 84.5503 26.3687 83.5187C29.1115 82.9418 32.1822 83.4313 34.4181 85.1929C36.2758 86.6528 37.3751 88.8734 37.9149 91.1354C38.516 93.6444 39.1629 96.1447 39.7355 98.6581C39.9257 99.3771 39.1367 100.087 38.4417 99.8295C37.9718 99.7246 37.7532 99.2569 37.6614 98.8329C37.0713 96.4135 36.4834 93.9941 35.8933 91.5747C35.4824 89.9006 34.7306 88.2417 33.4193 87.0834C31.6752 85.4967 29.1072 85.0071 26.8473 85.5382C23.8422 86.6135 20.6993 87.5074 17.48 87.4287C15.4125 87.3763 13.2662 86.8277 11.6773 85.4464C10.119 84.1198 9.26886 82.0828 9.22297 80.0568C9.13336 78.5095 9.72565 77.0123 9.58359 75.465C9.4612 73.9701 9.02845 72.3462 7.81547 71.3671C6.5544 70.2721 5.62336 68.6723 5.70423 66.961C5.74575 65.3764 6.58938 63.9515 7.60784 62.7866C6.38393 61.7921 5.29989 60.5048 4.97425 58.9225C4.60489 57.279 5.11412 55.5677 6.02769 54.1908C4.10877 53.6553 2.0915 52.8401 0.933155 51.1266C-0.282014 49.3935 -0.192404 47.0833 0.528829 45.1732C1.06211 43.5821 2.09369 42.2445 2.88049 40.7802C5.61025 35.9916 8.33782 31.2009 11.0698 26.4124C11.3583 25.9884 11.2337 25.4616 11.2446 24.9852C11.0654 18.6252 12.3702 12.0992 15.6944 6.61778C17.2002 4.194 19.0055 1.88605 21.32 0.187875Z" fill="black"/>
<path d="M27.8746 36.7577C32.1714 36.3249 36.6364 36.7774 40.5879 38.6001C44.9481 40.5802 48.3816 44.2498 50.5694 48.4613C50.9322 49.1104 50.3443 49.9803 49.6143 49.9235C48.998 49.9366 48.6985 49.3399 48.4385 48.8853C46.6463 45.6485 44.0586 42.792 40.7956 40.9977C37.4429 39.129 33.5242 38.4712 29.7213 38.6547C24.817 38.8733 20.0219 40.2808 15.5961 42.3615C14.8574 42.757 13.9307 41.9462 14.1886 41.1594C14.3241 40.578 14.9579 40.4054 15.4234 40.1672C19.3684 38.4121 23.5734 37.1926 27.8746 36.7577Z" fill="black"/>
<path d="M32.8736 49.8257C35.0679 49.3383 37.3781 51.1588 37.4218 53.4056C37.5922 55.5737 35.6121 57.5734 33.4419 57.4314C31.547 57.3964 29.8576 55.766 29.7636 53.8733C29.5822 51.9894 31.0115 50.1426 32.8736 49.8257ZM32.6332 51.526C32.006 51.808 31.5317 52.3915 31.3722 53.0603C31.0399 54.2929 31.9426 55.6655 33.2058 55.8425C34.6177 56.1375 36.0405 54.824 35.8613 53.3947C35.7848 51.8801 33.9883 50.831 32.6332 51.526Z" fill="#8F1402"/>
<path d="M19.7327 52.0045C21.7478 51.3576 24.0688 52.8438 24.3376 54.9375C24.7289 56.9854 23.0285 59.0835 20.9522 59.1491C19.0508 59.3065 17.2346 57.7372 17.11 55.838C16.9199 54.1464 18.0957 52.4482 19.7327 52.0045ZM20.1698 53.4994C18.6486 53.8557 18.1197 56.0172 19.3109 57.0313C20.3752 58.1306 22.4537 57.5187 22.764 56.0216C23.2143 54.5376 21.6341 53.0099 20.1698 53.4994Z" fill="#8F1402"/>
<path d="M38.9814 61.8126C40.4566 61.4782 42.0849 62.0967 42.97 63.3228C43.8836 64.5249 43.995 66.2646 43.2432 67.5737C42.4586 69.0162 40.7145 69.8467 39.1016 69.5254C37.2788 69.2238 35.832 67.4929 35.8801 65.6439C35.8495 63.8452 37.222 62.1623 38.9814 61.8126ZM39.1956 63.3622C37.4886 63.7381 36.8352 66.1291 38.1137 67.3202C39.2568 68.5966 41.5997 68.0458 42.0652 66.4023C42.7187 64.7019 40.9243 62.8158 39.1956 63.3622Z" fill="#8F1402"/>
<path d="M25.6679 63.1555C27.7792 62.6004 30.0696 64.3292 30.1199 66.5082C30.3013 68.6085 28.3474 70.5471 26.2471 70.3482C24.3173 70.2717 22.689 68.4468 22.842 66.5191C22.8966 64.9302 24.1184 63.4899 25.6679 63.1555ZM26.0766 64.6592C24.5599 64.8909 23.843 66.9409 24.8899 68.0643C25.8297 69.2729 27.9628 68.897 28.437 67.4414C29.0621 65.9946 27.6022 64.2833 26.0766 64.6592Z" fill="#8F1402"/>
<path d="M51.2084 66.8374C51.8335 66.6451 52.3318 67.1718 52.5897 67.6767C57.1269 75.171 60.7199 83.31 62.593 91.8905C62.7394 92.7516 63.0235 93.6061 62.9995 94.4847C62.8202 95.536 61.1417 95.5207 60.9909 94.4651C59.3146 85.1852 55.4549 76.4167 50.5964 68.3804C50.1965 67.8253 50.5505 66.9773 51.2084 66.8374Z" fill="#8F1402"/>
<path d="M25.673 74.9846C29.3513 74.4579 33.235 74.6415 36.6598 76.1954C39.8376 77.592 42.4056 80.1709 44.0557 83.2001C45.9003 86.5374 46.8182 90.3097 47.2772 94.0732C47.4717 94.8163 46.6762 95.5485 45.955 95.284C45.4282 95.1441 45.2272 94.5912 45.1966 94.1016C44.6524 89.9032 43.5268 85.6195 40.9369 82.1925C38.9677 79.548 35.9866 77.7012 32.7476 77.0958C28.8508 76.2872 24.9168 77.2772 21.0243 77.6007C20.314 77.6138 19.4026 77.9832 18.8628 77.345C18.3208 76.744 18.7841 75.6643 19.6037 75.6665C21.6275 75.4567 23.6514 75.2228 25.673 74.9846Z" fill="black"/>
</svg>
