<svg width="83" height="65" viewBox="0 0 83 65" fill="none" xmlns="http://www.w3.org/2000/svg">
<path d="M39.8118 0.0868224C41.4827 -0.0530703 43.2563 -0.112136 44.8122 0.618414C47.1935 1.65984 48.8473 4.1406 48.8846 6.7395C48.8955 10.9891 48.8846 15.2388 48.8893 19.4884C48.9126 20.6371 48.3359 21.7795 47.3753 22.4168C46.752 22.8536 45.9826 23.0323 45.2288 23.0214C42.6843 23.0199 40.1413 23.0199 37.5984 23.0214C35.657 23.1629 33.8462 21.4531 33.9348 19.4977C33.9379 15.2978 33.9348 11.0964 33.9363 6.89493C33.9348 5.18824 34.5985 3.49243 35.7611 2.24117C36.8134 1.08783 38.2683 0.318422 39.8118 0.0868224Z" fill="#8F1402"/>
<path d="M28.89 13.7441C29.2102 11.7389 30.1987 9.86126 31.6319 8.42969C31.6396 9.62655 31.635 10.825 31.6396 12.0234C31.6583 12.5192 31.4345 12.9715 31.3086 13.4394C31.122 14.0922 31.0614 14.7746 31.0599 15.4507C31.063 31.1498 31.0599 46.8489 31.0614 62.5464C31.0552 63.0562 31.0941 63.5692 31.0303 64.0774C30.9526 64.5779 30.4816 64.9712 29.9796 64.9976C29.4356 65.0396 28.8838 64.6354 28.7936 64.093C28.7268 63.5785 28.7656 63.0578 28.761 62.5433C28.761 47.3105 28.761 32.0778 28.761 16.845C28.7703 15.8114 28.7081 14.7668 28.89 13.7441Z" fill="black"/>
<path d="M51.193 8.42969C52.9992 10.225 54.0701 12.7399 54.0639 15.2922C54.0686 30.0571 54.0593 44.8204 54.0686 59.5853C54.0453 60.1123 54.1681 60.734 53.7748 61.1599C53.3474 61.6728 52.4754 61.6728 52.0495 61.1583C51.6578 60.734 51.7821 60.1138 51.7604 59.59C51.7697 44.8764 51.7604 30.1628 51.765 15.4492C51.7572 14.714 51.692 13.971 51.4635 13.27C51.336 12.8658 51.1728 12.4617 51.1852 12.0311C51.1899 10.8312 51.1868 9.62966 51.193 8.42969Z" fill="black"/>
<path d="M11.5242 8.65831C12.9511 8.59769 14.4371 8.55728 15.7801 9.12462C18.2733 10.0837 20.0592 12.6048 20.126 15.2783C20.1463 19.4798 20.1245 23.6812 20.1369 27.8827C20.1494 28.5262 20.0623 29.1868 19.7515 29.7619C19.1763 30.9168 17.908 31.6707 16.6179 31.6396C13.9273 31.6365 11.2351 31.6473 8.54449 31.6333C6.79428 31.6365 5.22438 30.1023 5.19018 28.3521C5.16997 24.7211 5.18862 21.0901 5.18241 17.4591C5.19795 16.0602 5.05806 14.6131 5.56323 13.2763C6.41035 10.7396 8.85536 8.84328 11.5242 8.65831Z" fill="#8F1402"/>
<path d="M68.9969 2.36534C70.4238 2.30472 71.9097 2.26431 73.2527 2.83165C75.7459 3.79069 77.5319 6.31187 77.5987 8.98537C77.6189 13.1868 77.5972 17.3883 77.6096 21.5897C77.622 22.2332 77.535 22.8938 77.2241 23.4689C76.649 24.6238 75.3806 25.3777 74.0905 25.3466C71.3999 25.3435 68.7078 25.3544 66.0172 25.3404C64.2669 25.3435 62.697 23.8093 62.6628 22.0591C62.6426 18.4281 62.6613 14.7971 62.6551 11.1661C62.6706 9.76722 62.5307 8.32011 63.0359 6.98335C63.883 4.44663 66.328 2.55031 68.9969 2.36534Z" fill="#8F1402"/>
<path d="M0.00932929 23.6691C0.0310904 21.1852 1.10515 18.7511 2.87868 17.0195C2.86003 18.3454 2.92842 19.6759 2.84915 20.9987C2.56004 21.9204 2.27559 22.8608 2.30668 23.8401C2.30823 35.7543 2.30046 47.67 2.30978 59.5858C2.28802 60.1127 2.40927 60.736 2.0129 61.1619C1.58545 61.6686 0.721227 61.6686 0.295331 61.1603C-0.0979223 60.7375 0.0233181 60.1173 0.001557 59.5935C0.0124375 47.6187 3.11642e-06 35.6439 0.00932929 23.6691Z" fill="black"/>
<path d="M57.482 17.3761C57.5037 14.8923 58.5778 12.4581 60.3513 10.7266C60.3327 12.0524 60.4011 13.383 60.3218 14.7057C60.0327 15.6275 59.7482 16.5679 59.7793 17.5471C59.7809 29.4613 59.7731 41.377 59.7824 53.2928C59.7607 53.8197 59.8819 54.443 59.4856 54.8689C59.0581 55.3756 58.1939 55.3756 57.768 54.8674C57.3747 54.4446 57.496 53.8244 57.4742 53.3006C57.4851 41.3257 57.4727 29.3509 57.482 17.3761Z" fill="black"/>
<path d="M22.4375 17.0195C24.2499 18.7931 25.3224 21.2971 25.31 23.837C25.3147 36.8936 25.3053 49.9518 25.3147 63.0085C25.2882 63.5338 25.4173 64.1525 25.0395 64.5861C24.637 65.0929 23.8007 65.1333 23.3531 64.6654C23.0608 64.4043 22.9987 63.997 23.008 63.6255C23.0127 50.7772 23.008 37.9273 23.0095 25.0789C23.0095 24.0919 23.0562 23.0878 22.8013 22.1241C22.6785 21.6111 22.4158 21.1262 22.4313 20.5868C22.436 19.3977 22.4329 18.2086 22.4375 17.0195Z" fill="black"/>
<path d="M79.9102 10.7266C81.7226 12.5001 82.7951 15.0042 82.7827 17.544C82.7873 30.6006 82.778 43.6588 82.7873 56.7155C82.7609 57.2409 82.8899 57.8595 82.5122 58.2932C82.1096 58.7999 81.2734 58.8403 80.8257 58.3724C80.5335 58.1113 80.4713 57.7041 80.4806 57.3326C80.4853 44.4842 80.4806 31.6343 80.4822 18.7859C80.4822 17.7989 80.5288 16.7948 80.2739 15.8311C80.1511 15.3181 79.8884 14.8332 79.904 14.2938C79.9086 13.1047 79.9055 11.9157 79.9102 10.7266Z" fill="black"/>
<path d="M38.7557 27.6737C40.3894 27.5555 42.037 27.6519 43.6768 27.6255C44.3235 27.5773 44.9063 28.1695 44.8613 28.813C44.8535 29.427 44.2877 29.9477 43.6768 29.9151C42.166 29.929 40.6536 29.9306 39.1428 29.9151C38.5816 29.9399 38.0516 29.5078 37.9739 28.9514C37.8744 28.4089 38.2257 27.8275 38.7557 27.6737Z" fill="black"/>
<path d="M38.7203 32.2843C39.4229 32.1397 40.1488 32.2376 40.8607 32.2128C41.8523 32.2283 42.8456 32.177 43.8373 32.233C44.5429 32.2656 45.0465 33.0692 44.8056 33.7267C44.6564 34.2039 44.1714 34.5396 43.6709 34.5101C42.1617 34.5163 40.6524 34.5148 39.1446 34.5101C38.4996 34.5536 37.9136 33.9645 37.9618 33.321C37.9695 32.8625 38.2882 32.4319 38.7203 32.2843Z" fill="black"/>
<path d="M9.96763 36.3093C10.6174 36.1756 11.2873 36.2658 11.9463 36.2456C12.9878 36.258 14.0307 36.2145 15.0706 36.2596C15.8229 36.2813 16.3359 37.1766 16.0141 37.8481C15.8369 38.2787 15.383 38.5554 14.9214 38.5414C13.4121 38.5476 11.9028 38.5476 10.3935 38.5414C9.81375 38.5709 9.2635 38.1062 9.21377 37.5264C9.14226 37.0088 9.4749 36.4741 9.96763 36.3093Z" fill="black"/>
<path d="M67.4403 30.0124C68.09 29.8788 68.7599 29.9689 69.419 29.9487C70.4604 29.9611 71.5034 29.9176 72.5433 29.9627C73.2956 29.9845 73.8085 30.8798 73.4868 31.5513C73.3096 31.9818 72.8557 32.2585 72.394 32.2445C70.8848 32.2507 69.3755 32.2507 67.8662 32.2445C67.2864 32.274 66.7362 31.8093 66.6864 31.2295C66.6149 30.7119 66.9476 30.1772 67.4403 30.0124Z" fill="black"/>
<path d="M10.1506 40.8704C11.5277 40.8036 12.9096 40.872 14.2883 40.8409C14.7577 40.8549 15.2971 40.7709 15.6841 41.1004C16.2266 41.5139 16.2499 42.4092 15.7276 42.8491C15.3903 43.1833 14.8836 43.1444 14.4468 43.1522C13.0945 43.132 11.7422 43.1615 10.3899 43.1413C9.82259 43.1693 9.28944 42.7263 9.2195 42.1652C9.11535 41.5761 9.55213 40.9466 10.1506 40.8704Z" fill="black"/>
<path d="M67.6222 34.5735C68.9994 34.5067 70.3812 34.5751 71.76 34.544C72.2294 34.558 72.7687 34.474 73.1558 34.8036C73.6982 35.217 73.7216 36.1123 73.1993 36.5522C72.862 36.8864 72.3553 36.8476 71.9185 36.8553C70.5662 36.8351 69.2139 36.8647 67.8616 36.8445C67.2943 36.8724 66.7611 36.4294 66.6912 35.8683C66.587 35.2792 67.0238 34.6497 67.6222 34.5735Z" fill="black"/>
</svg>
