<svg width="88" height="44" viewBox="0 0 88 44" fill="none" xmlns="http://www.w3.org/2000/svg">
<path d="M9.7373 15.6177C10.2749 15.6312 10.8246 15.4376 11.3527 15.6191C11.8594 15.779 12.2068 16.332 12.1188 16.8595C12.0892 17.1707 11.897 17.4267 11.7062 17.6612C11.6686 17.7177 11.5678 17.8037 11.6632 17.8641C12.0274 18.2626 12.4877 18.5912 12.7551 19.0663C12.3916 19.2189 11.9447 19.2101 11.6249 18.9635C11.2325 18.6268 10.9455 18.1847 10.5524 17.8487C10.5296 18.2673 10.5847 18.6987 10.461 19.1066C10.25 19.1994 9.97519 19.2961 9.7615 19.1537C9.72319 17.9757 9.75948 16.7964 9.7373 15.6177ZM10.6465 16.3193C10.3421 16.459 10.4032 16.873 10.5107 17.127C10.5679 17.2916 10.7708 17.3467 10.9146 17.2607C11.1464 17.1364 11.3964 16.9113 11.3548 16.621C11.2674 16.3374 10.9099 16.2131 10.6465 16.3193Z" fill="#8F1402"/>
<path d="M0.435631 15.6635C0.652679 15.6138 0.820674 15.7993 0.955069 15.9411C1.43553 16.5042 1.82595 17.1372 2.2802 17.7205C2.29633 17.0223 2.3306 16.3254 2.35547 15.6279C2.61216 15.6286 2.86885 15.6266 3.12555 15.6313C3.14369 16.8516 3.1578 18.0726 3.14168 19.2929C2.95151 19.3077 2.74723 19.3238 2.58058 19.2116C2.28692 19.0167 2.08667 18.7177 1.88038 18.4395C1.58202 18.039 1.31054 17.6197 1.01151 17.2205C0.999419 17.5357 0.977915 17.8515 0.948349 18.166C0.913406 18.5678 1.01756 19.0093 0.795138 19.3728C0.618409 19.4582 0.431599 19.3567 0.264277 19.2976C0.258229 18.2285 0.218583 17.1594 0.213879 16.0902C0.213207 15.933 0.24143 15.6857 0.435631 15.6635Z" fill="#8F1402"/>
<path d="M3.71117 15.6898C4.3388 15.675 4.96642 15.6394 5.59405 15.6152C5.58935 15.8504 5.65184 16.1145 5.54096 16.3309C5.23185 16.5251 4.81926 16.3208 4.4994 16.4935C4.46916 16.6602 4.42145 16.851 4.5283 17.0022C4.86496 17.0882 5.23253 16.9847 5.56448 17.1124C5.60682 17.2817 5.59674 17.4564 5.57994 17.6285C5.28629 17.9 4.85286 17.7555 4.51015 17.8993C4.42481 17.9477 4.44027 18.0592 4.44228 18.1419C4.46043 18.2837 4.47051 18.4772 4.63312 18.5296C4.92678 18.6223 5.26142 18.537 5.54499 18.6754C5.64512 18.8333 5.64378 19.0537 5.54567 19.2123C5.35281 19.3171 5.12232 19.2943 4.91065 19.3091C4.54846 19.3098 4.19029 19.422 3.8281 19.3696C3.75687 19.3339 3.68564 19.2661 3.6937 19.1801C3.63323 18.3293 3.67623 17.4766 3.68698 16.6252C3.69505 16.3134 3.64196 15.9976 3.71117 15.6898Z" fill="#8F1402"/>
<path d="M7.25416 15.8828C7.35294 15.7524 7.47994 15.5811 7.66608 15.6133C7.95234 15.7471 8.10555 16.0421 8.23793 16.3129C8.55914 16.9862 8.8622 17.6682 9.14779 18.3584C9.24187 18.5922 9.34602 18.8254 9.39575 19.0754C9.16593 19.2077 8.86892 19.2145 8.64851 19.0619C8.5121 18.9336 8.45297 18.7481 8.3562 18.5922C8.06994 18.435 7.75344 18.5754 7.45239 18.5915C7.27566 18.6231 7.06601 18.5841 6.92221 18.7152C6.77572 18.8408 6.72128 19.0471 6.56001 19.16C6.37387 19.2877 6.09366 19.3724 5.91895 19.1802C6.10508 18.5055 6.38127 17.8598 6.64199 17.2113C6.83888 16.7658 6.99344 16.2974 7.25416 15.8828ZM7.43492 17.2657C7.36101 17.4478 7.23199 17.6199 7.24139 17.8255C7.50884 17.8389 7.7783 17.843 8.04508 17.8107C7.9389 17.4868 7.83408 17.1575 7.64995 16.8679C7.52967 16.968 7.50548 17.1327 7.43492 17.2657Z" fill="#8F1402"/>
<path d="M10.6853 23.037C10.9131 22.9799 11.1483 22.9685 11.3828 22.9792C11.4453 24.1068 11.3566 25.2384 11.4285 26.366C11.4345 26.4547 11.3962 26.5393 11.3747 26.6247C11.2323 26.6301 11.0898 26.6469 10.948 26.6334C10.7881 26.5622 10.6651 26.4332 10.5549 26.3021C10.1047 25.7451 9.74586 25.1221 9.30841 24.557C9.27548 25.2646 9.25667 25.9729 9.2318 26.6811C8.97376 26.7006 8.71505 26.7026 8.45702 26.6865C8.46441 25.4615 8.40729 24.2351 8.44895 23.0101C8.68482 23.0115 8.94689 22.9987 9.14176 23.1593C9.42466 23.3905 9.60945 23.713 9.82381 24.004C10.0866 24.3689 10.317 24.7573 10.5966 25.11C10.6335 24.4193 10.6046 23.7258 10.6853 23.037Z" fill="#8F1402"/>
<path d="M4.32961 23.0489C4.90616 22.9783 5.52236 23.1819 5.92756 23.6039C6.58677 24.325 6.60021 25.5869 5.87179 26.2656C5.49952 26.6359 4.96664 26.8395 4.44183 26.8059C3.91836 26.769 3.41505 26.5055 3.08376 26.099C2.71687 25.6515 2.69536 25.0252 2.77533 24.4775C2.88755 23.7175 3.57431 23.1195 4.32961 23.0489ZM4.24426 23.8976C4.00168 23.9876 3.77119 24.1382 3.63075 24.3606C3.39892 24.7067 3.41303 25.1999 3.66569 25.5312C3.87669 25.8174 4.21403 26.0069 4.56883 26.0338C4.90078 25.9955 5.23073 25.8302 5.43769 25.5648C5.72261 25.2019 5.70312 24.6663 5.44038 24.2981C5.1931 23.9117 4.67366 23.7437 4.24426 23.8976Z" fill="#8F1402"/>
<path d="M6.89365 23.0506C7.15841 23.0365 7.42384 23.0298 7.6886 23.0244C7.70002 23.9148 7.70406 24.8058 7.7222 25.6969C7.72556 26.0302 7.7437 26.3655 7.70137 26.6981C7.43325 26.7109 7.16446 26.7035 6.89634 26.7021C6.88828 25.4852 6.90104 24.2676 6.89365 23.0506Z" fill="#8F1402"/>
<path d="M11.711 23.0452C12.4663 22.9793 13.2242 23.0277 13.9802 22.9941C14.3243 22.9484 14.4042 23.4551 14.2282 23.6587C13.9681 23.7252 13.6946 23.6896 13.4305 23.7313C13.4238 24.6727 13.4084 25.6148 13.4406 26.5569C13.3257 26.5603 13.2189 26.5993 13.1154 26.6436C12.9427 26.7081 12.7492 26.6523 12.6148 26.5334C12.6235 25.6088 12.5892 24.6835 12.6087 23.7588C12.3352 23.7077 12.051 23.7259 11.7822 23.6553C11.6256 23.4941 11.7103 23.2441 11.711 23.0452Z" fill="#8F1402"/>
<path d="M0.000839785 23.1459C0.582099 23.1473 1.18352 23.1049 1.74394 23.2877C2.46968 23.6116 2.67194 24.6901 2.13839 25.2747C1.87229 25.6094 1.44088 25.7055 1.04576 25.7915C0.676847 25.9124 0.832073 26.3761 0.691631 26.6489C0.541108 26.8781 0.233344 26.8209 0.000168178 26.8277C0.000168178 25.6006 -0.000504166 24.3729 0.000839785 23.1459ZM0.875752 23.8764C0.862985 23.8958 0.836106 23.9335 0.823338 23.9523C0.782348 24.2668 0.748077 24.6115 0.846858 24.9152C1.11498 25.1034 1.60686 24.9347 1.66196 24.586C1.76209 24.1545 1.30246 23.7252 0.875752 23.8764Z" fill="#8F1402"/>
<path d="M49.8006 20.2383C50.0661 20.2269 50.3315 20.2322 50.5976 20.2275C50.5976 21.1764 50.5969 22.1259 50.5983 23.0747C50.9222 23.0989 51.2474 23.1009 51.572 23.1063C51.6835 23.1083 51.8374 23.1224 51.869 23.2548C51.8999 23.4665 51.8864 23.6808 51.9012 23.8945C51.3106 23.9167 50.7192 23.9026 50.1292 23.9106C50.017 23.914 49.9082 23.8965 49.8 23.875C49.7845 22.6628 49.7993 21.4505 49.8006 20.2383Z" fill="#060606"/>
<path d="M52.2744 20.2374C52.9303 20.2367 53.5861 20.2239 54.242 20.2381C54.2023 20.4538 54.246 20.7185 54.0908 20.8932C53.8126 21.0384 53.4746 20.9598 53.1849 21.0693C53.023 21.119 53.1003 21.3166 53.0862 21.4402C53.3778 21.6028 53.7299 21.5276 54.037 21.6344C54.2803 21.7251 54.2332 22.0228 54.1969 22.2264C54.0726 22.3642 53.8589 22.2963 53.6956 22.3252C53.49 22.3548 53.2488 22.3151 53.0808 22.4603C53.0862 22.637 53.0855 22.8151 53.0828 22.9925C53.3865 23.1995 53.7978 23.0536 54.1089 23.2324C54.2359 23.4138 54.2057 23.6671 54.2386 23.8802C53.5841 23.9091 52.9296 23.9312 52.2744 23.9091C52.2697 22.6854 52.2751 21.4611 52.2744 20.2374Z" fill="#060606"/>
<path d="M54.8054 20.3171C55.0493 20.1552 55.4142 20.2177 55.6575 20.3541C56.0009 20.9212 56.3819 21.4649 56.7568 22.0119C56.8287 22.12 56.8966 22.2329 56.9967 22.3203C57.0693 21.653 57.0464 20.9817 57.0464 20.3124C57.3092 20.1854 57.6042 20.2446 57.8851 20.2278C57.8589 21.2613 57.8784 22.2961 57.8091 23.3276C57.7782 23.5178 57.8159 23.798 57.5854 23.8685C57.2884 23.9559 57.0619 23.6985 56.8926 23.4956C56.4551 22.9425 56.0754 22.3478 55.6649 21.7753C55.646 22.3163 55.636 22.8579 55.599 23.3981C55.5849 23.5621 55.5681 23.7543 55.4156 23.8531C55.2408 23.9256 55.046 23.8947 54.8632 23.8961C54.7926 23.5077 54.8128 23.1099 54.8047 22.7174C54.7913 21.9171 54.8101 21.1175 54.8054 20.3171Z" fill="#060606"/>
<path d="M59.1468 20.2541C59.3847 20.2124 59.6286 20.2326 59.8705 20.2313C60.0977 20.2339 60.4034 20.3562 60.3967 20.6264C60.3564 20.8038 60.1783 20.9039 60.0217 20.965C59.7462 20.9845 59.4566 20.9194 59.1939 21.0255C59.1011 21.1942 59.2584 21.3608 59.3867 21.4569C59.7422 21.7251 60.181 21.9051 60.4431 22.2828C60.7219 22.6631 60.6749 23.2504 60.312 23.5616C59.972 23.8613 59.4922 24.0951 59.0339 23.9486C58.7584 23.8586 58.4527 23.7598 58.2665 23.5239C58.1738 23.2545 58.4298 23.0247 58.667 22.979C58.8821 23.0623 59.0877 23.198 59.3309 23.19C59.5171 23.2007 59.7933 23.1389 59.8201 22.9165C59.8275 22.6221 59.5359 22.4589 59.3135 22.3312C58.9009 22.098 58.4177 21.7936 58.3707 21.2728C58.284 20.7876 58.6764 20.3294 59.1468 20.2541Z" fill="#060606"/>
<path d="M68.4769 0H69.9767C72.5549 0.106246 75.1124 0.848297 77.4271 2.18516C80.3674 3.87088 82.8993 6.48604 84.7676 9.62742C86.2474 12.1104 87.2465 14.9715 87.7379 17.9414C87.8222 18.5061 87.8529 19.0792 87.9064 19.648C87.9464 20.0647 87.9136 20.4896 88 20.9004V22.9684C87.975 23.0897 87.9579 23.2127 87.9471 23.3365C87.9122 24.2091 87.84 25.0808 87.7222 25.9442C87.3944 27.8491 86.8687 29.7088 86.1424 31.4564C85.039 34.1419 83.4499 36.5446 81.5323 38.4997C79.6483 40.4589 77.4064 41.9414 75.0039 42.8265C73.2455 43.4807 71.4115 43.8187 69.5746 43.9784C68.7504 44.0562 67.9284 43.909 67.1149 43.7668C64.9174 43.4087 62.7548 42.6851 60.7687 41.5172C58.6818 40.2791 56.8128 38.5557 55.2608 36.5086C54.4059 35.4177 53.7367 34.1143 52.7176 33.2099C51.3364 31.935 50.2279 30.2752 49.4559 28.428C49.1181 27.6952 48.8831 26.8996 48.4996 26.196C48.0789 26.073 47.6433 26.0538 47.214 25.9986C39.2708 25.0674 31.319 24.2434 23.3737 23.3441C17.5595 22.6949 11.7445 22.0658 5.93175 21.4024C5.14543 21.3045 4.35553 21.2342 3.57349 21.0978C3.37566 21.0669 3.18426 20.9983 3 20.9104C3.00857 20.8017 2.97072 20.6452 3.08213 20.5909C3.25711 20.4955 3.45422 20.4838 3.64277 20.4512C4.76262 20.3148 5.8889 20.278 7.01232 20.196C19.0364 19.4422 31.0541 18.5688 43.0732 17.7055C44.9279 17.5457 46.7884 17.4579 48.6374 17.2178C48.911 16.5769 49.1167 15.8993 49.398 15.2627C49.893 14.0906 50.5379 13.0081 51.3006 12.0518C52.1212 10.9484 53.0997 10.029 53.9803 8.99496C54.7359 8.12408 55.3944 7.14611 56.1628 6.29028C57.192 5.10735 58.3211 4.03652 59.5574 3.16229C60.7601 2.30814 62.0578 1.64807 63.3933 1.13525C64.6781 0.647517 66.0001 0.266871 67.3478 0.124651C67.7227 0.0660902 68.1034 0.0744561 68.4769 0ZM61.9949 2.31483C61.5743 2.48048 61.2664 2.87283 61.0179 3.28611C60.2909 4.51338 59.5788 5.75654 58.9482 7.05576C58.2754 8.43027 57.7526 9.89513 57.282 11.3767C57.2427 11.4863 57.2313 11.6051 57.2234 11.7231C57.5434 11.1927 57.7583 10.5861 58.094 10.0675C58.2961 9.75793 58.5232 9.42915 58.8511 9.30366C59.2196 9.18738 59.5431 9.51197 59.7731 9.80896C60.228 10.4556 60.5365 11.2203 60.8429 11.9715C61.4778 13.5443 61.8542 15.2325 62.2963 16.8873C62.4349 16.925 62.5748 16.9626 62.7177 16.9827C64.2703 17.2537 65.8151 17.5917 67.3613 17.9096C73.7519 19.2741 80.1511 20.5808 86.5438 21.9311C86.6573 21.0075 86.5845 20.0714 86.4931 19.1503C86.3424 17.7891 86.086 16.4431 85.7074 15.1439C84.7262 11.7314 82.9121 8.69212 80.6453 6.27941C79.4676 5.12074 78.2677 3.95788 76.8865 3.14472C75.8473 2.60262 74.8118 2.03625 73.7133 1.67401C69.8889 0.37479 65.7023 0.624929 61.9949 2.31483ZM57.1813 5.89542C56.13 6.99134 55.143 8.18431 54.3331 9.5354C54.1653 9.80143 54.0003 10.0809 53.7732 10.2808C53.2447 10.5686 52.8326 11.0655 52.4155 11.529C51.6727 12.3999 50.9343 13.3042 50.4186 14.3859C50.0387 15.1581 49.6823 15.9487 49.3866 16.771C49.3481 16.8764 49.3231 16.9852 49.3116 17.0998C49.7309 17.1667 50.1537 17.1358 50.5743 17.114C52.2162 17.012 53.8589 16.9141 55.4929 16.7141C55.5958 16.4255 55.6265 16.1126 55.6922 15.8115C55.8829 14.7975 56.0936 13.7878 56.3614 12.7972C57.1691 9.79139 58.2683 6.87171 59.7888 4.2624C59.9623 3.93362 60.173 3.62827 60.3044 3.27021C59.1767 3.98967 58.154 4.91828 57.1813 5.89542ZM58.936 9.95871C58.6939 10.0373 58.549 10.3034 58.4147 10.5326C58.0926 11.1324 57.8519 11.7841 57.6234 12.4383C57.162 13.8229 56.6992 15.2116 56.3543 16.643C56.4699 16.6982 56.5921 16.7417 56.7199 16.7334C57.3384 16.7342 57.9547 16.8129 58.5732 16.8145C59.5252 16.8112 60.4794 16.8446 61.4286 16.7367C61.5143 16.7292 61.5964 16.7016 61.6742 16.6556C61.2143 14.7925 60.6987 12.9336 59.9252 11.2128C59.7638 10.8664 59.6002 10.5175 59.3838 10.213C59.276 10.0608 59.1132 9.92357 58.936 9.95871ZM53.866 17.4102C52.2698 17.5557 50.665 17.5859 49.0752 17.8218C48.816 18.6249 48.7567 19.4857 48.7203 20.3349C48.716 22.0909 48.6131 23.8828 49.0224 25.5936C49.5123 25.807 50.0601 25.7242 50.5729 25.8329C52.1498 25.9592 53.7217 26.2236 55.298 26.3206C55.3287 25.6238 55.123 24.9453 55.1366 24.2501C55.1273 24.107 55.2973 24.1296 55.368 24.0744C55.5229 24.1589 55.7051 24.2501 55.7386 24.4743C55.8715 25.0658 55.92 25.6781 56.0129 26.2797C57.869 26.3349 59.7274 26.3566 61.5843 26.3683C61.7235 25.8438 61.8535 25.3059 61.8664 24.7537C61.8792 24.5663 61.8692 24.3681 61.9399 24.194C62.1163 24.0502 62.5298 23.9924 62.5534 24.3371C62.5263 25.0264 62.2756 25.6773 62.2663 26.37C69.3218 25.2088 76.3687 23.9707 83.4128 22.7183C84.0662 22.5702 84.754 22.5468 85.3739 22.2498C85.1911 22.1528 84.9918 22.1327 84.7976 22.0942C82.98 21.7521 81.1688 21.3614 79.3562 20.9874C73.7826 19.8179 68.2069 18.6567 62.6305 17.5089C62.5977 17.5206 62.532 17.5449 62.4991 17.5566C62.477 17.9029 62.5506 18.2417 62.562 18.5847C62.5598 18.7956 62.342 18.7562 62.2249 18.8048C61.9014 18.6358 61.8964 18.169 61.8635 17.8168C61.8499 17.5725 61.6071 17.4813 61.4307 17.4813C60.3837 17.4428 59.3367 17.442 58.2904 17.4219C57.5805 17.4194 56.8706 17.3792 56.1621 17.4144C56.0786 17.7666 56.0143 18.1238 55.9429 18.4802C55.925 18.6743 55.7808 18.7989 55.6479 18.8901C55.4737 18.9955 55.3872 18.7387 55.3637 18.5847C55.3587 18.1623 55.3987 17.7406 55.383 17.3181C54.8744 17.2872 54.3731 17.4077 53.866 17.4102ZM40.897 18.3371C36.7683 18.655 32.6346 18.8675 28.5094 19.2063C24.9863 19.469 21.4632 19.6807 17.943 19.9701C14.1535 20.2244 10.3676 20.5649 6.57452 20.7582L6.61951 20.8628C8.34071 21.1539 10.0769 21.3204 11.8052 21.5513C14.6577 21.8809 17.5095 22.2214 20.3662 22.5C22.5588 22.7166 24.7478 22.9885 26.9368 23.2445C33.5566 23.9623 40.1729 24.7186 46.7927 25.4247C47.3133 25.4606 47.8325 25.5635 48.3553 25.5075C48.5196 25.4138 48.3668 25.1645 48.3625 25.0114C48.0332 23.201 48.0118 21.3187 48.2332 19.4883C48.2946 18.9436 48.4396 18.4132 48.4496 17.8603C47.9668 17.8427 47.4847 17.9012 47.0027 17.9105C44.9665 18.041 42.9325 18.1999 40.897 18.3371ZM86.101 22.853C79.4669 23.9339 72.8535 25.1821 66.2215 26.283C65.0774 26.4838 63.9282 26.6511 62.7891 26.8887C62.5877 26.938 62.3827 26.9715 62.1906 27.0585C62.0106 27.143 61.9614 27.3831 61.8978 27.5738C61.3621 29.4344 60.7751 31.2883 59.9538 33.0058C59.7474 33.4115 59.5402 33.8357 59.2253 34.1402C58.8403 34.469 58.2876 34.2858 57.9776 33.9085C57.4948 33.2501 57.2848 32.3876 56.8592 31.6873C56.9106 32.0671 57.0406 32.4235 57.142 32.7866C57.5327 34.1452 58.004 35.4712 58.5382 36.7604C59.0525 37.991 59.611 39.2041 60.3009 40.3142C60.5615 40.7609 60.9943 40.9952 61.4071 41.1976C63.5876 42.2576 65.9315 42.8834 68.2934 42.9637C69.1004 42.9503 69.911 42.9453 70.7137 42.8323C74.5489 42.3044 78.2499 40.341 81.0388 37.1962C82.8435 35.1617 84.2776 32.6829 85.2511 29.9815C85.8696 28.2021 86.3481 26.3432 86.5623 24.435C86.5859 23.9631 86.6687 23.4846 86.5895 23.0153C86.5516 22.7342 86.2652 22.8547 86.101 22.853ZM49.2116 26.273C49.433 27.1447 49.8166 27.9453 50.1829 28.7426C50.6364 29.7314 51.2242 30.6257 51.8756 31.4456C52.3341 32.022 52.8026 32.6168 53.3982 32.9999C53.5968 33.1564 53.7496 33.3781 53.9017 33.5914C54.3974 34.3117 54.8545 35.068 55.3701 35.7699C56.28 37.0482 57.3334 38.1792 58.4618 39.189C58.7589 39.4483 59.046 39.7303 59.3788 39.9277C59.3174 39.7621 59.2553 39.6006 59.176 39.4475C57.7576 36.7796 56.812 33.8064 56.0857 30.7922C55.7979 29.6143 55.5972 28.4113 55.4008 27.2091C55.3851 26.8962 55.0651 26.9163 54.8716 26.8653C53.4418 26.6854 52.0084 26.549 50.5793 26.3625C50.1215 26.3566 49.6701 26.2311 49.2116 26.273ZM56.1993 26.9196C56.3235 27.8976 56.6228 28.8279 56.8813 29.7657C57.0906 30.4442 57.2763 31.1394 57.5762 31.7727C57.7541 32.1491 57.7976 32.5967 58.0176 32.9489C58.194 33.2417 58.3868 33.6132 58.7189 33.6617C59.1046 33.5253 59.3203 33.0819 59.5231 32.7071C60.2544 31.2473 60.7415 29.6419 61.1636 28.0306C61.2393 27.7244 61.3514 27.4266 61.3714 27.1054C60.513 27.0167 59.651 27.0317 58.7918 26.9841C57.9276 26.9556 57.0634 26.9163 56.1993 26.9196Z" fill="#060606"/>
</svg>
