<svg width="126" height="96" viewBox="0 0 126 96" fill="none" xmlns="http://www.w3.org/2000/svg">
<path d="M29.0304 1.54232C28.7026 0.796304 29.3647 -0.120306 30.06 0.0273702C30.4807 0.0706545 30.7176 0.50859 30.928 0.875233C34.0612 6.89938 37.8255 12.5645 42.4866 17.1374C47.3226 21.9139 53.3144 25.3461 59.7159 26.0336C63.726 26.4053 67.8335 26.2118 71.6996 24.8293C77.7801 22.7414 83.0744 18.3239 87.3635 13.0279C90.3616 9.33349 92.9391 5.20875 95.1866 0.87014C95.3925 0.511135 95.6161 0.0604703 96.0369 0.0197321C96.7366 -0.148313 97.4097 0.79121 97.0731 1.53723C96.3779 3.22531 95.2154 4.63587 94.7371 6.44617C94.0462 8.93629 93.7119 11.5308 93.4085 14.1126C92.6889 20.6994 92.3833 27.3346 92.1862 33.9673C91.9338 39.6681 93.3576 45.3689 95.8619 50.2651C98.9021 56.2231 103.353 61.0607 108.209 65.048C113.162 69.0887 118.596 72.3146 124.247 74.8531C124.592 75.0161 124.991 75.2376 125.075 75.7086C125.29 76.4521 124.626 77.3152 123.957 77.0836C122.991 76.7729 122.086 76.2713 121.147 75.8792C114.57 72.9308 108.01 69.603 102.399 64.5973C99.8034 62.2752 97.4319 59.5916 95.5276 56.5032C94.013 54.0283 92.8948 51.2658 92.0002 48.4294C91.9958 53.3892 92.0799 58.3466 92.2438 63.3013C92.3479 64.0193 91.8364 64.7628 91.1787 64.6559C90.5676 64.61 90.2509 63.8971 90.2908 63.2631C89.9498 53.4147 90.0118 43.5535 90.2022 33.7025C90.541 25.9394 90.789 18.1406 91.9382 10.4665C88.5393 15.5588 84.6178 20.2666 79.97 23.8668C75.0166 27.7446 69.0979 30.2092 63.0529 30.0132C57.1252 30.2041 51.3061 27.8388 46.4147 24.0832C41.6474 20.455 37.6284 15.6632 34.1653 10.464C35.3145 18.1457 35.5603 25.9496 35.9035 33.7204C36.0873 43.826 36.1736 53.9417 35.7795 64.0397C35.8481 64.8723 35.0244 65.5394 34.3756 65.1371C33.904 64.9054 33.7977 64.2765 33.8398 63.7495C34.0169 58.6725 34.1166 53.5904 34.0966 48.5083C33.0227 51.8106 31.6742 55.0315 29.7456 57.7915C25.9193 63.3624 20.7268 67.4592 15.2796 70.6698C11.6305 72.829 7.82415 74.6087 4.00007 76.3095C3.31586 76.5998 2.65157 76.9868 1.9275 77.1268C1.11265 77.1319 0.66536 75.8207 1.292 75.2096C1.94079 74.7156 2.71136 74.4967 3.41772 74.1351C10.0894 70.9397 16.4776 66.8023 21.9756 61.3739C26.4928 56.8953 30.4121 51.3829 32.4492 44.8699C33.5342 41.3868 34.09 37.6618 33.9195 33.9571C33.7291 27.546 33.439 21.1323 32.7703 14.7618C32.4514 11.9611 32.1126 9.14507 31.3642 6.44617C30.8837 4.63842 29.7256 3.22786 29.0304 1.54232Z" fill="black"/>
<path d="M51.832 1.18027C52.3989 0.62776 53.0521 1.193 53.5392 1.57747C58.6542 5.61563 65.751 6.3973 71.2602 2.94729C72.2145 2.4126 73.0006 1.56728 73.9284 0.98422C74.7853 0.653222 75.5514 2.02559 74.9115 2.76906C73.8509 3.89699 72.5644 4.7194 71.2734 5.45014C65.069 8.82122 57.3744 7.62453 51.8962 2.99312C51.3427 2.60865 51.305 1.61566 51.832 1.18027Z" fill="black"/>
<path d="M40.7516 35.0231C41.2387 34.7099 41.6506 35.2599 41.7059 35.7819C44.4361 48.0186 47.7332 60.1534 52.5382 71.5423C52.6201 71.8809 52.9213 72.2807 52.7021 72.627C52.5138 73.1489 51.7898 73.1082 51.6326 72.576C48.6322 65.6327 45.2997 58.7709 43.6102 51.2063C42.4566 46.3101 41.6749 41.3121 40.5766 36.4031C40.4925 35.9423 40.2866 35.3108 40.7516 35.0231Z" fill="#8F1402"/>
<path d="M84.784 34.9998C85.3199 34.6841 85.8557 35.4174 85.5944 36.0055C84.3256 41.77 83.4444 47.6464 81.9541 53.3472C80.1805 60.0919 77.1757 66.2714 74.4743 72.5578C74.275 73.2045 73.4048 73.0823 73.3096 72.4152C73.4092 71.715 73.7524 71.104 74.0004 70.4649C78.5441 59.4554 81.7084 47.7763 84.3345 35.9953C84.4452 35.6516 84.474 35.1933 84.784 34.9998Z" fill="#8F1402"/>
<path d="M7.5148 86.2007C7.88459 85.9258 8.30973 86.1473 8.67509 86.3026C16.6576 90.2644 25.4195 91.4483 34.0287 91.9499C38.2269 92.1994 42.4297 92.258 46.6302 92.4006C47.3454 92.3369 47.9012 93.2892 47.5469 94.0199C47.3653 94.5215 46.8627 94.631 46.4419 94.6717C40.4988 95.2141 34.5224 95.6087 28.566 95.1249C21.219 94.5699 13.872 92.4286 7.48602 88.1358C6.83281 87.7564 6.86823 86.5597 7.5148 86.2007Z" fill="#8F1402"/>
<path d="M117.598 86.2291C118.215 85.7912 119.099 86.3106 119.092 87.1584C119.132 87.8892 118.494 88.2354 118.04 88.5537C111.519 92.9152 103.966 94.7612 96.4998 95.2449C90.8268 95.6218 85.1339 95.2959 79.4852 94.6492C78.8719 94.6542 78.3072 94.005 78.4711 93.2819C78.5663 92.6377 79.1442 92.3551 79.6557 92.3882C88.7232 92.1132 97.8682 92.0852 106.798 90.0305C110.496 89.1826 114.132 87.9426 117.598 86.2291Z" fill="#8F1402"/>
</svg>
