<svg width="80" height="80" viewBox="0 0 80 80" fill="none" xmlns="http://www.w3.org/2000/svg">
<path d="M37.8839 19.2263C40.859 19.1592 43.841 19.2016 46.7943 19.5918C47.4699 19.6629 48.1544 19.7172 48.8034 19.9365C50.9033 20.3217 53.0062 20.7168 55.0597 21.3095C57.6229 22.0404 60.1564 22.8997 62.5606 24.0583C63.0535 24.3132 63.5878 24.4742 64.0758 24.7389C64.5074 24.9552 64.865 25.2901 65.3016 25.4995C66.6162 26.1938 67.843 27.0374 69.1231 27.791C70.1731 28.5061 71.1806 29.2825 72.1555 30.0974C72.8252 30.775 73.4959 31.4614 74.2604 32.0343C74.9133 32.5707 75.4308 33.2453 76.0156 33.8508C76.5509 34.4671 77.1031 35.0776 77.5367 35.7739C77.8231 36.2125 78.158 36.6165 78.4484 37.0521C78.8099 37.5746 79.1339 38.1237 79.5517 38.6058C80.2787 39.552 80.0811 40.9941 79.2504 41.81C78.3457 43.1899 77.3757 44.5292 76.2921 45.7758C75.736 46.5857 75.0367 47.2821 74.3364 47.9656C73.4267 48.659 72.6316 49.4857 71.7347 50.1949C71.2132 50.6305 70.6403 51.0068 70.1632 51.4938C69.5864 51.9877 68.9355 52.3897 68.2757 52.762C66.8019 53.7379 65.2601 54.6111 63.6797 55.4003C62.9814 55.6601 62.3285 56.0216 61.642 56.307C61.2588 56.4601 60.9387 56.7308 60.5545 56.8789C59.5421 57.2918 58.5237 57.6928 57.4718 57.9941C53.4546 59.3493 49.2676 60.18 45.045 60.5336C44.3684 60.6393 43.6809 60.5948 43.0043 60.6956C40.3868 60.7479 37.7614 60.7924 35.1538 60.5612C30.787 60.1997 26.4548 59.3473 22.3003 57.9447C21.196 57.5378 20.0552 57.2197 18.9954 56.6992C18.3484 56.2804 17.6115 56.0394 16.931 55.6848C16.3334 55.3835 15.7338 55.0842 15.1185 54.8225C13.5826 53.9938 12.0802 53.0969 10.6588 52.0825C10.3319 51.8474 9.94668 51.6973 9.65826 51.4108C9.24341 50.995 8.75942 50.6582 8.30605 50.2878C7.11088 49.3198 5.98387 48.2708 4.90032 47.1803C4.4272 46.7912 4.00938 46.3398 3.67651 45.8251C2.45172 44.3998 1.32372 42.8886 0.365612 41.2717C0.0366949 40.6277 -0.162829 39.8395 0.174978 39.1559C0.856518 37.7731 1.865 36.5888 2.70063 35.3028C3.28043 34.5699 3.88196 33.8498 4.54276 33.188C5.12948 32.6872 5.62532 32.0906 6.21599 31.5948C6.74246 31.1039 7.29559 30.6416 7.76971 30.0994C8.47001 29.5136 9.18612 28.9437 9.93286 28.4182C10.5749 28.0567 11.1527 27.5964 11.777 27.2063C12.9939 26.3914 14.2937 25.7138 15.5373 24.9443C17.4644 23.9823 19.4201 23.0578 21.4746 22.3999C23.2051 21.7698 24.9702 21.2235 26.7708 20.8344C28.1547 20.4827 29.5563 20.2111 30.9638 19.974C31.5969 19.8041 32.2409 19.6777 32.8948 19.6204C34.5513 19.4081 36.2156 19.2747 37.8839 19.2263ZM51.8683 24.9196C52.1893 25.4827 52.8205 25.7316 53.2551 26.1859C54.1006 26.989 54.872 27.87 55.5536 28.8163C55.9664 29.4079 56.3843 30.0035 56.6697 30.6693C57.0944 31.4466 57.4876 32.2427 57.7948 33.0744C57.9706 33.5752 58.2689 34.0246 58.3983 34.5432C58.7627 35.8184 58.98 37.134 59.1124 38.4517C59.1638 39.4937 59.1628 40.5398 59.1134 41.5818C58.9306 43.3627 58.6215 45.1673 57.8629 46.802C57.4984 47.7987 57.0302 48.7558 56.4959 49.6714C56.1235 50.3184 55.678 50.9179 55.2948 51.556C54.7278 52.3828 54.0226 53.1008 53.3134 53.8041C52.8728 54.2585 52.3079 54.5637 51.8644 55.0141C54.1707 54.5913 56.3694 53.7468 58.5731 52.9734C59.6626 52.521 60.752 52.0598 61.7951 51.5096C62.3828 51.0839 63.0327 50.7599 63.6886 50.4547C64.943 49.7623 66.1441 48.9741 67.3087 48.1384C67.8282 47.7779 68.2964 47.3463 68.8416 47.0223C69.4777 46.6134 69.94 46.0069 70.4951 45.5041C71.5599 44.4947 72.6069 43.4585 73.5176 42.3048C73.8465 41.8831 74.2851 41.5542 74.5587 41.088C74.7592 40.7324 74.9913 40.3975 75.2086 40.0528C75.2837 39.956 75.177 39.8523 75.1365 39.7693C74.8263 39.3238 74.53 38.8655 74.1636 38.4645C73.5156 37.8225 73.0158 37.0501 72.3659 36.41C71.9333 36.0149 71.6182 35.5141 71.1994 35.1082C70.3203 34.2666 69.4481 33.3984 68.4139 32.7455C67.5961 32.1124 66.7585 31.5029 65.8922 30.937C65.266 30.5547 64.7376 30.0312 64.0738 29.7052C61.9472 28.6079 59.8226 27.4631 57.5399 26.7134C56.0593 26.1533 54.5451 25.6851 53.019 25.2693C52.6279 25.1735 52.2683 24.9789 51.8683 24.9196ZM26.679 25.3681C24.4487 25.8926 22.3073 26.7302 20.1797 27.5688C18.7455 28.2009 17.3409 28.9022 15.9867 29.6924C15.6301 29.9117 15.2163 30.0342 14.8953 30.3117C14.6503 30.5261 14.3866 30.7177 14.11 30.8905C12.8971 31.6689 11.7434 32.5381 10.6371 33.4606C10.3744 33.6927 10.0721 33.8705 9.80346 34.0948C9.14859 34.6933 8.48977 35.2919 7.94157 35.9932C6.92914 37.0708 5.97696 38.2057 5.13244 39.4216C5.0149 39.6133 4.81636 39.7743 4.76994 39.9995C5.00799 40.36 5.26579 40.7087 5.47321 41.0899C6.26044 42.2209 7.18694 43.2452 8.12035 44.2556C8.7446 44.9164 9.44787 45.4943 10.0919 46.1363C11.1369 47.0144 12.1987 47.8767 13.3336 48.6382C14.1061 49.1538 14.8587 49.7109 15.7052 50.1021C16.2801 50.4181 16.849 50.7441 17.4298 51.0493C17.7399 51.2083 17.9948 51.4553 18.3069 51.6113C19.2522 52.0528 20.1836 52.5329 21.1773 52.8618C23.4066 53.7646 25.6991 54.5192 28.0539 55.02C27.2341 54.4047 26.5288 53.6599 25.7653 52.9803C24.8793 52.122 24.261 51.0542 23.5953 50.029C22.6816 48.5592 21.9783 46.9571 21.5447 45.2809C21.1239 43.8823 20.9797 42.4253 20.7397 40.9912C20.7061 40.3432 20.7071 39.6903 20.7407 39.0433C20.9086 38.0062 21.0459 36.9632 21.2514 35.932C21.6267 33.7718 22.5888 31.7726 23.6239 29.8613C24.1691 29.004 24.7667 28.1772 25.4404 27.4157C26.2068 26.5583 27.1758 25.8985 27.9137 25.0184C27.4781 25.0372 27.0998 25.2782 26.679 25.3681ZM38.4835 25.291C36.2057 25.5143 33.9715 26.2472 32.0483 27.4957C31.5219 27.8266 30.9677 28.1189 30.4996 28.5338C29.7647 29.1798 29.018 29.8356 28.4826 30.6643C27.6223 31.7222 26.8983 32.8937 26.3619 34.1491C26.195 34.557 25.9135 34.9146 25.8098 35.3502C25.473 36.6184 25.1164 37.9045 25.1282 39.228C25.1292 40.0785 25.1016 40.9309 25.1747 41.7784C25.386 43.098 25.6073 44.4621 26.2898 45.6325C27.0632 47.7453 28.4619 49.5934 30.1311 51.0849C30.4709 51.4404 30.8087 51.8089 31.2364 52.0627C31.9693 52.4855 32.6627 52.9793 33.4351 53.331C36.0842 54.6684 39.1452 55.0546 42.0719 54.6842C43.8558 54.4501 45.5695 53.8199 47.1519 52.9744C47.8334 52.684 48.426 52.2316 49.0197 51.796C49.4187 51.5046 49.716 51.1036 50.0884 50.7816C51.0544 49.8907 51.8604 48.8437 52.5746 47.7443C53.0082 47.2218 53.345 46.6213 53.5504 45.9733C53.9248 45.0508 54.2705 44.1114 54.47 43.1336C55.1921 39.7012 54.6952 36.008 53.024 32.9184C52.4619 32.1667 51.9631 31.3686 51.3774 30.6337C50.849 29.7981 50.0864 29.1521 49.3446 28.513C48.7658 28.0537 48.1742 27.6014 47.5183 27.2557C47.0511 27.0354 46.5987 26.7845 46.1305 26.5642C43.759 25.4451 41.0861 25.0461 38.4835 25.291Z" fill="black"/>
<path d="M38.8742 37.5633C39.3433 36.7216 39.5779 36.3008 39.9286 36.3008C40.2793 36.3008 40.5139 36.7216 40.9831 37.5633L41.1045 37.781C41.2378 38.0202 41.3045 38.1397 41.4084 38.2186C41.5123 38.2976 41.6418 38.3268 41.9007 38.3854L42.1364 38.4388C43.0475 38.6449 43.503 38.748 43.6114 39.0965C43.7198 39.445 43.4092 39.8081 42.7881 40.5345L42.6274 40.7223C42.4509 40.9287 42.3627 41.0319 42.323 41.1596C42.2833 41.2873 42.2966 41.425 42.3233 41.7004L42.3476 41.951C42.4415 42.9201 42.4884 43.4047 42.2047 43.62C41.921 43.8354 41.4945 43.639 40.6414 43.2463L40.4207 43.1446C40.1783 43.0331 40.0571 42.9772 39.9286 42.9772C39.8002 42.9772 39.679 43.0331 39.4365 43.1446L39.2158 43.2463C38.3628 43.639 37.9363 43.8354 37.6526 43.62C37.3688 43.4047 37.4158 42.9201 37.5097 41.951L37.534 41.7004C37.5607 41.425 37.574 41.2873 37.5343 41.1596C37.4946 41.0319 37.4063 40.9287 37.2299 40.7223L37.0692 40.5345C36.4481 39.8081 36.1375 39.445 36.2459 39.0965C36.3543 38.748 36.8098 38.6449 37.7209 38.4388L37.9566 38.3854C38.2155 38.3268 38.3449 38.2976 38.4489 38.2186C38.5528 38.1397 38.6195 38.0202 38.7528 37.781L38.8742 37.5633Z" fill="#8F1402"/>
<path fill-rule="evenodd" clip-rule="evenodd" d="M39.929 32.041C40.2358 32.041 40.4846 32.2898 40.4846 32.5966V34.0782C40.4846 34.3851 40.2358 34.6338 39.929 34.6338C39.6221 34.6338 39.3734 34.3851 39.3734 34.0782V32.5966C39.3734 32.2898 39.6221 32.041 39.929 32.041ZM44.7667 35.1669C44.9837 35.3839 44.9837 35.7356 44.7667 35.9526L44.5125 36.2069C44.2955 36.4239 43.9437 36.4239 43.7267 36.2069C43.5097 35.9899 43.5097 35.6381 43.7267 35.4212L43.981 35.1669C44.198 34.9499 44.5498 34.9499 44.7667 35.1669ZM35.0913 35.167C35.3083 34.95 35.66 34.95 35.877 35.167L36.1313 35.4213C36.3483 35.6382 36.3483 35.99 36.1313 36.207C35.9143 36.424 35.5625 36.424 35.3456 36.207L35.0913 35.9527C34.8743 35.7357 34.8743 35.3839 35.0913 35.167ZM31.9653 40.0047C31.9653 39.6978 32.2141 39.4491 32.5209 39.4491H34.0025C34.3094 39.4491 34.5581 39.6978 34.5581 40.0047C34.5581 40.3115 34.3094 40.5603 34.0025 40.5603H32.5209C32.2141 40.5603 31.9653 40.3115 31.9653 40.0047ZM45.2998 40.0047C45.2998 39.6978 45.5486 39.4491 45.8554 39.4491H47.337C47.6439 39.4491 47.8926 39.6978 47.8926 40.0047C47.8926 40.3115 47.6439 40.5603 47.337 40.5603H45.8554C45.5486 40.5603 45.2998 40.3115 45.2998 40.0047ZM36.1312 43.8024C36.3482 44.0194 36.3482 44.3712 36.1312 44.5882L35.8771 44.8423C35.6601 45.0592 35.3083 45.0592 35.0914 44.8423C34.8744 44.6253 34.8744 44.2735 35.0914 44.0566L35.3455 43.8024C35.5625 43.5854 35.9142 43.5854 36.1312 43.8024ZM43.7267 43.8025C43.9437 43.5856 44.2955 43.5856 44.5125 43.8025L44.7666 44.0567C44.9836 44.2737 44.9836 44.6255 44.7666 44.8425C44.5496 45.0594 44.1978 45.0594 43.9808 44.8425L43.7267 44.5883C43.5097 44.3713 43.5097 44.0195 43.7267 43.8025ZM39.929 45.3755C40.2358 45.3755 40.4846 45.6243 40.4846 45.9311V47.4127C40.4846 47.7195 40.2358 47.9683 39.929 47.9683C39.6221 47.9683 39.3734 47.7195 39.3734 47.4127V45.9311C39.3734 45.6243 39.6221 45.3755 39.929 45.3755Z" fill="#8F1402"/>
</svg>
