<svg width="83" height="107" viewBox="0 0 83 107" fill="none" xmlns="http://www.w3.org/2000/svg">
<path d="M26.1742 0.111699C27.3377 -0.364395 28.6955 0.760256 28.4623 1.99421C27.8186 9.61658 27.0316 17.2292 25.9361 24.803C24.6074 33.6982 22.9289 42.5764 20.1307 51.1388C18.1243 57.175 15.5616 63.131 11.6241 68.1786C8.6364 72.0408 5.93044 76.2212 4.41228 80.8971C3.3848 84.0889 3.00343 87.628 4.10379 90.8538C5.08999 93.8925 7.43888 96.3483 10.2177 97.8494C12.1221 98.9085 14.2402 99.5231 16.3827 99.8656C17.4126 99.9482 18.1777 101.07 17.8547 102.061C17.636 102.863 16.7786 103.424 15.9551 103.278C11.9569 102.725 8.034 101.119 5.04141 98.3717C2.48362 96.0544 0.732273 92.8626 0.212456 89.4449C-0.443388 85.3252 0.486936 81.1181 2.07311 77.3142C3.67628 73.4933 5.9183 69.9688 8.43479 66.6847C10.174 64.467 11.7237 62.0962 12.9868 59.5725C16.4507 52.708 18.5105 45.2435 20.1477 37.762C22.6132 26.1341 23.9346 14.3022 24.9548 2.47274C24.9572 1.55699 25.1734 0.429905 26.1742 0.111699Z" fill="black"/>
<path d="M54.8547 0.175713C55.87 -0.358678 57.2206 0.423473 57.2934 1.55784C58.3646 13.7614 59.6642 25.9771 62.239 37.9669C64.0389 46.1261 66.3271 54.3071 70.4613 61.6234C71.7147 63.8727 73.3203 65.8937 74.8603 67.9511C77.6659 71.8497 80.1338 76.0787 81.4601 80.7231C82.4462 84.1772 82.7134 87.9179 81.6884 91.3939C80.6998 94.8626 78.3679 97.8624 75.4044 99.8834C72.6742 101.749 69.4678 102.895 66.191 103.296C65.081 103.389 64.1482 102.189 64.4786 101.132C64.6656 100.35 65.4283 99.8761 66.1959 99.8227C70.131 99.2203 74.0344 97.3888 76.4854 94.1678C78.4626 91.6149 79.1695 88.2531 78.8221 85.0808C78.38 80.9077 76.5728 77.0163 74.4134 73.4699C72.3414 69.9478 69.4751 66.9649 67.5027 63.3796C63.1863 55.7548 60.7791 47.2362 58.8893 38.7345C56.3364 26.871 54.9931 14.7913 53.934 2.7165C53.7519 1.7886 53.8612 0.59351 54.8547 0.175713Z" fill="black"/>
<path d="M12.8573 89.0653C13.5933 88.7471 14.4216 88.9366 15.1965 88.9609C18.4708 89.2062 21.5897 90.5981 24.1135 92.67C27.434 95.3128 29.9141 98.8933 33.4508 101.279C36.9705 103.664 41.5954 104.116 45.6155 102.87C48.8461 101.859 51.3481 99.4568 53.6386 97.0739C56.1163 94.4943 58.6571 91.8101 61.9727 90.3138C64.1249 89.3301 66.5053 88.8467 68.8712 88.9026C70.0177 88.9341 70.8096 90.309 70.2922 91.3268C69.9813 92.0579 69.17 92.3907 68.4146 92.347C65.7863 92.3543 63.1873 93.2336 61.0837 94.8076C57.7705 97.2949 55.3268 100.734 52.0452 103.258C46.3053 107.934 37.4976 108.255 31.4104 104.062C27.7012 101.597 25.1216 97.8585 21.6553 95.1064C19.6149 93.4789 17.0766 92.4636 14.4581 92.3737C13.7318 92.3324 12.8719 92.398 12.3521 91.7834C11.5675 90.994 11.842 89.5171 12.8573 89.0653Z" fill="#8F1402"/>
</svg>
