<svg width="80" height="80" viewBox="0 0 80 80" fill="none" xmlns="http://www.w3.org/2000/svg">
<g clip-path="url(#clip0_3025_56667)">
<path d="M12.9374 24.5994C18.416 24.5994 22.8572 20.1581 22.8572 14.6796C22.8572 9.20102 18.416 4.75977 12.9374 4.75977C7.45883 4.75977 3.01758 9.20102 3.01758 14.6796C3.01758 20.1581 7.45883 24.5994 12.9374 24.5994Z" fill="black"/>
<path d="M78.9762 17.3974H54.9952V14.6826H48.6343V17.3974H25.8567H24.2376V20.6689H25.8567V27.8688L22.131 26.0932H16.5476L12.7654 30.4784L9.10642 26.0932L1.06742 27.5866L0.554237 45.4171H3.96177L4.14651 49.1197H4.66483V51.3752V53.0404V70.7042H3.97973L0 71.5715V75.2407H3.38957L7.34621 74.5967L7.38213 75.2407H11.7647V71.1532V70.7093V53.0481H14.2613V70.7093V71.1532V75.2407H18.6439L18.6798 74.5967L22.6365 75.2407H26.026V71.5715L22.0412 70.7093H21.3612V53.0481V51.3803V49.1249H21.9899L22.8007 32.703L25.8567 34.086V52.9583H49.2989V58.9703L36.3615 73.5652H41.011L49.7453 63.7018V73.5652H52.4164V63.7121L61.138 73.5652H65.8618L52.8527 58.9703V52.9583H78.9788V20.6715H80V17.3974H78.9762ZM76.6874 50.5489H52.8475H49.2989H28.1481V35.1201L37.6856 39.436L37.6496 33.4908L28.1481 28.9619V20.6715H76.6874V50.5489Z" fill="black"/>
<path d="M45.9592 23.3265V32.6356H43.991V25.1947H43.9365L41.8046 26.531V24.7856L44.1092 23.3265H45.9592Z" fill="#8F1402"/>
<path d="M48.1717 32.6356V31.2174L51.4853 28.1492C51.7671 27.8765 52.0035 27.631 52.1944 27.4129C52.3884 27.1947 52.5353 26.981 52.6353 26.7719C52.7353 26.5598 52.7853 26.331 52.7853 26.0856C52.7853 25.8129 52.7232 25.578 52.599 25.381C52.4747 25.181 52.305 25.028 52.0899 24.9219C51.8747 24.8129 51.6308 24.7583 51.3581 24.7583C51.0732 24.7583 50.8247 24.8159 50.6126 24.931C50.4005 25.0462 50.2368 25.2113 50.1217 25.4265C50.0065 25.6416 49.949 25.8977 49.949 26.1947H48.0808C48.0808 25.5856 48.2187 25.0568 48.4944 24.6083C48.7702 24.1598 49.1565 23.8129 49.6535 23.5674C50.1505 23.3219 50.7232 23.1992 51.3717 23.1992C52.0384 23.1992 52.6187 23.3174 53.1126 23.5538C53.6096 23.7871 53.9959 24.1113 54.2717 24.5265C54.5474 24.9416 54.6853 25.4174 54.6853 25.9538C54.6853 26.3053 54.6156 26.6522 54.4762 26.9947C54.3399 27.3371 54.0959 27.7174 53.7444 28.1356C53.3929 28.5507 52.8974 29.0492 52.2581 29.631L50.899 30.9629V31.0265H54.8081V32.6356H48.1717Z" fill="#8F1402"/>
<path d="M59.6751 32.7629C58.9963 32.7629 58.3918 32.6462 57.8615 32.4129C57.3342 32.1765 56.9175 31.8522 56.6115 31.4401C56.3084 31.025 56.1524 30.5462 56.1433 30.0038H58.1251C58.1372 30.231 58.2115 30.431 58.3478 30.6038C58.4872 30.7735 58.6721 30.9053 58.9024 30.9992C59.1327 31.0932 59.3918 31.1401 59.6796 31.1401C59.9796 31.1401 60.2448 31.0871 60.4751 30.981C60.7054 30.875 60.8857 30.728 61.016 30.5401C61.1463 30.3522 61.2115 30.1356 61.2115 29.8901C61.2115 29.6416 61.1418 29.4219 61.0024 29.231C60.866 29.0371 60.669 28.8856 60.4115 28.7765C60.1569 28.6674 59.8539 28.6129 59.5024 28.6129H58.6342V27.1674H59.5024C59.7993 27.1674 60.0615 27.1159 60.2887 27.0129C60.519 26.9098 60.6978 26.7674 60.8251 26.5856C60.9524 26.4007 61.016 26.1856 61.016 25.9401C61.016 25.7068 60.9599 25.5022 60.8478 25.3265C60.7387 25.1477 60.5842 25.0083 60.3842 24.9083C60.1872 24.8083 59.9569 24.7583 59.6933 24.7583C59.4266 24.7583 59.1827 24.8068 58.9615 24.9038C58.7402 24.9977 58.563 25.1326 58.4296 25.3083C58.2963 25.4841 58.2251 25.6901 58.216 25.9265H56.3296C56.3387 25.3901 56.4918 24.9174 56.7887 24.5083C57.0857 24.0992 57.4857 23.7795 57.9887 23.5492C58.4948 23.3159 59.066 23.1992 59.7024 23.1992C60.3448 23.1992 60.9069 23.3159 61.3887 23.5492C61.8706 23.7826 62.2448 24.0977 62.5115 24.4947C62.7812 24.8886 62.9145 25.331 62.9115 25.8219C62.9145 26.3432 62.7524 26.778 62.4251 27.1265C62.1009 27.475 61.6781 27.6962 61.1569 27.7901V27.8629C61.8418 27.9507 62.363 28.1886 62.7206 28.5765C63.0812 28.9613 63.2599 29.4432 63.2569 30.0219C63.2599 30.5522 63.1069 31.0235 62.7978 31.4356C62.4918 31.8477 62.069 32.1719 61.5296 32.4083C60.9902 32.6447 60.3721 32.7629 59.6751 32.7629Z" fill="#8F1402"/>
<path d="M43.9183 47.9674C43.4728 47.9674 43.0759 47.8901 42.7274 47.7356C42.3789 47.578 42.1031 47.3462 41.9001 47.0401C41.7001 46.731 41.6001 46.3462 41.6001 45.8856C41.6001 45.4977 41.6713 45.1719 41.8137 44.9083C41.9562 44.6447 42.1501 44.4326 42.3956 44.2719C42.641 44.1113 42.9198 43.9901 43.2319 43.9083C43.5471 43.8265 43.8774 43.7689 44.2228 43.7356C44.6289 43.6932 44.9562 43.6538 45.2046 43.6174C45.4531 43.578 45.6334 43.5204 45.7456 43.4447C45.8577 43.3689 45.9137 43.2568 45.9137 43.1083V43.081C45.9137 42.7932 45.8228 42.5704 45.641 42.4129C45.4622 42.2553 45.2077 42.1765 44.8774 42.1765C44.5289 42.1765 44.2516 42.2538 44.0456 42.4083C43.8395 42.5598 43.7031 42.7507 43.6365 42.981L41.8456 42.8356C41.9365 42.4113 42.1152 42.0447 42.3819 41.7356C42.6486 41.4235 42.9925 41.1841 43.4137 41.0174C43.838 40.8477 44.3289 40.7629 44.8865 40.7629C45.2743 40.7629 45.6456 40.8083 46.0001 40.8992C46.3577 40.9901 46.6743 41.131 46.9501 41.3219C47.2289 41.5129 47.4486 41.7583 47.6092 42.0583C47.7698 42.3553 47.8501 42.7113 47.8501 43.1265V47.8356H46.0137V46.8674H45.9592C45.8471 47.0856 45.6971 47.278 45.5092 47.4447C45.3213 47.6083 45.0956 47.7371 44.8319 47.831C44.5683 47.9219 44.2637 47.9674 43.9183 47.9674ZM44.4728 46.631C44.7577 46.631 45.0092 46.575 45.2274 46.4629C45.4456 46.3477 45.6168 46.1932 45.741 45.9992C45.8652 45.8053 45.9274 45.5856 45.9274 45.3401V44.5992C45.8668 44.6386 45.7834 44.675 45.6774 44.7083C45.5743 44.7386 45.4577 44.7674 45.3274 44.7947C45.1971 44.8189 45.0668 44.8416 44.9365 44.8629C44.8062 44.881 44.688 44.8977 44.5819 44.9129C44.3546 44.9462 44.1562 44.9992 43.9865 45.0719C43.8168 45.1447 43.6849 45.2432 43.591 45.3674C43.4971 45.4886 43.4501 45.6401 43.4501 45.8219C43.4501 46.0856 43.5456 46.2871 43.7365 46.4265C43.9304 46.5629 44.1759 46.631 44.4728 46.631Z" fill="#8F1402"/>
<path d="M49.3887 47.8356V38.5265H51.3251V42.0265H51.3842C51.469 41.8386 51.5918 41.6477 51.7524 41.4538C51.916 41.2568 52.1281 41.0932 52.3887 40.9629C52.6524 40.8295 52.9796 40.7629 53.3706 40.7629C53.8796 40.7629 54.3493 40.8962 54.7796 41.1629C55.2099 41.4265 55.5539 41.825 55.8115 42.3583C56.069 42.8886 56.1978 43.5538 56.1978 44.3538C56.1978 45.1326 56.0721 45.7901 55.8206 46.3265C55.5721 46.8598 55.2327 47.2644 54.8024 47.5401C54.3751 47.8129 53.8963 47.9492 53.366 47.9492C52.9902 47.9492 52.6706 47.8871 52.4069 47.7629C52.1463 47.6386 51.9327 47.4826 51.766 47.2947C51.5993 47.1038 51.4721 46.9113 51.3842 46.7174H51.2978V47.8356H49.3887ZM51.2842 44.3447C51.2842 44.7598 51.3418 45.1219 51.4569 45.431C51.5721 45.7401 51.7387 45.981 51.9569 46.1538C52.1751 46.3235 52.4403 46.4083 52.7524 46.4083C53.0675 46.4083 53.3342 46.3219 53.5524 46.1492C53.7706 45.9735 53.9357 45.731 54.0478 45.4219C54.163 45.1098 54.2206 44.7507 54.2206 44.3447C54.2206 43.9416 54.1645 43.5871 54.0524 43.281C53.9403 42.975 53.7751 42.7356 53.5569 42.5629C53.3387 42.3901 53.0706 42.3038 52.7524 42.3038C52.4372 42.3038 52.1706 42.3871 51.9524 42.5538C51.7372 42.7204 51.5721 42.9568 51.4569 43.2629C51.3418 43.5689 51.2842 43.9295 51.2842 44.3447Z" fill="#8F1402"/>
<path d="M60.6444 47.9719C59.9293 47.9719 59.3141 47.8204 58.799 47.5174C58.2868 47.2113 57.8929 46.7871 57.6171 46.2447C57.3444 45.7023 57.2081 45.078 57.2081 44.3719C57.2081 43.6568 57.3459 43.0295 57.6217 42.4901C57.9005 41.9477 58.2959 41.525 58.8081 41.2219C59.3202 40.9159 59.9293 40.7629 60.6353 40.7629C61.2444 40.7629 61.7778 40.8735 62.2353 41.0947C62.6929 41.3159 63.055 41.6265 63.3217 42.0265C63.5884 42.4265 63.7353 42.8962 63.7626 43.4356H61.9353C61.8838 43.0871 61.7474 42.8068 61.5262 42.5947C61.3081 42.3795 61.0217 42.2719 60.6671 42.2719C60.3671 42.2719 60.105 42.3538 59.8808 42.5174C59.6596 42.678 59.4868 42.9129 59.3626 43.2219C59.2384 43.531 59.1762 43.9053 59.1762 44.3447C59.1762 44.7901 59.2368 45.1689 59.3581 45.481C59.4823 45.7932 59.6565 46.031 59.8808 46.1947C60.105 46.3583 60.3671 46.4401 60.6671 46.4401C60.8884 46.4401 61.0868 46.3947 61.2626 46.3038C61.4414 46.2129 61.5884 46.081 61.7035 45.9083C61.8217 45.7326 61.899 45.5219 61.9353 45.2765H63.7626C63.7323 45.8098 63.5868 46.2795 63.3262 46.6856C63.0687 47.0886 62.7126 47.4038 62.2581 47.631C61.8035 47.8583 61.2656 47.9719 60.6444 47.9719Z" fill="#8F1402"/>
</g>
<defs>
<clipPath id="clip0_3025_56667">
<rect width="80" height="80" fill="white"/>
</clipPath>
</defs>
</svg>
