<svg width="83" height="131" viewBox="0 0 83 131" fill="none" xmlns="http://www.w3.org/2000/svg">
<path d="M52.1934 27.8391C49.6342 25.2241 46.1866 23.4768 42.5454 23.0251C43.3379 21.8625 44.1498 20.7785 45.0571 19.567C45.5801 18.8687 46.1348 18.128 46.7359 17.3055C51.1799 11.2237 54.3675 6.95582 58.2406 1.82403C59.5388 0.158165 62.3364 0.0439843 63.7742 1.59659L63.7822 1.60516L63.7905 1.61335C69.4301 7.1595 75.0627 12.7126 80.6957 18.266L80.6959 18.2662L80.6958 18.2663L80.7043 18.2743C81.5096 19.0319 81.866 20.1752 81.7614 21.3037C81.6568 22.4315 81.0978 23.4813 80.1539 24.0661L80.15 24.0685C72.3998 28.9673 64.6462 33.8563 56.8892 38.7452C56.7375 34.6948 55.0541 30.727 52.1934 27.8391Z" stroke="black"/>
<path d="M39.5992 28.9704C42.7236 28.3026 46.1594 29.2403 48.4085 31.5309C51.955 34.8733 52.2318 40.9318 49.0174 44.5891C46.021 48.3191 40.1632 49.1529 36.2498 46.3987C32.513 43.9871 30.9767 38.8662 32.6791 34.7695C33.8659 31.8734 36.5093 29.5759 39.5992 28.9704Z" fill="#8F1402"/>
<path d="M37.8796 52.4238C40.3189 53.1124 42.9001 53.2335 45.4017 52.8183C45.3983 66.4786 45.3775 80.1389 45.4121 93.7992C43.0074 92.8269 40.2635 92.8061 37.8657 93.8096C37.8969 80.0143 37.8761 66.2191 37.8796 52.4238Z" fill="#8F1402"/>
<path d="M40.0842 95.1871C43.2121 94.2425 46.7551 96.367 47.5406 99.5087C48.5855 102.945 45.9178 106.872 42.3367 107.145C39.1327 107.623 35.9044 105.097 35.5757 101.882C35.119 98.9274 37.1777 95.8722 40.0842 95.1871Z" fill="#8F1402"/>
<path d="M26.3923 113.977C26.0209 113.491 25.6493 113.006 25.2772 112.52C25.729 112.248 26.167 111.954 26.5911 111.641C26.7551 111.865 26.919 112.089 27.0831 112.314C28.1874 113.827 29.299 115.35 30.4753 116.824L30.8335 117.272L31.2288 116.856C31.3226 116.757 31.4487 116.658 31.6092 116.545C31.6842 116.493 31.7618 116.441 31.8445 116.386L31.859 116.376C31.9454 116.318 32.0373 116.257 32.1275 116.193C32.4667 115.953 32.9055 115.603 33.0486 115.057L33.108 114.831L32.9719 114.64C32.2536 113.634 31.503 112.652 30.7576 111.677L30.7251 111.635C30.0696 110.778 29.4185 109.927 28.7902 109.062C29.0891 108.706 29.3747 108.332 29.6538 107.966L29.6853 107.925C30.0383 107.461 30.382 107.01 30.7478 106.591C31.4004 105.842 32.092 105.231 32.9432 104.891C34.1272 107.298 36.3343 109.193 38.9377 109.912C42.2567 110.97 46.0178 109.898 48.4527 107.498C48.7615 107.479 49.0688 107.492 49.3751 107.534C50.1986 108.302 50.716 109.378 51.1608 110.514L51.1625 110.519C52.0154 112.639 52.434 114.904 52.8219 117.207C53.0088 118.323 52.9454 119.457 52.8786 120.654C52.8599 120.99 52.8408 121.331 52.827 121.677C52.7694 123.122 52.809 124.631 53.453 126.078C52.6037 127.084 51.6517 127.973 50.6731 128.887C50.3562 129.183 50.0364 129.482 49.7164 129.788C42.1333 130.666 34.4714 130.577 26.8226 130.337C20.3709 130.061 13.9263 129.744 7.55113 128.905C5.39444 128.111 3.44621 126.761 1.66599 125.242L1.66601 125.242L1.66172 125.238C1.11243 124.78 0.878522 124.141 0.8251 123.384C0.771395 122.623 0.904367 121.8 1.04706 121.026C1.08608 120.886 1.12121 120.749 1.1555 120.616C1.24472 120.269 1.32832 119.944 1.46026 119.636C1.62931 119.241 1.83996 118.977 2.14956 118.843C2.94559 118.681 3.75995 118.766 4.66077 118.876C4.70438 118.881 4.74823 118.887 4.79229 118.892C5.6461 118.997 6.58192 119.113 7.52383 118.961C10.8531 118.482 14.0156 117.312 17.0978 116.171C17.2831 116.103 17.4681 116.034 17.6528 115.966C18.7185 117.355 19.7674 118.756 20.8182 120.16C21.4455 120.998 22.0735 121.837 22.7062 122.674L23.0034 123.068L23.401 122.776C23.4683 122.727 23.5358 122.677 23.6035 122.628C24.171 122.212 24.7487 121.789 25.3041 121.334L25.6762 121.03L25.3865 120.646C24.2758 119.175 23.1599 117.707 22.0441 116.24C21.639 115.707 21.2338 115.174 20.8289 114.642C21.2992 114.431 21.7666 114.222 22.2358 114.018C23.7388 115.984 25.2302 117.961 26.7193 119.94L27.0184 120.338L27.4175 120.041C28.059 119.563 28.6858 119.072 29.3071 118.585L29.3095 118.583L29.7013 118.276L29.3961 117.883C28.3894 116.586 27.3912 115.282 26.3923 113.977Z" stroke="black"/>
<path d="M51.316 129.021C52.3055 128.211 53.1775 127.273 54.1844 126.484C54.5753 127.387 54.821 128.353 54.776 129.349C53.5615 129.609 52.3194 130.152 51.0703 129.917C51.1118 129.609 51.1949 129.311 51.316 129.021Z" fill="#020202"/>
</svg>
