<svg width="100" height="100" viewBox="0 0 100 100" fill="none" xmlns="http://www.w3.org/2000/svg">
<path d="M43.178 4.09352C43.1233 3.23805 43.8519 2.42555 44.7171 2.44118C48.2347 2.42946 51.7522 2.43141 55.2698 2.44118C56.1331 2.41774 56.8714 3.22243 56.8226 4.07594C56.8323 13.656 56.8226 23.2361 56.8265 32.8142C56.9183 36.9783 58.1585 41.2068 60.8011 44.4763C63.596 47.9881 67.6214 50.2595 71.7366 51.8826C72.2835 52.1131 72.8812 52.2537 73.3733 52.6033C73.9222 53.033 74.0921 53.8318 73.8187 54.4666C72.9554 56.8787 72.0667 59.281 71.2093 61.6951C71.0218 62.6834 69.9827 63.5017 68.9808 63.0584C63.721 61.1716 58.6683 58.4705 54.594 54.6013C52.8401 52.9451 51.3069 51.0642 50.0081 49.033C45.6448 55.9138 38.43 60.4783 30.8538 63.1033C30.0687 63.3709 29.1683 62.8611 28.9261 62.0837C28.0022 59.5486 27.0921 57.0056 26.1819 54.4646C25.8069 53.6482 26.2581 52.6091 27.1116 52.3298C30.6702 51.0154 34.1585 49.3181 37.012 46.7771C39.6644 44.4509 41.5921 41.3201 42.4612 37.9002C42.8948 36.2381 43.1351 34.5232 43.1741 32.8045C43.178 23.2341 43.1702 13.6638 43.178 4.09352ZM46.3499 31.6502C46.4202 35.242 45.7913 38.8767 44.3089 42.1599C43.0394 44.9783 41.0999 47.4763 38.7503 49.4763C36.0706 51.7693 32.9124 53.4314 29.6585 54.7537C30.2288 56.3494 30.803 57.9431 31.3792 59.5349C32.6194 59.0349 33.8479 58.4998 35.0472 57.9041C40.3948 55.2576 45.2464 51.2732 48.1194 45.9685C48.4671 45.3728 48.7093 44.5974 49.4124 44.3279C50.1976 43.9744 51.1624 44.4099 51.4905 45.1873C52.3792 46.9548 53.4632 48.6248 54.7425 50.1365C58.3811 54.4881 63.3909 57.4587 68.6097 59.5388C69.1878 57.9431 69.7659 56.3494 70.3401 54.7537C65.8187 52.9295 61.4397 50.3631 58.3597 46.5056C55.2425 42.6716 53.7425 37.7088 53.6507 32.8084C53.6487 23.7381 53.6565 14.6677 53.6468 5.59743C51.2151 5.59938 48.7835 5.59938 46.3519 5.59743C46.346 14.281 46.3499 22.9666 46.3499 31.6502Z" fill="#8F1402"/>
<path d="M28.1583 25.6363C30.5938 25.193 33.1759 25.7184 35.2677 27.0328C37.5528 28.4625 39.3028 30.7848 39.9356 33.4117C40.129 34.5543 38.8184 35.5406 37.7696 35.0563C37.0118 34.7945 36.8243 33.9567 36.5743 33.2926C35.5509 30.6656 32.9181 28.7067 30.0763 28.6578C29.2442 28.6676 28.3341 28.6813 27.6251 29.1793C26.5548 29.9137 25.6095 30.8141 24.7306 31.7652C21.795 34.9899 19.4532 38.6969 17.2891 42.4684C13.7149 48.8238 10.7559 55.5192 8.33798 62.3942C6.81063 66.8004 5.50399 71.2926 4.63095 75.8766C4.00399 79.3238 3.54891 82.8434 3.8204 86.3512C3.99618 88.2438 4.35751 90.2047 5.44931 91.8024C6.29306 93.0563 7.73055 93.7691 9.17196 94.0836C11.4161 94.5758 13.7462 94.4 15.9942 94.027C19.8321 93.3531 23.5333 92.0231 27.0196 90.3043C30.1524 88.7262 33.2227 86.8609 35.6251 84.2691C36.8419 83.0465 37.2149 81.2945 37.5724 79.6695C38.5567 74.525 38.6075 69.2633 38.711 64.0426C38.7149 63.1051 39.7013 62.3531 40.6075 62.5738C41.377 62.7164 41.9356 63.484 41.8692 64.2613C41.8126 69.2516 41.6915 74.2672 40.8868 79.2047C40.4962 81.318 40.0606 83.5113 38.8419 85.3258C37.6134 87.0113 36.0079 88.3824 34.3341 89.6129C30.5763 92.3219 26.3438 94.3434 21.9532 95.7984C17.961 97.0602 13.7247 97.9449 9.52938 97.3766C7.26962 97.0504 4.99618 96.1383 3.46102 94.3941C1.87704 92.6031 1.13485 90.2359 0.804774 87.9059C0.298915 84.277 0.65829 80.5934 1.21298 76.9918C2.57431 68.8902 5.21298 61.0563 8.37313 53.4918C11.4161 46.3844 14.9337 39.4254 19.4923 33.1578C21.3556 30.6949 23.3516 28.2477 25.9317 26.4996C26.588 26.0289 27.3673 25.7692 28.1583 25.6363Z" fill="black"/>
<path d="M67.8792 25.7343C69.7229 25.3417 71.7424 25.3573 73.4827 26.1464C75.6506 27.4003 77.3655 29.2812 78.9631 31.1776C82.0686 34.9843 84.6038 39.2167 86.9143 43.5409C90.8147 50.9706 94.0237 58.7733 96.4163 66.8183C97.8596 71.7851 99.0178 76.8651 99.3616 82.037C99.5569 85.7538 99.4241 89.7265 97.5256 93.0351C96.2932 95.2304 93.9963 96.6425 91.5764 97.1679C88.0374 97.9511 84.3616 97.4511 80.8831 96.6112C76.4397 95.4862 72.1702 93.6835 68.2405 91.3261C65.8303 89.8437 63.5002 88.1522 61.6643 85.9804C60.1487 84.2206 59.6389 81.871 59.1975 79.6542C58.3127 74.5741 58.1799 69.4023 58.1155 64.2577C58.0237 63.3417 58.8381 62.4823 59.76 62.5409C60.6311 62.5546 61.3499 63.371 61.2854 64.2362C61.3362 68.4198 61.4514 72.6132 61.9651 76.7694C62.2268 78.705 62.5256 80.6581 63.2268 82.4882C63.6545 83.6425 64.5686 84.5116 65.4397 85.3437C67.8206 87.5019 70.6155 89.1562 73.4963 90.5585C77.2483 92.3378 81.2385 93.705 85.3713 94.2265C87.8499 94.494 90.5178 94.5448 92.7874 93.369C94.5608 92.4628 95.4358 90.5038 95.8362 88.6483C96.6077 84.953 96.2034 81.1366 95.6409 77.4413C94.1585 68.7616 91.2073 60.3964 87.6702 52.3554C84.9319 46.2929 81.8381 40.3495 77.9006 34.9706C76.3147 32.8827 74.637 30.8007 72.4905 29.2597C71.7151 28.6601 70.678 28.6503 69.7444 28.6659C66.721 28.7987 64.0217 31.0819 63.1956 33.9608C63.0022 34.8437 62.0217 35.4589 61.1506 35.1444C60.3674 34.912 59.8635 34.0077 60.1116 33.2226C61.092 29.5683 64.178 26.5624 67.8792 25.7343Z" fill="black"/>
<path d="M22.2403 40.4082C22.961 38.6523 24.631 37.2383 26.5567 37.084C28.7521 36.8477 30.9239 38.791 30.879 41.0078C30.8575 41.6641 30.6974 42.4141 30.1173 42.8066C29.3946 43.3438 28.256 43.0898 27.8321 42.2969C27.5392 41.8477 27.6368 41.3008 27.7169 40.8066C27.4728 40.5254 27.1876 40.1484 26.7618 40.2402C25.7306 40.4121 25.0958 41.4395 24.9317 42.4043C24.461 45.252 25.8946 48.1504 25.0001 50.9648C24.5021 52.7285 22.3165 53.9004 20.6368 52.9902C19.6876 52.5781 19.4474 51.1875 20.1915 50.4727C20.6427 49.9551 21.3712 49.9434 21.9962 50.0605C22.2833 48.7441 22.0001 47.4023 21.8497 46.0879C21.5841 44.2031 21.4806 42.1973 22.2403 40.4082Z" fill="black"/>
<path d="M71.5878 37.3925C73.0214 36.7304 74.7655 37.1366 75.9765 38.0839C77.4374 39.1757 78.1932 40.9862 78.3104 42.7714C78.58 45.2147 77.5702 47.6288 78.0018 50.0604C78.621 49.9452 79.3475 49.953 79.8007 50.4647C80.5526 51.1757 80.3182 52.5761 79.3632 52.9901C77.8358 53.8183 75.828 52.9198 75.1659 51.3808C73.8456 48.3144 75.8085 44.996 74.9257 41.8729C74.6757 41.1112 74.0741 40.3788 73.2499 40.2421C72.8182 40.1405 72.5272 40.5194 72.2831 40.8026C72.3417 41.2499 72.4589 41.7343 72.2382 42.1601C71.8886 42.9979 70.7636 43.3573 69.9921 42.8769C69.3397 42.5136 69.1386 41.7167 69.119 41.0253C69.0956 39.4589 70.16 37.9882 71.5878 37.3925Z" fill="black"/>
<path d="M17.2424 56.314C17.9338 55.4625 19.4377 55.6812 19.8615 56.689C20.3068 57.4703 19.5412 58.2925 19.8654 59.0953C20.26 60.3824 21.1799 61.4156 21.7287 62.6324C22.2365 63.6714 22.4885 64.8609 22.2834 66.0093C22.1467 66.8199 21.8752 67.6129 21.8986 68.4449C22.84 68.2457 23.5627 67.5679 24.426 67.1851C26.9748 65.98 30.3205 66.9332 31.8576 69.2945C32.426 70.107 31.9807 71.355 31.0373 71.6421C30.3615 71.9019 29.5939 71.5875 29.1955 71.0093C28.3791 69.8804 26.6818 69.4683 25.4787 70.2105C24.6916 70.6675 23.9299 71.2046 23.0314 71.4254C21.8674 71.7593 20.4885 71.5074 19.6506 70.5933C18.7893 69.6929 18.5978 68.3511 18.8068 67.1636C18.9416 66.191 19.4533 65.1714 18.965 64.2164C18.217 62.6031 16.965 61.2007 16.6857 59.3921C16.5119 58.3531 16.6154 57.189 17.2424 56.314Z" fill="black"/>
<path d="M80.0723 56.8511C80.3458 55.9566 81.4884 55.4976 82.3067 55.9586C82.9395 56.2711 83.1622 56.9976 83.3048 57.6363C83.6368 59.3004 82.9473 60.9547 82.0841 62.3453C81.5919 63.2027 80.9415 64.0308 80.8184 65.0425C80.8243 65.898 81.1856 66.7066 81.2423 67.5601C81.3751 68.7183 81.0548 69.9937 80.1544 70.7828C79.2286 71.6168 77.8399 71.7476 76.6934 71.3433C75.8575 71.0875 75.1524 70.5562 74.3946 70.1422C73.2051 69.4918 71.6016 69.9175 70.8126 70.9976C70.4161 71.5797 69.6524 71.9019 68.9727 71.6461C68.0294 71.3668 67.5743 70.1246 68.1329 69.3082C69.8008 66.7066 73.6309 65.8531 76.2325 67.5367C76.8341 67.8863 77.4083 68.3277 78.1192 68.4215C78.0743 67.023 77.3985 65.6675 77.7286 64.2554C78.0294 62.3199 79.5391 60.898 80.1368 59.0836C80.4376 58.3355 79.7794 57.5933 80.0723 56.8511Z" fill="black"/>
<path d="M11.9902 69.4393C12.7734 69.2049 13.6718 69.6815 13.9159 70.4608C14.1034 70.9549 13.9413 71.4823 13.7167 71.9335C12.3202 74.8104 11.6659 78.0604 11.9081 81.2538C11.9882 82.1229 12.2402 83.1522 13.1015 83.5643C14.1718 84.0624 15.4628 83.8319 16.4511 83.246C17.8261 82.4413 18.8202 81.1698 19.8476 79.9862C20.3886 79.3006 21.496 79.2186 22.1269 79.826C22.7577 80.367 22.8222 81.4081 22.2656 82.0253C20.7636 83.8592 19.0917 85.7303 16.8105 86.5702C14.8613 87.2811 12.4941 87.1737 10.8222 85.8534C9.47063 84.8124 8.85735 83.0878 8.73821 81.4354C8.46282 77.6249 9.26555 73.7518 10.9609 70.3319C11.162 69.9081 11.5292 69.5565 11.9902 69.4393Z" fill="black"/>
<path d="M87.1819 69.4353C87.9104 69.2283 88.7288 69.6247 89.0296 70.3181C90.7288 73.7419 91.5354 77.6189 91.26 81.4353C91.1409 83.0915 90.5237 84.8201 89.1702 85.863C87.4905 87.1736 85.1233 87.2829 83.1741 86.5642C80.9885 85.7536 79.3596 83.988 77.9007 82.238C77.3968 81.7302 77.1624 80.9236 77.5296 80.2712C77.9729 79.3298 79.385 79.1111 80.0725 79.904C81.2561 81.238 82.3792 82.7478 84.053 83.5017C85.0862 83.9431 86.4534 84.0408 87.346 83.2497C88.0081 82.5661 88.0803 81.5486 88.1311 80.6501C88.2405 77.6013 87.5667 74.5349 86.2249 71.7986C85.6897 70.9294 86.1741 69.6658 87.1819 69.4353Z" fill="black"/>
</svg>
