<svg width="66" height="80" viewBox="0 0 66 80" fill="none" xmlns="http://www.w3.org/2000/svg">
<path d="M24.2824 0.0889294C24.9604 -0.24302 25.9239 0.404685 25.7195 1.19812C25.7498 2.04014 24.5415 2.40245 24.0476 1.77094C23.6893 1.27706 23.6832 0.400638 24.2824 0.0889294Z" fill="black"/>
<path d="M19.448 0.548463C20.0228 0.459404 20.5997 0.337962 21.1866 0.335938C21.8728 0.412853 22.0793 1.31154 21.8303 1.854C21.6421 2.24869 21.1644 2.26893 20.7919 2.33573C17.7153 2.7284 14.7804 3.84772 12.0115 5.20992C11.1533 5.60867 10.5987 6.55189 10.5987 7.48499C10.8436 8.78445 12.4973 9.29249 13.6146 8.82493C16.2965 7.7218 19.1342 6.9567 22.0307 6.72596C25.2105 6.5701 28.4207 6.8555 31.4953 7.69549C35.4058 8.77837 39.1949 10.3511 43.2349 10.9219C46.7103 11.3955 50.2443 11.5696 53.7379 11.1891C56.0636 10.9421 58.369 10.509 60.6359 9.9402C61.5184 9.76208 62.324 9.01519 62.3342 8.07602C62.3463 6.95063 61.314 6.04182 60.2413 5.93859C59.1989 5.84346 58.199 6.2422 57.1748 6.36567C52.1631 7.14899 47.0038 7.19554 42.0144 6.22399C38.8083 5.63093 35.7094 4.59865 32.6328 3.54815C31.2139 3.06035 29.7384 2.77698 28.2871 2.42074C27.3742 2.15963 27.4795 0.673958 28.4409 0.584898C30.0987 0.673958 31.6734 1.31559 33.2825 1.69207C35.7398 2.25274 38.1322 3.06237 40.5935 3.61697C46.2144 4.9144 52.1287 5.13503 57.7759 3.86188C59.0835 3.53398 60.5489 3.45504 61.7775 4.10072C63.158 4.80308 64.172 6.31102 64.0486 7.8898C63.9676 9.41798 62.9252 10.8875 61.4476 11.353C56.5858 12.6687 51.5154 13.2253 46.4816 12.9702C42.8767 12.6828 39.3102 11.942 35.8734 10.8166C33.2198 9.99687 30.6209 8.9484 27.862 8.52941C23.322 7.79062 18.5816 8.36546 14.3493 10.1709C12.558 11.019 10.1797 10.2114 9.24254 8.47274C8.35599 6.82716 9.06037 4.55209 10.6999 3.66757C13.4364 2.19809 16.3774 1.06258 19.448 0.548463Z" fill="black"/>
<path d="M6.69463 15.8939C8.96565 15.3899 11.4836 15.8757 13.2992 17.3613C13.9651 17.9099 14.5906 18.6527 15.5196 18.6993C16.4244 18.8268 17.2158 18.2904 17.8271 17.6872C20.2944 15.3757 24.3183 15.06 27.1642 16.8553C28.7389 17.8512 29.9837 19.3915 30.5403 21.1767C31.2062 23.3486 30.937 25.82 29.7003 27.7408C28.9899 28.8844 27.9191 29.7244 27.0184 30.7041C24.1321 33.7604 21.5311 37.2155 20.1102 41.2091C19.503 42.9133 19.1832 44.7188 19.2055 46.5283C19.2055 56.9908 19.2014 67.4513 19.2055 77.9137C19.1852 78.2092 19.2115 78.5452 19.0193 78.7982C18.6569 79.28 17.8109 79.2759 17.4607 78.782C17.2765 78.5311 17.3049 78.2011 17.2846 77.9097C17.2887 67.7204 17.2887 57.5292 17.2846 47.338C17.2401 45.4434 17.4749 43.5408 18.0153 41.7232C19.3188 37.2884 22.0615 33.4406 25.1158 30.0341C26.2695 28.6861 27.7613 27.5647 28.4454 25.8726C29.5809 23.5226 28.8057 20.4885 26.7533 18.8996C24.8041 17.3188 21.8428 17.1933 19.754 18.5839C19.0597 19.0231 18.5598 19.7113 17.8412 20.1181C16.6511 20.7841 15.1411 20.7861 13.9186 20.2032C12.8316 19.7194 12.1779 18.6142 11.0707 18.1568C8.39688 16.8472 4.77581 18.003 3.46623 20.7031C2.71529 22.4863 3.25572 24.48 3.87509 26.2207C4.2293 27.1296 4.69282 27.9979 4.92559 28.9533C6.29387 33.6754 7.11969 38.5717 7.11969 43.4963C7.13184 54.904 7.11766 66.3117 7.12778 77.7174C7.14802 78.1647 7.05087 78.7274 6.56307 78.8893C5.91536 79.1869 5.1118 78.6525 5.21301 77.9279C5.20086 66.7246 5.21098 55.5213 5.20896 44.316C5.26159 38.9846 4.51673 33.6046 2.64445 28.597C1.6061 26.413 0.727645 24.0003 1.07376 21.5431C1.50489 18.7134 3.97225 16.5052 6.69463 15.8939Z" fill="#8F1402"/>
<path d="M58.2669 15.8078C59.2668 15.5851 60.3396 15.7086 61.2423 16.2025C62.6996 16.9737 63.7765 18.2873 64.6994 19.6212C65.0941 20.1839 64.9443 21.3214 64.1084 21.3254C63.1834 21.4185 62.9263 20.4166 62.4163 19.8721C61.6026 18.9492 60.7059 17.9189 59.447 17.6497C58.3317 17.4432 57.4087 18.2084 56.4513 18.6294C52.9962 20.2122 49.2942 21.1898 45.5719 21.9023C42.2099 22.5055 38.7892 22.8819 35.3685 22.7666C34.7086 22.7828 34.6459 21.9367 34.7937 21.4671C34.9374 20.9773 35.4859 20.8417 35.9373 20.87C40.457 20.9145 44.9647 20.2264 49.3367 19.0989C51.462 18.5342 53.567 17.8663 55.5729 16.9554C56.4635 16.5567 57.2994 16.0062 58.2669 15.8078Z" fill="black"/>
<path d="M64.5303 23.2926C64.8825 23.1286 65.3056 23.1428 65.6699 23.2683C66.2184 23.7359 66.0666 24.9139 65.2873 25.0616C64.919 25.1122 64.4048 25.1689 64.1822 24.7965C63.9697 24.3046 64.0021 23.5719 64.5303 23.2926Z" fill="black"/>
<path d="M39.4488 24.562C40.2908 24.0216 41.0195 25.2158 40.6349 25.9283C38.4428 30.4055 37.198 35.4576 37.7405 40.4551C37.9813 42.6472 38.5541 44.817 39.552 46.7905C39.7301 47.1872 40.0398 47.6608 39.7463 48.0859C39.4488 48.687 38.5663 48.5555 38.1675 48.1425C37.8761 47.7195 37.7465 47.2135 37.5239 46.7561C35.8905 43.3718 35.4937 39.5139 35.7852 35.8017C36.0908 32.1908 37.1596 28.6729 38.6999 25.402C38.8578 25.0559 39.0662 24.6936 39.4488 24.562Z" fill="black"/>
<path d="M63.5394 26.9704C64.1467 26.428 64.9907 27.0757 65.1324 27.7153C64.9502 28.1262 64.5899 28.4358 64.4564 28.871C60.0843 41.4365 55.6901 53.9919 51.312 66.5553C50.47 68.8486 49.2758 71.1399 47.28 72.6337C45.3207 74.1153 42.6894 74.4493 40.3293 73.9675C37.443 73.3502 34.9736 71.2492 33.7612 68.5754C33.0912 67.1929 32.8908 65.6566 32.5913 64.1669C32.1439 61.8797 31.7432 59.5864 31.3728 57.2871C30.9254 54.9047 30.891 52.4435 30.1381 50.1218C29.2556 46.9541 26.9704 44.4686 24.7459 42.1591C24.25 41.6106 23.4485 41.1127 23.6165 40.2544C23.5214 39.4347 24.6933 39.0785 25.1669 39.6958C27.1303 41.6652 29.0936 43.6832 30.5591 46.0615C31.6622 47.8569 32.3119 49.8951 32.6439 51.9658C33.4576 56.6697 34.1316 61.4041 35.2104 66.0574C35.7589 68.0613 36.9936 69.9254 38.789 71.0144C40.4912 72.0629 42.6084 72.2835 44.5435 71.8847C46.1404 71.5245 47.45 70.3869 48.3184 69.0328C49.5186 67.2314 50.1178 65.1324 50.8343 63.1144C54.8845 51.5063 58.9407 39.9023 62.9828 28.2942C63.163 27.8549 63.2217 27.3368 63.5394 26.9704Z" fill="black"/>
<path d="M40.2823 50.0824C41.1283 49.6715 42.1141 50.896 41.4036 51.5923C41.0008 52.1692 40.1224 51.9263 39.8046 51.394C39.6184 50.9001 39.6771 50.218 40.2823 50.0824Z" fill="black"/>
<path d="M42.8918 52.8748C43.7156 52.5408 44.2459 53.4536 44.8248 53.8686C45.3126 54.3705 46.2599 54.7592 46.019 55.6174C45.8652 56.2772 45.0596 56.3582 44.4969 56.3643C43.8168 55.7307 43.0355 55.1802 42.485 54.4252C42.3534 53.905 42.2725 53.1156 42.8918 52.8748Z" fill="black"/>
<path d="M13.121 56.664C13.6392 56.3502 14.4954 56.5992 14.5662 57.2591C14.631 57.9209 14.6654 58.6071 14.5176 59.2609C14.1735 60.1312 12.6373 59.8661 12.7 58.8905C12.7344 58.1638 12.4268 57.1619 13.121 56.664Z" fill="black"/>
<path d="M13.1515 61.8256C13.7121 61.5078 14.5683 61.8438 14.5967 62.538C14.7424 63.2586 13.951 63.8456 13.2911 63.5723C12.5463 63.3497 12.4754 62.1737 13.1515 61.8256Z" fill="black"/>
<path d="M13.1502 65.6615C13.6279 65.4025 14.3586 65.5725 14.5346 66.1271C14.6257 66.4651 14.6014 66.8213 14.6095 67.1715C14.5832 70.8128 14.6318 74.4541 14.5873 78.0955C14.6217 79.067 13.0692 79.2897 12.7615 78.4052C12.6401 77.9133 12.6927 77.3992 12.6826 76.8972C12.6927 73.5231 12.6867 70.1469 12.6846 66.7728C12.6765 66.3619 12.7312 65.8619 13.1502 65.6615Z" fill="black"/>
</svg>
