<svg width="85" height="74" viewBox="0 0 85 74" fill="none" xmlns="http://www.w3.org/2000/svg">
<path d="M25.5083 0.0809746C26.1799 -0.200541 26.835 0.303612 27.2398 0.800403C31.5986 6.0296 35.1939 11.8549 38.2925 17.9029C42.092 25.3235 45.1261 33.1397 47.2549 41.2025C48.4638 45.8447 49.5733 50.5661 49.6451 55.3849C49.6432 57.6536 49.1299 60.0014 47.7849 61.8653C45.8786 64.4744 42.0331 65.4588 39.1407 63.9758C37.5362 63.1643 36.3476 61.6335 35.8729 59.9094C35.3614 58.2608 35.4 56.5239 35.4221 54.8201C35.5031 52.9102 36.1194 51.0831 36.6365 49.2578C37.3246 46.7941 38.0257 44.3102 38.2391 41.7526C38.6052 37.4471 37.6153 33.1931 36.5077 29.066C34.5592 22.0005 31.5508 15.2865 28.3548 8.71043C27.3778 6.62023 26.2627 4.59626 25.0483 2.63301C24.8073 2.2227 24.5166 1.79031 24.5552 1.288C24.5902 0.739686 25.0115 0.279691 25.5083 0.0809746Z" fill="#8F1402"/>
<path d="M6.82898 8.23472C7.14545 7.97528 7.58521 8.15376 7.806 8.44999C10.1299 11.278 12.0379 14.4299 13.6626 17.705C16.1668 22.7926 18.1687 28.2094 18.8624 33.8637C22.2258 33.8673 25.5911 33.8637 28.9546 33.8655C30.226 33.8545 31.514 34.1544 32.607 34.8149C34.2096 35.7662 35.3375 37.4387 35.6723 39.2658C36.5003 43.1261 35.9079 47.2715 34.1047 50.7767C33.5895 51.8438 33.0246 52.8871 32.5168 53.958C31.2803 56.659 31.2067 59.787 31.963 62.6297C32.6953 65.294 34.6475 67.594 37.1885 68.6961C38.7561 69.4395 40.5041 69.5995 42.2061 69.767C44.3184 69.767 46.4987 69.6474 48.4693 68.8157C50.3939 68.0117 52.0021 66.5066 52.9349 64.6408C54.3517 61.8533 54.6571 58.5266 53.8347 55.5146C53.1576 53.0306 51.4243 50.9956 50.7251 48.5209C49.8714 45.6376 49.45 42.5667 49.9431 39.5786C50.3111 37.8913 51.141 36.2243 52.5669 35.1884C53.9212 34.1857 55.6489 33.8563 57.303 33.8655C59.3031 33.8563 61.3031 33.8821 63.3032 33.8526C63.7024 32.5922 64.0631 31.3061 64.1275 29.9795C64.2379 27.9022 63.7668 25.8543 63.224 23.8653C62.0465 19.6002 60.2028 15.5523 58.1384 11.6515C57.8421 11.002 57.2294 10.393 57.3582 9.63126C57.579 9.14918 58.2764 9.16206 58.5468 9.59261C61.2516 12.8751 63.3804 16.5955 65.1763 20.4411C67.1708 24.7116 68.6704 29.2214 69.5131 33.8618C73.8462 33.8747 78.1793 33.8489 82.5124 33.8747C83.644 33.8839 84.6211 34.9492 84.5383 36.0753C84.5015 37.194 83.4582 38.1361 82.3432 38.0717C74.4221 38.0735 66.501 38.0717 58.58 38.0717C57.6471 38.0882 56.694 38.0091 55.7814 38.2409C55.1558 38.3789 54.6461 38.8463 54.394 39.4259C53.8917 40.3937 53.9046 41.5069 53.9046 42.5686C55.8071 42.1969 57.8587 42.4416 59.5699 43.3745C60.8634 44.1417 61.8974 45.3671 63.3768 45.8069C64.19 46.0075 64.8782 45.4131 65.5461 45.0488C66.9169 44.3055 67.9749 43.0727 69.456 42.5152C71.469 41.6467 73.7965 41.9301 75.7469 42.8298C77.2777 43.5014 78.9337 44.3846 80.6541 43.9816C81.5133 43.8252 81.9605 42.8096 82.8731 42.8427C83.3699 42.8887 84.012 42.9917 84.231 43.5161C84.461 43.989 84.4315 44.5944 84.1003 45.0157C83.3239 46.0295 82.1021 46.6754 80.8307 46.7747C79.1435 46.898 77.4691 46.4417 75.9401 45.7609C74.5509 45.196 73.0642 44.4582 71.5278 44.8078C70.1828 45.0967 69.2499 46.1786 68.1202 46.8741C66.7218 47.7793 65.1634 48.8097 63.4099 48.5209C61.397 48.1676 59.9176 46.6404 58.223 45.6358C57.073 44.9384 55.6121 45.0912 54.4787 45.7388C54.7418 46.6533 54.8908 47.6138 55.3527 48.4583C56.4971 50.6957 57.7796 52.9165 58.2837 55.4097C59.1338 59.3528 58.5597 63.6288 56.5155 67.1248C54.9295 69.8627 52.3241 71.9713 49.3488 73.0292C46.887 73.8959 44.2411 74.0412 41.6522 73.9823C40.8611 73.8885 40.0754 73.7579 39.2824 73.6751C36.2998 73.1617 33.4533 71.7357 31.3503 69.5462C29.1386 67.2701 27.8083 64.2121 27.4642 61.0713C27.1054 58.1586 27.4863 55.1558 28.5995 52.44C29.3833 50.4823 30.6216 48.7324 31.2123 46.6956C29.7679 46.3662 28.2977 46.0719 26.9472 45.4407C25.6647 44.8501 24.1431 44.6164 22.8054 45.1703C21.661 45.5898 20.8845 46.5926 19.8192 47.1538C18.5496 47.8603 17.2653 48.8465 15.7234 48.6717C13.578 48.4491 12.0011 46.8262 10.2624 45.7278C8.78303 44.8648 6.93754 45.461 5.6514 46.403C4.85653 46.909 4.37078 47.91 3.37536 48.0701C2.48113 48.2246 1.7157 47.185 2.05058 46.3644C2.32841 45.6579 2.94296 45.1629 3.47287 44.6459C5.15277 43.0782 7.53737 42.1472 9.84101 42.5575C11.4712 42.8611 12.6948 44.0479 14.038 44.9219C14.6599 45.323 15.2947 45.8547 16.0822 45.7995C16.8918 45.7443 17.5266 45.1758 18.211 44.8041C19.4972 44.0902 20.5423 42.9825 21.9388 42.4637C23.8211 41.6872 25.9831 41.9282 27.8065 42.7507C29.0356 43.3303 30.3769 43.5989 31.6888 43.9191C31.7808 42.5078 31.7734 41.0616 31.3907 39.6908C31.0743 38.6641 30.0089 38.0183 28.9565 38.0753C19.9995 38.0643 11.0425 38.0827 2.08738 38.0661C1.00915 38.0772 0.0339718 37.1425 0.00453233 36.0643C-0.0764263 34.918 0.939235 33.8489 2.08738 33.871C5.47292 33.8545 8.85663 33.871 12.2422 33.8637C12.5366 32.5702 13.0499 31.33 13.2486 30.0144C13.6608 27.5986 13.1401 25.1569 12.5071 22.8294C11.2081 18.0933 9.10502 13.6148 6.74618 9.32214C6.5769 8.99278 6.44075 8.46839 6.82898 8.23472Z" fill="black"/>
<path d="M19.2647 51.0595C21.8517 50.3143 24.7699 52.318 25.0349 54.9878C25.4195 57.4828 23.3697 59.9907 20.8692 60.1839C18.4938 60.4176 16.2417 58.4801 15.9473 56.1452C15.5462 53.9243 17.1083 51.6262 19.2647 51.0595ZM19.9879 53.5894C19.3935 53.7918 18.9004 54.2721 18.6796 54.859C18.2693 55.963 19.1028 57.3356 20.2951 57.4129C21.3329 57.5859 22.2621 56.7064 22.4571 55.7367C22.6816 54.4469 21.2354 53.1865 19.9879 53.5894Z" fill="black"/>
<path d="M63.4418 51.2512C65.1309 50.8832 66.8807 52.3901 66.831 54.0995C66.8421 55.4132 65.7878 56.6221 64.4924 56.8134C62.531 57.1704 60.5383 54.9661 61.2725 53.0672C61.6607 52.1804 62.4703 51.426 63.4418 51.2512ZM63.7601 53.3763C63.313 53.5751 63.2578 54.2687 63.6773 54.5282C64.0453 54.8005 64.6507 54.565 64.7114 54.1013C64.8402 53.5861 64.2164 53.1298 63.7601 53.3763Z" fill="black"/>
<path d="M74.0998 54.9198C75.1486 54.6456 76.2857 54.6953 77.3032 55.0743C78.9592 55.6778 80.1754 57.3062 80.3079 59.0597C80.4422 60.4581 79.9877 61.9153 79.0199 62.942C77.4375 64.701 74.5138 65.0414 72.6039 63.621C70.6867 62.2704 70.0132 59.4847 71.0583 57.3945C71.6471 56.1765 72.7953 55.2601 74.0998 54.9198ZM74.4862 57.3375C73.0584 57.9042 72.6481 59.8582 73.5128 61.0616C74.2801 62.2392 76.1054 62.2999 77.11 61.4038C77.8497 60.5961 78.0833 59.2934 77.5516 58.3163C76.9812 57.2657 75.557 56.872 74.4862 57.3375Z" fill="black"/>
<path d="M8.24167 58.0575C9.85348 57.6748 11.6511 58.8395 11.837 60.5102C12.1038 62.0373 10.9998 63.6602 9.44685 63.881C7.7964 64.2287 5.99323 62.9812 5.85523 61.2756C5.66203 59.7944 6.75129 58.2783 8.24167 58.0575ZM8.22879 59.673C7.61424 59.9269 7.26464 60.6224 7.38792 61.2701C7.52224 62.179 8.6207 62.7586 9.44869 62.3704C10.1718 62.0557 10.5012 61.1541 10.2564 60.4255C10.0117 59.6214 8.93902 59.3381 8.22879 59.673Z" fill="black"/>
<path d="M63.4556 62.4951C65.7832 61.991 68.2598 63.4354 69.1209 65.6231C69.7244 67.1355 69.6802 68.9663 68.7621 70.35C67.4539 72.4439 64.5209 73.3528 62.278 72.2838C60.6993 71.5717 59.4776 70.0574 59.2237 68.3315C59.001 66.74 59.5641 65.0582 60.7141 63.934C61.4758 63.2201 62.4271 62.6939 63.4556 62.4951ZM63.6157 65.3968C62.635 65.6856 62.0462 66.7326 62.0517 67.7151C62.0609 68.8265 62.9883 69.8293 64.0904 69.9433C65.5605 70.1347 67.0546 68.648 66.6719 67.1632C66.4051 65.8347 64.9129 64.9129 63.6157 65.3968Z" fill="black"/>
<path d="M19.0989 62.662C20.3022 62.2683 21.6159 62.7191 22.6132 63.4164C23.8993 64.6069 24.1257 66.8001 23.018 68.1874C22.0612 69.4883 20.19 69.9354 18.7198 69.3061C17.5514 68.8259 16.7032 67.6741 16.5818 66.4192C16.4199 64.7872 17.5146 63.1202 19.0989 62.662ZM19.614 64.6197C18.4125 65.008 18.2157 66.8203 19.2773 67.4827C20.2507 68.2095 21.7687 67.4257 21.8183 66.2352C21.9416 65.1037 20.6518 64.1818 19.614 64.6197Z" fill="black"/>
</svg>
