<svg width="92" height="91" viewBox="0 0 92 91" fill="none" xmlns="http://www.w3.org/2000/svg">
<path d="M39.6289 0.22147C42.8014 0.0473175 46.0377 -0.257452 49.1725 0.418841C56.7568 1.79175 64.2889 3.71614 71.3537 6.83347C76.1546 8.97845 80.7725 11.7243 84.4675 15.5063C87.5035 18.5917 89.8168 22.4579 90.7602 26.7072C91.8661 31.5109 91.2217 36.5817 89.5498 41.1764C87.5819 46.5809 84.3484 51.4601 80.4881 55.6949C77.2749 59.1867 73.609 62.3331 69.3916 64.5506C67.1915 65.6333 64.704 66.6114 62.2165 66.0803C57.4738 64.9454 53.0764 62.7539 48.8155 60.4377C45.7446 58.8268 42.5779 57.0562 39.0339 56.8647C35.4492 56.6615 32.0155 58.075 28.9504 59.802C27.4498 60.6119 26.103 61.7671 24.4167 62.1821C21.7782 62.8729 19.0208 62.2402 16.5421 61.2649C16.3563 62.0573 16.0747 62.8758 16.2431 63.6973C16.336 64.1588 16.8671 64.2894 17.2648 64.3707C20.0483 64.7799 22.8928 63.7901 25.6531 64.5071C26.8896 64.9163 28.0042 65.8568 28.5034 67.0758C29.2378 69.0147 27.7314 71.1481 25.9521 71.836C21.4822 72.135 17.0558 72.8258 12.6178 73.4005C10.7718 73.5833 8.83288 73.7981 7.04782 73.1683C5.68943 72.6952 4.68515 71.4645 4.4007 70.0684C3.91307 67.7811 4.57775 65.4823 5.03636 63.2532C5.39627 60.3419 5.11472 57.3987 4.9725 54.4817C3.58508 54.6065 2.009 54.4904 1.01343 53.3903C-0.260793 52.0174 -0.115665 49.9566 0.279081 48.2615C1.26885 44.4069 3.21646 40.892 5.21631 37.4786C4.58065 31.4761 4.95218 25.2327 7.25971 19.596C9.14346 14.9229 12.403 10.8361 16.4898 7.8958C23.1976 3.04275 31.4815 0.915179 39.6289 0.22147ZM19.433 9.34998C15.2475 12.0145 11.8457 15.9359 9.97068 20.5422C7.76184 25.8597 7.46869 31.7692 8.08984 37.4321C8.26399 38.2739 7.66026 38.956 7.28293 39.641C5.58784 42.5319 3.98853 45.5302 3.10326 48.7811C2.94072 49.6576 2.61563 50.6939 3.13809 51.5066C4.16559 51.9042 5.24244 51.3905 6.27574 51.2802C7.09136 51.2221 7.74443 51.9971 7.72121 52.7837C7.94471 55.8691 8.15659 58.9632 8.03178 62.0602C8.00566 64.5593 6.73435 66.9539 7.20456 69.4733C7.49191 70.8578 9.21893 70.7069 10.2958 70.7098C15.056 70.376 19.7436 69.3543 24.5124 69.0989C25.2003 69.1947 25.6009 68.6432 25.9434 68.1498C25.537 67.7434 25.1336 67.221 24.5095 67.1832C21.7173 66.8668 18.8583 67.8044 16.1009 67.0323C14.7338 66.6637 13.6076 65.4939 13.4044 64.0775C13.1229 62.2315 13.7556 60.3884 14.4783 58.7165C14.8005 57.8922 15.8774 57.6426 16.5914 58.1157C19.105 59.3231 22.2339 60.3332 24.8695 58.9255C28.0158 56.9285 31.3508 55.0767 35.04 54.322C38.703 53.5093 42.5489 54.2059 45.9158 55.7791C50.5193 57.8922 54.8063 60.7047 59.6362 62.3273C61.4706 62.8933 63.4153 63.8134 65.3513 63.0993C69.3365 61.8512 72.6947 59.1896 75.7424 56.4206C80.1078 52.3048 83.8173 47.4111 86.1916 41.8788C87.9215 37.8356 88.8677 33.3569 88.2611 28.9625C87.7473 25.0324 85.8926 21.352 83.2629 18.4146C79.806 14.5339 75.2867 11.7736 70.5962 9.63153C63.4269 6.40389 55.738 4.50563 48.0231 3.11821C46.3976 2.79893 44.7316 2.88601 43.0829 2.90342C34.8716 3.18497 26.4339 4.85103 19.433 9.34998Z" fill="#8F1402"/>
<path d="M23.4798 18.0663C24.1532 17.3523 24.4231 16.3712 24.931 15.5469C25.944 17.7151 26.9019 19.9094 27.97 22.0544C28.2777 22.7278 28.7914 23.2676 29.3139 23.7814C27.5114 25.7522 25.4912 27.5315 23.7932 29.5981C24.2954 30.8781 25.2039 31.9259 26.0021 33.0289C28.031 35.7341 29.9495 38.5234 32.0191 41.1996C33.0901 42.558 34.5298 44.0731 36.4396 43.8119C39.2377 43.4839 41.7571 42.082 44.2417 40.8426C45.423 40.2766 46.6276 39.2404 48.0237 39.6757C49.6782 40.2388 50.3632 42.05 50.9437 43.5419C51.3413 44.4853 50.6244 45.4054 49.9394 45.9859C48.0121 47.5997 45.8149 48.8449 43.6931 50.1801C43.1503 50.4935 42.6047 50.9376 41.9342 50.8273C38.9068 50.7054 35.8272 50.7606 32.884 51.5617C32.0655 51.7678 31.157 52.0348 30.3501 51.64C29.459 51.1989 28.9627 50.2787 28.4257 49.4893C24.7975 43.6638 20.4437 38.3377 16.0202 33.1073C15.2481 32.2394 14.9376 31.0262 15.1408 29.8913C15.4455 28.112 16.3685 26.5156 17.3554 25.0353C19.1143 22.4811 21.2042 20.1648 23.4798 18.0663ZM19.1027 27.6273C18.5977 28.5038 18.0955 29.4239 17.9591 30.4398C17.8401 31.0465 18.409 31.4383 18.7196 31.8766C23.3608 37.2753 27.732 42.9208 31.5227 48.9523C34.524 48.0815 37.6703 47.8377 40.7819 47.9335C41.3043 47.9277 41.8848 48.0148 42.326 47.6607C44.2562 46.4416 46.256 45.3038 48.0237 43.8496C47.7712 43.391 47.5245 42.9324 47.2748 42.4767C43.8353 44.2414 40.3668 46.3371 36.4338 46.6825C33.7258 46.9321 31.4095 45.118 29.8538 43.0833C27.3198 39.7976 24.9572 36.3843 22.4726 33.0637C21.448 31.7054 20.464 29.8506 21.3812 28.1817C22.4378 26.3821 24.1706 25.1253 25.5377 23.5782C25.1284 22.78 24.7337 21.9789 24.3505 21.1691C22.4116 23.1544 20.5453 25.2443 19.1027 27.6273Z" fill="black"/>
<path d="M9.74692 38.8637C9.69177 37.424 10.2055 35.61 11.7787 35.2065C13.5522 34.7972 15.0383 36.173 16.1703 37.3515C19.572 41.209 21.6474 46.2391 21.8999 51.3824C19.4617 51.1589 17.0265 50.9238 14.5884 50.7235C14.2255 48.4595 12.841 46.5729 11.8426 44.5614C10.937 42.756 9.59018 40.9913 9.74692 38.8637ZM12.6466 38.0597C12.5885 38.9682 12.5537 39.9289 13.05 40.7358C14.2952 43.1827 15.732 45.5338 16.8495 48.0474C17.4329 48.0996 18.0163 48.1519 18.6026 48.207C18.0511 45.8269 17.0584 43.5571 15.7436 41.5021C14.9018 40.2018 13.9295 38.9508 12.6466 38.0597Z" fill="black"/>
<path d="M38.0094 58.4596C40.2676 58.0155 42.8306 58.4045 44.5518 60.0299C46.2149 61.577 46.8303 63.928 46.8332 66.1369C46.8332 69.7186 45.7273 73.1901 44.4444 76.4961C43.62 78.6672 41.7885 80.22 40.0296 81.6336C35.9864 84.7364 31.3974 87.0962 26.6227 88.8609C22.4431 90.3354 17.9673 91.4122 13.509 90.8462C10.5455 90.4863 7.62847 88.9451 6.05239 86.3444C4.10188 83.1806 4.00319 79.2622 4.44728 75.6775C4.49953 74.8126 5.3906 74.2176 6.21783 74.412C11.9852 75.0274 17.8309 75.7414 23.6157 74.9461C25.961 74.5543 28.5123 73.9447 30.1551 72.0958C31.4584 70.5836 31.4177 68.4183 30.9707 66.5839C30.5876 65.1993 30.7966 63.6784 31.5977 62.4826C33.0257 60.297 35.4987 58.9676 38.0094 58.4596ZM35.104 62.8367C34.2216 63.5304 33.345 64.6247 33.734 65.8205C34.3725 68.3573 34.3116 71.2599 32.721 73.4484C30.8372 76.081 27.5603 77.1811 24.501 77.7093C18.7452 78.6062 12.8966 78.0141 7.14374 77.393C6.9841 80.22 7.16116 83.3751 9.07975 85.6362C10.9403 87.7928 14.0054 88.2514 16.7047 88.1266C21.848 87.8334 26.7591 85.9671 31.3336 83.6944C34.6018 81.9848 37.8353 80.0662 40.4476 77.4336C41.7073 76.2668 42.102 74.5455 42.6709 72.9956C43.5185 70.3281 44.2644 67.4982 43.8406 64.6827C43.6375 63.2285 42.7406 61.7598 41.2545 61.3593C39.1269 60.7817 36.8107 61.5189 35.104 62.8367Z" fill="black"/>
</svg>
