<svg width="42" height="64" viewBox="0 0 42 64" fill="none" xmlns="http://www.w3.org/2000/svg">
<path d="M17.0306 0.0332308C19.3436 -0.0318521 21.6598 0.02322 23.9745 0.0065321C24.8739 0.0282264 25.8185 -0.105277 26.6712 0.261857C27.8394 0.715769 28.7272 1.87224 28.7405 3.14386C28.7856 4.09507 28.3317 4.99789 27.6625 5.65039C27.2687 6.00083 27.1769 6.65667 27.5173 7.0722C27.7943 7.42598 28.1381 7.72803 28.3467 8.13188C28.9408 9.19657 28.8724 10.6334 28.0563 11.5663C27.2253 12.5408 25.8936 12.8996 24.6553 12.908C22.0887 12.913 19.5221 12.913 16.9555 12.908C15.734 12.9213 14.5191 12.2538 13.9233 11.1808C13.2725 10.0426 13.4577 8.49901 14.3539 7.5428C14.6192 7.23073 14.9847 6.92368 14.9663 6.4731C15.0097 5.96913 14.5908 5.64037 14.3005 5.2966C13.3793 4.26362 13.2541 2.57146 14.1136 1.46339C14.7978 0.563908 15.9342 0.135027 17.0306 0.0332308Z" fill="black"/>
<path d="M7.00485 2.41406C8.51344 3.11662 10.027 3.81084 11.529 4.53009C11.8227 5.34113 12.9708 5.82674 12.6387 6.81133C12.3233 7.39708 11.7426 7.8076 11.4906 8.44341C9.76003 7.66909 8.01948 6.92147 6.29395 6.13714C6.54426 4.89889 6.76455 3.65398 7.00485 2.41406Z" fill="black"/>
<path d="M30.748 4.53261C32.2532 3.82337 33.7635 3.12248 35.2737 2.41992C35.5074 3.6615 35.7393 4.90308 35.9763 6.14467C34.2491 6.91732 32.5169 7.67829 30.7864 8.44426C30.5327 7.80678 29.9503 7.39459 29.6349 6.80718C29.3095 5.8276 30.4526 5.34031 30.748 4.53261Z" fill="black"/>
<path d="M13.6592 15.1872C18.4871 15.1405 23.3182 15.1839 28.146 15.1655C28.8469 15.1305 29.5912 15.3641 30.0234 15.9448C30.6843 16.7525 30.5508 18.0625 29.7347 18.715C29.3008 19.1022 28.7067 19.209 28.1444 19.1973C23.4133 19.1906 18.684 19.2007 13.9546 19.1923C13.0034 19.2457 12.0756 18.5699 11.877 17.6337C11.5749 16.4955 12.4811 15.244 13.6592 15.1872Z" fill="black"/>
<path d="M15.3838 21.612C16.0113 21.4819 16.6571 21.4618 17.2963 21.4652C20.2984 21.4735 23.2989 21.4635 26.3011 21.4702C27.8097 21.4618 29.3082 22.3113 30.0175 23.653C30.7484 24.9947 30.5198 26.7519 29.5552 27.9201C29.2815 28.2538 28.9161 28.5058 28.6791 28.8679C28.4171 29.3519 28.6123 29.9543 29.0329 30.2797C29.9674 31.0674 30.5081 32.2906 30.4463 33.5139C30.4146 34.5719 29.8489 35.5765 29.0045 36.204C27.9515 36.9966 26.6015 37.272 25.3048 37.2653C22.1908 37.2636 19.0752 37.2686 15.9612 37.2636C14.4109 37.2653 12.874 36.3608 12.1931 34.954C11.4572 33.4755 11.8593 31.5547 13.0709 30.4483C13.3846 30.1529 13.7518 29.8158 13.7134 29.3402C13.7267 28.9163 13.418 28.6026 13.1276 28.3389C11.9228 27.2893 11.4789 25.4419 12.113 23.97C12.6804 22.6634 14.0288 21.874 15.3838 21.612Z" fill="#8F1402"/>
<path d="M4.17934 23.7793C6.00333 24.6287 7.82732 25.4781 9.64964 26.3325C9.87994 27.1569 10.3288 27.9129 10.9863 28.4669C11.5204 28.8491 11.6121 29.7035 11.1048 30.1457C10.6693 30.5513 10.2638 30.9918 9.97506 31.5175C7.74054 30.5446 5.52272 29.5383 3.2832 28.5821C3.55355 26.975 3.8823 25.3797 4.17934 23.7793Z" fill="#8F1402"/>
<path d="M32.6242 26.3401C34.4498 25.489 36.2738 24.6362 38.0995 23.7852C38.3949 25.3822 38.7169 26.9759 38.9956 28.5763C36.7611 29.5475 34.5366 30.5438 32.3038 31.5217C32.01 30.991 31.6012 30.5454 31.1606 30.1366C30.665 29.6944 30.7551 28.8499 31.2841 28.4711C31.9416 27.9171 32.3905 27.1628 32.6242 26.3401Z" fill="#8F1402"/>
<path d="M12.3331 39.5504C18.0521 39.5086 23.7727 39.547 29.4916 39.5303C30.1458 39.5003 30.8417 39.6939 31.2806 40.2079C31.873 40.8487 31.8697 41.8016 31.7295 42.6126C31.5209 43.5388 30.5947 44.1829 29.6585 44.1362C24.2082 44.1429 18.7579 44.1329 13.3077 44.1412C12.5784 44.1546 11.749 44.1763 11.1783 43.6406C10.4574 43.0548 10.3906 42.0419 10.5175 41.1891C10.656 40.313 11.447 39.5988 12.3331 39.5504Z" fill="black"/>
<path d="M15.6904 45.9519C19.5086 45.9085 23.3284 45.9368 27.1483 45.9368C29.3344 45.9268 31.4605 47.5923 31.7508 49.8001C31.9761 51.3137 31.367 52.9341 30.1755 53.9003C29.8284 54.1773 29.4646 54.5395 29.523 55.0268C29.5146 55.5107 29.9252 55.8144 30.2506 56.1031C31.2836 56.9842 31.861 58.3643 31.7892 59.7177C31.7508 60.9426 31.1067 62.1158 30.1187 62.8334C28.9339 63.7112 27.4203 64.0099 25.9701 63.9999C22.3522 63.9948 18.7342 64.0032 15.118 63.9965C13.5093 63.9882 11.9239 63.1154 11.0962 61.7303C10.1884 60.2601 10.3119 58.2742 11.3131 56.8825C11.6369 56.3818 12.1392 56.0481 12.538 55.6175C12.9252 55.1419 12.7683 54.3893 12.2727 54.0522C11.0928 53.1527 10.3886 51.6625 10.4854 50.1789C10.5371 49.0792 11.0628 48.0178 11.9039 47.3086C12.9452 46.4074 14.337 46.0253 15.6904 45.9519Z" fill="black"/>
<path d="M1.15041 49.2012C3.57016 50.2692 5.97989 51.3673 8.40131 52.437C8.90695 52.6205 9.06716 53.1879 9.43596 53.535C9.85149 53.9789 10.5657 54.3277 10.484 55.0453C10.4756 55.586 9.97665 55.883 9.63121 56.2168C9.05881 56.7207 8.69335 57.4033 8.41466 58.1025C5.70454 56.9444 2.99275 55.7896 0.279297 54.6364C0.56466 52.8241 0.860039 51.0135 1.15041 49.2012Z" fill="black"/>
<path d="M33.7663 52.4954C36.2211 51.4023 38.6742 50.3042 41.1257 49.2012C41.4144 51.0118 41.7114 52.8225 41.9968 54.6364C39.2834 55.7912 36.5732 56.9494 33.8598 58.1042C33.5828 57.4066 33.219 56.7207 32.6482 56.2201C32.2978 55.8797 31.7888 55.581 31.7905 55.0303C31.717 54.3227 32.4213 53.9856 32.8301 53.545C33.1772 53.2263 33.3274 52.709 33.7663 52.4954Z" fill="black"/>
</svg>
