<svg width="35" height="141" viewBox="0 0 35 141" fill="none" xmlns="http://www.w3.org/2000/svg">
<path d="M21.728 0.244822C23.841 -0.588316 26.5095 0.791193 26.8687 3.07629C26.9774 4.14186 26.9472 5.34629 26.3827 6.28809C25.4107 7.36574 23.8712 6.56279 22.6638 6.4843C21.5257 6.18244 19.8534 6.44506 19.2859 5.15611C18.969 3.26042 19.7719 0.927029 21.728 0.244822Z" fill="black"/>
<path d="M12.0468 7.47472C12.6565 7.0491 13.4535 7.16683 14.0451 7.55321C15.0111 8.12977 16.2215 8.74858 16.3996 9.98622C16.7136 11.4201 15.5182 12.9263 14.0511 12.9354C12.5147 13.0109 11.5064 11.5589 10.9872 10.3001C10.8242 9.29495 11.2378 8.11467 12.0468 7.47472Z" fill="#8F1402"/>
<path d="M18.9931 9.56959C20.5416 9.21943 22.1687 9.75976 23.7052 10.0224C24.7768 10.3846 25.4982 11.574 25.3231 12.6939C25.0756 14.1458 24.7466 15.5887 24.3632 17.0105C24.0432 18.1696 22.7935 18.9847 21.6042 18.7613C20.3756 18.5319 19.1621 18.2149 17.9698 17.8436C16.7714 17.4603 16.0288 16.0566 16.4031 14.8522C16.7321 13.6417 17.1065 12.4463 17.4808 11.251C17.6981 10.4963 18.2505 9.84428 18.9931 9.56959Z" fill="black"/>
<path d="M6.58917 19.7754C7.83284 19.3105 9.13084 20.0441 10.3383 20.3459C12.1495 20.9044 12.8136 23.3585 11.6846 24.8346C10.8183 26.1326 8.87426 26.4677 7.62153 25.5379C6.64954 24.8346 5.30022 24.0769 5.34248 22.7004C5.30625 21.6258 5.46322 20.2584 6.58917 19.7754Z" fill="#8F1402"/>
<path d="M14.7818 21.5991C15.9742 20.9712 17.251 21.741 18.4494 21.9493C19.675 22.3055 21.299 22.2089 22.0054 23.4827C22.7962 24.8834 21.8454 26.4289 21.6039 27.8507C21.1903 29.1879 21.2115 31.0263 19.7173 31.6662C18.386 32.1099 16.9582 31.6873 15.5968 31.5726C14.3592 31.3553 12.7563 31.3583 12.0651 30.0965C11.25 28.5963 12.3699 27.0024 12.7352 25.5354C13.3148 24.2012 13.3721 22.3749 14.7818 21.5991Z" fill="black"/>
<path d="M11.4343 34.8405C12.9768 34.3062 14.5978 34.9824 16.1705 35.0609C17.7221 35.079 19.2374 36.1868 19.4759 37.7625C19.5786 38.9851 19.4004 40.2137 19.3461 41.4362C19.322 42.9063 18.1749 44.2435 16.729 44.5061C15.2499 44.8261 13.7526 45.0917 12.2463 45.2608C10.408 45.5053 8.60889 43.8571 8.69643 42.0037C8.79604 40.4129 9.1281 38.8432 9.43599 37.2826C9.63824 36.1989 10.3989 35.239 11.4343 34.8405Z" fill="black"/>
<path d="M2.05504 35.1486C3.23833 34.7199 4.44881 35.4293 5.60796 35.6617C6.99048 35.9334 8.05001 37.2737 7.96247 38.6834C8.00171 40.7179 5.65625 42.2967 3.80282 41.3971C2.70404 40.7813 1.5298 40.0599 0.880799 38.949C0.560826 37.651 0.633268 35.7644 2.05504 35.1486Z" fill="#8F1402"/>
<path d="M16.6082 48.2171C18.1175 47.8428 19.832 48.7182 20.2788 50.2335C20.7105 51.7187 21.1119 53.2099 21.6342 54.6649C22.0719 55.7848 21.8485 57.1311 21.0003 58.0005C20.0434 58.9423 18.6427 59.1294 17.4413 59.6094C15.8928 60.1014 14.3925 60.7534 12.8138 61.1459C11.1897 61.493 9.47215 60.2704 9.21859 58.6404C8.80504 56.5334 8.52129 54.3962 8.39451 52.256C8.25565 50.7014 9.48423 49.1891 11.0358 49.011C12.8922 48.7514 14.7578 48.5461 16.6082 48.2171Z" fill="black"/>
<path d="M1.78073 52.1356C3.30211 52.0842 5.11932 51.562 6.3962 52.6759C7.84211 53.8441 7.76363 56.3526 6.21206 57.4C4.69068 58.5169 2.72254 57.6626 1.25247 56.8929C-0.196467 55.7609 -0.501347 52.4827 1.78073 52.1356Z" fill="#8F1402"/>
<path d="M22.0473 62.1454C23.6532 61.6625 25.3708 62.6465 26.0379 64.1317C26.7262 65.5172 27.7404 66.7549 28.1932 68.2491C28.5675 69.8429 27.5925 71.5756 26.053 72.1189C23.5083 73.106 20.9304 74.0207 18.3797 74.9987C17.2508 75.4817 15.8773 75.4304 14.8842 74.6697C13.6948 73.7973 13.4141 72.2518 12.8315 70.984C12.2217 69.5411 11.461 67.8023 12.424 66.3292C13.1545 64.9377 14.8147 64.6962 16.1761 64.2887C18.1926 63.7393 20.0913 62.8609 22.0473 62.1454Z" fill="black"/>
<path d="M7.55861 67.5567C9.2279 67.0074 11.0934 68.3446 11.2594 70.0592C11.5462 71.7677 10.0641 73.443 8.34345 73.4129C7.17525 73.434 5.69612 73.6604 4.88411 72.6099C4.02682 71.6953 3.30235 70.1709 4.28039 69.0781C5.19503 68.2782 6.44776 67.9944 7.55861 67.5567Z" fill="#8F1402"/>
<path d="M28.6733 75.677C30.1071 75.2484 31.7734 76.0634 32.3348 77.4459C32.8118 78.6534 33.1499 79.9122 33.4608 81.1709C33.7355 82.2184 33.4246 83.3896 32.6397 84.1412C31.9666 84.8325 30.9674 84.9864 30.0739 85.2159C27.3541 85.8317 24.6525 86.529 21.9357 87.1448C20.532 87.5191 18.9201 86.7554 18.3798 85.397C17.9873 84.3465 17.6794 83.2598 17.441 82.164C17.0727 80.5883 18.25 78.9522 19.8106 78.6564C22.8503 77.935 25.7724 76.8211 28.6733 75.677Z" fill="black"/>
<path d="M12.956 83.2108C14.4864 82.4139 16.5361 83.2863 17.013 84.9435C17.6379 86.6037 16.4274 88.6262 14.6524 88.8073C13.5597 88.8828 12.3251 89.0639 11.341 88.4813C10.3902 87.6512 9.43627 86.2837 10.037 84.9888C10.5743 83.8779 11.9387 83.6847 12.956 83.2108Z" fill="#8F1402"/>
<path d="M31.3908 89.874C33.0028 89.4031 34.8109 90.7192 34.8864 92.3915C34.9196 94.0065 34.7656 95.6275 34.5996 97.2364C34.4819 98.7004 33.051 99.8897 31.59 99.7207C28.3028 99.3524 25.0215 98.9117 21.7403 98.5102C20.4544 98.3986 19.2952 97.3541 19.1775 96.0531C19.0899 94.7309 19.0598 93.125 20.1948 92.2104C21.1547 91.3289 22.5342 91.5735 23.7235 91.4889C26.3558 91.4165 28.9125 90.7162 31.3908 89.874Z" fill="black"/>
<path d="M10.556 99.2068C11.7212 98.5307 13.14 99.0438 14.4017 99.077C16.2401 99.1404 17.5803 101.175 16.9827 102.902C16.5419 104.616 14.444 105.537 12.8653 104.755C11.7212 104.233 10.1364 103.795 9.8708 102.37C9.60214 101.305 9.50856 99.889 10.556 99.2068Z" fill="#8F1402"/>
<path d="M19.9165 102.537C20.8221 102.271 21.7548 102.573 22.6514 102.733C24.9002 103.216 27.1944 103.418 29.4795 103.648C31.1608 103.808 32.4468 105.586 32.0815 107.237C31.843 108.278 31.348 109.235 30.9465 110.219C30.539 111.231 29.9504 112.299 28.8486 112.67C27.6774 113.181 26.4427 112.625 25.3379 112.209C23.3034 111.424 21.2266 110.748 19.2011 109.945C17.7854 109.425 16.9733 107.768 17.3839 106.322C17.6374 104.792 18.211 102.963 19.9165 102.537Z" fill="black"/>
<path d="M7.45896 113.32C8.64528 113.103 9.90404 113.495 11.0239 113.893C12.7355 114.745 12.6208 117.458 10.9515 118.295C9.44822 119.128 7.80308 117.996 6.73751 116.966C6.08549 115.868 6.0704 113.875 7.45896 113.32Z" fill="#8F1402"/>
<path d="M15.6689 114.005C17.3442 113.208 18.9834 114.319 20.5198 114.895C21.7695 115.433 23.2879 115.583 24.2146 116.679C25.3013 117.884 25.3677 119.843 24.3625 121.123C23.5415 122.197 22.6781 123.462 21.2715 123.776C19.9584 124.159 18.7147 123.417 17.471 123.121C16.1941 122.759 14.718 122.722 13.7008 121.766C12.5477 120.742 12.2398 118.949 12.9522 117.588C13.5981 116.242 14.1385 114.575 15.6689 114.005Z" fill="black"/>
<path d="M10.2573 125.191C11.2957 124.832 12.2949 125.453 13.2669 125.734C14.8215 126.271 16.5753 126.259 17.991 127.168C19.0475 127.868 19.0505 129.26 19.289 130.374C19.4067 131.134 19.7146 132.351 18.6642 132.568C15.5006 133.622 13.8193 136.843 12.8563 139.816C12.7235 140.731 11.4014 141.09 10.8822 140.299C8.70573 136.975 7.36546 132.9 8.12012 128.913C8.36161 127.5 8.64536 125.65 10.2573 125.191Z" fill="black"/>
</svg>
