<svg width="300" height="378" viewBox="0 0 300 378" fill="none" xmlns="http://www.w3.org/2000/svg">
<g clip-path="url(#clip0_6816_59628)">
<path d="M29.9328 0H30.2638H40.5362H91.2983H105.191H109.397C117.279 0.863793 123.822 6.50172 126.01 14.0224C126.486 15.6534 126.724 18.0569 126.724 21.2328C126.728 70.5362 126.726 119.84 126.719 169.143C126.719 174.067 126.005 177.786 123.202 181.391C118.529 187.409 112.214 190.198 104.255 189.76C104.103 189.75 104.028 189.822 104.028 189.978V214.784C104.027 214.817 104.035 214.85 104.049 214.88C104.063 214.91 104.084 214.936 104.11 214.956C104.136 214.977 104.167 214.991 104.199 214.998C104.231 215.005 104.264 215.004 104.297 214.997C118.526 211.547 134.193 210.326 147.9 216.579C158.353 221.353 165.326 230.684 168.217 241.645C168.249 241.765 168.327 241.869 168.433 241.933C168.54 241.997 168.666 242.016 168.786 241.986C187.852 237.44 208.448 237.838 222.471 253.857C228.374 260.598 232.136 268.529 233.757 277.65C233.95 278.722 234.15 279.807 234.357 280.903C234.391 281.083 234.498 281.16 234.678 281.136C249.31 279.222 263.7 284.933 273.807 295.355C287.095 309.067 296.99 327.957 299.302 346.955C299.605 349.459 299.769 352.903 299.793 357.29C299.828 363.841 299.864 370.391 299.902 376.94C299.905 377.222 299.843 377.438 299.716 377.586H290.814C290.821 371.162 290.822 364.738 290.819 358.314C290.819 353.793 290.683 350.352 290.41 347.99C288.533 331.805 280.231 316.19 269.571 303.931C261.036 294.119 248.141 288.047 235.086 289.919C234.91 289.943 234.822 290.045 234.822 290.224C234.833 290.941 234.836 291.657 234.833 292.371C234.778 312.326 234.753 332.283 234.76 352.241C234.76 354.314 234.478 356.853 233.912 359.86C233.881 360.022 233.79 360.133 233.638 360.191C230.948 361.2 227.902 361.226 225.807 358.986C225.69 358.862 225.631 358.714 225.631 358.541C225.669 335.707 225.659 312.874 225.6 290.043C225.59 285.36 225.398 281.924 225.026 279.734C223.071 268.169 216.807 258.01 206.4 252.46C195.171 246.471 181.366 247.96 169.603 251.234C169.424 251.286 169.334 251.403 169.334 251.586C169.324 251.993 169.319 252.398 169.319 252.802C169.288 286.509 169.269 320.216 169.262 353.922C169.262 354.743 169.133 356.607 168.874 359.514C168.857 359.683 168.769 359.793 168.61 359.845L164.188 361.345C164.005 361.407 163.833 361.386 163.671 361.283L161.1 359.669C160.941 359.569 160.85 359.426 160.826 359.24C160.505 356.802 160.345 355.116 160.345 354.181C160.345 320.747 160.343 287.314 160.34 253.883C160.34 249.817 160.124 246.783 159.693 244.779C156.797 231.347 146.555 223.407 133.19 221.514C124.009 220.216 113.653 221.959 104.25 224.059C104.186 224.074 104.13 224.11 104.089 224.16C104.049 224.211 104.027 224.274 104.028 224.338C104.024 265.359 104.024 306.415 104.028 347.509C104.028 351.791 104.152 355.547 103.19 359.793C103.172 359.874 103.134 359.948 103.079 360.01C103.023 360.072 102.953 360.118 102.874 360.145L99.6673 361.226C99.4983 361.284 99.3293 361.279 99.1604 361.21L96.031 359.933C95.9392 359.895 95.8586 359.834 95.797 359.756C95.7354 359.678 95.6949 359.586 95.6793 359.488C94.9138 354.507 95.0431 349.852 95.0431 344.855C95.0431 293.103 95.0431 241.403 95.0431 189.755C95.0431 189.583 94.9569 189.497 94.7845 189.497H41.1207C41.0576 189.497 40.9971 189.522 40.9524 189.566C40.9078 189.611 40.8828 189.671 40.8828 189.734L40.8569 377.586H32.0017L31.9345 347.328C31.9345 346.955 31.8069 346.905 31.5517 347.178C22.9793 356.426 15.519 366.562 9.17069 377.586H0V375.502C8.75172 360.14 19.5776 346.169 31.3862 333.197C31.7741 332.767 32.0586 332.426 32.0586 331.8C32 284.534 31.9879 237.269 32.0224 190.003C32.0224 189.821 31.9328 189.726 31.7535 189.719C28.2776 189.528 24.9259 189.393 21.6103 188.271C15.7914 186.3 11.3845 181.329 9.77069 175.495C9.26035 173.647 9.00862 170.593 9.01552 166.334C9.08104 122.269 9.05345 78.2034 8.93276 34.1379C8.92241 29.7276 8.93793 25.319 8.97931 20.9121C9.0069 17.8328 9.27241 15.469 9.77586 13.8207C11.9793 6.58448 18.3672 0.894828 26.0534 0.165517C27.0983 0.062069 28.6241 0.222414 29.9328 0ZM17.8448 169.914C17.8448 172.745 18.9696 175.461 20.9717 177.463C22.9738 179.465 25.6893 180.59 28.5207 180.59H107.198C110.03 180.59 112.745 179.465 114.747 177.463C116.749 175.461 117.874 172.745 117.874 169.914V19.5879C117.874 18.1842 117.597 16.7943 117.06 15.4977C116.522 14.2011 115.733 13.0232 114.74 12.0316C113.746 11.04 112.567 10.2541 111.269 9.71877C109.972 9.18348 108.581 8.90935 107.178 8.91207L28.5 9.06724C25.6722 9.07272 22.962 10.1999 20.9644 12.2014C18.9668 14.203 17.8448 16.9153 17.8448 19.7431V169.914Z" fill="black"/>
<path d="M92.2294 62.4987C89.1363 63.7245 86.5759 64.1228 82.9863 64.128C73.6863 64.1349 64.3863 64.1401 55.0863 64.1435C50.238 64.1435 46.8139 63.8849 44.8139 63.3676C31.888 60.0211 24.7863 46.097 29.3328 33.5228C31.888 26.4676 38.1984 20.7987 45.6311 19.1642C47.2587 18.8056 50.0415 18.6245 53.9794 18.6211C64.1346 18.6211 74.288 18.6211 84.4397 18.6211C89.088 18.6211 93.4811 20.1832 97.619 23.3073C111.44 33.7452 108.807 55.9349 92.2294 62.4987ZM37.1846 36.1763C35.1156 42.3314 36.3915 47.5987 41.0122 51.978C43.7466 54.5676 46.8001 55.8625 50.1725 55.8625C60.5725 55.859 70.9742 55.8607 81.3777 55.8676C84.4053 55.8676 86.6777 55.628 88.1949 55.1487C101.56 50.9073 101.524 31.8107 88.3139 27.6211C86.7759 27.1349 84.4259 26.8918 81.2639 26.8918C71.9397 26.8918 62.6156 26.8935 53.2915 26.897C50.0053 26.9004 47.6087 27.1521 46.1018 27.6521C42.2949 28.9194 38.5346 32.1676 37.1846 36.1763Z" fill="black"/>
<path d="M106.551 113.804C106.551 116.545 105.463 119.173 103.524 121.111C101.586 123.05 98.9577 124.138 96.2169 124.138H38.2651C35.5243 124.138 32.8957 123.05 30.9576 121.111C29.0195 119.173 27.9307 116.545 27.9307 113.804V88.9556C27.9307 86.2147 29.0195 83.5861 30.9576 81.648C32.8957 79.7099 35.5243 78.6211 38.2651 78.6211H96.2169C98.9577 78.6211 101.586 79.7099 103.524 81.648C105.463 83.5861 106.551 86.2147 106.551 88.9556V113.804ZM98.2755 88.9711C98.2755 88.421 98.057 87.8934 97.668 87.5045C97.279 87.1155 96.7514 86.897 96.2014 86.897H38.2807C37.7306 86.897 37.203 87.1155 36.814 87.5045C36.425 87.8934 36.2065 88.421 36.2065 88.9711V113.788C36.2065 114.338 36.425 114.866 36.814 115.255C37.203 115.644 37.7306 115.862 38.2807 115.862H96.2014C96.7514 115.862 97.279 115.644 97.668 115.255C98.057 114.866 98.2755 114.338 98.2755 113.788V88.9711Z" fill="black"/>
<path d="M37.6445 166.862C40.029 165.294 39.1083 162.403 36.4962 161.762C34.11 161.172 32.2997 160.562 31.0652 159.931C27.4031 158.063 27.9618 153.424 31.5049 151.794C34.96 150.206 40.1066 151.086 40.8721 155.477C40.8789 155.52 40.8762 155.564 40.8642 155.606C40.8521 155.648 40.8311 155.687 40.8026 155.72C40.774 155.753 40.7386 155.779 40.6988 155.797C40.659 155.815 40.6157 155.824 40.5721 155.824L39.0256 155.813C38.7738 155.813 38.648 155.688 38.648 155.436C38.648 152.529 31.8721 151.934 30.8635 155.239C29.2238 160.624 41.6169 157.655 41.1049 164.824C40.6445 171.248 28.8876 171.439 28.1169 164.932C28.0962 164.781 28.1635 164.703 28.3187 164.7L30.1187 164.663C30.1768 164.662 30.2337 164.682 30.2785 164.72C30.3233 164.758 30.3529 164.811 30.3618 164.87C30.848 168.134 35.6014 168.206 37.6445 166.862Z" fill="black"/>
<path d="M66.3313 151.045C76.6658 149.964 78.1244 166.759 69.4244 169.273C57.4658 172.728 55.2054 152.214 66.3313 151.045ZM67.1403 167.654C67.9221 167.65 68.6953 167.456 69.4156 167.084C70.136 166.712 70.7895 166.169 71.3387 165.486C71.888 164.803 72.3223 163.994 72.6168 163.104C72.9113 162.213 73.0604 161.26 73.0553 160.298C73.0451 158.356 72.4082 156.496 71.2845 155.129C70.1608 153.761 68.6426 152.997 67.0636 153.006C66.2818 153.01 65.5087 153.203 64.7883 153.575C64.0679 153.947 63.4145 154.49 62.8652 155.173C62.3159 155.856 61.8816 156.665 61.5871 157.556C61.2926 158.446 61.1436 159.399 61.1486 160.361C61.1588 162.303 61.7958 164.163 62.9194 165.53C64.0431 166.898 65.5614 167.662 67.1403 167.654Z" fill="black"/>
<path d="M82.2411 167.395L89.6118 167.39C89.6639 167.39 89.7139 167.41 89.7508 167.447C89.7876 167.484 89.8083 167.534 89.8083 167.586L89.8032 169.133C89.8032 169.185 89.7824 169.235 89.7456 169.272C89.7087 169.309 89.6587 169.329 89.6066 169.329H78.7549C78.5825 169.329 78.4807 169.245 78.4497 169.076C78.3256 168.393 78.3566 167.829 78.8687 167.281C82.8376 163.057 85.4066 160.202 86.5756 158.715C87.3032 157.784 87.5928 156.783 87.4445 155.71C86.9014 151.826 80.7411 152.043 80.5652 156.176C80.5625 156.241 80.5345 156.302 80.4871 156.347C80.4397 156.391 80.3768 156.415 80.3118 156.414L78.7342 156.393C78.5687 156.393 78.4894 156.309 78.4963 156.14C78.7394 150.967 85.5825 149.214 88.567 153.197C90.2325 155.421 89.5445 157.991 87.8428 160.133C86.2221 162.167 84.2549 164.343 81.9411 166.66C81.4514 167.15 81.5514 167.395 82.2411 167.395Z" fill="black"/>
<path d="M100.669 155.952C100.688 156.801 100.369 157.622 99.7826 158.236C99.196 158.85 98.3895 159.206 97.5405 159.225L97.0027 159.237C96.1538 159.257 95.332 158.938 94.7181 158.351C94.1042 157.765 93.7484 156.958 93.7292 156.109L93.6893 154.351C93.67 153.502 93.9888 152.68 94.5754 152.066C95.1621 151.452 95.9686 151.097 96.8175 151.077L97.3554 151.065C98.2043 151.046 99.0261 151.365 99.64 151.951C100.254 152.538 100.61 153.345 100.629 154.194L100.669 155.952ZM97.2081 157.857C97.4445 157.855 97.6781 157.784 97.8955 157.647C98.113 157.51 98.31 157.311 98.4754 157.06C98.6408 156.809 98.7713 156.511 98.8595 156.185C98.9477 155.858 98.9918 155.508 98.9893 155.154C98.9843 154.441 98.7899 153.758 98.4489 153.256C98.1078 152.754 97.648 152.474 97.1706 152.477C96.9342 152.479 96.7007 152.55 96.4832 152.687C96.2658 152.824 96.0687 153.023 95.9033 153.274C95.7379 153.525 95.6074 153.822 95.5193 154.149C95.4311 154.476 95.387 154.826 95.3894 155.179C95.3944 155.893 95.5888 156.576 95.9299 157.078C96.271 157.58 96.7308 157.86 97.2081 157.857Z" fill="black"/>
<path d="M108.59 151.562L96.419 169.267C96.4034 169.291 96.3819 169.311 96.3566 169.324C96.3313 169.338 96.3029 169.345 96.2742 169.345L94.7018 169.314C94.671 169.313 94.641 169.304 94.615 169.287C94.589 169.27 94.5679 169.247 94.5542 169.219C94.5404 169.192 94.5343 169.161 94.5366 169.13C94.5389 169.099 94.5495 169.07 94.5673 169.045L106.712 151.365C106.728 151.343 106.749 151.325 106.773 151.312C106.797 151.3 106.824 151.293 106.852 151.293H108.45C108.481 151.293 108.512 151.302 108.539 151.318C108.565 151.334 108.587 151.357 108.602 151.385C108.616 151.413 108.623 151.444 108.62 151.475C108.618 151.506 108.608 151.536 108.59 151.562Z" fill="black"/>
<path d="M46.4847 167.643V174.3C46.4847 174.382 46.4433 174.426 46.3606 174.429L44.5864 174.445C44.4761 174.445 44.4209 174.389 44.4209 174.279V156.17C44.4209 155.932 44.5399 155.814 44.7778 155.814L46.0399 155.824C46.295 155.824 46.4226 155.953 46.4226 156.212L46.4278 157.748C46.4277 157.788 46.4405 157.827 46.4643 157.859C46.4881 157.891 46.5217 157.915 46.56 157.927C46.5983 157.938 46.6394 157.937 46.6771 157.924C46.7147 157.91 46.747 157.885 46.7692 157.851L47.5968 156.651C47.6513 156.57 47.7256 156.501 47.814 156.45C49.4209 155.532 50.9847 155.36 52.5054 155.932C58.1226 158.048 57.7192 168.729 51.3416 169.619C49.6899 169.85 48.1519 169.16 46.7278 167.55C46.5657 167.367 46.4847 167.398 46.4847 167.643ZM50.3613 167.86C50.885 167.862 51.404 167.728 51.8888 167.467C52.3735 167.206 52.8145 166.821 53.1865 166.337C53.5585 165.852 53.8543 165.276 54.0569 164.642C54.2595 164.007 54.3651 163.327 54.3675 162.639C54.3698 161.952 54.2691 161.271 54.0709 160.635C53.8727 160 53.5809 159.421 53.2123 158.934C52.8437 158.447 52.4054 158.06 51.9225 157.795C51.4396 157.53 50.9215 157.393 50.3978 157.391C49.8741 157.389 49.355 157.523 48.8703 157.784C48.3855 158.046 47.9446 158.43 47.5725 158.914C47.2005 159.399 46.9048 159.975 46.7021 160.61C46.4995 161.244 46.394 161.924 46.3916 162.612C46.3892 163.299 46.49 163.98 46.6882 164.616C46.8864 165.252 47.1781 165.83 47.5467 166.317C47.9153 166.804 48.3536 167.192 48.8365 167.456C49.3195 167.721 49.8376 167.858 50.3613 167.86Z" fill="black"/>
<path d="M109.661 166.404C109.648 167.253 109.298 168.062 108.688 168.653C108.078 169.244 107.259 169.569 106.41 169.555L105.841 169.546C105.42 169.54 105.005 169.451 104.62 169.284C104.234 169.117 103.885 168.875 103.592 168.573C103.299 168.271 103.069 167.915 102.914 167.524C102.759 167.133 102.683 166.715 102.69 166.295L102.717 164.567C102.73 163.718 103.08 162.909 103.69 162.319C104.3 161.728 105.12 161.403 105.969 161.416L106.538 161.425C106.958 161.432 107.373 161.521 107.759 161.688C108.145 161.855 108.494 162.097 108.786 162.399C109.079 162.701 109.309 163.057 109.464 163.448C109.619 163.839 109.695 164.257 109.689 164.677L109.661 166.404ZM107.877 164.515C107.88 164.102 107.719 163.705 107.429 163.411C107.139 163.117 106.744 162.95 106.331 162.947L106.083 162.945C105.878 162.944 105.676 162.983 105.486 163.06C105.297 163.137 105.124 163.25 104.979 163.394C104.833 163.537 104.717 163.708 104.638 163.896C104.558 164.085 104.517 164.287 104.515 164.491L104.501 166.478C104.498 166.891 104.66 167.288 104.95 167.582C105.24 167.876 105.634 168.042 106.047 168.045L106.296 168.047C106.5 168.049 106.703 168.01 106.892 167.933C107.082 167.856 107.254 167.742 107.4 167.599C107.545 167.455 107.661 167.284 107.741 167.096C107.82 166.908 107.862 166.705 107.863 166.501L107.877 164.515Z" fill="black"/>
</g>
<defs>
<clipPath id="clip0_6816_59628">
<rect width="300" height="377.586" fill="white"/>
</clipPath>
</defs>
</svg>
