<svg width="603" height="85" viewBox="0 0 603 85" fill="none" xmlns="http://www.w3.org/2000/svg">
<path d="M29.4535 59.7315C-5.92398 59.7315 -5.71151 32.1611 29.4535 32.1611H88.5545C101.951 32.1611 116.278 29.1827 132.88 23.6781C147.793 18.7336 158.294 9.53945 168.932 6.71163C230.2 5.65116 475.666 3 546.587 3C617.508 3 618.099 82 546.587 82H168.932C159.673 79.349 147.608 71.4645 132.88 67.1544C116.139 62.255 100.572 59.9083 88.5545 59.7315H29.4535Z" stroke="black" stroke-width="5"/>
<path d="M96.3213 46.4766H549.626" stroke="#8F1402" stroke-width="5" stroke-linecap="round"/>
<path d="M213.932 82.0004V56.5508" stroke="black" stroke-width="5" stroke-linecap="round"/>
<path d="M232.844 81.9996V64.5029" stroke="black" stroke-width="5" stroke-linecap="round"/>
<path d="M304.356 81.9996V64.5029" stroke="black" stroke-width="5" stroke-linecap="round"/>
<path d="M380.006 81.9996V64.5029" stroke="black" stroke-width="5" stroke-linecap="round"/>
<path d="M453.882 81.9996V64.5029" stroke="black" stroke-width="5" stroke-linecap="round"/>
<path d="M251.757 81.9996V64.5029" stroke="black" stroke-width="5" stroke-linecap="round"/>
<path d="M323.269 81.9996V64.5029" stroke="black" stroke-width="5" stroke-linecap="round"/>
<path d="M398.918 81.9996V64.5029" stroke="black" stroke-width="5" stroke-linecap="round"/>
<path d="M472.794 81.9996V64.5029" stroke="black" stroke-width="5" stroke-linecap="round"/>
<path d="M270.669 81.9996V64.5029" stroke="black" stroke-width="5" stroke-linecap="round"/>
<path d="M342.181 81.9996V64.5029" stroke="black" stroke-width="5" stroke-linecap="round"/>
<path d="M417.83 81.9996V64.5029" stroke="black" stroke-width="5" stroke-linecap="round"/>
<path d="M491.706 81.9996V64.5029" stroke="black" stroke-width="5" stroke-linecap="round"/>
<path d="M288.399 82.0004V56.5508" stroke="black" stroke-width="5" stroke-linecap="round"/>
<path d="M362.866 82.0004V56.5508" stroke="black" stroke-width="5" stroke-linecap="round"/>
<path d="M437.334 82.0004V56.5508" stroke="black" stroke-width="5" stroke-linecap="round"/>
<path d="M511.801 82.0004V56.5508" stroke="black" stroke-width="5" stroke-linecap="round"/>
</svg>
