<svg width="123" height="103" viewBox="0 0 123 103" fill="none" xmlns="http://www.w3.org/2000/svg">
<path d="M0.107962 4.78365C-0.415191 2.75226 1.02626 0.537211 3.06322 0.125367C5.15583 -0.420048 7.43767 1.07148 7.81055 3.19192C10.6267 16.9553 18.5185 29.2494 28.4974 38.95C33.9404 44.226 40.0846 48.8287 46.8689 52.2403C51.4326 54.4665 56.358 56.2919 61.5005 56.342C66.4927 56.2919 71.3013 54.5611 75.7536 52.424C82.8162 48.9567 89.1608 44.1481 94.7875 38.6884C103.904 29.6891 111.295 18.5804 114.506 6.0804C115.046 4.11022 115.09 1.51672 117.194 0.481548C119.743 -1.04339 123.361 1.28298 122.971 4.2438C120.851 16.2541 114.912 27.257 107.516 36.8128C102.919 55.318 100.759 74.3574 99.3567 93.3468C99.2176 95.7121 96.5907 97.4708 94.3423 96.7139C92.4333 96.2018 91.2423 94.1649 91.5429 92.2392C92.489 77.2737 94.2755 62.3583 97.0081 47.6154C90.4631 53.2476 83.1724 58.1341 75.1081 61.312C70.1047 63.2432 64.7396 64.6179 59.3355 64.1671C54.5548 63.7496 49.9355 62.2581 45.5666 60.3269C38.4261 57.149 31.8923 52.7134 25.9985 47.6043C28.7478 62.5531 30.6011 77.6689 31.4693 92.8403C31.7309 95.9403 27.7126 98.0885 25.2694 96.1517C23.2269 94.7938 23.5998 92.089 23.3771 89.9741C22.0859 72.7991 19.8653 55.6575 16.0419 38.8498C15.797 37.8035 15.6245 36.6848 14.8898 35.8612C7.70481 26.8006 2.34528 16.165 0.107962 4.78365Z" fill="black"/>
<path d="M50.5216 70.1172C55.2689 68.9763 59.8215 72.3879 64.5076 70.824C67.6521 69.9447 71.0748 69.4994 74.236 70.5513C79.4508 72.1876 82.8792 77.9923 81.9219 83.3574C81.0092 88.7671 77.5029 93.3808 73.3956 96.8537C70.0285 99.5974 65.9602 101.902 61.5134 102.024C56.7716 101.907 52.4918 99.3247 48.98 96.325C45.0396 92.8132 41.6781 88.1771 41.0047 82.8232C40.2199 76.985 44.6278 70.9242 50.5216 70.1172ZM51.1449 78.0925C49.3473 78.7325 48.4457 80.9086 48.9688 82.6951C49.7758 85.9621 52.1245 88.5945 54.64 90.715C56.7772 92.3623 59.2037 94.2546 62.0532 94.0821C65.3424 93.4142 68.0472 91.1602 70.3736 88.8617C72.2157 86.8637 73.9466 84.465 74.1692 81.6767C74.2972 79.6453 72.5385 77.7642 70.4849 77.8309C67.2625 77.8421 64.2293 79.4839 60.9624 79.1833C57.6287 79.3113 54.4564 77.1186 51.1449 78.0925Z" fill="#8F1402"/>
</svg>
