<svg width="380" height="213" viewBox="0 0 380 213" fill="none" xmlns="http://www.w3.org/2000/svg">
<g clip-path="url(#clip0_6799_59091)">
<path d="M34.295 0H36.155C39.9183 0.54 42.2717 2.66667 43.215 6.38C43.9317 9.19333 43.385 11.5483 41.575 13.445C37.51 17.705 30.305 24.495 23.465 31.72C18.115 37.37 15.76 44.47 16.81 52.14C17.07 54.06 17.84 56.6517 19.12 59.915C24.0067 72.4017 28.9033 84.89 33.81 97.38C33.8767 97.5467 33.9917 97.595 34.155 97.525C72.925 80.8083 112.998 70.565 154.375 66.795C220.055 60.805 285.23 71.48 346.135 97.515C346.305 97.5883 346.422 97.54 346.485 97.37C351.202 85.1767 355.977 73.005 360.81 60.855C362.177 57.415 363.015 54.7 363.325 52.71C364.632 44.3 362.143 36.9433 355.86 30.64C350.737 25.5033 345.605 20.3717 340.465 15.245C337.625 12.41 335.985 10.25 336.975 6.38C337.942 2.59667 340.368 0.47 344.255 0H345.655C347.748 0.383333 349.463 1.24167 350.8 2.575C356.53 8.30167 362.245 14.045 367.945 19.805C375.198 27.1317 379.217 35.9667 380 46.31V51.135C379.667 55.5317 378.875 59.32 377.625 62.5C357.938 112.667 338.263 162.833 318.6 213H301.115L307.49 196.77C307.542 196.637 307.541 196.489 307.487 196.357C307.433 196.225 307.33 196.118 307.2 196.06C263.537 176.77 218.047 168.648 170.73 171.695C137.005 173.865 103.655 182.42 72.82 196.215C72.7545 196.245 72.7028 196.299 72.6758 196.365C72.6488 196.431 72.6485 196.504 72.675 196.57L79.065 213H61.595C61.395 212.37 61.015 211.34 60.455 209.91C51.1483 186.233 32.8 139.438 5.41 69.525C3.39334 64.3717 2.225 61.2533 1.905 60.17C-0.354996 52.5033 -0.298329 44.7017 2.075 36.765C4.355 29.135 8.425 23.52 14.075 17.93C19.2017 12.8567 24.3017 7.75667 29.375 2.63C30.6017 1.39 32.2417 0.513333 34.295 0ZM175.005 81.79C128.745 83.595 82.42 93.895 40.07 112.765C39.94 112.822 39.9017 112.917 39.955 113.05L66.555 180.83C66.5655 180.858 66.5814 180.883 66.6017 180.904C66.6221 180.925 66.6465 180.942 66.6736 180.954C66.7006 180.965 66.7297 180.972 66.7592 180.972C66.7886 180.972 66.8178 180.966 66.845 180.955L85.275 173.36C85.3679 173.321 85.4423 173.248 85.4832 173.156C85.5241 173.064 85.5283 172.96 85.495 172.865C83.935 168.508 82.425 164.113 80.965 159.68C80.205 157.37 79.8683 155.63 79.955 154.46C80.445 147.765 89.055 144.765 93.76 149.475C94.5767 150.295 95.3717 151.758 96.145 153.865C97.8083 158.412 99.3667 163.032 100.82 167.725C100.848 167.814 100.909 167.889 100.991 167.934C101.074 167.979 101.17 167.99 101.26 167.965C104.96 166.928 108.708 165.892 112.505 164.855C124.362 161.622 136.307 159.203 148.34 157.6C148.573 157.57 148.675 157.438 148.645 157.205C148.005 152.248 147.458 147.363 147.005 142.55C146.812 140.49 146.87 138.965 147.18 137.975C149.285 131.27 158.655 130.465 161.91 136.34C162.527 137.453 163.018 139.618 163.385 142.835C163.865 147.038 164.343 151.262 164.82 155.505C164.84 155.685 164.94 155.768 165.12 155.755C181.797 154.375 198.473 154.377 215.15 155.76C215.231 155.767 215.312 155.741 215.375 155.689C215.438 155.637 215.477 155.561 215.485 155.48C215.988 150.437 216.552 145.368 217.175 140.275C217.628 136.575 219.348 134.098 222.335 132.845C228.455 130.28 234.11 135.56 233.43 141.76C232.857 146.96 232.257 152.083 231.63 157.13C231.597 157.4 231.715 157.553 231.985 157.59C248.17 159.805 263.46 163.505 279.005 167.965C279.089 167.987 279.178 167.977 279.253 167.936C279.329 167.895 279.385 167.826 279.41 167.745C280.89 163.058 282.475 158.37 284.165 153.68C284.808 151.897 285.462 150.63 286.125 149.88C289.85 145.66 296.48 146.55 299.255 151.3C300.442 153.327 300.633 155.597 299.83 158.11C298.51 162.237 296.812 167.188 294.735 172.965C294.675 173.132 294.728 173.248 294.895 173.315L313.525 180.99C313.595 181.02 313.645 180.998 313.675 180.925L340.255 113.135C340.345 112.905 340.277 112.742 340.05 112.645C287.473 89.8317 232.458 79.5467 175.005 81.79Z" fill="black"/>
</g>
<defs>
<clipPath id="clip0_6799_59091">
<rect width="380" height="213" fill="white"/>
</clipPath>
</defs>
</svg>
