<svg width="66" height="55" viewBox="0 0 66 55" fill="none" xmlns="http://www.w3.org/2000/svg">
<path d="M56.771 0.381548C57.5364 -0.23339 58.6024 -0.0483443 59.3413 0.533873C59.7795 0.847548 60.03 1.42074 60.5056 1.67348C61.1658 2.05711 61.9696 1.86756 62.6131 2.30083C63.1594 2.70365 63.3294 3.49122 63.4168 4.18401C63.4925 4.65001 63.3991 5.19274 63.6929 5.57863C64.2107 6.2669 65.0665 6.52529 65.485 7.32866C65.8535 8.00904 65.7267 8.87221 65.4732 9.57403C65.0311 10.7701 64.2932 11.8397 63.3421 12.5528C62.8499 12.9274 62.2329 13.1012 61.6571 12.9003C61.2454 11.1864 60.6058 9.43638 59.3973 8.26179C58.8137 7.67054 57.9844 7.38621 57.2308 7.68296C56.8702 6.16761 56.2709 4.62293 55.141 3.66498C54.8079 3.36485 54.4178 3.17303 54.0356 2.97557C53.8008 2.86387 53.9089 2.49265 54.0523 2.3392C54.8177 1.44669 55.9634 1.20748 56.771 0.381548Z" fill="black"/>
<path d="M53.2389 3.67372C53.7508 3.47288 54.299 3.70757 54.7205 4.05058C55.4289 4.64521 55.9379 5.52869 56.1845 6.49228C56.3378 7.14107 56.38 7.88012 56.0921 8.49055C55.8583 8.79068 55.5586 9.01183 55.2983 9.28038C53.8952 10.6603 52.5875 12.1791 51.0547 13.3762C50.2471 13.999 49.3628 14.5147 48.4098 14.7652C46.6638 15.309 45.0466 16.2738 43.4627 17.2565C39.7576 19.6215 36.2549 22.378 32.8092 25.2067C29.7751 27.6653 26.9071 30.3767 24.0116 33.043C21.4207 35.4068 18.8258 37.7842 16.0128 39.7926C15.2602 40.2981 14.7513 41.1387 14.2394 41.924C13.5654 42.9869 12.9641 44.1164 12.1879 45.0879C11.8794 45.4376 11.5217 45.8167 11.0648 45.8416C10.6482 45.8393 10.3574 45.4252 10.1747 45.0416C9.94672 44.535 9.70502 44.0272 9.35425 43.6165C8.4405 42.4837 7.19072 41.8541 6.05001 41.0879C5.70219 40.842 5.32884 40.57 5.14903 40.13C4.99478 39.7317 5.18932 39.3063 5.41333 39.0039C5.93506 38.3055 6.62675 37.8203 7.29487 37.3317C12.235 33.8869 17.5849 31.2771 22.4199 27.6259C24.158 26.3362 25.7517 24.8129 27.4711 23.4894C30.7233 20.9112 34.1366 18.6195 37.5322 16.3031C39.1543 15.2244 40.7225 14.0351 42.3947 13.0591C44.3401 11.8936 46.3415 10.8375 48.1887 9.46994C49.7686 8.29986 51.2797 6.86011 52.166 4.91826C52.3978 4.39359 52.728 3.86215 53.2389 3.67372Z" fill="#8F1402"/>
<path d="M57.133 8.47342C57.5034 8.1699 57.9779 8.03788 58.4279 8.13492C58.9546 8.26129 59.3849 8.68216 59.716 9.15154C60.3537 10.0824 60.7005 11.2186 60.9648 12.3492C61.126 13.0612 61.4011 13.7799 61.3126 14.5291C61.2124 15.1091 60.6308 15.2738 60.1886 15.2784C59.0086 15.2727 57.8296 15.0019 56.6476 15.152C55.3978 15.2761 54.2375 15.9181 53.2137 16.7215C49.9831 19.2298 46.8646 21.9377 43.9258 24.8838C39.5998 29.0575 35.0487 32.9096 30.5212 36.7865C29.237 37.8776 27.9578 38.9778 26.6707 40.0666C23.6081 42.5681 19.8637 43.6423 16.7638 46.0715C15.8285 46.8208 14.9658 47.7245 14.3488 48.8348C14.1375 49.2106 13.831 49.5626 13.4301 49.6314C12.4771 49.7781 11.4513 48.8032 11.5967 47.6535C11.6812 47.1863 11.7284 46.6763 11.4297 46.2904C11.8178 46.2679 12.1145 45.9508 12.3729 45.6507C12.8268 45.0865 13.213 44.4501 13.5058 43.7596C13.9803 43.8544 14.4225 43.5881 14.8518 43.3963C16.3531 42.6335 17.7729 41.6767 19.1877 40.7255C20.8109 39.6017 22.433 38.4711 23.9569 37.1747C25.6508 35.7575 27.3064 34.2749 28.8705 32.6715C30.419 31.1009 31.8398 29.3746 33.3705 27.7825C34.6694 26.3992 36.0931 25.1862 37.4451 23.8751C39.1724 22.2255 40.8623 20.5251 42.5021 18.7626C42.8686 18.3215 43.3471 18.045 43.801 17.7438C44.762 17.1288 45.7415 16.5466 46.7634 16.0761C47.2379 15.8391 47.7793 15.926 48.2499 15.6699C49.8072 14.9376 51.1651 13.7664 52.5524 12.6945C54.1815 11.4341 55.4971 9.72247 57.133 8.47342Z" fill="#8F1402"/>
<path d="M0.224024 40.26C0.362561 39.9192 0.730026 40.0355 0.957973 40.1742C1.54258 40.515 2.14093 40.9077 2.81593 40.9178C3.42706 40.9675 3.85054 40.2814 4.46069 40.2995C4.95391 40.5646 5.29485 41.0735 5.70751 41.4628C6.37367 42.1725 7.37486 42.2492 8.00565 43.0199C8.27584 43.2941 8.34266 43.7104 8.46449 44.0794C8.61482 44.3321 8.80935 44.6469 9.10804 44.6379C9.48435 44.6232 9.73883 44.9843 9.96481 45.2777C10.3824 45.8655 10.74 46.5121 11.025 47.1969C11.2244 47.6517 11.0132 48.1617 11.1026 48.6367C11.2922 49.3803 11.9171 49.8948 11.9947 50.688C12.0301 51.4711 11.4583 52.0533 10.9454 52.4595C10.4993 52.8239 9.98053 52.3263 9.50007 52.4741C8.94003 53.1071 8.80248 54.0628 8.32792 54.7658C8.04397 55.0546 7.61951 54.9361 7.27759 54.8944C6.58884 54.715 5.85489 54.434 5.38524 53.7954C5.1514 53.502 5.36265 53.1421 5.48546 52.8566C5.6633 52.482 5.72618 52.0465 5.67509 51.6245C5.36952 51.8592 5.24474 52.3421 4.87138 52.464C4.41844 52.5813 4.04016 52.1232 3.88984 51.6809C3.74344 51.2612 4.02346 50.8922 4.13842 50.5176C4.19344 50.4003 4.09027 50.2513 3.99005 50.2288C3.59016 50.1791 3.1775 50.2694 2.78744 50.1329C2.53297 50.0516 2.32761 49.7537 2.3679 49.4457C2.46222 48.9955 2.74421 48.578 2.66855 48.0962C2.63122 47.9134 2.51921 47.6596 2.32467 47.6957C1.98471 47.7645 1.60055 47.9631 1.27926 47.7171C0.929479 47.417 0.901968 46.8472 0.959937 46.3936C1.17118 45.8588 1.73908 45.6094 1.89825 45.0317C1.93657 44.8884 1.93461 44.63 1.74694 44.6571C1.38439 44.815 0.905898 45.1693 0.566926 44.7744C0.218128 44.2396 0.279044 43.5231 0.172931 42.898C0.05601 42.036 -0.1739 41.0713 0.224024 40.26Z" fill="black"/>
</svg>
