<svg width="67" height="55" viewBox="0 0 67 55" fill="none" xmlns="http://www.w3.org/2000/svg">
<path d="M9.65869 0.381548C8.8933 -0.23339 7.82726 -0.0483443 7.08839 0.533873C6.65019 0.847548 6.39964 1.42074 5.9241 1.67348C5.26384 2.05711 4.46013 1.86756 3.81658 2.30083C3.27029 2.70365 3.10031 3.49122 3.01287 4.18401C2.93721 4.65001 3.03056 5.19274 2.73678 5.57863C2.21899 6.2669 1.36321 6.52529 0.944649 7.32866C0.576201 8.00904 0.702947 8.87221 0.956439 9.57403C1.39858 10.7701 2.13646 11.8397 3.08754 12.5528C3.57979 12.9274 4.19682 13.1012 4.77258 12.9003C5.18426 11.1864 5.82389 9.43638 7.0324 8.26179C7.61602 7.67054 8.44527 7.38621 9.19887 7.68296C9.55946 6.16761 10.1588 4.62293 11.2887 3.66498C11.6218 3.36485 12.0118 3.17303 12.394 2.97557C12.6289 2.86387 12.5208 2.49265 12.3773 2.3392C11.612 1.44669 10.4663 1.20748 9.65869 0.381548Z" fill="black"/>
<path d="M13.1908 3.67372C12.6789 3.47288 12.1307 3.70757 11.7091 4.05058C11.0007 4.64521 10.4918 5.52869 10.2452 6.49228C10.0919 7.14107 10.0497 7.88012 10.3375 8.49055C10.5714 8.79068 10.8711 9.01183 11.1314 9.28038C12.5345 10.6603 13.8422 12.1791 15.375 13.3762C16.1826 13.999 17.0669 14.5147 18.0199 14.7652C19.7659 15.309 21.3831 16.2738 22.967 17.2565C26.6721 19.6215 30.1748 22.378 33.6205 25.2067C36.6546 27.6653 39.5226 30.3767 42.4181 33.043C45.009 35.4068 47.6039 37.7842 50.4168 39.7926C51.1695 40.2981 51.6784 41.1387 52.1903 41.924C52.8643 42.9869 53.4656 44.1164 54.2418 45.0879C54.5503 45.4376 54.908 45.8167 55.3649 45.8416C55.7814 45.8393 56.0723 45.4252 56.255 45.0416C56.483 44.535 56.7247 44.0272 57.0754 43.6165C57.9892 42.4837 59.239 41.8541 60.3797 41.0879C60.7275 40.842 61.1009 40.57 61.2807 40.13C61.4349 39.7317 61.2404 39.3063 61.0164 39.0039C60.4946 38.3055 59.8029 37.8203 59.1348 37.3317C54.1947 33.8869 48.8448 31.2771 44.0098 27.6259C42.2717 26.3362 40.678 24.8129 38.9586 23.4894C35.7064 20.9112 32.2931 18.6195 28.8975 16.3031C27.2753 15.2244 25.7072 14.0351 24.035 13.0591C22.0896 11.8936 20.0882 10.8375 18.241 9.46994C16.6611 8.29986 15.15 6.86011 14.2637 4.91826C14.0318 4.39359 13.7017 3.86215 13.1908 3.67372Z" fill="#8F1402"/>
<path d="M9.29671 8.47342C8.9263 8.1699 8.45174 8.03788 8.00174 8.13492C7.47511 8.26129 7.04476 8.68216 6.71365 9.15154C6.07599 10.0824 5.72915 11.2186 5.46485 12.3492C5.30372 13.0612 5.02861 13.7799 5.11704 14.5291C5.21726 15.1091 5.79891 15.2738 6.24105 15.2784C7.42107 15.2727 8.6001 15.0019 9.78208 15.152C11.0319 15.2761 12.1922 15.9181 13.216 16.7215C16.4466 19.2298 19.5651 21.9377 22.5039 24.8838C26.8299 29.0575 31.381 32.9096 35.9085 36.7865C37.1927 37.8776 38.4719 38.9778 39.759 40.0666C42.8216 42.5681 46.566 43.6423 49.6659 46.0715C50.6012 46.8208 51.4639 47.7245 52.0809 48.8348C52.2921 49.2106 52.5987 49.5626 52.9996 49.6314C53.9526 49.7781 54.9784 48.8032 54.833 47.6535C54.7485 47.1863 54.7013 46.6763 55 46.2904C54.6119 46.2679 54.3152 45.9508 54.0568 45.6507C53.6028 45.0865 53.2167 44.4501 52.9239 43.7596C52.4494 43.8544 52.0072 43.5881 51.5779 43.3963C50.0765 42.6335 48.6568 41.6767 47.242 40.7255C45.6188 39.6017 43.9967 38.4711 42.4728 37.1747C40.7789 35.7575 39.1233 34.2749 37.5591 32.6715C36.0107 31.1009 34.5899 29.3746 33.0592 27.7825C31.7603 26.3992 30.3366 25.1862 28.9846 23.8751C27.2573 22.2255 25.5674 20.5251 23.9275 18.7626C23.5611 18.3215 23.0826 18.045 22.6286 17.7438C21.6677 17.1288 20.6881 16.5466 19.6663 16.0761C19.1918 15.8391 18.6504 15.926 18.1797 15.6699C16.6224 14.9376 15.2646 13.7664 13.8773 12.6945C12.2482 11.4341 10.9326 9.72247 9.29671 8.47342Z" fill="#8F1402"/>
<path d="M66.2057 40.26C66.0671 39.9192 65.6997 40.0355 65.4717 40.1742C64.8871 40.515 64.2888 40.9077 63.6138 40.9178C63.0026 40.9675 62.5792 40.2814 61.969 40.2995C61.4758 40.5646 61.1348 41.0735 60.7222 41.4628C60.056 42.1725 59.0548 42.2492 58.424 43.0199C58.1538 43.2941 58.087 43.7104 57.9652 44.0794C57.8149 44.3321 57.6203 44.6469 57.3216 44.6379C56.9453 44.6232 56.6909 44.9843 56.4649 45.2777C56.0473 45.8655 55.6897 46.5121 55.4047 47.1969C55.2053 47.6517 55.4165 48.1617 55.3271 48.6367C55.1375 49.3803 54.5126 49.8948 54.435 50.688C54.3996 51.4711 54.9714 52.0533 55.4843 52.4595C55.9304 52.8239 56.4492 52.3263 56.9296 52.4741C57.4897 53.1071 57.6272 54.0628 58.1018 54.7658C58.3857 55.0546 58.8102 54.9361 59.1521 54.8944C59.8408 54.715 60.5748 54.434 61.0444 53.7954C61.2783 53.502 61.067 53.1421 60.9442 52.8566C60.7664 52.482 60.7035 52.0465 60.7546 51.6245C61.0602 51.8592 61.1849 52.3421 61.5583 52.464C62.0113 52.5813 62.3895 52.1232 62.5399 51.6809C62.6862 51.2612 62.4062 50.8922 62.2913 50.5176C62.2362 50.4003 62.3394 50.2513 62.4396 50.2288C62.8395 50.1791 63.2522 50.2694 63.6422 50.1329C63.8967 50.0516 64.1021 49.7537 64.0618 49.4457C63.9675 48.9955 63.6855 48.578 63.7611 48.0962C63.7985 47.9134 63.9105 47.6596 64.105 47.6957C64.445 47.7645 64.8291 47.9631 65.1504 47.7171C65.5002 47.417 65.5277 46.8472 65.4698 46.3936C65.2585 45.8588 64.6906 45.6094 64.5314 45.0317C64.4931 44.8884 64.4951 44.63 64.6827 44.6571C65.0453 44.815 65.5238 45.1693 65.8628 44.7744C66.2116 44.2396 66.1506 43.5231 66.2568 42.898C66.3737 42.036 66.6036 41.0713 66.2057 40.26Z" fill="black"/>
</svg>
