<svg width="600" height="365" viewBox="0 0 600 365" fill="none" xmlns="http://www.w3.org/2000/svg">
<g clip-path="url(#clip0_6799_59085)">
<path d="M600 138.865V139.24V191.958V364.583H581.182C581.198 275.911 581.307 187.24 580.953 98.5677C580.901 85.5886 580.686 72.6111 580.307 59.6355C580.182 55.2292 580.057 50.9271 578.323 46.7969C573.547 35.4323 563.516 26.2448 552.109 21.8334C546.552 19.6875 541.542 19.9063 534.766 19.7657C510.766 19.2587 486.764 19.007 462.76 19.0105C346.312 19.0365 229.859 18.8282 113.411 19.2292C94.7448 19.2952 76.0816 19.5955 57.4219 20.1302C54.7101 20.2101 52.9722 20.3542 52.2083 20.5625C37.1198 24.6875 25.5573 35.3542 20.4792 50.2188C19.6667 52.5973 19.2361 54.7379 19.1875 56.6407C18.941 66.0504 18.7639 80.0261 18.6562 98.5677C18.1406 187.234 18.1875 275.911 18.224 364.583H0V139.307C0.142361 124.123 0.251736 108.938 0.328125 93.75C0.395833 80.1355 0.197917 65.8959 1.29687 52.7344C1.43229 51.0573 1.91667 49.1407 2.53646 47.4063C10.7187 24.4427 29.7031 6.48962 53.776 1.29692C55.2378 0.980943 57.3646 0.817749 60.1562 0.807332C78.1701 0.730943 96.1823 0.685805 114.193 0.671916C249.741 0.588582 385.273 0.590318 520.786 0.677124C524.904 0.677124 529.023 0.64761 533.141 0.588582C533.828 0.578166 537.941 0.630249 545.479 0.744832C546.601 0.762193 547.675 0.958374 548.703 1.33337C553.106 2.93407 557.441 4.69969 561.708 6.63025C579.151 14.5209 592.609 31.3021 598.141 49.6094C598.523 50.8733 598.828 53.4341 599.057 57.2917C599.182 59.4028 599.293 64.2205 599.391 71.7448C599.689 94.1164 599.892 116.49 600 138.865Z" fill="black"/>
<path d="M562.854 364.583H544.089C544.052 322.573 544.339 292.141 543.396 258.859C542.953 243.094 533.745 229.156 520.734 220.714C513.141 215.783 504.799 213.194 495.708 212.948C490.785 212.816 486.53 213.028 482.943 213.583C460.115 217.12 443.365 236.078 441.151 258.854C440.802 262.484 440.906 267.073 440.401 270.651C437.089 294.318 419.276 315.677 396.188 322.771C393.844 323.49 391.141 323.974 388.078 324.224C379.755 324.901 371.365 324.969 363.021 325.12C318.229 325.915 273.438 325.873 228.646 324.995C224.566 324.915 219.627 324.703 213.828 324.359C210.405 324.154 207.547 323.748 205.255 323.141C200.182 321.8 195.384 319.738 190.859 316.953C172.594 305.714 159.927 286.818 159.141 265.073C159.012 261.483 158.948 259.684 158.948 259.677C158.153 249.889 154.958 241.236 149.365 233.719C138.868 219.618 124.495 212.715 106.245 213.01C90.0782 213.271 74.5782 220.495 65.1615 233.771C63.448 236.187 61.974 239.135 60.5105 241.901C58.9584 244.832 57.9341 248.529 57.4376 252.995C56.7292 259.356 56.3143 267.906 56.1928 278.646C55.8733 307.292 55.7414 335.937 55.797 364.583H37.1355C37.0417 337.753 37.1147 310.924 37.3542 284.094C37.4376 274.427 37.7501 265.45 38.2917 257.161C38.724 250.5 39.8751 243.906 42.8282 237.661C60.9636 199.276 108.188 180.198 145.349 206.474C162.537 218.62 174.5 236.292 177.385 257.307C177.875 260.859 177.714 265.479 178.13 268.88C179.094 276.63 181.287 284.229 186.005 290.167C190.109 295.323 195.807 300.5 202.057 303.208C204.106 304.097 206.695 304.766 209.823 305.214C215.828 306.068 221.943 306.214 227.995 306.318C272.901 307.104 317.849 306.786 362.76 306.609C370.066 306.582 377.366 306.385 384.662 306.021C390.453 305.733 395.773 304.366 400.62 301.922C403.807 300.318 406.318 297.995 409.229 295.214C413.146 291.474 416.729 287.427 418.609 282.281C420.432 277.288 421.537 272.125 421.922 266.792C422.033 265.26 422.141 263.729 422.245 262.198C422.87 252.979 425.563 243.443 429.26 235.13C430.469 232.408 432.078 229.71 434.089 227.036C439.745 219.505 446.734 212.146 454.208 206.641C462.542 200.505 472.458 197.099 482.693 195.115C489.908 193.715 497.24 193.865 504.688 195.562C514.943 197.906 524.328 201.432 532.62 207.714C540.877 213.97 547.733 221.464 553.188 230.193C554.599 232.458 555.927 235.328 557.24 237.927C561.005 245.391 561.656 254.078 562.026 262.286C562.293 268.127 562.462 273.97 562.531 279.818C562.872 308.071 562.979 336.326 562.854 364.583Z" fill="black"/>
</g>
<defs>
<clipPath id="clip0_6799_59085">
<rect width="600" height="364.583" fill="white"/>
</clipPath>
</defs>
</svg>
