<svg width="216" height="227" viewBox="0 0 216 227" fill="none" xmlns="http://www.w3.org/2000/svg">
<g clip-path="url(#clip0_5757_59055)">
<path d="M216 66.0502V80.5602C214.15 106.16 202.95 136.09 175.57 144.11C161.24 148.31 146.99 145.8 136.17 135.32C119.34 119.02 125.57 93.0902 146.08 83.6902C146.467 83.5169 146.52 83.2669 146.24 82.9402C144.94 81.4336 144.033 79.7136 143.52 77.7802C143.42 77.4202 143.183 77.2336 142.81 77.2202C133.93 76.9069 127.443 80.1869 123.35 87.0602C120.74 91.4302 119.24 98.7002 119.24 103.76C119.24 114.127 119.247 124.537 119.26 134.99C119.26 135.337 119.427 135.547 119.76 135.62C135.73 139.36 150.72 151.81 152.52 168.75C154.38 186.24 143.25 200.99 127.25 207.26C126.917 207.394 126.75 207.637 126.75 207.99V222.52C126.75 223.013 126.652 223.502 126.462 223.957C126.272 224.412 125.994 224.825 125.643 225.172C125.293 225.519 124.877 225.793 124.42 225.978C123.963 226.163 123.473 226.256 122.98 226.25L122.05 226.24C121.273 226.235 120.529 225.926 119.977 225.379C119.424 224.831 119.106 224.089 119.09 223.31C118.977 217.077 118.947 211.067 119 205.28C119.02 203.35 119.71 201.7 121.5 201.05C125.62 199.564 129.047 197.897 131.78 196.05C149.89 183.87 149.13 160.47 130.97 148.8C113.29 137.44 85.02 140.42 74.19 160.58C64.44 178.74 77.48 195.17 94.63 201.14C95.322 201.379 95.9221 201.828 96.3469 202.423C96.7717 203.018 97 203.73 97 204.46V222.52C97 223.013 96.9022 223.502 96.7123 223.957C96.5223 224.412 96.244 224.825 95.8934 225.172C95.5428 225.519 95.1269 225.793 94.6697 225.978C94.2125 226.163 93.7232 226.256 93.23 226.25H92.24C91.4469 226.242 90.689 225.922 90.131 225.358C89.573 224.794 89.26 224.033 89.26 223.24L89.25 208.25C89.25 207.944 89.1233 207.704 88.87 207.53C87.9033 206.864 86.89 206.284 85.83 205.79C69.68 198.31 59.4 181.35 64.55 163.53C68.73 149.08 81.7 139.03 96.26 135.63C96.5933 135.55 96.76 135.34 96.76 135C96.7533 124.247 96.73 113.497 96.69 102.75C96.64 90.7502 92.16 80.7202 79.68 77.9802C78.15 77.6402 75.84 77.5902 73.89 77.0002C73.7476 76.9561 73.5977 76.9411 73.4493 76.9561C73.3009 76.9712 73.1571 77.016 73.0265 77.0879C72.8958 77.1597 72.7809 77.2572 72.6888 77.3744C72.5966 77.4917 72.529 77.6263 72.49 77.7702C71.9633 79.7036 71.0567 81.4202 69.77 82.9202C69.51 83.2336 69.5633 83.4736 69.93 83.6402C82.67 89.6302 90.32 101.62 89.5 115.72C89.3067 119.087 88.6333 122.004 87.48 124.47C81 138.38 67.05 146.66 51.63 146.03C25.09 144.93 7.92 121.98 2.6 97.9902C1.32667 92.2302 0.46 86.3802 0 80.4402V65.7202C0.473333 60.8869 0.986667 56.8169 1.54 53.5102C5.95 26.7902 24.28 0.120222 53.99 0.300222C68.93 0.380222 84.71 10.7802 88.51 25.6302C92.45 40.9802 84.44 55.8302 70.16 62.6702C69.84 62.8169 69.7633 63.0469 69.93 63.3602L72.73 68.6202C72.8767 68.8869 73.1 69.0402 73.4 69.0802C75.54 69.3936 77.6567 69.7402 79.75 70.1202C95.64 73.0002 103.97 84.5002 104.17 100.5C104.317 111.68 104.38 122.857 104.36 134.03C104.36 134.27 104.48 134.39 104.72 134.39L111.27 134.38C111.365 134.38 111.457 134.343 111.525 134.278C111.592 134.212 111.63 134.123 111.63 134.03C111.617 123.79 111.62 113.53 111.64 103.25C111.647 98.2502 112.707 93.0002 114.82 87.5002C119.89 74.3202 129.27 70.1802 142.78 69.0402C143.14 69.0069 143.377 68.8202 143.49 68.4802C144.11 66.6069 145.03 64.8836 146.25 63.3102C146.463 63.0302 146.41 62.8236 146.09 62.6902C132.02 56.7202 123.24 40.4802 127.43 25.4102C132.21 8.22022 151.11 -1.65978 168.02 0.650222C196.62 4.55022 211.98 31.7802 215.1 58.0102C215.413 60.6769 215.713 63.3569 216 66.0502ZM47.24 61.5602C47.2667 59.2936 48.4067 58.0436 50.66 57.8102C55.35 57.3402 60.86 57.3302 64.94 56.0902C70.34 54.4502 74.5067 51.3969 77.44 46.9302C86.86 32.5802 80.26 17.6102 65.95 10.9802C59.4633 7.96689 52.3167 7.46022 44.51 9.46022C23.09 14.9602 11.99 35.9702 8.94 56.3102C7.8 63.9036 7.47 72.1302 7.95 80.9902C9.28 105.62 21.31 133.56 48.25 137.74C57.2233 139.134 65.2333 137.064 72.28 131.53C80.29 125.24 84.12 115.29 80.68 106.01C76.4933 94.6836 68.2467 89.0702 55.94 89.1702C55.4067 89.1769 54.7833 89.1002 54.07 88.9402C52.37 88.5602 50.8 88.9902 49.38 88.3102C45.97 86.6602 46.9 80.8502 50.45 80.8702C55.43 80.9002 61.78 82.0702 64.64 76.7202C66.95 72.4002 64.58 67.3902 60.02 65.9902C57.45 65.2002 53.69 65.6402 50.63 65.4902C48.3433 65.3769 47.2133 64.1736 47.24 61.8802V61.5602ZM168.76 85.3702C168.763 86.1421 168.483 86.8882 167.972 87.4671C167.462 88.0459 166.756 88.4171 165.99 88.5102C161.17 89.1102 155.8 89.0702 151.97 90.1302C143.97 92.3436 138.49 97.5669 135.53 105.8C129.66 122.13 144.05 136.53 159.21 137.98C168.23 138.84 178.85 135.87 185.9 130.15C203.62 115.78 208.76 92.5802 208.33 70.8702C207.9 49.8702 201.8 26.7002 183 14.5602C175.927 9.99356 168.68 7.87689 161.26 8.21022C145.13 8.94022 129.33 23.6702 135.45 40.7402C137.797 47.3002 141.98 52.0202 148 54.9002C153 57.3002 159.17 57.4102 165.07 57.6802C167.49 57.7936 168.717 59.0636 168.75 61.4902L168.77 62.3402C168.779 63.0831 168.51 63.8026 168.016 64.3576C167.522 64.9125 166.839 65.263 166.1 65.3402C162.18 65.7402 155.91 64.6102 152.89 67.6502C149.24 71.3302 149.72 76.8702 154.17 79.6902C157.1 81.5502 161.64 80.8402 165.12 80.9302C167.533 80.9902 168.747 82.2269 168.76 84.6402V85.3702Z" fill="#383838"/>
</g>
<defs>
<clipPath id="clip0_5757_59055">
<rect width="216" height="227" fill="white"/>
</clipPath>
</defs>
</svg>
