<svg width="232" height="324" viewBox="0 0 232 324" fill="none" xmlns="http://www.w3.org/2000/svg">
<path d="M232 230.01V247.22C231.187 259.88 229.107 272.227 225.76 284.26C221.26 300.45 211.36 317.71 194.04 321.79C185.89 323.71 177.6 321.97 170.32 318.01C165.58 315.43 162.963 314.033 162.47 313.82C158.743 312.18 154.953 310.697 151.1 309.37C150.853 309.283 150.597 309.25 150.33 309.27C149.943 309.297 149.657 309.14 149.47 308.8C149.297 308.48 149.027 308.34 148.66 308.38C148.28 308.427 147.927 308.377 147.6 308.23C145.54 307.31 142.97 306.83 140.76 306.22C139.64 305.91 139.05 305.07 137.63 305.26C137.473 305.282 137.312 305.259 137.166 305.196C137.02 305.133 136.893 305.03 136.8 304.9C136.553 304.547 136.207 304.41 135.76 304.49C135.4 304.55 135.043 304.527 134.69 304.42C132.123 303.647 129.543 302.943 126.95 302.31C125.35 301.923 123.797 301.393 122.29 300.72C122.17 300.667 122.04 300.643 121.9 300.65C121.773 300.657 121.65 300.663 121.53 300.67C121.464 300.677 121.396 300.673 121.33 300.66L115.04 298.86C114.78 298.793 114.553 298.67 114.36 298.49C114.047 298.21 113.653 298.143 113.18 298.29C112.998 298.343 112.805 298.339 112.627 298.28C112.448 298.222 112.292 298.11 112.18 297.96C111.84 297.507 111.363 297.363 110.75 297.53C110.574 297.575 110.388 297.567 110.216 297.509C110.044 297.45 109.892 297.343 109.78 297.2C109.44 296.767 108.987 296.627 108.42 296.78C108.1 296.86 107.787 296.843 107.48 296.73L103.47 295.21C103.312 295.151 103.145 295.127 102.98 295.14C102.58 295.18 102.24 295.05 101.96 294.75C101.761 294.531 101.485 294.399 101.19 294.38C99.97 294.307 98.88 293.883 97.92 293.11C97.7258 292.955 97.4815 292.873 97.23 292.88C96.91 292.893 96.5933 292.823 96.28 292.67C94.4733 291.763 92.66 290.873 90.84 290C89.3 289.27 87.81 287.75 86.04 287.07C85.44 286.837 85.12 286.687 85.08 286.62C84.42 285.453 84.09 285.58 84.09 287L84.1 293.18C84.1 293.5 84.0067 293.787 83.82 294.04C83.1 295.03 83.2 296.24 82.72 297.2C81.7267 299.167 80.4333 300.913 78.84 302.44C78.6234 302.643 78.3583 302.788 78.07 302.86C76.98 303.12 76.47 304.02 75.74 304.41C68.2733 308.423 60.5033 309.203 52.43 306.75C50.39 306.12 47.64 304.35 46.37 303.14C42.82 299.73 40.84 292.71 42.76 287.99C42.88 287.677 42.9267 287.353 42.9 287.02C42.66 284.6 43.35 281.71 43.44 280.08C43.8 273.887 44.1767 267.693 44.57 261.5C44.6167 260.753 44.7133 260.197 44.86 259.83C44.9733 259.523 45.0367 259.207 45.05 258.88C45.17 255.567 45.1667 252.25 45.04 248.93C44.92 245.86 41.95 242.64 40.67 240.46C38.51 236.79 36.19 233.14 34.41 229.35C32.3567 224.963 30.4 220.53 28.54 216.05C28.01 214.8 28 213.48 27.39 212.15C26.28 209.75 25.49 206.79 24.87 204.26C22.2233 193.513 21.79 182.647 23.57 171.66C23.5833 171.587 23.6133 171.523 23.66 171.47L23.93 171.17C24.0833 170.997 24.15 170.793 24.13 170.56C24.0167 169.307 24.2533 168.12 24.84 167C24.9749 166.743 25.0036 166.442 24.92 166.16C24.8 165.747 24.8967 165.423 25.21 165.19C25.45 165.01 25.61 164.773 25.69 164.48C26.1567 162.793 25.6067 161.677 24.04 161.13C23.74 161.03 23.4633 160.887 23.21 160.7C22.3167 160.027 21.33 159.527 20.25 159.2C18.89 158.78 17.49 159.32 16 158.41C15.6933 158.223 15.3633 158.13 15.01 158.13L10.48 158.11C10.12 158.103 9.80333 157.987 9.53 157.76C9.13667 157.44 8.68 157.333 8.16 157.44C7.98927 157.477 7.81224 157.469 7.64588 157.419C7.47953 157.368 7.32944 157.275 7.21 157.15C5.93 155.79 4.38 155.4 3.34 153.91C2.54667 152.763 1.77 151.603 1.01 150.43C0.834389 150.157 0.747106 149.836 0.76 149.51C0.806667 148.397 0.553333 147.453 0 146.68V142.3C1.03 137.72 4.4 131.85 9.46 130.14C14.42 128.47 19.76 129.38 24.77 129.39C25.11 129.39 25.4133 129.497 25.68 129.71C26.28 130.177 26.9633 130.307 27.73 130.1C28.0575 130.01 28.4111 130.049 28.72 130.21C29.6 130.67 30.5333 130.917 31.52 130.95C31.9067 130.963 32.2433 131.103 32.53 131.37C32.87 131.697 33.28 131.827 33.76 131.76C34.0733 131.713 34.3533 131.787 34.6 131.98C34.88 132.187 35.2633 132.367 35.75 132.52C38.0033 133.233 40.22 134.457 42.4 136.19C42.7 136.43 42.8567 136.36 42.87 135.98L42.93 134.12C42.9366 133.924 42.9992 133.736 43.11 133.58C43.63 132.88 43.79 132.12 43.59 131.3C43.5532 131.146 43.555 130.986 43.5951 130.835C43.6353 130.683 43.7126 130.544 43.82 130.43C44.4133 129.797 44.58 129.067 44.32 128.24C44.2 127.873 44.2833 127.56 44.57 127.3C45.1633 126.78 45.3267 126.127 45.06 125.34C44.94 124.987 44.9733 124.647 45.16 124.32C45.8 123.213 46.0367 122.03 45.87 120.77C45.8233 120.417 45.8833 120.08 46.05 119.76C46.79 118.36 47.0133 116.84 46.72 115.2C46.6883 115.013 46.596 114.842 46.4571 114.712C46.3181 114.582 46.1401 114.501 45.95 114.48C44.9567 114.373 43.9733 114.41 43 114.59C36.52 115.77 29.9867 116.287 23.4 116.14C22.48 116.12 21.5667 115.95 20.66 115.63C19.38 115.18 18.33 114.94 17.22 114.12C14.06 111.78 11.8067 108.743 10.46 105.01C9.97 103.66 10.2 102.4 9.79 101.03C9.37667 99.6499 9.23667 98.2332 9.37 96.7799C9.39 96.5332 9.47333 96.3032 9.62 96.0899C9.68667 95.9899 9.75333 95.8899 9.82 95.7899C9.9573 95.5869 10.0368 95.3518 10.05 95.1099C10.2833 91.6966 11.56 89.0232 13.88 87.0899C15.3667 85.8499 17.9367 84.8865 21.59 84.1999C27.8833 83.0199 34.1967 81.9799 40.53 81.0799C41.74 80.9099 42.93 79.9199 44.53 80.2899C44.7021 80.3274 44.8809 80.3263 45.0537 80.2865C45.2265 80.2468 45.3891 80.1694 45.53 80.0599C46.29 79.4732 47.18 79.3032 48.2 79.5499C48.3964 79.5963 48.6008 79.5984 48.798 79.5561C48.9952 79.5138 49.1803 79.428 49.3395 79.3052C49.4988 79.1824 49.6283 79.0256 49.7183 78.8465C49.8084 78.6673 49.8568 78.4703 49.86 78.2699C49.8933 76.4699 49.9033 74.7166 49.89 73.0099C49.87 70.1399 50.69 66.9999 50.65 63.8399C50.6233 62.1732 50.88 60.8366 51.42 59.8299C53.5133 55.9499 56.6933 53.2765 60.96 51.8099C61.91 51.4899 64.79 50.8799 66 50.7999C74.58 50.2199 82.3 53.5599 84.65 61.9899C84.6805 62.099 84.7378 62.1987 84.8167 62.2802C84.8956 62.3616 84.9937 62.4223 85.1024 62.4569C85.2112 62.4915 85.3271 62.4989 85.44 62.4785C85.553 62.4581 85.6594 62.4105 85.75 62.3399L94.99 54.9399C95.1568 54.805 95.2748 54.6199 95.3255 54.4136C95.3762 54.2073 95.3567 53.9915 95.27 53.7999C94.2367 51.4665 93.26 49.2499 92.34 47.1499C91.77 45.8299 91.64 44.0699 90.53 42.6599C90.3356 42.4069 90.2301 42.0976 90.23 41.7799C90.23 41.2999 90.06 40.8832 89.72 40.5299C89.5976 40.4018 89.5102 40.2444 89.4664 40.0727C89.4226 39.901 89.4239 39.7209 89.47 39.5499C89.6033 39.0432 89.5 38.6299 89.16 38.3099C88.9067 38.0765 88.7767 37.7899 88.77 37.4499C88.7633 37.2965 88.76 37.1465 88.76 36.9999C88.76 36.8199 88.7233 36.6499 88.65 36.4899C87.49 34.0166 87.0067 31.4166 87.2 28.6899C87.35 26.5599 88.33 25.3299 89.14 23.3399C90.5 20.0199 95.67 17.0399 98.86 15.7799C99.1533 15.6665 99.4 15.4865 99.6 15.2399C99.9333 14.8132 100.393 14.7265 100.98 14.9799C101.113 15.0386 101.264 15.0478 101.405 15.0057C101.545 14.9637 101.668 14.8731 101.75 14.7499C102.09 14.2365 102.58 14.0032 103.22 14.0499C103.547 14.0765 103.85 13.9999 104.13 13.8199C105.15 13.1799 106.8 13.6699 107.44 12.9999C107.544 12.889 107.671 12.8 107.812 12.7382C107.952 12.6763 108.105 12.6429 108.26 12.6399L114.53 12.6199C114.89 12.6132 115.2 12.7365 115.46 12.9899C115.873 13.3765 116.363 13.4832 116.93 13.3099C117.25 13.2165 117.56 13.2499 117.86 13.4099L121.26 15.2699C121.54 15.4232 121.747 15.3565 121.88 15.0699C122.027 14.7632 122.227 14.5065 122.48 14.2999C122.753 14.0732 122.92 13.7865 122.98 13.4399C123.56 10.1499 125.62 6.91988 128.82 5.63988C129.04 5.54655 129.233 5.41655 129.4 5.24988C129.627 5.02322 129.897 4.86988 130.21 4.78988C132.4 4.24988 134.65 3.39988 136.85 3.30988C141.63 3.11988 146.42 3.06988 150.9 5.07988C157.33 7.95988 161.5 14.5699 160.26 21.4999C159.673 24.7599 157.723 32.4965 154.41 44.7099C154.12 45.7899 154.17 46.9699 153.42 48.2299C153.264 48.4879 153.215 48.7972 153.284 49.0921C153.353 49.3871 153.535 49.6446 153.79 49.8099C154.99 50.5899 156.5 50.9799 157.69 51.7299C164.18 55.8599 171.17 61.9299 174.28 69.1599C174.393 69.4266 174.59 69.5966 174.87 69.6699C175.17 69.7499 175.26 69.9499 175.14 70.2699C175.02 70.6165 175.057 70.9432 175.25 71.2499C176.337 73.0032 177.11 74.9032 177.57 76.9499C177.587 77.0287 177.622 77.1028 177.671 77.1668C177.72 77.2309 177.782 77.2834 177.854 77.3206C177.925 77.3578 178.004 77.3789 178.085 77.3822C178.165 77.3855 178.246 77.3711 178.32 77.3399C178.72 77.1665 179.053 76.9199 179.32 76.5999C179.427 76.4691 179.569 76.372 179.728 76.3205C179.888 76.2691 180.059 76.2653 180.22 76.3099C181.093 76.5565 181.877 76.3999 182.57 75.8399C182.863 75.6065 183.19 75.5332 183.55 75.6199C184.277 75.7999 184.893 75.6365 185.4 75.1299C185.64 74.8965 185.923 74.8032 186.25 74.8499C188.32 75.1099 189.8 73.8899 192.1 74.1599C192.447 74.1999 192.76 74.1166 193.04 73.9099C194.52 72.8199 197.31 73.2299 199.08 73.2499C203.93 73.2999 207.46 76.2099 209.23 80.6599C209.35 80.9599 209.393 81.2699 209.36 81.5899C209.327 82.0032 209.477 82.3566 209.81 82.6499C210.07 82.8766 210.207 83.1599 210.22 83.4999C210.327 85.7599 210.373 88.0066 210.36 90.2399C210.34 96.5899 207.27 103.63 200.25 104.19C195.26 104.59 190.32 105.25 185.34 105.79C181.967 106.15 178.78 107.053 175.78 108.5C175.706 108.534 175.642 108.588 175.596 108.655C175.55 108.722 175.522 108.801 175.516 108.882C175.51 108.964 175.525 109.045 175.561 109.119C175.597 109.192 175.652 109.255 175.72 109.3C178.47 111.14 182.92 115.58 186.34 114.81C196.52 112.51 204.073 110.903 209 109.99C212.46 109.35 216.12 110.25 218.83 112.6C222.33 115.61 225.46 120.75 225.81 125.47C225.837 125.763 225.943 126.023 226.13 126.25C226.197 126.323 226.26 126.4 226.32 126.48C226.373 126.547 226.407 126.63 226.42 126.73C226.86 130.47 226.43 133.837 225.13 136.83C222.94 141.86 219.27 142.73 213.61 143.79C209.997 144.47 206.463 145.437 203.01 146.69C202.71 146.797 202.533 147.01 202.48 147.33C202.02 150.39 202.187 153.407 202.98 156.38C203.073 156.727 203.27 157 203.57 157.2C206.34 159.03 211.44 162.5 212.68 165.58C212.807 165.893 213.013 166.14 213.3 166.32C214.53 167.07 214.87 168.41 215.45 169.27C221.71 178.42 225.42 189.76 227.84 200.5C230.02 210.213 231.407 220.05 232 230.01ZM136.62 44.5699L137.01 45.0199C137.15 45.1732 137.32 45.2499 137.52 45.2499H141.25C141.59 45.2499 141.76 45.0832 141.76 44.7499V43.2299C141.753 42.8965 141.843 42.5932 142.03 42.3199C142.41 41.7399 142.577 41.0999 142.53 40.3999C142.517 40.0665 142.58 39.7499 142.72 39.4499C143.34 38.1799 143.37 36.6399 143.68 35.5099C144.393 32.9365 145.05 30.3465 145.65 27.7399C145.67 27.6732 145.687 27.5099 145.7 27.2499C145.713 26.9832 145.817 26.7566 146.01 26.5699C146.048 26.5375 146.073 26.4948 146.08 26.4499L147.71 19.3299C147.809 18.8996 147.741 18.4475 147.517 18.0664C147.294 17.6852 146.934 17.4038 146.51 17.2799C145.57 16.9999 144.673 16.5765 143.82 16.0099C143.567 15.8365 143.287 15.7499 142.98 15.7499H137.48C136.859 15.7502 136.254 15.945 135.748 16.3071C135.242 16.6693 134.862 17.1807 134.66 17.7699L129.19 33.7799C129.07 34.1332 129.137 34.4466 129.39 34.7199C129.977 35.3466 130.167 36.1199 129.96 37.0399C129.873 37.4199 129.963 37.7532 130.23 38.0399C130.743 38.5865 130.907 39.2532 130.72 40.0399C130.677 40.2159 130.677 40.3998 130.721 40.5757C130.764 40.7516 130.85 40.9143 130.97 41.0499C131.583 41.7432 131.81 42.5599 131.65 43.4999C131.63 43.6218 131.636 43.7467 131.669 43.8658C131.702 43.985 131.76 44.0956 131.84 44.1898C131.92 44.2841 132.02 44.3597 132.132 44.4116C132.244 44.4634 132.366 44.4901 132.49 44.4899L136.46 44.4999C136.527 44.4999 136.58 44.5232 136.62 44.5699ZM105.13 43.9899C105.197 45.3299 105.63 46.5932 106.43 47.7799C106.643 48.0932 106.917 48.1699 107.25 48.0099C107.757 47.7632 108.293 47.6432 108.86 47.6499C109.207 47.6565 109.487 47.5232 109.7 47.2499C109.993 46.8632 110.387 46.7365 110.88 46.8699C111.26 46.9699 111.59 46.8865 111.87 46.6199L112.23 46.2899C112.503 46.0365 112.827 45.9366 113.2 45.9899C113.927 46.0899 114.587 45.9499 115.18 45.5699C115.48 45.3765 115.813 45.2732 116.18 45.2599L118.37 45.2099C118.737 45.1965 118.887 45.0099 118.82 44.6499L118.21 41.5599C118.15 41.2665 118.047 40.9932 117.9 40.7399C117.5 40.0732 117.343 39.2432 117.43 38.2499C117.457 37.9499 117.327 37.6799 117.04 37.4399C116.793 37.2332 116.693 36.9699 116.74 36.6499C116.88 35.7432 116.71 34.9099 116.23 34.1499C116.037 33.8432 115.963 33.5065 116.01 33.1399C116.097 32.4199 115.963 31.7466 115.61 31.1199C115.43 30.7999 115.323 30.4599 115.29 30.0999C115.163 28.6932 114.827 27.3266 114.28 25.9999C114.19 25.7737 114.02 25.5858 113.8 25.4699C111.07 24.0499 109.99 25.8699 107.69 25.7899C107.364 25.777 107.043 25.8643 106.77 26.0399C104.58 27.4199 102.18 27.6399 100.23 29.4899C99.4833 30.2032 99.4533 30.8332 100.14 31.3799C100.433 31.6199 100.53 31.9232 100.43 32.2899C100.27 32.8432 100.38 33.2632 100.76 33.5499C101.027 33.7499 101.183 34.0099 101.23 34.3299C101.69 37.1399 103.52 40.6599 104.58 43.3599C104.6 43.4065 104.633 43.4432 104.68 43.4699C104.76 43.5232 104.843 43.5765 104.93 43.6299C105.057 43.7165 105.123 43.8366 105.13 43.9899ZM124.62 67.9199C125.093 67.9866 125.54 67.9066 125.96 67.6799C126.233 67.5266 126.53 67.4632 126.85 67.4899C134.21 68.0199 140.82 71.8299 145.48 77.4999C146.79 79.0899 147.42 81.1499 148.56 82.9999C148.74 83.2999 148.81 83.6199 148.77 83.9599C148.663 84.9799 148.943 85.8832 149.61 86.6699C149.83 86.9232 150.097 86.9932 150.41 86.8799C150.89 86.7065 151.26 86.4166 151.52 86.0099C151.7 85.7299 151.953 85.6299 152.28 85.7099L152.78 85.8299C153.093 85.9032 153.373 85.8432 153.62 85.6499C155.01 84.5599 156.61 85.1399 158.19 83.6299C158.477 83.3565 158.817 83.2466 159.21 83.2999C159.737 83.3732 160.153 83.2166 160.46 82.8299C160.575 82.684 160.733 82.5801 160.911 82.5348C161.089 82.4895 161.275 82.5054 161.44 82.5799C162.073 82.8666 162.48 82.7699 162.66 82.2899C162.8 81.9099 163.063 81.7699 163.45 81.8699C164.31 82.0899 164.937 81.8466 165.33 81.1399C165.483 80.8799 165.51 80.6032 165.41 80.3099C163.79 75.5299 161.71 71.0199 157.84 67.8999C156.42 66.7499 155.17 65.0599 153.51 64.0599C150.32 62.1399 148.1 60.5699 144.74 60.1299C144.598 60.1108 144.461 60.062 144.337 59.9863C144.213 59.9106 144.105 59.8097 144.02 59.6899C143.673 59.2032 143.193 59.0532 142.58 59.2399C142.207 59.3599 141.92 59.2499 141.72 58.9099C141.473 58.4832 141.12 58.3532 140.66 58.5199C140.443 58.603 140.198 58.5958 139.98 58.4999L138.46 57.8199C138.173 57.6932 137.873 57.6565 137.56 57.7099C135.62 58.0199 134.37 57.0599 132.7 57.0299C129.12 56.9699 124.39 56.4999 120.96 57.3799C118.39 58.0399 116.08 58.2799 112.84 59.5499C102.25 63.7099 92.71 72.0899 86.33 81.3299C83.57 85.3399 85.53 88.2799 85.6 92.1799C85.7067 98.0466 86.4533 103.84 87.84 109.56C88.06 110.45 87.79 111.45 88.43 112.36C88.6126 112.627 88.7102 112.944 88.71 113.27C88.7367 114.757 89.18 116.007 90.04 117.02C90.58 117.653 91.67 118.26 93.31 118.84C95.6433 119.66 97.8667 120.793 99.98 122.24C100.297 122.459 100.686 122.549 101.069 122.492C101.451 122.434 101.798 122.233 102.04 121.93C104.207 119.177 106.337 116.247 108.43 113.14C109.08 112.18 109.75 110.67 110.64 109.58C113.46 106.16 114.98 101.27 116.57 98.8099C119.23 94.7099 122.79 91.7099 127.25 89.8099C127.563 89.6765 127.89 89.6232 128.23 89.6499C128.683 89.6832 129.04 89.5432 129.3 89.2299C129.5 88.9899 129.757 88.8699 130.07 88.8699L136.24 88.8999C136.373 88.8997 136.504 88.8657 136.621 88.8013C136.737 88.7368 136.836 88.644 136.906 88.5316C136.976 88.4193 137.016 88.2912 137.022 88.1596C137.028 88.028 137 87.8973 136.94 87.7799C135.067 84.1332 132.193 81.6499 128.32 80.3299C128.007 80.2232 127.687 80.2099 127.36 80.2899C126.853 80.4032 126.463 80.2866 126.19 79.9399C125.95 79.6466 125.643 79.5032 125.27 79.5099H124.78C124.43 79.5165 124.091 79.4034 123.82 79.1899C121.86 77.6499 120.797 76.1732 120.63 74.7599C120.25 71.5499 121.85 70.1599 123.83 68.1799C124.05 67.9599 124.313 67.8732 124.62 67.9199ZM75.74 113.94C74.25 105.91 72.83 99.5699 73.13 92.8399C73.1433 92.5132 73.0467 92.2199 72.84 91.9599C72.78 91.8866 72.7167 91.8166 72.65 91.7499C72.49 91.5899 72.41 91.3999 72.41 91.1799L72.34 66.2599C72.3333 64.2199 71.3067 63.2165 69.26 63.2499L66.31 63.2999C64.1367 63.3399 63.0333 64.4466 63 66.6199C62.94 70.5099 62.34 74.6099 62.29 78.4299C62.1967 86.2166 61.8033 93.9899 61.11 101.75C60.7 106.4 60.69 111.81 59.3 116.27C58.71 118.14 59.52 119.8 58.35 121.79C58.1367 122.157 58.12 122.45 58.3 122.67C58.3899 122.782 58.5025 122.874 58.6304 122.939C58.7583 123.005 58.8986 123.043 59.0421 123.05C59.1856 123.058 59.3291 123.035 59.4631 122.983C59.5972 122.931 59.7188 122.852 59.82 122.75C61.2 121.357 62.77 120.327 64.53 119.66C67.31 118.6 69.75 117.32 72.47 116.89C73.62 116.71 74.48 116.22 75.68 116.06C76.0667 116.007 76.27 115.783 76.29 115.39C76.2967 115.117 76.2167 114.87 76.05 114.65C75.89 114.437 75.7867 114.2 75.74 113.94ZM145.4 122.94C145.627 122.7 145.727 122.417 145.7 122.09C145.68 121.837 145.717 121.59 145.81 121.35C151.47 107.13 163.74 97.7499 178.5 94.2999C183.407 93.1532 189.493 92.2999 196.76 91.7399C197.065 91.7146 197.349 91.5757 197.555 91.3512C197.761 91.1267 197.873 90.8333 197.87 90.5299L197.83 86.7099C197.817 85.9566 197.44 85.6432 196.7 85.7699C187.507 87.3365 179.2 89.5832 171.78 92.5099C171.207 92.7366 170.747 92.8499 170.4 92.8499C170.14 92.8499 169.923 92.9432 169.75 93.1299C169.363 93.5232 168.87 93.6432 168.27 93.4899C167.963 93.4166 167.717 93.5066 167.53 93.7599L167.31 94.0699C167.223 94.1924 167.099 94.2843 166.955 94.3327C166.812 94.3812 166.656 94.3837 166.51 94.3399C165.977 94.1799 165.53 94.2765 165.17 94.6299C164.937 94.8565 164.667 95.0066 164.36 95.0799C162.44 95.5599 160.75 96.4699 158.85 96.9999C157.757 97.3066 156.703 97.7065 155.69 98.1999C153.99 99.0399 151.99 99.2999 150.33 100.57C150.29 100.597 150.25 100.607 150.21 100.6L149.8 100.54C149.62 100.513 149.447 100.543 149.28 100.63C147.367 101.623 145.387 102.487 143.34 103.22C139.37 104.63 137.77 101.39 134.33 101.32C130.76 101.25 127.91 103.73 126.46 106.85C124.633 110.777 122.2 115.143 119.16 119.95C117.927 121.903 116.8 123.397 115.78 124.43C115.533 124.683 115.373 124.983 115.3 125.33L115.21 125.74C115.137 126.08 114.95 126.343 114.65 126.53C113.71 127.13 112.94 127.937 112.34 128.95C112.241 129.118 112.182 129.307 112.169 129.502C112.156 129.696 112.189 129.891 112.265 130.071C112.34 130.251 112.457 130.411 112.606 130.537C112.754 130.664 112.93 130.754 113.12 130.8C114.93 131.24 116.25 132.52 117.5 133.17C121.12 135.03 124.75 136.877 128.39 138.71C128.463 138.75 128.54 138.767 128.62 138.76C128.713 138.753 128.807 138.743 128.9 138.73C129.08 138.71 129.253 138.74 129.42 138.82L131.99 140.07C132.31 140.223 132.643 140.273 132.99 140.22C133.39 140.153 133.69 140.31 133.89 140.69C134.03 140.95 134.25 141.057 134.55 141.01C135.31 140.877 135.963 141.063 136.51 141.57C136.642 141.694 136.806 141.779 136.984 141.816C137.162 141.853 137.348 141.84 137.52 141.78C138 141.613 138.36 141.707 138.6 142.06C138.773 142.313 139.01 142.487 139.31 142.58C139.923 142.76 140.563 142.777 141.23 142.63C141.563 142.557 141.733 142.35 141.74 142.01L141.77 138.08C141.77 138.047 141.783 138.023 141.81 138.01C141.917 137.923 142.027 137.833 142.14 137.74C142.38 137.533 142.5 137.27 142.5 136.95V132.79C142.493 132.47 142.583 132.177 142.77 131.91C143.27 131.19 143.43 130.39 143.25 129.51C143.19 129.223 143.207 128.94 143.3 128.66L145.05 123.52C145.13 123.3 145.247 123.107 145.4 122.94ZM22.41 96.9299C22.2983 96.9491 22.1919 96.9919 22.098 97.0553C22.0041 97.1188 21.9247 97.2014 21.8651 97.2979C21.8055 97.3943 21.7671 97.5023 21.7525 97.6147C21.7378 97.7271 21.7472 97.8414 21.78 97.9499L23.48 103.44C23.5343 103.616 23.6475 103.767 23.8005 103.869C23.9535 103.971 24.137 104.017 24.32 104L47.74 101.61C47.925 101.592 48.098 101.511 48.2293 101.379C48.3607 101.248 48.4423 101.075 48.46 100.89L49.25 93.3599C49.2625 93.2372 49.2466 93.1134 49.2033 92.9979C49.1601 92.8825 49.0907 92.7786 49.0007 92.6943C48.9106 92.6101 48.8024 92.5478 48.6843 92.5124C48.5662 92.4769 48.4415 92.4692 48.32 92.4899L22.41 96.9299ZM184.24 134.18C180.45 127.43 171.2 120.8 164.55 117.59C163.37 117.017 162.347 117.413 161.48 118.78C158.393 123.633 156.447 128.167 155.64 132.38C155.46 133.34 154.82 133.67 154.87 134.81C154.937 136.09 154.943 137.377 154.89 138.67C154.8 140.91 153.01 142.95 155.31 145.5C155.53 145.747 155.803 145.83 156.13 145.75C156.897 145.563 157.563 145.73 158.13 146.25C158.397 146.49 158.71 146.59 159.07 146.55C162.01 146.24 165.38 147.05 167.42 147.26C174.527 147.973 181.717 149.303 188.99 151.25C189.092 151.277 189.198 151.283 189.302 151.268C189.406 151.254 189.507 151.218 189.597 151.164C189.687 151.11 189.766 151.038 189.828 150.954C189.891 150.869 189.936 150.772 189.96 150.67C190.247 149.483 190.033 148.433 189.32 147.52C189.12 147.267 189.033 146.98 189.06 146.66C189.37 143.21 186.6 137.79 184.86 134.85C184.733 134.643 184.57 134.47 184.37 134.33C184.317 134.29 184.273 134.239 184.24 134.18ZM195.84 125.43C195.655 125.465 195.482 125.543 195.332 125.657C195.183 125.771 195.062 125.918 194.98 126.087C194.897 126.256 194.855 126.442 194.857 126.63C194.859 126.818 194.904 127.003 194.99 127.17L198.25 133.49C198.373 133.73 198.572 133.923 198.817 134.037C199.061 134.151 199.337 134.181 199.6 134.12L213.57 130.87C213.741 130.83 213.9 130.753 214.038 130.645C214.176 130.537 214.289 130.4 214.369 130.244C214.449 130.088 214.494 129.916 214.501 129.741C214.508 129.566 214.477 129.392 214.41 129.23L211.89 123.23C211.782 122.973 211.589 122.761 211.343 122.629C211.097 122.498 210.814 122.456 210.54 122.51L195.84 125.43ZM93.36 133.02C85.56 128.11 77.11 127.01 68.9 131.65C61.1267 136.05 54.3267 141.63 48.5 148.39C48.2867 148.637 48.1433 148.923 48.07 149.25C47.9633 149.703 47.6867 150.05 47.24 150.29C47.0032 150.415 46.8009 150.593 46.65 150.81C42.71 156.37 38.91 162.92 37.2 169.55C35.79 175.07 34.6 180.28 34.87 187.32C34.98 189.96 35.7 193.12 35.84 196.09C35.8533 196.41 35.95 196.697 36.13 196.95C36.67 197.703 36.8233 198.547 36.59 199.48C36.5507 199.632 36.5522 199.791 36.5944 199.942C36.6365 200.093 36.7178 200.23 36.83 200.34C37.58 201.05 37.35 202.25 37.54 202.89C39.38 209.28 41.77 214.17 43.61 219.15C45.49 224.26 48.69 229.34 51.55 233.98C62.1167 251.127 75.8233 265.22 92.67 276.26C96.78 278.94 99.64 280.63 106.02 282.76C106.167 282.807 106.307 282.887 106.44 283C106.547 283.087 106.66 283.173 106.78 283.26C107.04 283.453 107.327 283.51 107.64 283.43C108.1 283.317 108.49 283.4 108.81 283.68C109.05 283.893 109.323 284.037 109.63 284.11C112.977 284.937 116.29 285.883 119.57 286.95C119.91 287.337 120.323 287.46 120.81 287.32C121.157 287.22 121.48 287.277 121.78 287.49C122.46 288.003 123.213 288.223 124.04 288.15C124.347 288.123 124.633 288.18 124.9 288.32C126.433 289.16 128.053 289.647 129.76 289.78C130.067 289.8 130.34 289.907 130.58 290.1C131.053 290.473 131.577 290.613 132.15 290.52C132.49 290.46 132.82 290.49 133.14 290.61C137.067 292.057 140.353 293.043 143 293.57C143.407 293.65 143.723 293.777 143.95 293.95C144.21 294.15 144.5 294.28 144.82 294.34C147.4 294.813 149.893 295.573 152.3 296.62C152.64 296.767 152.99 296.807 153.35 296.74C153.723 296.673 153.993 296.787 154.16 297.08C154.243 297.225 154.367 297.342 154.517 297.416C154.666 297.491 154.834 297.52 155 297.5C155.66 297.42 156.237 297.583 156.73 297.99C157.01 298.217 157.327 298.297 157.68 298.23C158.167 298.143 158.56 298.263 158.86 298.59C159.087 298.837 159.363 299.013 159.69 299.12C163.797 300.44 167.34 301.953 170.32 303.66C171.233 304.18 172.027 304.507 172.7 304.64C173.013 304.707 173.303 304.833 173.57 305.02C195.38 320.71 209.66 296.69 214.3 279.02C215.987 272.6 217.153 266.087 217.8 259.48C218.24 255.08 218.88 252.53 218.7 246.79C218.697 246.627 218.731 246.467 218.798 246.319C218.866 246.172 218.965 246.042 219.09 245.94C219.33 245.74 219.453 245.51 219.46 245.25C219.6 241.32 219.86 235.8 219.01 231.1C218.52 228.37 218.77 224.79 218.53 222.76C217.603 214.847 216.263 207.007 214.51 199.24C213.8 196.08 212.4 192.78 211.45 189.47C211.137 188.363 210.71 187.27 210.17 186.19C208.79 183.45 207.88 180.73 206.27 178.27C204.2 175.1 201.89 171 198.49 169.07C189.97 164.23 180.67 161.34 170.59 160.4C170.406 160.384 170.223 160.437 170.076 160.548C169.93 160.659 169.832 160.82 169.8 161C169.653 161.853 169.673 162.78 169.86 163.78C170.653 167.933 171.343 172.103 171.93 176.29C173.02 184.08 172.97 192.7 172.87 200.25C172.863 200.723 172.737 201.283 172.49 201.93C172.383 202.23 172.383 202.53 172.49 202.83C175.25 210.323 178.413 217.647 181.98 224.8C182.67 226.17 183.84 227.62 184.59 229.14C186.63 233.23 189.54 237.41 192.8 240.62C193.74 241.547 194.43 242.62 194.87 243.84C196.97 249.72 190.3 254.76 185.2 250.95C177.99 245.57 172.35 233.65 168.45 225.85C167.917 224.783 167.583 224.843 167.45 226.03C165.76 240.99 163.86 255.16 167.06 270.7C167.5 272.84 167.93 276.15 166.44 277.93C165.12 279.51 163.433 280.337 161.38 280.41C158.32 280.52 156.42 277.91 155.1 275.47C154.94 275.177 154.873 274.86 154.9 274.52C154.953 273.753 154.767 273.057 154.34 272.43C154.166 272.179 154.088 271.87 154.12 271.56C154.29 269.75 153.54 268.3 153.35 266.81C152.357 258.723 152.223 250.953 152.95 243.5C153.21 240.84 153.357 238.653 153.39 236.94C153.42 235.32 154.05 233.92 154.16 232.22C154.293 229.993 154.367 228.853 154.38 228.8C155.62 219.953 157.35 211.207 159.57 202.56C160.53 198.85 160.63 195.68 160.39 192.06C160.382 191.944 160.342 191.834 160.275 191.739C160.207 191.645 160.116 191.571 160.009 191.526C159.903 191.48 159.786 191.465 159.671 191.482C159.557 191.498 159.449 191.546 159.36 191.62C154.36 195.72 151.01 201.02 147.16 206.16C141.6 213.58 131.76 206.74 136.76 199C141.26 192.047 146.477 186.023 152.41 180.93C154.03 179.55 156.47 178.1 158.11 176.29C158.837 175.483 159.107 174.55 158.92 173.49L157.04 162.78C156.98 162.44 156.88 162.113 156.74 161.8C156.373 161 156.31 160.137 156.55 159.21C156.584 159.082 156.588 158.948 156.561 158.818C156.535 158.688 156.479 158.566 156.397 158.462C156.316 158.357 156.212 158.273 156.093 158.215C155.973 158.158 155.842 158.129 155.71 158.13H151.99C151.663 158.13 151.377 158.023 151.13 157.81C149.84 156.71 148.18 157.94 146.68 156.97C146.427 156.803 146.147 156.717 145.84 156.71C142.7 156.62 139.33 155.4 136.07 154.57C134.337 154.13 132.703 153.633 131.17 153.08C125.63 151.08 121.88 149.67 119.92 148.85C119.1 148.51 118.01 147.85 116.65 146.87C116.39 146.683 116.143 146.693 115.91 146.9C114.86 147.82 115.71 148.84 114.79 149.76C114.543 150.007 114.457 150.3 114.53 150.64C114.643 151.127 114.54 151.5 114.22 151.76C113.94 151.993 113.747 152.283 113.64 152.63C112.733 155.777 111.31 158.663 109.37 161.29C109.17 161.57 109.03 161.88 108.95 162.22C108.823 162.773 108.513 163.193 108.02 163.48C107.72 163.653 107.523 163.907 107.43 164.24L107.29 164.73C107.212 165.008 107.043 165.251 106.81 165.42C105.4 166.48 105.1 167.91 103.99 169.03C100.86 172.2 97.72 175.68 94.28 178.25C92.44 179.623 90.6067 180.857 88.78 181.95C88.2209 182.285 87.7635 182.765 87.4569 183.34C87.1504 183.914 87.0063 184.561 87.04 185.21L87.8 200.09C87.82 200.423 87.9067 200.737 88.06 201.03C90.65 206.03 93.58 209.37 87.64 213.94C87.3733 214.147 87.0733 214.25 86.74 214.25H82.69C82.3633 214.25 82.0867 214.137 81.86 213.91L79.36 211.47C79.1533 211.27 78.9833 211.037 78.85 210.77L76.3 205.57C76.2148 205.393 76.1802 205.196 76.2 205C76.2867 204.36 76.1467 203.787 75.78 203.28C75.6 203.033 75.5 202.757 75.48 202.45L74.51 190.68C74.4967 190.513 74.41 190.457 74.25 190.51C71.49 191.42 69.1 193.56 67.06 194.77C65.5267 195.677 64.0733 196.697 62.7 197.83C61.38 198.93 58.5 200.34 56.86 200.36C53.03 200.4 50.9 197.08 50.62 193.47C50.5867 193.123 50.66 192.797 50.84 192.49L52.45 189.68C52.6433 189.353 52.8933 189.083 53.2 188.87C58.3733 185.283 64.5467 181.323 71.72 176.99C73.1467 176.13 74.4167 175.423 75.53 174.87C86.01 169.66 94 162.68 100.01 152.55C100.063 152.45 100.14 152.22 100.24 151.86C100.327 151.54 100.537 151.307 100.87 151.16C101.057 151.073 101.173 150.927 101.22 150.72C101.26 150.54 101.263 150.357 101.23 150.17C101.204 150.047 101.218 149.92 101.27 149.81L103.49 144.45C103.548 144.313 103.562 144.163 103.53 144.02C103.37 143.367 103.513 142.887 103.96 142.58C104.067 142.508 104.157 142.414 104.224 142.305C104.291 142.197 104.334 142.076 104.35 141.95C104.443 141.223 104.413 140.5 104.26 139.78C104.234 139.654 104.169 139.54 104.074 139.452C103.979 139.364 103.859 139.308 103.73 139.29C102.44 139.13 102.01 138.1 101.24 137.61C98.98 136.17 96.7433 134.703 94.53 133.21C94.3033 133.057 94.07 133.017 93.83 133.09C93.7512 133.112 93.6685 133.117 93.5875 133.105C93.5065 133.093 93.429 133.064 93.36 133.02ZM13.15 145.49L22.32 146.67C22.436 146.683 22.5453 146.735 22.63 146.82C23.1033 147.287 23.6967 147.41 24.41 147.19C24.6858 147.113 24.9807 147.149 25.23 147.29L31.39 150.91C31.4833 150.963 31.56 150.943 31.62 150.85L34.42 146.23C34.4444 146.189 34.4602 146.143 34.4664 146.096C34.4725 146.049 34.4689 146.001 34.4558 145.955C34.4427 145.909 34.4203 145.866 34.3901 145.829C34.3599 145.792 34.3224 145.762 34.28 145.74C31.82 144.46 29.3233 143.483 26.79 142.81C25.72 142.53 24.6 142.91 23.54 142.09C23.2467 141.863 22.9167 141.75 22.55 141.75L14.67 141.76C14.0433 141.76 13.59 142.037 13.31 142.59L12.48 144.24C12.4183 144.364 12.3872 144.502 12.3893 144.64C12.3915 144.779 12.4269 144.915 12.4924 145.038C12.558 145.16 12.6519 145.265 12.7663 145.344C12.8807 145.422 13.0123 145.472 13.15 145.49ZM54.54 293.21C55.03 294.45 56.04 294.08 56.89 294.77C57.1428 294.971 57.4556 295.084 57.78 295.09C62.11 295.17 71.43 295.86 71.67 289.75C71.8 286.17 72.67 277.45 69.82 274.96C65.4733 271.153 61.5467 267.253 58.04 263.26C57.2733 262.38 56.8667 262.523 56.82 263.69C56.66 267.28 56.92 270.91 56.52 274.42C55.8733 280.093 55.4067 285.783 55.12 291.49C55.1067 291.817 54.9767 292.087 54.73 292.3C54.4633 292.54 54.4 292.843 54.54 293.21Z" fill="black"/>
</svg>
