<svg width="332" height="332" viewBox="0 0 332 332" fill="none" xmlns="http://www.w3.org/2000/svg">
<path d="M332 247.11V257C331.76 259.333 331.507 261.667 331.24 264C329.493 279.22 323.273 292.243 312.58 303.07C291.42 324.5 266.27 312.58 243.75 303.9C235.81 300.83 227.47 299.64 219.12 297.89C207.42 295.42 201.5 287.43 198.53 276.25C192.74 254.39 192.92 230.25 192.91 206.5C192.89 176.033 193.087 151.497 193.5 132.89C193.507 132.577 193.373 132.34 193.1 132.18L167.03 117.1C166.72 116.921 166.368 116.827 166.01 116.827C165.652 116.827 165.3 116.921 164.99 117.1L138.69 132.26C138.497 132.373 138.403 132.54 138.41 132.76C139.023 159.5 139.253 186.247 139.1 213C138.99 231.56 138.56 250.73 135.09 269.01C133.977 274.883 132.5 279.87 130.66 283.97C124.82 296.97 112.49 298.08 99.49 300.53C94.6433 301.45 89.5533 303.087 84.22 305.44C61.83 315.34 36.45 322.47 17.45 301.3C5.96 288.51 1.01 274.01 0 256.93V246.48C3.02 205.28 21.01 163.79 43 129.28C43.4333 128.6 44.2267 128.057 45.38 127.65C52.04 125.29 56.53 132.06 52.95 137.78C40.0433 158.373 29.69 180.187 21.89 203.22C14.42 225.28 7.98 256.64 17.86 278.55C22.76 289.41 31.89 300.94 44.74 302.01C60.38 303.31 73.88 294.54 88.12 290.08C93.7933 288.307 99.5767 286.953 105.47 286.02C109.27 285.42 112.287 284.61 114.52 283.59C125.46 278.59 125.83 229.6 125.91 218.75C126.103 192.997 126.017 167.127 125.65 141.14C125.649 141.07 125.628 141.002 125.59 140.944C125.551 140.885 125.497 140.838 125.433 140.808C125.369 140.778 125.298 140.766 125.227 140.774C125.155 140.781 125.087 140.807 125.03 140.85C107.41 154.323 94.6333 171.453 86.7 192.24C86.5779 192.555 86.5779 192.902 86.7 193.21C88.5733 198.037 91.3467 202.277 95.02 205.93C97.2533 208.157 98.5533 209.693 98.92 210.54C99.9133 212.86 99.4 215.06 97.38 217.14C91.8 222.88 84.74 214.59 81.68 210.24C81.6329 210.175 81.5679 210.124 81.4929 210.094C81.4178 210.065 81.3358 210.058 81.2567 210.073C81.1776 210.089 81.1047 210.127 81.0468 210.184C80.9888 210.24 80.9483 210.311 80.93 210.39C77.69 224.003 76.03 237.84 75.95 251.9C75.93 254.933 75.71 256.973 75.29 258.02C73.59 262.24 66.71 262.94 64.13 259.03C63.3433 257.843 62.9433 256.07 62.93 253.71C62.89 244.65 63.5333 235.49 64.86 226.23C64.8696 226.158 64.8599 226.085 64.8318 226.018C64.8038 225.951 64.7585 225.892 64.7005 225.849C64.6425 225.805 64.5739 225.777 64.5018 225.769C64.4297 225.76 64.3566 225.771 64.29 225.8C59.09 228.173 54.39 231.333 50.19 235.28C48.09 237.247 46.5233 238.383 45.49 238.69C40.41 240.19 35.98 235.16 37.74 230.31C38.16 229.157 39.13 227.863 40.65 226.43C48.11 219.39 56.86 214.18 66.9 210.8C67.1347 210.72 67.3446 210.583 67.5093 210.401C67.674 210.218 67.7879 209.998 67.84 209.76C70.58 197.407 74.8333 185.597 80.6 174.33C80.6371 174.256 80.6521 174.174 80.6435 174.092C80.6348 174.01 80.6027 173.932 80.5511 173.867C80.4995 173.803 80.4304 173.755 80.3522 173.729C80.274 173.703 80.1899 173.7 80.11 173.72C75.38 174.91 64.76 177.02 60.68 174.39C56.99 172.01 57.21 165.53 60.95 163.52C61.93 162.993 63.8933 162.667 66.84 162.54C75.1533 162.173 83.01 160.103 90.41 156.33C91.8033 155.617 93.06 154.55 94.18 153.13C102.693 142.29 112.723 133.16 124.27 125.74C124.419 125.643 124.539 125.507 124.618 125.347C124.697 125.187 124.732 125.009 124.72 124.83C124.01 113.37 122.11 98.08 116.42 87.85C109.46 75.34 96.79 85.34 89.81 91.29C87.8167 92.99 86.2333 93.98 85.06 94.26C80.44 95.35 75.83 89.94 77.74 85.72C78.2867 84.52 79.6067 82.99 81.7 81.13C101.14 63.91 122.15 62.9 131.77 90.74C131.903 91.1333 132.15 91.2266 132.51 91.02L145.99 83.25C146.317 83.0633 146.48 82.7833 146.48 82.41C146.5 65.9633 146.5 49.5367 146.48 33.13C146.473 29.4367 146.807 26.7233 147.48 24.99C150.16 18.07 155.66 16.85 163.09 16.8C171.42 16.75 181.14 15.56 184.61 25.36C185.21 27.0667 185.507 30.02 185.5 34.22C185.48 50.2867 185.483 66.3467 185.51 82.4C185.51 82.7733 185.67 83.0567 185.99 83.25L199.48 91.04C199.82 91.2333 200.053 91.1467 200.18 90.78C204.45 78.45 212.99 66.31 228 69.04C241.88 71.57 253.6 83.42 262.91 94.1C274.63 107.54 285.267 122.503 294.82 138.99C312 168.63 325.16 199.82 330.59 233.32C331.3 237.72 331.57 242.49 332 247.11ZM172.501 30.2914C172.501 30.2375 172.49 30.1842 172.47 30.1344C172.449 30.0846 172.419 30.0394 172.381 30.0012C172.343 29.9631 172.298 29.9328 172.248 29.9121C172.198 29.8914 172.145 29.8807 172.091 29.8806L159.911 29.8594C159.857 29.8593 159.804 29.8698 159.754 29.8903C159.704 29.9108 159.659 29.941 159.621 29.979C159.583 30.017 159.553 30.0621 159.532 30.1118C159.511 30.1615 159.501 30.2148 159.501 30.2687L159.48 42.3286C159.479 42.3824 159.49 42.4358 159.51 42.4856C159.531 42.5354 159.561 42.5806 159.599 42.6188C159.637 42.6569 159.682 42.6872 159.732 42.7079C159.782 42.7286 159.835 42.7393 159.889 42.7394L172.069 42.7606C172.123 42.7607 172.176 42.7502 172.226 42.7296C172.276 42.7091 172.321 42.679 172.359 42.641C172.397 42.603 172.427 42.5578 172.448 42.5081C172.469 42.4584 172.479 42.4051 172.48 42.3513L172.501 30.2914ZM172.501 56.1814C172.501 56.1262 172.49 56.0716 172.469 56.0206C172.448 55.9696 172.417 55.9232 172.378 55.8841C172.339 55.8451 172.293 55.814 172.242 55.7928C172.191 55.7716 172.136 55.7607 172.081 55.7606L159.921 55.7394C159.866 55.7393 159.812 55.75 159.761 55.7711C159.71 55.7921 159.663 55.8229 159.624 55.8619C159.585 55.9008 159.554 55.9471 159.533 55.998C159.512 56.0489 159.501 56.1035 159.501 56.1587L159.479 68.3186C159.479 68.3738 159.49 68.4284 159.511 68.4794C159.532 68.5304 159.563 68.5768 159.602 68.6158C159.641 68.6549 159.687 68.6859 159.738 68.7071C159.789 68.7283 159.844 68.7393 159.899 68.7394L172.059 68.7606C172.114 68.7607 172.168 68.7499 172.219 68.7289C172.27 68.7079 172.317 68.677 172.356 68.6381C172.395 68.5992 172.426 68.5529 172.447 68.502C172.468 68.4511 172.479 68.3965 172.479 68.3413L172.501 56.1814ZM159.39 82.39C159.8 86.37 159.69 90.3 156.46 92.19C149.567 96.21 142.72 100.16 135.92 104.04C135.487 104.287 135.307 104.653 135.38 105.14L137.18 117.51C137.19 117.579 137.217 117.645 137.259 117.702C137.3 117.758 137.355 117.804 137.418 117.834C137.481 117.865 137.551 117.88 137.621 117.877C137.691 117.875 137.759 117.855 137.82 117.82C146.147 112.973 154.32 108.237 162.34 103.61C164.733 102.237 166.993 102.153 169.12 103.36C176.767 107.7 185.03 112.477 193.91 117.69C194.43 117.99 194.733 117.843 194.82 117.25L196.65 104.73C196.662 104.639 196.647 104.545 196.606 104.462C196.565 104.378 196.501 104.308 196.42 104.26C189.88 100.473 183.31 96.6833 176.71 92.89C171.67 90 172.59 87.25 172.48 82.24C172.473 81.9133 172.307 81.75 171.98 81.75H159.96C159.533 81.75 159.343 81.9633 159.39 82.39ZM207.07 141.01C207.023 140.93 206.97 140.84 206.91 140.74C206.874 140.672 206.816 140.619 206.746 140.588C206.675 140.557 206.597 140.551 206.523 140.571C206.448 140.591 206.383 140.635 206.337 140.697C206.291 140.758 206.268 140.833 206.27 140.91C205.977 165.263 205.9 189.46 206.04 213.5C206.17 235.64 206.24 256.35 212.19 276.5C213.337 280.393 215.783 282.973 219.53 284.24C228.77 287.38 239.36 287.9 246.76 290.99C265.67 298.89 289.96 311.23 306.35 291.12C319.39 275.12 320.86 254.39 317.64 234.48C313.98 211.88 306.19 189.78 296.14 168.91C283.74 143.12 267.98 118.08 248.29 97.2C243.24 91.85 226.18 75.83 218.58 83.86C215.413 87.2 213.1 91.66 211.64 97.24C209.24 106.427 207.79 115.693 207.29 125.04C207.277 125.3 207.38 125.5 207.6 125.64C219.193 133.14 229.21 142.253 237.65 152.98C239.86 155.78 241.72 156.49 244.88 157.84C252.387 161.027 259.927 162.683 267.5 162.81C271.36 162.877 273.503 164.623 273.93 168.05C275.32 179.18 257.64 175.2 252.04 173.73C251.94 173.702 251.834 173.704 251.735 173.736C251.637 173.768 251.549 173.828 251.484 173.909C251.419 173.99 251.38 174.088 251.37 174.191C251.36 174.295 251.381 174.398 251.43 174.49C257.183 185.75 261.423 197.56 264.15 209.92C264.23 210.273 264.443 210.52 264.79 210.66C274.68 214.61 282.74 218.47 290.73 225.88C292.703 227.713 293.933 229.333 294.42 230.74C295.92 235.06 291.3 240.08 286.79 238.85C285.63 238.53 284.137 237.5 282.31 235.76C278.003 231.653 273.11 228.317 267.63 225.75C267.565 225.721 267.493 225.709 267.422 225.717C267.351 225.725 267.283 225.752 267.226 225.795C267.169 225.838 267.124 225.895 267.097 225.961C267.069 226.027 267.06 226.099 267.07 226.17C268.37 235.123 269.033 244.17 269.06 253.31C269.07 256.77 268.54 259.5 265.39 260.98C263.45 261.9 261.52 261.88 259.6 260.92C256.43 259.33 256.02 256.58 256.01 253.01C255.97 238.563 254.3 224.32 251 210.28C250.982 210.209 250.944 210.144 250.891 210.093C250.838 210.042 250.771 210.007 250.699 209.992C250.627 209.978 250.552 209.984 250.483 210.01C250.414 210.036 250.354 210.081 250.31 210.14C248.28 213.06 243.57 218.87 239.76 219.01C234.21 219.21 229.94 212.32 234.34 208.34C239.16 203.973 242.72 199.317 245.02 194.37C245.393 193.57 245.313 192.51 244.78 191.19C236.473 170.597 223.98 153.953 207.3 141.26C207.207 141.193 207.13 141.11 207.07 141.01Z" fill="black"/>
<path d="M64.4207 116.08C67.9829 116.08 70.8707 113.192 70.8707 109.63C70.8707 106.068 67.9829 103.18 64.4207 103.18C60.8585 103.18 57.9707 106.068 57.9707 109.63C57.9707 113.192 60.8585 116.08 64.4207 116.08Z" fill="black"/>
</svg>
