<svg width="280" height="280" viewBox="0 0 280 280" fill="none" xmlns="http://www.w3.org/2000/svg">
<path d="M176.171 60.6001C173.764 54.0668 171.444 47.3668 169.211 40.5001C167.391 34.9068 164.157 30.2701 159.511 26.5901C144.171 14.4401 122.171 18.7001 112.731 35.8101C104.361 50.9801 110.941 68.1701 125.521 76.4501C125.669 76.5323 125.792 76.6535 125.879 76.8011C125.965 76.9488 126.01 77.1176 126.011 77.2901L125.981 99.4701C125.98 99.6606 125.919 99.8459 125.806 99.9989C125.692 100.152 125.533 100.265 125.351 100.32C111.724 104.407 98.4374 108.423 85.4907 112.37C79.4441 114.21 75.2774 116.003 72.9907 117.75C67.2174 122.15 64.3374 128.65 64.3507 137.25C64.3841 174.217 64.3774 211.18 64.3307 248.14C64.3107 264.09 86.5407 264.36 86.5907 249C86.6974 219.26 86.7507 189.547 86.7507 159.86C86.7507 159.7 86.8274 159.62 86.9807 159.62L92.0507 159.63C92.1338 159.633 92.2126 159.667 92.2705 159.724C92.3283 159.782 92.3607 159.86 92.3607 159.94C92.3941 188.927 92.3874 217.933 92.3407 246.96C92.3341 250.76 91.9674 253.57 91.2407 255.39C85.6407 269.52 65.1807 269.44 59.9907 255.22C59.1441 252.9 58.7241 248.707 58.7307 242.64C58.7707 208.807 58.7707 174.973 58.7307 141.14C58.7174 134.433 59.1974 129.553 60.1707 126.5C64.1407 114.01 72.8807 110.34 85.8007 106.4C97.0607 102.967 108.294 99.5735 119.501 96.2201C119.758 96.1445 119.983 95.9877 120.144 95.7732C120.304 95.5587 120.391 95.298 120.391 95.0301L120.411 80.9401C120.41 80.5986 120.326 80.2622 120.166 79.9606C120.006 79.659 119.774 79.4014 119.491 79.2101C107.051 70.8201 100.881 56.4301 104.591 41.5201C112.111 11.2801 152.291 3.92014 170.071 29.9501C171.951 32.6968 173.911 37.0535 175.951 43.0201C177.724 48.2068 179.514 53.3868 181.321 58.5601C182.371 61.5701 182.591 64.3401 179.951 66.2501C178.291 67.4601 176.301 67.2701 174.221 67.2501C173.814 67.2435 173.611 67.4435 173.611 67.8501C173.661 72.3001 174.391 78.8901 172.211 82.4801C170.001 86.1301 165.311 87.2701 161.201 86.6801C160.147 86.5335 159.621 86.9901 159.621 88.0501V94.4301C159.621 95.4701 160.124 96.1401 161.131 96.4401C171.797 99.6068 182.621 102.867 193.601 106.22C206.881 110.27 215.731 113.49 219.811 126.08C220.771 129.047 221.251 133.707 221.251 140.06C221.251 174.487 221.251 208.907 221.251 243.32C221.251 249.38 220.757 253.6 219.771 255.98C215.901 265.35 203.701 269.07 195.061 263.06C190.081 259.6 187.594 254.247 187.601 247C187.634 218.173 187.641 189.147 187.621 159.92C187.621 159.879 187.629 159.837 187.645 159.799C187.661 159.761 187.685 159.726 187.715 159.697C187.745 159.668 187.78 159.646 187.819 159.631C187.858 159.616 187.899 159.609 187.941 159.61L193.011 159.67C193.171 159.67 193.251 159.75 193.251 159.91C193.244 188.67 193.247 217.447 193.261 246.24C193.261 249.6 193.577 252.067 194.211 253.64C197.851 262.65 210.711 262.5 214.561 253.73C215.254 252.15 215.601 249.777 215.601 246.61C215.641 210.45 215.644 174.29 215.611 138.13C215.604 133.203 215.137 129.51 214.211 127.05C210.891 118.26 204.681 115.45 195.321 112.61C182.381 108.677 169.431 104.763 156.471 100.87C155.851 100.683 155.484 100.593 155.371 100.6C154.471 100.653 154.021 100.23 154.021 99.3301L153.991 81.7501C153.991 81.6175 154.044 81.4904 154.14 81.3966C154.236 81.3028 154.365 81.2501 154.501 81.2501L164.881 81.2401C165.708 81.2401 166.502 80.9114 167.087 80.3263C167.672 79.7412 168.001 78.9476 168.001 78.1201V62.1801C168.001 61.7935 168.191 61.6035 168.571 61.6101L175.411 61.6801C175.541 61.6819 175.669 61.6518 175.785 61.5927C175.901 61.5335 176.001 61.447 176.076 61.3406C176.15 61.2342 176.198 61.1112 176.215 60.9821C176.231 60.8531 176.216 60.722 176.171 60.6001Z" fill="black"/>
<path d="M142.749 146.06V158.97C142.749 159.41 142.969 159.63 143.409 159.63H173.249C173.496 159.63 173.619 159.754 173.619 160L173.629 164.85C173.629 164.956 173.587 165.058 173.512 165.133C173.437 165.208 173.335 165.25 173.229 165.25H143.249C142.916 165.25 142.749 165.417 142.749 165.75V178.75C142.749 179.084 142.916 179.25 143.249 179.25H167.499C167.832 179.25 167.999 179.417 167.999 179.75V184.25C167.999 184.584 167.832 184.75 167.499 184.75H143.249C142.916 184.75 142.749 184.917 142.749 185.25V198.25C142.749 198.584 142.916 198.75 143.249 198.75H162.069C162.276 198.75 162.379 198.857 162.379 199.07L162.369 203.99C162.369 204.091 162.329 204.188 162.258 204.259C162.187 204.33 162.09 204.37 161.989 204.37H143.189C142.896 204.37 142.749 204.517 142.749 204.81V249C142.749 249.067 142.723 249.13 142.676 249.177C142.629 249.224 142.565 249.25 142.499 249.25H137.499C137.433 249.25 137.369 249.224 137.322 249.177C137.275 249.13 137.249 249.067 137.249 249V205C137.249 204.833 137.184 204.673 137.068 204.555C136.951 204.437 136.794 204.37 136.629 204.37H118.249C117.836 204.37 117.629 204.164 117.629 203.75L117.619 199.37C117.619 199.206 117.686 199.048 117.804 198.932C117.922 198.816 118.082 198.75 118.249 198.75H136.749C137.082 198.75 137.249 198.584 137.249 198.25V185.25C137.249 184.917 137.082 184.75 136.749 184.75H112.499C112.166 184.75 111.999 184.584 111.999 184.25L112.009 179.75C112.009 179.417 112.172 179.25 112.499 179.25H136.749C137.082 179.25 137.249 179.084 137.249 178.75V165.75C137.249 165.618 137.196 165.49 137.103 165.397C137.009 165.303 136.882 165.25 136.749 165.25H106.709C106.482 165.25 106.369 165.137 106.369 164.91V159.87C106.369 159.839 106.375 159.807 106.387 159.778C106.399 159.749 106.417 159.723 106.439 159.701C106.462 159.678 106.488 159.661 106.517 159.648C106.546 159.636 106.578 159.63 106.609 159.63H136.619C137.039 159.63 137.249 159.42 137.249 159V146.05C137.249 145.77 137.109 145.63 136.829 145.63H106.799C106.519 145.63 106.379 145.49 106.379 145.21L106.369 140.44C106.369 140.147 106.516 140 106.809 140H136.749C137.082 140 137.249 139.834 137.249 139.5V126.5C137.249 126.167 137.082 126 136.749 126H107.059C106.876 126 106.701 125.928 106.571 125.798C106.442 125.669 106.369 125.493 106.369 125.31L106.379 121.24C106.379 121.009 106.472 120.788 106.637 120.625C106.802 120.462 107.026 120.37 107.259 120.37L136.689 120.38C137.062 120.38 137.249 120.19 137.249 119.81V63.9802C137.25 63.8686 137.227 63.7581 137.182 63.6557C137.137 63.5533 137.071 63.4612 136.988 63.3851C136.906 63.3091 136.808 63.2507 136.702 63.2137C136.595 63.1768 136.482 63.1619 136.369 63.1702C133.049 63.4402 129.299 63.6402 126.249 62.7602C117.359 60.1902 115.199 50.6802 117.659 42.4702C121.459 29.7702 134.749 22.6702 147.549 26.5902C155.976 29.1636 161.606 35.0069 164.439 44.1202C165.979 49.0702 161.779 53.2402 156.999 53.2602C152.566 53.2802 148.026 53.2369 143.379 53.1302C143.296 53.1289 143.213 53.1442 143.135 53.1753C143.057 53.2063 142.987 53.2525 142.927 53.3112C142.868 53.3698 142.82 53.4397 142.788 53.5168C142.756 53.5939 142.739 53.6766 142.739 53.7602L142.759 119.82C142.759 120.194 142.946 120.38 143.319 120.38H172.969C173.129 120.38 173.283 120.442 173.397 120.552C173.511 120.663 173.577 120.813 173.579 120.97L173.659 125.29C173.666 125.764 173.432 126 172.959 126H143.249C142.916 126 142.749 126.167 142.749 126.5V139.5C142.749 139.834 142.916 140 143.249 140H173.199C173.258 140 173.317 140.012 173.371 140.034C173.426 140.057 173.476 140.09 173.517 140.132C173.559 140.174 173.592 140.223 173.615 140.278C173.638 140.333 173.649 140.391 173.649 140.45L173.609 145.15C173.609 145.278 173.559 145.4 173.469 145.49C173.379 145.58 173.256 145.63 173.129 145.63H143.189C142.896 145.63 142.749 145.774 142.749 146.06ZM137.189 48.3002C137.189 48.2009 137.209 48.1025 137.247 48.0109C137.285 47.9192 137.342 47.8361 137.412 47.7663C137.483 47.6965 137.567 47.6415 137.659 47.6044C137.751 47.5673 137.85 47.5489 137.949 47.5502L157.739 47.5702C158.07 47.5732 158.39 47.4477 158.63 47.2202C158.871 46.9928 159.014 46.6809 159.029 46.3502C159.219 42.1102 153.979 36.3102 150.659 34.1402C139.259 26.6902 125.199 33.1302 122.569 46.2502C122.089 48.6369 122.159 50.7235 122.779 52.5102C124.949 58.7202 130.859 57.5502 136.009 57.8902C136.163 57.8998 136.318 57.8776 136.463 57.8252C136.608 57.7727 136.741 57.691 136.854 57.5851C136.966 57.4792 137.056 57.3513 137.117 57.2095C137.178 57.0676 137.209 56.9147 137.209 56.7602L137.189 48.3002Z" fill="black"/>
</svg>
