<svg width="400" height="400" viewBox="0 0 400 400" fill="none" xmlns="http://www.w3.org/2000/svg">
<path d="M181.491 163.07C181.524 163.02 181.543 162.963 181.546 162.903C181.55 162.844 181.538 162.785 181.511 162.733C181.484 162.68 181.444 162.637 181.395 162.606C181.346 162.576 181.289 162.56 181.231 162.56L138.471 162.48C138.064 162.48 137.828 162.68 137.761 163.08C137.111 167.23 137.131 174.96 143.321 174.94C149.808 174.92 156.288 174.93 162.761 174.97C168.011 175 168.791 179.6 168.811 184.14C168.871 195.39 170.521 206.14 158.931 212.94C157.511 213.773 154.458 214.73 149.771 215.81C134.644 219.29 119.524 222.807 104.411 226.36C95.2909 228.5 88.9609 230.503 85.4209 232.37C70.9509 239.96 62.5309 254.93 62.5709 271.5C62.6642 308.36 62.6609 345.22 62.5609 382.08C62.5509 383.81 62.1309 385.58 61.9109 387.36C61.8776 387.627 61.7276 387.76 61.4609 387.76L50.7609 387.78C50.2676 387.78 50.0209 387.533 50.0209 387.04C49.9942 348.747 49.9909 311.233 50.0109 274.5C50.0109 267.413 50.4642 261.95 51.3709 258.11C55.8309 239.14 70.1409 222.97 89.0009 217.22C95.9209 215.12 105.531 213.58 115.271 210.74C117.591 210.06 120.241 210.25 122.371 209.2C124.581 208.12 127.191 208.23 129.521 207.61C135.301 206.07 141.151 204.83 146.961 203.44C151.821 202.27 155.931 201.88 156.081 196.46C156.154 193.647 156.164 190.92 156.111 188.28C156.108 188.107 156.038 187.941 155.914 187.82C155.791 187.698 155.624 187.63 155.451 187.63C144.041 187.66 131.821 188.72 126.641 176.36C125.528 173.687 124.938 169.213 124.871 162.94C124.784 154.74 124.811 146.607 124.951 138.54C124.954 138.404 124.929 138.268 124.878 138.141C124.827 138.014 124.752 137.899 124.656 137.802C124.56 137.705 124.445 137.629 124.319 137.577C124.193 137.525 124.057 137.499 123.921 137.5C115.531 137.6 102.431 140.24 107.661 125.97C113.181 110.903 118.604 95.8001 123.931 80.6601C125.531 76.1401 126.711 71.2601 128.091 66.5501C133.184 49.0967 143.158 35.3234 158.011 25.2301C199.821 -3.18995 256.971 17.7701 271.671 65.2601C277.591 84.3801 275.918 103.183 266.651 121.67C263.221 128.51 256.531 136.58 253.301 142.18C249.781 148.3 247.208 154.783 245.581 161.63C243.031 172.36 243.801 185.64 244.041 197.5C244.101 200.59 246.711 201.95 249.491 202.6C267.411 206.8 285.328 211.017 303.241 215.25C316.911 218.48 327.801 223.82 336.801 234.55C342.574 241.443 346.498 249.317 348.571 258.17C349.491 262.077 349.958 267.67 349.971 274.95C350.024 312.077 350.024 349.363 349.971 386.81C349.971 387.457 349.648 387.78 349.001 387.78L338.531 387.77C338.238 387.763 338.074 387.617 338.041 387.33C337.881 385.72 337.491 384.13 337.481 382.58C337.414 345.72 337.394 308.86 337.421 272C337.431 263.36 335.481 255.2 330.921 247.8C324.574 237.513 315.518 230.99 303.751 228.23C285.358 223.917 266.958 219.623 248.551 215.35C228.361 210.66 230.811 195.99 231.081 178C231.354 160.053 236.468 143.92 246.421 129.6C251.381 122.467 253.934 118.773 254.081 118.52C270.831 89.1101 261.661 52.9901 233.271 34.7401C202.081 14.7001 160.621 26.6901 144.121 59.4701C142.614 62.4501 140.921 67.2634 139.041 73.9101C136.761 81.9501 134.178 89.8901 131.291 97.7301C131.204 97.9701 131.071 98.1801 130.891 98.3601L130.541 98.7101C130.437 98.8169 130.367 98.9519 130.339 99.0983C130.311 99.2447 130.327 99.3961 130.385 99.5335C130.442 99.671 130.539 99.7885 130.663 99.8715C130.786 99.9544 130.932 99.9991 131.081 100C148.721 100 166.278 99.9901 183.751 99.9701C196.891 99.9601 208.121 103.98 214.711 115.78C217.511 120.807 218.911 126.463 218.911 132.75C218.884 176.437 218.854 220.217 218.821 264.09C218.821 264.602 218.941 265.108 219.172 265.566C219.403 266.024 219.738 266.423 220.151 266.73L229.411 273.65C230.644 274.563 231.241 274.253 231.201 272.72C231.168 271.48 231.144 269.91 231.131 268.01C231.031 255.69 239.471 245.63 251.741 243.94C261.851 242.56 268.841 247.49 275.231 254.77C288.018 269.323 296.424 279.08 300.451 284.04C308.398 293.84 312.424 305.493 312.531 319C312.738 344.92 312.718 365.67 312.471 381.25C312.458 382.283 312.171 383.427 311.611 384.68C311.478 384.973 311.281 385.207 311.021 385.38L307.801 387.47C307.514 387.663 307.201 387.76 306.861 387.76C295.954 387.793 285.051 387.733 274.151 387.58C266.331 387.467 260.631 386.857 257.051 385.75C248.024 382.963 240.988 377.183 235.941 368.41C233.614 364.37 232.308 360.983 232.021 358.25C230.871 347.24 231.111 336.29 231.091 325.25C231.081 322.35 230.361 321.44 227.911 319.82C219.218 314.067 210.534 308.27 201.861 302.43C201.345 302.084 200.74 301.897 200.121 301.894C199.501 301.89 198.896 302.07 198.381 302.41L169.751 321.34C169.058 321.8 168.721 322.447 168.741 323.28C168.928 332.72 168.918 342.377 168.711 352.25C168.411 366.74 157.721 381.28 143.451 385.7C139.804 386.827 133.928 387.45 125.821 387.57C114.608 387.743 103.471 387.8 92.4109 387.74C92.0637 387.737 91.7225 387.646 91.4186 387.477C91.1147 387.307 90.8577 387.064 90.6709 386.77C90.3042 386.177 89.7942 385.797 89.1409 385.63C88.8276 385.55 88.6076 385.36 88.4809 385.06C87.7742 383.38 87.4209 381.943 87.4209 380.75C87.4142 359.583 87.4309 338.417 87.4709 317.25C87.4842 308.623 89.6009 300.407 93.8209 292.6C95.8609 288.827 99.8509 283.507 105.791 276.64C111.051 270.567 117.791 262.857 126.011 253.51C131.721 247.02 138.121 243.06 147.001 243.79C152.474 244.237 157.204 246.33 161.191 250.07C168.011 256.47 169.571 264.51 168.731 273.52C168.718 273.64 168.741 273.762 168.795 273.87C168.85 273.978 168.935 274.068 169.039 274.129C169.143 274.19 169.263 274.22 169.384 274.215C169.505 274.21 169.622 274.17 169.721 274.1C173.034 271.773 176.074 269.6 178.841 267.58C181.471 265.65 181.121 263.66 181.121 259.99C181.108 227.957 181.108 195.923 181.121 163.89C181.121 163.703 181.174 163.533 181.281 163.38C181.334 163.287 181.404 163.183 181.491 163.07ZM186.061 150.98C186.048 151.093 186.064 151.197 186.111 151.29C186.171 151.397 186.301 151.483 186.501 151.55C187.381 151.837 188.288 152.16 189.221 152.52C189.541 152.647 189.708 152.88 189.721 153.22C189.728 153.807 190.018 154.137 190.591 154.21C190.944 154.25 191.194 154.433 191.341 154.76L192.391 157.09C192.504 157.35 192.654 157.587 192.841 157.8C193.574 158.66 193.941 159.727 193.941 161C193.901 194.253 193.894 227.503 193.921 260.75C193.921 263.8 194.271 270.4 192.191 272.67C191.691 273.217 190.408 274.257 188.341 275.79C182.034 280.477 175.764 285.257 169.531 290.13C169.304 290.307 169.12 290.535 168.993 290.797C168.867 291.059 168.801 291.347 168.801 291.64V305.79C168.802 305.871 168.822 305.95 168.861 306.021C168.899 306.092 168.954 306.153 169.021 306.198C169.088 306.243 169.164 306.271 169.244 306.28C169.325 306.29 169.406 306.279 169.481 306.25C170.181 305.97 170.894 305.587 171.621 305.1C179.781 299.68 187.938 294.253 196.091 288.82C198.564 287.167 201.131 287.2 203.791 288.92C214.101 295.57 221.791 300.84 229.471 305.84C229.618 305.935 229.787 305.991 229.962 306.002C230.137 306.013 230.312 305.978 230.47 305.902C230.628 305.826 230.763 305.71 230.863 305.566C230.963 305.422 231.024 305.255 231.041 305.08C231.421 300.54 232.671 291.41 228.261 288.25C223.121 284.57 218.034 280.817 213.001 276.99C208.911 273.89 206.091 272.01 206.091 267.25C206.091 224.457 206.104 181.66 206.131 138.86C206.138 131.987 205.728 127.287 204.901 124.76C201.141 113.27 191.481 112.38 179.881 112.44C162.208 112.533 144.601 112.56 127.061 112.52C126.756 112.52 126.459 112.614 126.209 112.789C125.958 112.964 125.767 113.213 125.661 113.5L122.021 123.43C121.951 123.617 121.93 123.819 121.958 124.016C121.986 124.214 122.062 124.402 122.181 124.563C122.3 124.725 122.457 124.854 122.638 124.941C122.82 125.028 123.02 125.069 123.221 125.06C125.541 124.953 128.058 124.923 130.771 124.97C136.871 125.08 137.481 129.01 137.531 134.34C137.584 139.333 137.678 144.377 137.811 149.47C137.818 149.81 137.994 149.98 138.341 149.98C153.414 150.007 168.464 150.03 183.491 150.05C184.364 150.05 185.154 150.237 185.861 150.61C186.014 150.683 186.081 150.807 186.061 150.98ZM100.581 374.87C100.454 374.95 100.321 375.033 100.181 375.12C100.125 375.155 100.082 375.207 100.057 375.268C100.033 375.33 100.029 375.397 100.046 375.46C100.063 375.523 100.101 375.577 100.152 375.615C100.204 375.653 100.266 375.673 100.331 375.67C101.464 375.643 102.638 375.543 103.851 375.37C103.871 375.363 103.881 375.36 103.881 375.36C103.881 375.353 103.884 375.343 103.891 375.33C103.894 375.329 103.896 375.326 103.897 375.324C103.897 375.321 103.897 375.318 103.896 375.315C103.895 375.312 103.892 375.31 103.889 375.309C103.887 375.309 103.884 375.309 103.881 375.31C102.921 375.43 101.988 375.303 101.081 374.93C101.027 374.907 100.982 374.866 100.956 374.814C100.929 374.761 100.921 374.701 100.934 374.644C100.948 374.587 100.98 374.536 101.027 374.5C101.074 374.465 101.132 374.447 101.191 374.45C111.291 374.87 121.394 375.053 131.501 375C141.871 374.96 151.111 368.8 154.711 359.1C155.598 356.72 156.058 353.263 156.091 348.73C156.184 336.643 156.184 324.55 156.091 312.45C156.084 312.097 155.911 311.89 155.571 311.83C153.971 311.53 153.361 312.87 152.421 313.41C148.828 315.49 145.241 317.573 141.661 319.66C139.031 321.19 136.541 322.63 135.701 325.75C134.841 328.93 133.994 331.923 133.161 334.73C133.019 335.208 133.009 335.716 133.132 336.2C133.256 336.684 133.507 337.126 133.861 337.48L147.011 350.63C147.316 350.939 147.487 351.356 147.487 351.79C147.487 352.224 147.316 352.641 147.011 352.95L140.061 359.97C139.966 360.066 139.854 360.142 139.73 360.194C139.606 360.246 139.474 360.274 139.34 360.275C139.206 360.276 139.074 360.25 138.95 360.199C138.827 360.149 138.715 360.074 138.621 359.98L129.121 350.58C128.828 350.293 128.631 350.347 128.531 350.74L125.271 362.78C125.004 363.76 124.381 364.113 123.401 363.84L113.501 361.07C113.389 361.039 113.284 360.986 113.192 360.914C113.101 360.842 113.025 360.752 112.968 360.65C112.911 360.548 112.875 360.435 112.862 360.318C112.849 360.201 112.859 360.083 112.891 359.97L122.661 325.83C122.687 325.736 122.691 325.637 122.673 325.542C122.655 325.446 122.614 325.356 122.555 325.278C122.496 325.2 122.42 325.138 122.332 325.095C122.245 325.052 122.148 325.03 122.051 325.03L113.001 325.06C112.621 325.06 112.434 324.873 112.441 324.5L112.471 313.02C112.471 312.653 112.658 312.473 113.031 312.48C117.098 312.527 121.171 312.54 125.251 312.52C130.351 312.49 133.711 310.55 137.281 307.33C137.514 307.123 137.491 306.95 137.211 306.81L122.981 299.79C122.87 299.736 122.771 299.66 122.689 299.567C122.608 299.474 122.545 299.366 122.506 299.248C122.467 299.131 122.452 299.007 122.461 298.884C122.471 298.76 122.505 298.64 122.561 298.53L127.241 289.28C127.393 288.981 127.657 288.755 127.975 288.65C128.294 288.545 128.641 288.57 128.941 288.72L150.181 299.31C150.514 299.477 150.851 299.483 151.191 299.33C153.711 298.14 156.131 297.58 156.151 294.25C156.191 286.083 156.204 277.917 156.191 269.75C156.178 265.99 155.814 263.487 155.101 262.24C150.881 254.91 142.241 254.28 136.701 260.45C130.954 266.837 122.001 277.05 109.841 291.09C105.768 295.79 102.944 301.27 101.371 307.53C100.458 311.15 100.001 317.167 100.001 325.58C100.001 341.64 100.001 357.7 100.001 373.76C100.001 374 100.088 374.203 100.261 374.37C100.348 374.457 100.448 374.527 100.561 374.58C100.734 374.66 100.741 374.757 100.581 374.87ZM287.521 313.03L287.541 324.56C287.548 324.967 287.348 325.17 286.941 325.17L278.021 325.16C277.96 325.16 277.901 325.172 277.845 325.196C277.79 325.22 277.74 325.255 277.699 325.299C277.657 325.343 277.626 325.396 277.605 325.452C277.585 325.509 277.577 325.57 277.581 325.63C277.621 326.203 277.731 326.817 277.911 327.47C280.491 336.83 283.101 346.18 285.741 355.52C286.048 356.613 286.328 357.777 286.581 359.01C286.834 360.29 286.331 361.107 285.071 361.46L277.171 363.68C275.771 364.067 274.881 363.56 274.501 362.16L271.441 350.87C271.421 350.802 271.384 350.74 271.334 350.691C271.283 350.641 271.22 350.606 271.152 350.587C271.083 350.569 271.011 350.569 270.943 350.587C270.874 350.605 270.812 350.641 270.761 350.69L261.441 359.83C261.101 360.17 260.728 360.203 260.321 359.93C257.794 358.237 255.601 356.153 253.741 353.68C252.341 351.83 252.611 350.92 254.131 349.37C258.171 345.257 262.161 341.313 266.101 337.54C266.44 337.216 266.685 336.809 266.812 336.36C266.939 335.911 266.942 335.438 266.821 334.99C265.751 331.01 264.781 323.96 261.221 321.55C257.948 319.33 253.224 316.553 247.051 313.22C246.84 313.108 246.659 312.951 246.521 312.76C245.961 312.02 245.214 311.68 244.281 311.74C243.968 311.76 243.811 311.927 243.811 312.24C243.738 324.167 243.754 336.097 243.861 348.03C243.921 355.8 244.971 361.3 249.761 366.75C254.348 371.963 260.261 374.637 267.501 374.77C278.228 374.957 288.881 374.847 299.461 374.44C299.808 374.427 299.981 374.247 299.981 373.9C300.028 357.093 300.024 340.32 299.971 323.58C299.951 316.5 299.461 311.163 298.501 307.57C297.041 302.097 294.678 297.187 291.411 292.84C285.571 285.08 277.441 276.7 270.571 268.53C266.424 263.59 263.488 260.413 261.761 259C254.271 252.85 243.891 257.69 243.891 267.5C243.904 276.413 243.888 285.33 243.841 294.25C243.831 297.57 246.041 298.11 248.571 299.25C249.078 299.477 249.581 299.463 250.081 299.21L270.921 288.81C271.255 288.643 271.642 288.616 271.996 288.734C272.351 288.852 272.644 289.106 272.811 289.44L277.281 298.32C277.356 298.469 277.401 298.631 277.414 298.798C277.426 298.964 277.405 299.131 277.351 299.288C277.298 299.446 277.214 299.591 277.104 299.715C276.994 299.839 276.86 299.939 276.711 300.01L262.871 306.74C262.823 306.764 262.782 306.799 262.751 306.842C262.719 306.885 262.698 306.935 262.689 306.987C262.681 307.04 262.684 307.094 262.7 307.145C262.716 307.195 262.744 307.242 262.781 307.28C269.341 314.1 278.381 312.54 286.941 312.46C287.321 312.46 287.514 312.65 287.521 313.03ZM299.711 375.323C299.711 375.289 299.648 375.255 299.526 375.222C299.403 375.19 299.224 375.161 298.997 375.135C298.771 375.11 298.502 375.089 298.206 375.075C297.91 375.06 297.593 375.052 297.272 375.05C296.625 375.047 296.004 375.071 295.547 375.117C295.089 375.164 294.831 375.228 294.831 375.297C294.831 375.331 294.894 375.366 295.016 375.398C295.138 375.43 295.318 375.46 295.544 375.485C295.771 375.51 296.04 375.531 296.336 375.545C296.632 375.56 296.949 375.568 297.269 375.57C297.917 375.573 298.537 375.549 298.995 375.503C299.453 375.457 299.71 375.392 299.711 375.323Z" fill="black"/>
<path d="M75.2302 121.71C74.1435 120.91 72.6868 119.443 70.8602 117.31C70.6335 117.05 70.6402 116.797 70.8802 116.55L78.5202 108.87C79.0335 108.35 79.5568 108.343 80.0901 108.85C86.0168 114.577 91.6568 120.207 97.0102 125.74C98.6802 127.47 99.9902 128.81 99.9102 131.34C99.7902 135.227 97.5735 137.29 93.2602 137.53C49.6002 139.94 13.1102 107.05 12.4102 62.97C12.4102 62.63 12.5768 62.46 12.9102 62.46H24.7002C24.9735 62.46 25.1068 62.6 25.1002 62.88C24.1002 91.39 46.9902 117.97 74.4002 123.57C77.5135 124.21 77.7902 123.59 75.2302 121.71Z" fill="black"/>
<path d="M29.8704 204.95L32.2404 202.65C32.4669 202.432 32.7696 202.312 33.0824 202.316C33.3953 202.32 33.6929 202.447 33.9104 202.67L41.1604 210.04C41.3473 210.229 41.4521 210.484 41.4521 210.75C41.4521 211.016 41.3473 211.271 41.1604 211.46C35.2671 217.453 29.3004 223.393 23.2604 229.28C19.0104 233.42 12.4004 230.59 12.4004 224.74C12.4104 181.54 49.9204 146.68 93.3804 150.19C93.7204 150.217 93.8904 150.4 93.8904 150.74L93.9004 161.52C93.9004 161.947 93.6871 162.163 93.2604 162.17C83.9071 162.323 76.6571 163.117 71.5104 164.55C51.9004 170.02 35.1404 184.76 28.6404 204.18C27.9871 206.133 28.3971 206.39 29.8704 204.95Z" fill="black"/>
</svg>
