<svg width="38" height="52" viewBox="0 0 38 52" fill="none" xmlns="http://www.w3.org/2000/svg">
<path d="M29.5103 22.0969C29.4153 19.3196 28.4799 17.3521 26.556 15.9007C24.9988 14.7494 22.8115 14.1152 20.3949 14.1152H20.3252C18.3786 14.1152 16.3384 14.5504 14.8696 15.2756L14.758 15.3298L14.6563 15.2801C13.5076 14.7059 11.9793 14.3102 10.3545 14.165C10.3235 14.1627 10.292 14.1616 10.2599 14.1621L7.64396 14.2028C7.61193 14.2034 7.58043 14.2057 7.54789 14.2091C5.74588 14.4312 4.16079 15.0167 2.95635 15.908C1.03968 17.3532 0.103297 19.3184 0.00826363 22.0981C0.00103286 22.3275 0 22.535 0 22.7373C0.0273736 26.6089 0.831539 28.1943 1.76173 30.0306L1.91512 30.3341C2.92485 32.2484 3.90823 34.4566 3.88189 38.5243C3.88189 44.3317 4.86373 47.3572 5.69113 48.8759C6.59963 50.5297 7.15691 51.2531 8.68467 51.2531C10.1262 51.2531 10.983 49.8887 11.0843 48.5566C11.1457 47.8693 11.1576 47.0791 11.1684 46.2427C11.1958 44.3255 11.2289 41.941 11.8926 39.488C12.1678 38.5034 12.4798 37.3889 13.0836 36.3913C13.4291 35.8199 14.1671 35.2417 14.9057 35.2417C15.4883 35.2417 15.9991 35.6198 16.42 36.363C17.0042 37.3951 17.3471 38.4887 17.6307 39.514C18.2871 41.9217 18.5717 44.724 18.392 47.0062C18.2711 48.5114 18.5309 49.6576 19.1631 50.4138C19.8154 51.1926 20.6061 51.2526 20.8334 51.2526C22.2806 51.2526 22.9257 50.5184 23.8254 48.8719C24.6523 47.3555 25.6372 44.3289 25.6367 38.5159C25.6078 34.1283 26.8101 31.842 27.6164 30.3132L27.7481 30.0526C28.6798 28.214 29.4855 26.6258 29.5196 22.7283C29.5196 22.5875 29.5165 22.444 29.5134 22.2931L29.5103 22.0969ZM1.98485 22.1749C2.05664 20.0837 2.6821 18.7419 4.07196 17.6941C4.99491 17.0102 6.25616 16.5512 7.72195 16.3647L10.2393 16.3257C11.6054 16.4512 12.9131 16.7875 13.8428 17.2509L14.3205 17.4844L17.8063 19.5061C17.954 19.5914 18.112 19.6327 18.2691 19.6327C18.6223 19.6327 18.9648 19.4241 19.1429 19.0573C19.3976 18.5294 19.2147 17.8749 18.7323 17.5951L17.1834 16.6965C18.1621 16.4314 19.2685 16.2782 20.3241 16.2782H20.3939C22.3906 16.2782 24.2324 16.7937 25.4404 17.6867C26.836 18.7408 27.4619 20.0837 27.5337 22.1563L27.5374 22.3383C27.5394 22.4733 27.542 22.6033 27.542 22.7186C27.5203 25.24 27.1572 26.5625 26.6066 27.7958C26.0514 27.7647 25.491 27.5081 25.1455 25.5068C25.0484 24.9495 24.5758 24.5714 24.0604 24.6335C22.3859 24.8432 22.0699 24.1712 21.3762 22.6949C21.1732 22.2614 20.9625 21.8143 20.6945 21.3565C20.4832 20.9982 20.1015 20.8094 19.7168 20.871C19.3325 20.9338 19.0164 21.2367 18.91 21.6465C18.4359 23.4811 18.0785 23.4268 16.5796 23.1945C16.2274 23.1408 15.8292 23.0792 15.4072 23.0493C15.0787 23.0261 14.929 22.9713 14.7967 22.9238C13.9306 22.6096 13.5241 22.9668 12.6332 23.7439C12.0475 24.2543 11.8962 24.9054 11.796 25.3366C11.7748 25.4265 11.7469 25.5435 11.7252 25.6091C11.6829 25.6238 11.5956 25.6458 11.438 25.6554C11.1679 25.6707 11.1199 25.6503 10.7914 25.0783C10.5177 24.603 10.1443 23.9513 9.38554 23.6444C8.15837 23.1454 7.45544 23.5122 6.83463 23.8355C6.60737 23.9536 6.39252 24.0649 6.11568 24.1576L5.85073 24.2475C3.82921 24.9359 2.97185 25.1479 2.0618 23.5014C2.04114 23.4641 2.01532 23.4325 1.99104 23.3986C1.9833 23.1838 1.97813 22.9622 1.97658 22.7271C1.97762 22.5576 1.97865 22.375 1.98485 22.1749ZM23.6596 38.5238C23.6601 44.117 22.6995 46.7146 22.1282 47.7642C21.4103 49.0782 21.274 49.0901 20.8468 49.0907C20.8148 49.0862 20.7063 49.0641 20.6072 48.9352C20.5018 48.799 20.2673 48.3571 20.3608 47.1939C20.5643 44.6149 20.2596 41.5905 19.5226 38.8923C19.2163 37.7789 18.8067 36.4721 18.1012 35.2236C17.3167 33.8406 16.1814 33.0787 14.9057 33.0787C13.3945 33.0787 12.0744 34.1424 11.436 35.1965C10.6736 36.4552 10.3023 37.7851 9.99034 38.8979C9.2559 41.6114 9.2213 44.161 9.19237 46.2093C9.18101 47.0351 9.17017 47.7478 9.11697 48.3627C9.11593 48.3701 9.0395 49.0912 8.68519 49.0912C8.16974 49.0912 8.11499 49.0912 7.38726 47.7659C6.81655 46.7174 5.85847 44.1209 5.85847 38.5323C5.88946 33.9304 4.72324 31.33 3.63759 29.2721L3.49143 28.9816C3.09529 28.201 2.75131 27.5183 2.49048 26.692C3.80493 27.2057 5.21597 26.7298 6.43693 26.315L6.69776 26.2274C7.11198 26.0883 7.42807 25.9233 7.68321 25.791C8.16612 25.5395 8.25289 25.4943 8.70017 25.6741C8.81947 25.7221 8.93775 25.9165 9.118 26.2308C9.47644 26.8559 10.0833 27.9071 11.5424 27.8178C13.2829 27.7189 13.5722 26.4721 13.7116 25.8736C13.7772 25.5893 13.8087 25.4864 13.865 25.4378C13.9828 25.3349 14.1878 25.1563 14.3371 25.0359C14.539 25.1021 14.8355 25.1789 15.2802 25.2106C15.6272 25.2349 15.9712 25.2886 16.3023 25.34C17.4892 25.5231 18.8925 25.7391 19.9203 24.3153C20.538 25.5378 21.4072 26.7751 23.3926 26.8327C23.6617 27.8778 24.2453 29.2823 25.6212 29.7802C24.6141 31.7782 23.6327 34.3182 23.6596 38.5238Z" fill="black"/>
<path d="M36.5742 4.48774H28.8022L17.9627 3.33701C17.5893 1.58716 16.155 0.279297 14.446 0.279297C12.4524 0.279297 10.8301 2.05345 10.8301 4.23454V8.92001H13.4574V10.7727H11.3331V12.9352H17.5562V10.7727H15.4335V8.92001H18.0603V8.0677L28.4577 11.8551C28.4639 11.8573 28.4706 11.8562 28.4768 11.8585C28.5697 11.8901 28.6658 11.9122 28.7681 11.9122H36.5742C37.1201 11.9122 37.5617 11.4278 37.5617 10.8304V5.5684C37.5617 4.97155 37.1201 4.48774 36.5742 4.48774ZM12.8077 6.75757L12.8072 4.2351C12.8072 3.24714 13.5432 2.44287 14.447 2.44287C15.3498 2.44287 16.0848 3.24657 16.0848 4.2351V4.32384L16.0843 4.32892V6.5688L16.0848 6.57219V6.75757H12.8077ZM18.0603 5.51979L27.7806 6.55128V9.32978L18.0603 5.78939V5.51979ZM35.5857 9.74915H29.7571V6.65018H35.5857V9.74915Z" fill="black"/>
<path d="M6.02683 19.6288C6.05421 19.6288 6.08055 19.6277 6.1074 19.6249C6.65126 19.578 7.05722 19.0569 7.01435 18.4617C6.97148 17.866 6.48857 17.4223 5.95143 17.4692L5.90856 17.4726C5.3647 17.5195 4.97992 18.0389 5.02279 18.6341C5.06411 19.2004 5.51551 19.6288 6.02683 19.6288Z" fill="black"/>
<path d="M8.50869 19.3783C8.54072 19.3783 8.57171 19.3766 8.60321 19.3732L8.67397 19.3653C9.21783 19.3088 9.61655 18.7809 9.5649 18.1863C9.51274 17.5911 9.03086 17.1559 8.487 17.2119L8.41573 17.2192C7.8729 17.2769 7.47521 17.8042 7.52583 18.3988C7.57489 18.9589 8.00512 19.3783 8.50869 19.3783Z" fill="black"/>
<path d="M11.1027 19.1168C11.1306 19.1168 11.158 19.1151 11.1848 19.1128C11.7287 19.0642 12.1336 18.5425 12.0897 17.9474C12.0458 17.3522 11.5583 16.9091 11.0253 16.9566L10.9829 16.9606C10.4385 17.0086 10.0548 17.5286 10.0992 18.1237C10.141 18.6895 10.5919 19.1168 11.1027 19.1168Z" fill="black"/>
<path d="M3.79611 22.3583H3.84001C4.38542 22.3583 4.82804 21.8745 4.82856 21.2765C4.82856 20.6797 4.38542 20.1953 3.84001 20.1953H3.79611C3.24967 20.1953 2.80859 20.6797 2.80859 21.2765C2.80859 21.8739 3.25019 22.3583 3.79611 22.3583Z" fill="black"/>
<path d="M6.41016 21.2765C6.41016 21.8745 6.85278 22.3583 7.39871 22.3583H7.49994C8.04534 22.3583 8.48849 21.8745 8.48849 21.2765C8.48849 20.6797 8.04534 20.1953 7.49994 20.1953H7.39871C6.85278 20.1953 6.41016 20.6797 6.41016 21.2765Z" fill="black"/>
<path d="M11.1044 22.3583C11.6503 22.3583 12.0924 21.8745 12.0924 21.2765C12.0924 20.6797 11.6503 20.1953 11.1044 20.1953H11.0631C10.5172 20.1953 10.0957 20.6797 10.0957 21.2765C10.0957 21.8739 10.5585 22.3583 11.1044 22.3583Z" fill="black"/>
<path d="M13.589 19.9384C13.7227 20.0056 13.8622 20.0384 14.0022 20.0384C14.3766 20.0384 14.733 19.8055 14.8993 19.4099C15.1276 18.8679 14.9117 18.2252 14.4164 17.9749L14.3776 17.9556C13.8823 17.7053 13.3142 17.9511 13.0854 18.4937C12.8576 19.0357 13.0926 19.6885 13.589 19.9384Z" fill="black"/>
<path d="M16.2875 21.3273C16.4244 21.3997 16.57 21.4336 16.7121 21.4336C17.0814 21.4336 17.4346 21.2069 17.6051 20.8187C17.8411 20.28 17.633 19.6346 17.1413 19.3763L17.1025 19.3559C16.6083 19.0988 16.0381 19.3362 15.802 19.8748C15.567 20.4134 15.7948 21.0685 16.2875 21.3273Z" fill="black"/>
<path d="M23.5369 19.8739L23.619 19.8959C23.697 19.9174 23.7765 19.9275 23.855 19.9275C24.2992 19.9275 24.7041 19.5969 24.8136 19.1024C24.9427 18.523 24.6184 17.9364 24.0885 17.7951L24.0064 17.773C23.478 17.6295 22.9414 17.9855 22.8117 18.5654C22.6821 19.1459 23.0064 19.732 23.5369 19.8739Z" fill="black"/>
<path d="M20.574 19.0852L20.6556 19.1072C20.7341 19.1287 20.8141 19.1395 20.8916 19.1395C21.3358 19.1395 21.7407 18.8088 21.8502 18.3143C21.9804 17.7349 21.656 17.1488 21.1256 17.007L21.0435 16.9849C20.5151 16.8414 19.9785 17.1974 19.8488 17.7779C19.7192 18.3578 20.0436 18.9433 20.574 19.0852Z" fill="black"/>
<path d="M23.6464 21.3489C23.4058 21.8853 23.6077 22.5336 24.0973 22.7975L24.1732 22.8388C24.3137 22.9134 24.462 22.949 24.6086 22.949C24.9743 22.949 25.3245 22.7269 25.497 22.3454C25.7377 21.809 25.5352 21.1613 25.0456 20.8968L24.9702 20.8561C24.48 20.5933 23.8887 20.8131 23.6464 21.3489Z" fill="black"/>
<path d="M20.9103 19.8744C20.6691 20.4107 20.8716 21.0585 21.3617 21.3224L21.4371 21.3631C21.5776 21.4388 21.7264 21.4744 21.8725 21.4744C22.2382 21.4744 22.5884 21.2518 22.7604 20.8697C23.0016 20.3333 22.7996 19.6856 22.3095 19.4216L22.2341 19.381C21.7439 19.1193 21.152 19.338 20.9103 19.8744Z" fill="black"/>
<path d="M9.33464 11.3623L8.19141 9.65918L6.59848 10.9397L7.74171 12.6428L9.33464 11.3623Z" fill="black"/>
<path d="M6.58138 5.78184L5.39648 3.03516L3.60906 3.95854L4.79396 6.70523L6.58138 5.78184Z" fill="black"/>
<path d="M5.58663 8.86303L2.7793 7.56152L2.00823 9.55322L4.81557 10.8547L5.58663 8.86303Z" fill="black"/>
</svg>
