<svg width="91" height="91" viewBox="0 0 91 91" fill="none" xmlns="http://www.w3.org/2000/svg">
<path d="M87.3102 34.9139C87.3102 46.6459 77.7992 56.1579 66.0692 56.1579C54.3372 56.1579 44.8262 46.6459 44.8262 34.9139C44.8262 23.1809 54.3372 13.6699 66.0692 13.6699C73.7742 13.6699 80.2612 17.3609 83.9872 23.4999C83.9872 23.4999 63.7562 45.7579 64.1072 46.4529C66.0692 50.3119 85.0802 30.2279 85.2822 30.7819C86.1162 33.0629 87.3102 32.3409 87.3102 34.9139Z" fill="#9AE0FF"/>
<path d="M43.276 34.6977C43.276 43.5727 48.428 51.2667 55.898 54.9477C55.852 55.8597 55.826 56.7897 55.832 57.7267C55.837 69.7387 53.526 75.4127 52.153 77.7207C50.215 80.9457 49.598 81.1137 48.092 81.1137C48.063 81.1137 47.307 81.1037 46.671 80.4107C45.874 79.5417 45.555 77.9337 45.742 75.7647C46.201 70.5457 45.52 64.3857 43.878 58.8627C43.15 56.4697 42.271 53.9237 40.757 51.4857C38.788 48.3177 36.329 47.6227 34.614 47.5927C31.611 47.5657 28.918 49.5027 27.619 51.4617C25.994 53.9147 25.178 56.5767 24.521 58.7197L24.476 58.8677C22.846 64.3737 22.76 69.6077 22.694 73.8107C22.667 75.5747 22.642 77.0957 22.509 78.4257C22.507 78.4547 22.282 81.1117 20.265 81.1117C18.59 81.1117 18.167 80.9987 16.202 77.7227C14.825 75.4087 12.514 69.7327 12.527 57.7347C12.591 48.4107 10.117 43.3417 7.58605 38.9657L7.26305 38.3777C5.26505 34.7777 3.68705 31.9377 3.62305 24.6587C3.62305 24.4537 3.62905 24.2367 3.63305 24.0107L3.64105 23.4517C3.81905 18.6957 5.46605 15.4907 8.98405 13.0667C11.29 11.5057 14.415 10.4667 17.924 10.0657L23.824 9.9837C27.121 10.2527 30.316 10.9987 32.598 12.0397L33.733 12.5417L41.752 16.7957C41.901 16.8737 42.063 16.9127 42.22 16.9127C42.574 16.9127 42.921 16.7217 43.102 16.3837C43.358 15.8967 43.172 15.2947 42.688 15.0347L36.482 11.7407C39.384 10.5787 43.206 9.8877 46.92 9.8877C46.983 9.8877 47.042 9.8877 47.101 9.8877C51.911 9.8877 56.379 11.0427 59.368 13.0547C59.38 13.0627 59.388 13.0707 59.398 13.0777C50.086 15.8577 43.276 24.4967 43.276 34.6977Z" fill="#F4F2E8"/>
<path d="M55.0622 29.9244C54.6642 29.6844 54.1472 29.7514 53.8252 30.0914C53.5012 30.4314 53.4572 30.9474 53.7212 31.3364L63.7002 46.0864C63.8752 46.3444 64.1592 46.5064 64.4712 46.5224C64.4902 46.5244 64.5072 46.5244 64.5262 46.5244C64.8182 46.5244 65.0982 46.3974 65.2882 46.1724L90.3092 16.6744C90.6432 16.2794 90.6202 15.6974 90.2592 15.3314C89.8982 14.9624 89.3152 14.9314 88.9182 15.2584L83.9232 19.3474C79.4702 14.1804 72.9332 11.1394 66.0702 11.1394C64.9352 11.1394 63.8202 11.2244 62.7272 11.3804C62.3192 11.0404 61.8902 10.7034 61.4182 10.3774C57.8462 7.97244 52.8422 6.64844 47.3292 6.64844C47.2702 6.64844 47.2182 6.64844 47.1592 6.64844C42.6942 6.64844 38.0242 7.55744 34.6782 9.07944L34.4072 9.19644L34.1622 9.08944C31.5262 7.88744 28.0312 7.05844 24.3182 6.75644C24.2512 6.75044 24.1872 6.75044 24.1092 6.75044L18.1112 6.82944C18.0362 6.82944 17.9622 6.83544 17.8882 6.84244C13.7682 7.30744 10.1412 8.53244 7.37923 10.3994C2.99323 13.4254 0.850234 17.5344 0.634234 23.3884L0.626234 23.8854C0.621234 24.1574 0.615234 24.4174 0.615234 24.6794C0.683234 32.7834 2.52523 36.1044 4.65723 39.9454L5.00523 40.5714C7.32223 44.5814 9.57923 49.2084 9.51923 57.7264C9.50923 69.8724 11.7602 76.2084 13.6562 79.3904C15.7232 82.8414 16.9982 84.3534 20.4942 84.3534C23.8062 84.3534 25.7572 81.4964 25.9652 78.7244C26.1092 77.2834 26.1352 75.6224 26.1622 73.8654C26.2272 69.8574 26.3072 64.8714 27.8052 59.8124L27.8452 59.6774C28.4752 57.6324 29.1842 55.3144 30.5502 53.2514C31.3532 52.0424 33.0432 50.8334 34.7432 50.8334C34.7612 50.8334 34.7792 50.8334 34.7972 50.8334C36.1182 50.8534 37.2762 51.6474 38.2362 53.1964C39.5542 55.3174 40.3512 57.6284 41.0082 59.7944C42.5172 64.8584 43.1652 70.7244 42.7482 75.4834C42.4722 78.6264 43.0662 81.0204 44.5152 82.6004C46.0062 84.2274 47.8102 84.3524 48.3262 84.3524C51.6272 84.3524 53.1012 82.8214 55.1612 79.3814C57.0522 76.2074 59.3062 69.8734 59.3012 57.7134C59.3002 57.5624 59.3052 57.4144 59.3062 57.2634C61.4502 57.9084 63.7202 58.2584 66.0712 58.2584C79.0592 58.2584 89.6272 47.6884 89.6262 34.6974C89.6262 33.0844 89.4622 31.4734 89.1402 29.9134L85.2382 30.7194C85.5052 32.0164 85.6402 33.3554 85.6402 34.6984C85.6402 45.4924 76.8632 54.2734 66.0722 54.2734C55.2782 54.2734 46.4982 45.4924 46.4982 34.6984C46.4982 23.9064 55.2782 15.1284 66.0722 15.1284C71.7402 15.1284 77.1402 17.6274 80.8412 21.8744L64.2312 35.4674L55.0622 29.9244ZM42.5092 34.6964C42.5092 43.6324 47.5112 51.4224 54.8612 55.4154C54.8312 56.1774 54.8122 56.9484 54.8172 57.7284C54.8232 69.4394 52.6242 74.8824 51.3122 77.0804C49.6422 79.8674 49.3372 79.8674 48.3682 79.8674C48.3132 79.8634 48.0392 79.8284 47.7872 79.5294C47.5452 79.2424 47.0022 78.3104 47.2162 75.8714C47.6882 70.5004 46.9922 64.1724 45.3042 58.4984C44.5522 56.0274 43.6372 53.3894 42.0462 50.8264C40.2782 47.9804 37.7282 46.3884 34.8622 46.3474C34.8232 46.3454 34.7832 46.3454 34.7432 46.3454C31.2932 46.3454 28.2832 48.5564 26.8132 50.7714C25.0862 53.3764 24.2412 56.1404 23.5582 58.3594L23.5102 58.5154C21.8332 64.1814 21.7472 69.5094 21.6782 73.7904C21.6532 75.5224 21.6272 77.0224 21.4992 78.3334C21.4972 78.3494 21.3302 79.8664 20.4942 79.8664C19.2972 79.8664 19.1722 79.8664 17.5052 77.0874C16.1932 74.8824 13.9952 69.4374 14.0022 57.7414C14.0732 48.1124 11.3982 42.6694 8.90823 38.3624L8.57923 37.7674C6.59323 34.1904 5.15823 31.6034 5.09923 24.6584C5.09923 24.4444 5.10523 24.2144 5.11023 23.9724L5.11923 23.4984C5.27923 19.1144 6.71723 16.3014 9.90923 14.1004C12.0332 12.6644 14.9252 11.7004 18.2832 11.3084L24.0582 11.2334C27.1822 11.4974 30.1812 12.2004 32.3262 13.1784L33.4302 13.6664L41.4002 17.8934C41.7372 18.0714 42.0942 18.1554 42.4492 18.1554C43.2542 18.1554 44.0292 17.7234 44.4322 16.9644C45.0112 15.8704 44.5952 14.5144 43.5002 13.9334L39.9022 12.0254C42.1572 11.4604 44.7172 11.1344 47.1732 11.1344C47.2212 11.1344 47.2702 11.1344 47.3172 11.1344C50.9112 11.1344 54.2762 11.8064 56.9032 12.9974C48.4522 16.5784 42.5092 24.9574 42.5092 34.6964Z" fill="#3B6A75"/>
<path d="M14.5248 35.6988C13.6028 35.6988 12.7128 35.1828 12.2828 34.2998C9.64883 28.8938 9.78283 21.0708 16.3038 16.6698C17.4438 15.8988 18.9918 16.1988 19.7618 17.3418C20.5328 18.4818 20.2328 20.0298 19.0918 20.7998C15.0138 23.5518 14.9838 28.4668 16.7608 32.1158C17.3648 33.3508 16.8518 34.8448 15.6138 35.4468C15.2628 35.6168 14.8918 35.6988 14.5248 35.6988Z" fill="white"/>
</svg>
