<svg width="47" height="52" viewBox="0 0 47 52" fill="none" xmlns="http://www.w3.org/2000/svg">
<path d="M45.1923 25.7145C45.1923 39.0757 35.3304 49.6232 23.5 49.6232C11.6696 49.6232 1.80769 39.0757 1.80769 25.7145C1.80769 12.3532 11.6696 1.80574 23.5 1.80574C35.3304 1.80574 45.1923 12.3532 45.1923 25.7145Z" fill="white" stroke="black" stroke-width="3.61538"/>
<path d="M31.4029 12.0587C29.5744 10.7153 27.1976 10.6013 25.1997 11.7609C24.6017 12.0996 23.9382 12.2764 23.2649 12.2764C22.5916 12.2764 21.9281 12.0997 21.3301 11.761C19.3322 10.6012 16.9553 10.7154 15.1269 12.0586C13.6778 13.1187 12.5475 14.6241 11.8783 16.3855C11.2092 18.1468 11.0309 20.0854 11.366 21.9573L14.0601 37.0846C14.1982 37.86 14.5694 38.5626 15.1145 39.0805C15.6597 39.5983 16.3475 39.9017 17.0685 39.9423C17.7894 39.9829 18.5021 39.7583 19.0929 39.3045C19.6838 38.8506 20.1189 38.1934 20.329 37.4376L21.9877 31.471C22.071 31.1714 22.2401 30.909 22.4701 30.7225C22.7 30.536 22.9787 30.4353 23.2649 30.4353C23.5511 30.4353 23.8298 30.536 24.0597 30.7225C24.2897 30.909 24.4588 31.1714 24.5421 31.471L26.2008 37.4376C26.4109 38.1934 26.846 38.8506 27.4369 39.3045C28.0277 39.7583 28.7404 39.9829 29.4613 39.9423C30.1823 39.9017 30.8701 39.5983 31.4152 39.0805C31.9604 38.5626 32.3316 37.86 32.4697 37.0846L35.1637 21.9574C35.4988 20.0854 35.3206 18.1469 34.6514 16.3856C33.9823 14.6242 32.852 13.1188 31.4029 12.0587ZM29.2951 38.4843C28.8878 38.4862 28.4909 38.3438 28.1637 38.0784C27.8364 37.813 27.5964 37.4389 27.4795 37.012L25.8208 31.0453C25.6541 30.4457 25.3157 29.9205 24.8555 29.5473C24.3953 29.1741 23.8377 28.9726 23.2649 28.9726C22.6921 28.9726 22.1345 29.1741 21.6743 29.5473C21.2141 29.9205 20.8757 30.4457 20.709 31.0453L19.0503 37.012C18.927 37.4554 18.6717 37.841 18.325 38.1073C17.9783 38.3737 17.5602 38.5054 17.1372 38.4816C16.7141 38.4578 16.3106 38.2798 15.9907 37.9759C15.6708 37.6721 15.453 37.2598 15.372 36.8049L14.7695 33.4217C15.2633 32.6656 17.1564 29.6728 17.2776 28.0555C17.3858 26.6104 17.1873 26.0616 16.8546 25.286C16.5397 24.5776 16.31 23.8275 16.1711 23.0545C15.9702 22.0347 15.5106 21.3074 14.8049 20.893C14.0291 20.4374 13.1572 20.4891 12.5543 20.6159C12.4715 19.1813 12.7344 17.748 13.3165 16.4594C13.8987 15.1708 14.7799 14.072 15.8719 13.273C17.2905 12.2309 19.142 12.1464 20.7038 13.0531C21.4947 13.5038 22.3733 13.7391 23.2649 13.739C24.1566 13.739 25.0351 13.5037 25.826 13.053C27.3878 12.1464 29.2393 12.2309 30.658 13.273C31.8885 14.1729 32.8483 15.4512 33.4166 16.9466C33.9849 18.4421 34.1363 20.0881 33.8519 21.6775L33.7331 22.3446C32.7275 22.3229 30.9146 22.6657 30.1978 25.2443C29.9184 26.2495 29.5259 26.6675 29.1104 27.11C28.2247 28.0532 27.6774 28.8811 28.1207 31.6843C28.6557 35.0669 30.2451 36.1515 31.2123 36.4993L31.1579 36.8049C31.0731 37.2775 30.841 37.7033 30.5013 38.0095C30.1616 38.3158 29.7353 38.4836 29.2951 38.4843Z" fill="#8F1402"/>
</svg>
