<svg width="94" height="94" viewBox="0 0 94 94" fill="none" xmlns="http://www.w3.org/2000/svg">
<path d="M68.8172 33.9727C68.6706 30.0857 67.15 27.8431 64.8186 26.2368C62.4769 24.6574 59.1631 23.9137 55.8773 23.9219C52.8352 23.9147 49.8303 24.55 47.8067 25.4662L47 25.8309L46.187 25.4662C44.5601 24.7266 42.2907 24.1853 39.8921 23.9932L35.7344 24.0459C33.2853 24.3258 30.9507 25.0386 29.1699 26.2379C26.8385 27.8462 25.3169 30.0908 25.1796 33.9737C25.1796 34.2816 25.1641 34.5677 25.1641 34.8352C25.2054 40.3213 26.4635 42.3015 27.9851 45.0709C29.5645 47.7907 31.3722 51.2687 31.3257 57.7196C31.3133 65.2003 32.5808 69.5925 33.9629 71.9167C35.3615 74.2471 35.8346 74.5921 37.3613 74.5921C38.9821 74.5921 39.543 72.9641 39.6091 72.1026C39.921 68.9376 39.3756 63.9866 40.9437 58.7061C41.392 57.2434 41.9322 55.413 43.0334 53.7592C44.5084 51.5321 48.5019 49.7947 50.9593 53.7592C52.0036 55.444 52.609 57.2434 53.0469 58.7061C54.2462 62.7274 54.5923 66.9337 54.3154 70.141C53.925 74.6055 56.5446 74.59 56.6293 74.59C58.0196 74.59 58.625 74.2471 60.0226 71.9146C61.4067 69.5905 62.6742 65.1983 62.6701 57.7175C62.6298 51.2635 64.4323 47.7917 66.0065 45.0699C67.5322 42.2964 68.7832 40.3182 68.8338 34.8342C68.8358 34.5605 68.8193 34.2764 68.8172 33.9727Z" fill="#F4F2E8"/>
<path d="M71.1016 34.2716L71.0913 33.8874C70.9353 29.6791 69.3053 26.5626 66.0917 24.3469C63.5062 22.6032 59.8939 21.6426 55.8312 21.6426C52.689 21.6426 49.3969 22.2737 46.9952 23.3335C45.107 22.4989 42.6547 21.9287 40.0682 21.7221C39.999 21.7149 39.9277 21.7118 39.8585 21.7139L35.7029 21.7676C35.6254 21.7686 35.551 21.7738 35.4735 21.782C32.5017 22.1219 29.8811 23.0082 27.875 24.3613C24.6749 26.5678 23.048 29.6853 22.9003 33.9731C22.9003 34.1126 22.8961 34.2479 22.892 34.377C22.8879 34.533 22.8848 34.6869 22.8848 34.8511C22.9251 40.6357 24.302 43.1221 25.7585 45.7551L26.0136 46.2158C27.5693 48.8943 29.0867 51.9891 29.0464 57.7148C29.034 66.2812 30.6485 70.7984 32.0079 73.0864C33.419 75.4385 34.4829 76.8671 37.3608 76.8671C40.0981 76.8671 41.7054 74.5573 41.8738 72.3261C41.975 71.2973 41.9926 70.1332 42.0122 68.9029C42.0556 66.1728 42.1093 62.7753 43.1216 59.3717L43.1567 59.255C43.571 57.8977 44.042 56.3554 44.9304 55.0198C45.3632 54.3659 46.3145 53.6718 47.2256 53.6718C47.4725 53.6718 48.2234 53.6718 49.0219 54.963C49.9103 56.3957 50.4526 57.9896 50.8637 59.3593C51.8822 62.7712 52.3243 66.7275 52.0465 69.9431C51.8368 72.3303 52.3099 74.1741 53.4534 75.4209C54.6826 76.7648 56.1928 76.8691 56.6277 76.8691H56.6297C59.2462 76.8691 60.4393 75.6502 61.9826 73.0802C63.3358 70.8025 64.9513 66.2874 64.9482 57.7024C64.91 51.9953 66.3603 49.009 68.0027 46.1683L68.2279 45.7613C69.6833 43.1283 71.0582 40.6409 71.1119 34.8336C71.1119 34.6507 71.1068 34.4658 71.1016 34.2716ZM56.6277 74.5925V72.3127C56.6277 72.3127 56.6277 72.3127 56.6297 72.3127L56.6277 74.5925ZM64.2375 43.557L64.032 43.9299C62.246 47.0174 60.3443 50.8869 60.3908 57.7179C60.3928 65.649 58.9343 69.2882 58.0687 70.7426C57.3074 72.0132 57.014 72.2662 56.9933 72.29C56.9861 72.2921 56.9365 72.3044 56.7878 72.3106C56.7062 72.1815 56.4665 71.6754 56.5833 70.3377C56.9148 66.5209 56.4211 62.044 55.227 58.0505C54.7291 56.3926 54.0628 54.4434 52.8925 52.5613C51.5165 50.3405 49.5043 49.1154 47.2246 49.1154C44.888 49.1154 42.4946 50.4448 41.1342 52.5004C39.8791 54.3866 39.2552 56.4308 38.7987 57.9235L38.7584 58.0567C37.5632 62.076 37.5033 65.8205 37.4558 68.8306C37.4382 70.0144 37.4217 71.038 37.3339 71.9315C37.3246 72.0524 37.2761 72.2084 37.2265 72.3106C37.0953 72.3086 37.0168 72.3024 36.9713 72.2962C36.8298 72.1629 36.5334 71.7756 35.9167 70.7509C35.0459 69.2861 33.5873 65.647 33.5977 57.7334C33.6462 50.8714 31.7414 47.0081 29.9771 43.9722L29.7416 43.5477C28.374 41.0748 27.4701 39.4416 27.4371 34.8336L27.4443 34.4906C27.4474 34.3243 27.4525 34.1508 27.4505 34.0516C27.5734 30.5592 29.0402 29.0892 30.4399 28.1244C31.8003 27.2061 33.6782 26.5853 35.8785 26.3209L39.8099 26.2703C41.8748 26.4448 43.8499 26.9045 45.2547 27.5439L46.0005 27.8765L51.4928 30.7916C51.8337 30.9723 52.1993 31.0591 52.5598 31.0591C53.3759 31.0591 54.1651 30.6191 54.5731 29.8474C55.1619 28.737 54.7404 27.357 53.63 26.7682L52.9513 26.4077C53.9182 26.2713 54.9233 26.1969 55.917 26.1969C58.9498 26.1969 61.7295 26.8993 63.5238 28.111C65.5597 29.5138 66.4305 31.2368 66.5359 34.0082L66.5452 34.4018C66.5493 34.5505 66.5545 34.6921 66.5545 34.8119C66.5111 39.4458 65.6062 41.081 64.2375 43.557Z" fill="black"/>
<path d="M46.4671 1.19141C45.209 1.19141 44.1895 2.21094 44.1895 3.47013V10.704C44.1895 11.9622 45.209 12.9827 46.4671 12.9827C47.7253 12.9827 48.7448 11.9622 48.7448 10.704V3.47013C48.7448 2.20991 47.7263 1.19141 46.4671 1.19141Z" fill="black"/>
<path d="M46.4671 81.0215C45.209 81.0215 44.1895 82.0421 44.1895 83.2992V90.5341C44.1895 91.7933 45.209 92.8118 46.4671 92.8118C47.7253 92.8118 48.7448 91.7912 48.7448 90.5341V83.2992C48.7448 82.0421 47.7263 81.0215 46.4671 81.0215Z" fill="black"/>
<path d="M90.5321 45.2529H83.2972C82.0391 45.2529 81.0195 46.2725 81.0195 47.5306C81.0195 48.7898 82.0391 49.8104 83.2972 49.8104H90.5321C91.7903 49.8104 92.8098 48.7898 92.8098 47.5306C92.8098 46.2725 91.7892 45.2529 90.5321 45.2529Z" fill="black"/>
<path d="M12.9757 47.5306C12.9757 46.2735 11.9572 45.2529 10.698 45.2529H3.46519C2.20704 45.2529 1.1875 46.2725 1.1875 47.5306C1.1875 48.7898 2.20704 49.8104 3.46519 49.8104H10.698C11.9562 49.8104 12.9757 48.7888 12.9757 47.5306Z" fill="black"/>
<path d="M63.3784 17.4196C63.7358 17.6221 64.1232 17.7182 64.5043 17.7182C65.2966 17.7182 66.0662 17.306 66.4856 16.5685L70.0689 10.2818C70.6928 9.18793 70.3127 7.79756 69.2188 7.17468C68.1239 6.55077 66.7335 6.93297 66.1116 8.02481L62.5272 14.3115C61.9054 15.4054 62.2855 16.7957 63.3784 17.4196Z" fill="black"/>
<path d="M29.7026 76.5379C28.6118 75.9129 27.2183 76.2941 26.5965 77.389L23.0121 83.6757C22.3892 84.7675 22.7704 86.1589 23.8632 86.7828C24.2196 86.9863 24.607 87.0813 24.9892 87.0813C25.7815 87.0813 26.551 86.6682 26.9694 85.9317L30.5538 79.645C31.1766 78.5511 30.7955 77.1607 29.7026 76.5379Z" fill="black"/>
<path d="M85.6925 67.2695L79.4038 63.6903C78.312 63.0664 76.9206 63.4486 76.2977 64.5414C75.6738 65.6374 76.056 67.0268 77.1489 67.6507L83.4376 71.2299C83.795 71.4313 84.1813 71.5284 84.5635 71.5284C85.3558 71.5284 86.1253 71.1152 86.5447 70.3767C87.1686 69.2828 86.7875 67.8934 85.6925 67.2695Z" fill="black"/>
<path d="M7.78807 28.136L14.0726 31.7152C14.429 31.9166 14.8164 32.0148 15.1986 32.0148C15.9909 32.0148 16.7604 31.6005 17.1798 30.863C17.8016 29.7681 17.4195 28.3787 16.3276 27.7558L10.043 24.1766C8.94912 23.5527 7.55978 23.9349 6.93587 25.0278C6.31299 26.1217 6.69416 27.512 7.78807 28.136Z" fill="black"/>
<path d="M77.8386 30.7612C78.2332 30.7612 78.633 30.6579 78.9986 30.4399L85.2243 26.7501C86.3048 26.1087 86.6622 24.7111 86.0207 23.6296C85.3793 22.5491 83.9837 22.1886 82.9002 22.8321L76.6745 26.5219C75.5929 27.1633 75.2355 28.5609 75.878 29.6435C76.3036 30.3604 77.0608 30.7612 77.8386 30.7612Z" fill="black"/>
<path d="M14.2371 63.5474L8.01246 67.2351C6.92991 67.8745 6.57147 69.2731 7.21294 70.3546C7.63852 71.0746 8.39672 71.4723 9.17454 71.4723C9.56914 71.4723 9.9689 71.369 10.3335 71.1531L16.5572 67.4675C17.6407 66.8281 17.9981 65.4294 17.3567 64.3469C16.7152 63.2643 15.3186 62.9049 14.2371 63.5474Z" fill="black"/>
<path d="M66.9042 77.7805C66.2627 76.699 64.8672 76.3416 63.7836 76.9821C62.7031 77.6235 62.3447 79.0222 62.9872 80.1047L66.6738 86.3263C67.0994 87.0421 67.8566 87.4419 68.6344 87.4419C69.029 87.4419 69.4288 87.3406 69.7944 87.1227C70.876 86.4812 71.2334 85.0846 70.5909 84.0021L66.9042 77.7805Z" fill="black"/>
<path d="M27.9177 18.7774C28.3133 18.7774 28.7141 18.6741 29.0767 18.4572C30.1582 17.8157 30.5166 16.4181 29.8741 15.3366L26.1864 9.11709C25.546 8.03557 24.1474 7.6761 23.0658 8.31964C21.9843 8.96111 21.6259 10.3597 22.2684 11.4402L25.9561 17.6597C26.3827 18.3797 27.1399 18.7774 27.9177 18.7774Z" fill="black"/>
<path d="M34.2475 41.065C33.5792 41.065 32.9232 40.7324 32.5379 40.1261C31.4492 38.4155 31.3645 36.0737 32.3076 33.8632C33.3364 31.4553 35.2991 29.7489 37.5582 29.2944C38.6593 29.0795 39.7243 29.785 39.9443 30.881C40.1643 31.979 39.4526 33.0461 38.3577 33.2661C37.4332 33.451 36.5221 34.3094 36.0335 35.4529C35.6255 36.4063 35.5955 37.3887 35.956 37.9548C36.5562 38.8989 36.2783 40.1498 35.3321 40.75C34.9954 40.9628 34.6194 41.065 34.2475 41.065Z" fill="white"/>
</svg>
