<svg width="91" height="91" viewBox="0 0 91 91" fill="none" xmlns="http://www.w3.org/2000/svg">
<path d="M44.1344 46.1219C38.7144 39.8339 39.4154 30.3069 45.6974 24.8889C48.4304 22.5309 51.9264 21.2279 55.5324 21.2279C59.0554 21.2279 62.4254 22.4769 65.1024 24.6849C65.1044 24.6399 65.1044 24.5999 65.1064 24.5539C65.1064 24.2819 65.0984 23.9859 65.0904 23.6819L65.0834 23.3379C64.9064 18.5549 63.2444 15.3189 59.6904 12.8679C56.6814 10.8379 52.1694 9.67285 47.3144 9.67285C47.2724 9.67285 47.2304 9.67285 47.1904 9.67285C43.3904 9.67285 39.4854 10.3829 36.5454 11.5809L42.8844 14.9389C43.3454 15.1849 43.5234 15.7599 43.2784 16.2219C43.1064 16.5439 42.7794 16.7279 42.4384 16.7279C42.2874 16.7279 42.1364 16.6919 41.9944 16.6179L33.9314 12.3449L32.7904 11.8369C30.4834 10.7879 27.2694 10.0379 23.9624 9.77385L18.0724 9.85185C14.4494 10.2709 11.3184 11.3159 9.01242 12.8779C5.46742 15.3229 3.80242 18.5559 3.62142 23.3519L3.61242 23.9449C3.60942 24.1609 3.60742 24.3689 3.60742 24.5629C3.66542 31.8759 5.25142 34.7359 7.25442 38.3559L7.59142 38.9678C10.0194 43.1589 12.6144 48.4329 12.5484 57.7889C12.5374 69.8579 14.8624 75.5728 16.2484 77.9048C18.2434 81.2148 18.6734 81.3309 20.3774 81.3309C22.4494 81.3309 22.6794 78.6169 22.6814 78.5909C22.8124 77.2529 22.8364 75.7249 22.8654 73.9559C22.9344 69.7309 23.0164 64.4729 24.6534 58.9468L24.7084 58.7719C25.3674 56.6299 26.1874 53.9639 27.8094 51.5179C29.0904 49.5859 31.7064 47.6558 34.6874 47.6558C34.7194 47.6558 34.7514 47.6559 34.7894 47.6579C36.5014 47.6819 38.9554 48.3769 40.9214 51.5448C42.4274 53.9729 43.3174 56.5329 44.0564 58.9389C45.7024 64.4809 46.3834 70.6598 45.9264 75.9028C45.7344 78.0968 46.0604 79.7279 46.8694 80.6089C47.5224 81.3229 48.3024 81.3318 48.3344 81.3318C49.8714 81.3318 50.4994 81.1659 52.4524 77.9019C53.8424 75.5789 56.1664 69.8689 56.1594 57.7839C56.1394 55.5269 56.2814 53.3669 56.5744 51.3769C56.5784 51.3479 56.5954 51.3259 56.6004 51.2989C56.2484 51.3228 55.8954 51.3459 55.5374 51.3459C51.1554 51.3449 46.9974 49.4399 44.1344 46.1219Z" fill="#F4F2E8"/>
<path d="M67.8242 59.191L82.8202 77.181L86.1572 74.299C88.7782 72.032 89.0622 68.055 86.8122 65.445L75.9172 52.21L67.8242 59.191Z" fill="#68C1E0"/>
<path d="M66.2205 27.0687C71.3075 32.9667 70.6575 41.8847 64.7495 46.9677C58.8535 52.0577 49.9465 51.4007 44.8535 45.4987C39.7655 39.5997 40.4195 30.6927 46.3195 25.6037C52.2255 20.5107 61.1285 21.1667 66.2205 27.0687Z" fill="#9AE0FF"/>
<path d="M88.4623 64.085L77.5673 50.852C77.2023 50.409 76.6713 50.131 76.0993 50.082C75.5193 50.028 74.9583 50.217 74.5213 50.592L72.1493 52.638L67.6343 47.105C70.0223 44.448 71.4703 41.106 71.7383 37.483C72.0443 33.327 70.7633 29.306 68.1573 26.083C68.1763 25.598 68.1893 25.097 68.1933 24.559C68.1933 24.245 68.1883 23.917 68.1793 23.577L68.1723 23.238C67.9573 17.449 65.8203 13.345 61.4293 10.31C57.8623 7.90796 52.8513 6.58496 47.3253 6.58496C47.3043 6.58496 47.2813 6.58496 47.2603 6.58496C42.7593 6.59196 38.0483 7.48496 34.6723 9.01496L34.3613 9.15396L34.0663 9.02296C31.4103 7.81596 27.9123 6.98996 24.2123 6.69496C24.1483 6.68896 24.0793 6.68696 24.0143 6.68896L17.9893 6.76696C17.9183 6.76696 17.8463 6.77296 17.7763 6.78096C13.6413 7.25096 10.0143 8.47396 7.27134 10.331C2.89834 13.349 0.759344 17.451 0.543344 23.299L0.534344 23.856C0.530344 24.104 0.527344 24.341 0.527344 24.58C0.593344 32.68 2.43034 35.999 4.55934 39.844L4.91834 40.494C7.25234 44.529 9.52834 49.183 9.46934 57.779C9.45834 69.953 11.7103 76.3 13.6093 79.491C15.7163 82.99 16.9213 84.416 20.3823 84.416C23.6403 84.416 25.5543 81.602 25.7583 78.869C25.9003 77.425 25.9273 75.761 25.9543 74.001C26.0203 69.966 26.1003 64.945 27.6113 59.844L27.6663 59.667C28.2943 57.617 29.0083 55.294 30.3843 53.224C31.2083 51.986 32.9453 50.744 34.6933 50.744C34.7113 50.744 34.7293 50.744 34.7483 50.744C36.1183 50.764 37.3153 51.582 38.3023 53.169C39.6253 55.306 40.4323 57.64 41.1003 59.827C42.6183 64.924 43.2733 70.836 42.8583 75.635C42.5833 78.759 43.1693 81.133 44.5983 82.696C46.0613 84.294 47.8303 84.418 48.3403 84.418C51.6053 84.418 53.0673 82.897 55.1123 79.484C57.0053 76.307 59.2583 69.965 59.2523 57.765C59.2363 55.721 59.3603 53.786 59.6113 52.005C61.3043 51.566 62.9153 50.848 64.3863 49.888L68.9103 55.432L66.4263 57.575C65.5433 58.338 65.4353 59.667 66.1813 60.562L81.1773 78.55C81.5453 78.991 82.0733 79.264 82.6463 79.311C82.7043 79.316 82.7613 79.318 82.8213 79.318C83.3313 79.318 83.8283 79.134 84.2173 78.799L87.5543 75.915C91.0643 72.882 91.4573 67.559 88.4623 64.085ZM55.5443 48.257C52.0573 48.257 48.7503 46.744 46.4733 44.104C42.1613 39.105 42.7203 31.534 47.7143 27.224C49.8913 25.347 52.6683 24.313 55.5333 24.313C58.8143 24.313 61.9253 25.667 64.1783 28.023C64.3193 28.245 64.4963 28.441 64.7073 28.599C66.7213 31.001 67.7073 34.033 67.4773 37.167C67.2413 40.358 65.7793 43.265 63.3543 45.351C61.1823 47.224 58.4083 48.257 55.5443 48.257ZM54.9793 57.782C54.9863 69.583 52.7653 75.072 51.4433 77.289C49.7353 80.142 49.4133 80.142 48.3743 80.142C48.3143 80.138 48.0033 80.1 47.7213 79.77C47.1823 79.14 46.9623 77.767 47.1173 76.003C47.5853 70.615 46.8853 64.274 45.1963 58.589C44.4373 56.111 43.5193 53.467 41.9373 50.913C40.1813 48.087 37.6513 46.509 34.8133 46.467C31.3783 46.41 28.3003 48.637 26.8283 50.859C25.1113 53.443 24.2643 56.197 23.5853 58.409L23.5233 58.606C21.8403 64.289 21.7543 69.634 21.6863 73.93C21.6593 75.672 21.6343 77.178 21.5053 78.498C21.5033 78.515 21.3393 80.14 20.3853 80.14C19.1523 80.14 18.9923 80.14 17.2783 77.293C15.9543 75.067 13.7353 69.572 13.7443 57.793C13.8113 48.139 11.1343 42.695 8.64134 38.391L8.29834 37.772C6.30134 34.165 4.85834 31.557 4.80134 24.559C4.80134 24.363 4.80434 24.152 4.80934 23.929L4.81634 23.393C4.98334 18.95 6.44334 16.095 9.68434 13.857C11.8193 12.413 14.7473 11.437 18.1533 11.038L23.9703 10.963C27.1083 11.222 30.1403 11.932 32.3133 12.92L33.3863 13.397L41.4403 17.667C41.7593 17.837 42.1013 17.917 42.4393 17.917C43.2063 17.917 43.9473 17.503 44.3293 16.779C44.8823 15.736 44.4863 14.443 43.4423 13.89L39.5643 11.834C41.9143 11.217 44.6133 10.856 47.2013 10.856C47.2393 10.856 47.2763 10.856 47.3143 10.856C51.9423 10.856 56.2113 11.947 59.0203 13.838C62.0063 15.902 63.4693 18.496 63.8203 22.311C61.3393 20.84 58.4843 20.04 55.5333 20.04C51.6423 20.04 47.8743 21.441 44.9233 23.989C38.1453 29.836 37.3873 40.111 43.2353 46.894C46.2593 50.398 50.6233 52.429 55.2413 52.515C55.0553 54.187 54.9643 55.952 54.9793 57.782ZM84.7603 72.682L83.0703 74.142L70.8093 59.437L75.6593 55.256L85.1953 66.84C86.6843 68.566 86.4883 71.187 84.7603 72.682Z" fill="#3B6A75"/>
<path d="M14.4348 35.7587C13.5628 35.7587 12.7438 35.2217 12.4258 34.3537C7.50282 20.8507 17.4688 16.6067 17.5718 16.5647C18.6648 16.1217 19.9118 16.6447 20.3578 17.7377C20.7988 18.8247 20.2848 20.0637 19.2038 20.5147C18.5468 20.8007 13.0308 23.5257 16.4418 32.8897C16.8448 33.9987 16.2758 35.2257 15.1678 35.6297C14.9238 35.7167 14.6768 35.7587 14.4348 35.7587Z" fill="white"/>
<path d="M49.3366 42.4992C48.6006 42.4992 47.8806 42.1172 47.4846 41.4312C43.9016 35.2212 48.0216 29.9502 50.7016 28.0312C51.6616 27.3432 52.9956 27.5642 53.6836 28.5232C54.3686 29.4792 54.1516 30.8102 53.1996 31.4992C52.7246 31.8472 48.6976 34.9832 51.1856 39.2972C51.7756 40.3182 51.4226 41.6262 50.4026 42.2152C50.0666 42.4062 49.6986 42.4992 49.3366 42.4992Z" fill="white"/>
</svg>
